<?xml version="1.0" encoding="utf-8"?>
<!-- Generator: Adobe Illustrator 27.1.1, SVG Export Plug-In . SVG Version: 6.00 Build 0)  -->
<svg version="1.1" width="20.8" height="20.8" id="Layer_1" xmlns="http://www.w3.org/2000/svg" xmlns:xlink="http://www.w3.org/1999/xlink" x="0px" y="0px"
	 viewBox="0 0 20.8 20.8" style="enable-background:new 0 0 20.8 20.8;" xml:space="preserve">
<path fill="#0385c5" d="M16.4,3.4c0.6,0,1,0.4,1,1v12c0,0.6-0.4,1-1,1h-12c-0.6,0-1-0.4-1-1v-12c0-0.6,0.4-1,1-1H16.4z M4.4,2.4c-1.1,0-2,0.9-2,2
	v12c0,1.1,0.9,2,2,2h12c1.1,0,2-0.9,2-2v-12c0-1.1-0.9-2-2-2H4.4z"/>
<g>
	<path fill="#5ec3f6" d="M16.4,0c0.1,0,0.2,0.1,0.4,0.2c0.2,0.1,0.3,0.3,0.5,0.6c0.3-0.5,0.5-0.7,0.6-0.7c0.1,0,0.3,0.1,0.6,0.4
		c0.1,0.2,0.2,0.3,0.2,0.5c0,0.2-0.1,0.5-0.3,0.7c-1.9,2.1-3.7,4.3-5.5,6.8c0.7,1.8,1.8,3.8,3.1,6c0.1,0.2,0.2,0.3,0.2,0.4
		c0,0.2-0.1,0.4-0.4,0.7l-0.4,0.3c0,0.1,0.1,0.3,0.1,0.4c0,0.3-0.1,0.5-0.3,0.6c-0.2,0.2-0.4,0.2-0.5,0.2c-0.2,0-0.5-0.1-0.6-0.4
		c-1.1-1.4-2.2-3.1-3.4-5c-1.6,2-3.4,4.8-5.4,8.2c-0.3,0.5-0.8,0.7-1.5,0.7c-0.3,0-0.5-0.2-0.6-0.6C2.5,20,2.2,19.6,2.2,19
		c0-0.7,0.1-1.2,0.2-1.5c0-0.1,0.2-0.4,0.4-0.8c1.9-2.9,3.8-5.6,5.9-8C7.6,6.1,6.9,4,6.5,2.6C6.4,2.3,6.4,2.1,6.4,2
		c0-0.1,0.1-0.3,0.3-0.5S7,1.1,7.1,1.1c0.1,0,0.3,0.1,0.5,0.4c0.1-0.2,0.2-0.3,0.3-0.4c0.2-0.1,0.4-0.2,0.6-0.2
		c0.3,0,0.5,0.1,0.6,0.4c0.5,1.5,1.1,3,2,4.4C12.4,4,14,2.2,15.8,0.3C16.1,0.1,16.2,0,16.4,0z"/>
</g>
</svg>
