<?xml version="1.0" encoding="utf-8"?>
<!-- Generator: Adobe Illustrator 27.1.1, SVG Export Plug-In . SVG Version: 6.00 Build 0)  -->
<svg version="1.1" width="20.8" height="20.8" id="Layer_1" xmlns="http://www.w3.org/2000/svg" xmlns:xlink="http://www.w3.org/1999/xlink" x="0px" y="0px"
	 viewBox="0 0 20.8 20.8" style="enable-background:new 0 0 20.8 20.8;" xml:space="preserve">
<path fill="#0385c5" d="M16.4,3.4c0.6,0,1,0.4,1,1v12c0,0.6-0.4,1-1,1h-12c-0.6,0-1-0.4-1-1v-12c0-0.6,0.4-1,1-1C4.4,3.4,16.4,3.4,16.4,3.4z
	 M4.4,2.4c-1.1,0-2,0.9-2,2v12c0,1.1,0.9,2,2,2h12c1.1,0,2-0.9,2-2v-12c0-1.1-0.9-2-2-2C16.4,2.4,4.4,2.4,4.4,2.4z"/>
</svg>
