<svg height="512pt" viewBox="-11 0 512 512" width="512pt" xmlns="http://www.w3.org/2000/svg">
    <path
        d="m490 267c0 135.308594-109.691406 245-245 245s-245-109.691406-245-245 109.691406-245 245-245 245 109.691406 245 245zm0 0"
        fill="#91e0e8" />
    <path
        d="m490 267c0 135.308594-109.691406 245-245 245s-245-109.691406-245-245 109.691406-245 245-245 245 109.691406 245 245zm0 0"
        fill="hsl(202, 80%, 60%)" />
    <path
        d="m366.28125 35.136719h-64.132812v36.894531c0 2.25-1.832032 4.082031-4.085938 4.082031h-146.460938c-2.25 0-4.085937-1.832031-4.085937-4.082031v-36.894531h-64.128906c-9.015625 0-16.386719 7.375-16.386719 16.382812v383.816407c18.519531 19.574218 40.234375 36.089843 64.308594 48.722656h227.382812c8.226563-4.316406 16.179688-9.078125 23.824219-14.269532.089844-.691406.152344-1.394531.152344-2.113281v-416.15625c0-9.007812-7.375-16.382812-16.386719-16.382812zm0 0"
        fill="#ac6f46" />
    <path
        d="m262.464844 24c-6.605469-14.171875-20.964844-24-37.628906-24-16.667969 0-31.03125 9.828125-37.632813 24zm0 0"
        fill="#bc4853" />
    <path
        d="m344.4375 62.445312h-42.289062v9.582032c0 2.253906-1.832032 4.085937-4.085938 4.085937h-146.460938c-2.25 0-4.085937-1.832031-4.085937-4.085937v-9.582032h-42.285156c-6.007813 0-10.925781 4.914063-10.925781 10.921876v372.464843c0 6.007813 4.917968 10.921875 10.925781 10.921875h239.207031c6.007812 0 10.921875-4.914062 10.921875-10.921875v-372.464843c0-6.007813-4.914063-10.921876-10.921875-10.921876zm0 0"
        fill="#fff" />
    <path
        d="m303.148438 72.027344c0 2.796875-2.289063 5.085937-5.085938 5.085937h-146.460938c-2.796874 0-5.085937-2.289062-5.085937-5.085937v-43.941406c0-2.796876 2.289063-5.085938 5.085937-5.085938h146.460938c2.796875 0 5.085938 2.289062 5.085938 5.085938zm0 0"
        fill="#db5f67" />
    <path
        d="m256.925781 56.4375h-64.183593c-4.523438 0-8.191407-3.667969-8.191407-8.191406 0-4.523438 3.667969-8.191406 8.191407-8.191406h64.183593c4.523438 0 8.191407 3.667968 8.191407 8.191406 0 4.523437-3.667969 8.191406-8.191407 8.191406zm0 0"
        fill="#bc4853" />
    <path
        d="m319.523438 186.964844h-135.402344c-4.523438 0-8.191406-3.667969-8.191406-8.195313 0-4.523437 3.667968-8.191406 8.191406-8.191406h135.402344c4.523437 0 8.191406 3.667969 8.191406 8.191406 0 4.527344-3.667969 8.195313-8.191406 8.195313zm0 0"
        fill="#ebaa48" />
    <path
        d="m148.722656 188.097656c-1.226562 1.226563-2.859375 1.902344-4.59375 1.902344-1.738281 0-3.371094-.675781-4.597656-1.902344l-11.476562-11.476562c-.085938.707031-.148438 1.417968-.148438 2.148437 0 9.351563 7.578125 16.929688 16.929688 16.929688 9.351562 0 16.929687-7.578125 16.929687-16.929688 0-1.15625-.117187-2.285156-.335937-3.375zm0 0"
        fill="#eec97a" />
    <path
        d="m136.074219 166.253906 8.050781 8.054688 9.804688-9.800782c-2.628907-1.679687-5.746094-2.667968-9.09375-2.667968-3.800782 0-7.296876 1.269531-10.121094 3.382812.492187.28125.949218.621094 1.359375 1.03125zm0 0"
        fill="#eec97a" />
    <path
        d="m319.523438 239.664062h-135.402344c-4.523438 0-8.191406-3.667968-8.191406-8.191406 0-4.523437 3.667968-8.191406 8.191406-8.191406h135.402344c4.523437 0 8.191406 3.667969 8.191406 8.191406 0 4.523438-3.667969 8.191406-8.191406 8.191406zm0 0"
        fill="#85a0dd" />
    <path
        d="m161.765625 231.472656c0 9.351563-7.582031 16.929688-16.929687 16.929688-9.351563 0-16.929688-7.578125-16.929688-16.929688 0-9.351562 7.578125-16.929687 16.929688-16.929687 9.347656 0 16.929687 7.578125 16.929687 16.929687zm0 0"
        fill="#aec1ed" />
    <path
        d="m319.523438 292.367188h-135.402344c-4.523438 0-8.191406-3.667969-8.191406-8.191407 0-4.523437 3.667968-8.191406 8.191406-8.191406h135.402344c4.523437 0 8.191406 3.667969 8.191406 8.191406 0 4.523438-3.667969 8.191407-8.191406 8.191407zm0 0"
        fill="#85a0dd" />
    <path
        d="m161.765625 284.175781c0 9.347657-7.582031 16.929688-16.929687 16.929688-9.351563 0-16.929688-7.582031-16.929688-16.929688 0-9.351562 7.578125-16.929687 16.929688-16.929687 9.347656 0 16.929687 7.578125 16.929687 16.929687zm0 0"
        fill="#aec1ed" />
    <path
        d="m319.523438 345.070312h-135.402344c-4.523438 0-8.191406-3.667968-8.191406-8.191406 0-4.527344 3.667968-8.195312 8.191406-8.195312h135.402344c4.523437 0 8.191406 3.667968 8.191406 8.195312 0 4.523438-3.667969 8.191406-8.191406 8.191406zm0 0"
        fill="#2bb381" />
    <path
        d="m161.765625 336.878906c0 9.347656-7.582031 16.929688-16.929687 16.929688-9.351563 0-16.929688-7.582032-16.929688-16.929688 0-9.351562 7.578125-16.933594 16.929688-16.933594 9.347656 0 16.929687 7.582032 16.929687 16.933594zm0 0"
        fill="#60d882" />
    <path
        d="m319.523438 397.773438h-135.402344c-4.523438 0-8.191406-3.667969-8.191406-8.195313 0-4.523437 3.667968-8.1875 8.191406-8.1875h135.402344c4.523437 0 8.191406 3.664063 8.191406 8.1875 0 4.527344-3.667969 8.195313-8.191406 8.195313zm0 0"
        fill="#2bb381" />
    <path
        d="m161.765625 389.578125c0 9.351563-7.582031 16.929687-16.929687 16.929687-9.351563 0-16.929688-7.578124-16.929688-16.929687 0-9.347656 7.578125-16.929687 16.929688-16.929687 9.347656 0 16.929687 7.582031 16.929687 16.929687zm0 0"
        fill="#60d882" />
    <path
        d="m144.125 191c-1.917969 0-3.839844-.730469-5.300781-2.195312l-12.648438-12.648438c-2.929687-2.929688-2.929687-7.679688 0-10.609375 2.925781-2.925781 7.675781-2.925781 10.605469 0l7.347656 7.347656 17.953125-17.953125c2.929688-2.929687 7.679688-2.929687 10.609375 0 2.925782 2.929688 2.925782 7.675782 0 10.605469l-23.261718 23.257813c-1.464844 1.464843-3.382813 2.195312-5.304688 2.195312zm0 0"
        fill="#293d7c" />
    <path
        d="m209.859375 149.027344c-.5 0-1-.15625-1.417969-.457032-.742187-.542968-1.113281-1.457031-.960937-2.359374l2.839843-16.554688-12.027343-11.722656c-.65625-.640625-.894531-1.601563-.609375-2.472656.285156-.875 1.039062-1.511719 1.949218-1.640626l16.621094-2.417968 7.429688-15.058594c.410156-.824219 1.246094-1.347656 2.164062-1.347656.917969 0 1.757813.523437 2.164063 1.347656l7.429687 15.058594 16.621094 2.417968c.910156.128907 1.664062.765626 1.949219 1.640626.285156.871093.046875 1.832031-.609375 2.472656l-12.027344 11.722656 2.839844 16.554688c.152344.902343-.21875 1.816406-.960938 2.359374-.417968.300782-.917968.457032-1.417968.457032-.382813 0-.769532-.089844-1.121094-.273438l-14.867188-7.816406-14.867187 7.816406c-.351563.183594-.738281.273438-1.121094.273438zm0 0"
        fill="#eec97a" />
    <path
        d="m452.5 82.265625h-14.714844c.101563.601563.164063 1.21875.164063 1.847656v16.628907h5.3125v78.21875c0 5.101562 4.136719 9.238281 9.238281 9.238281s9.238281-4.136719 9.238281-9.238281v-87.457032c0-5.101562-4.136719-9.238281-9.238281-9.238281zm0 0"
        fill="#decfa7" />
    <path
        d="m425.023438 381.449219h-21.417969c-.128907 0-.253907-.011719-.378907-.019531v19.25c0 6.777343 4.988282 12.320312 11.085938 12.320312s11.085938-5.542969 11.085938-12.320312v-19.25c-.125.007812-.246094.019531-.375.019531zm0 0"
        fill="#293d7c" />
    <path
        d="m435.253906 299.90625h-41.878906c-.164062 0-.324219-.019531-.476562-.046875v71.882813c0 5.890624 4.816406 10.707031 10.707031 10.707031h21.417969c5.890624 0 10.710937-4.816407 10.710937-10.707031v-71.886719c-.15625.03125-.316406.050781-.480469.050781zm0 0"
        fill="#decfa7" />
    <path
        d="m413.164062 371.742188v-71.835938h-19.789062c-.164062 0-.324219-.019531-.476562-.046875v71.882813c0 5.890624 4.816406 10.707031 10.707031 10.707031h20.265625c-5.890625 0-10.707032-4.816407-10.707032-10.707031zm0 0"
        fill="#b6a88a" />
    <path
        d="m393.375 300.90625c-2.042969 0-3.695312-1.652344-3.695312-3.691406v-213.101563c0-6.792969 5.523437-12.316406 12.316406-12.316406h24.636718c6.792969 0 12.316407 5.523437 12.316407 12.316406v213.101563c0 2.039062-1.652344 3.691406-3.695313 3.691406zm0 0"
        fill="#445ea0" />
    <path
        d="m425.398438 137.816406c0 6.777344-4.988282 12.320313-11.085938 12.320313s-11.085938-5.542969-11.085938-12.320313v-22.910156c0-6.773438 4.988282-12.316406 11.085938-12.316406s11.085938 5.542968 11.085938 12.316406zm0 0"
        fill="#293d7c" />
</svg>