<svg id="Capa_1" enable-background="new 0 0 512 512" height="512" viewBox="0 0 512 512" width="512"
    xmlns="http://www.w3.org/2000/svg">
    <g>
        <path
            d="m256 22c-135.31 0-245 109.69-245 245 0 65.097 25.396 124.256 66.811 168.132h1v-119.081c0-1.761 1.432-3.193 3.192-3.193h13.852v-10.428c0-1.84 1.496-3.337 3.336-3.337h132.971c12.593 0 22.838 10.245 22.838 22.838h2c0-12.593 10.245-22.838 22.838-22.838h125.629c-.068.661-.101 1.27-.101 1.864 0 6.521 3.18 12.697 8.507 16.52l-19.098 49.15c-.657 1.692-.446 3.521.578 5.017 1.024 1.498 2.652 2.356 4.467 2.356h33.368v61.132h1c41.416-43.876 66.812-103.035 66.812-168.132 0-135.31-109.69-245-245-245z"
            fill="hsl(202, 80%, 55%)" />
        <path
            d="m78.812 316.051c0-1.761 1.432-3.193 3.192-3.193h13.852v-10.428c0-1.84 1.496-3.337 3.336-3.337h132.971c12.593 0 22.838 10.245 22.838 22.838h2c0-12.593 10.245-22.838 22.838-22.838h125.629c-.068.661-.101 1.27-.101 1.864 0 6.521 3.18 12.697 8.507 16.52l-19.098 49.15c-.657 1.692-.446 3.521.578 5.017 1.024 1.498 2.652 2.356 4.467 2.356h19.211c20.202-30.72 31.968-67.483 31.968-107 0-107.696-87.304-195-195-195s-195 87.304-195 195c0 29.099 6.384 56.703 17.812 81.504z"
            fill="hsl(202, 80%, 65%)" />
        <g>
            <path
                d="m232.162 299.093c12.593 0 22.838 10.245 22.838 22.838h2c0-12.593 10.245-22.838 22.838-22.838h99.479v-67.26l-119.038 49.525c-1.363.567-2.802.854-4.279.854s-2.916-.287-4.279-.854l-119.038-49.525v67.26z"
                fill="#7a8c98" />
            <path d="m179.024 299.093v-47.98l-46.341-19.28v67.26z" fill="#596c76" />
            <g>
                <g>
                    <g fill="#596c76">
                        <path d="m416.145 373v78.537h1c5.941-5.193 11.63-10.668 17.044-16.405v-62.132z" />
                        <path
                            d="m95.855 311.858h-13.851c-2.316 0-4.193 1.877-4.193 4.193v119.082c5.415 5.736 11.103 11.21 17.044 16.403h1z" />
                    </g>
                    <path
                        d="m232.162 298.093h-132.97c-2.395 0-4.336 1.941-4.336 4.336v149.108c43.075 37.646 99.442 60.463 161.144 60.463.259 0 .516-.009.775-.01v-187.318l-.775-2.741c0-13.165-10.673-23.838-23.838-23.838z"
                        fill="#eaf6ff" />
                    <path
                        d="m94.855 302.429v149.108c5.952 5.201 12.156 10.12 18.594 14.734v-163.842c0-2.395 1.941-4.336 4.336-4.336h-18.593c-2.395 0-4.337 1.941-4.337 4.336z"
                        fill="#d8ecfe" />
                    <path
                        d="m399.82 373c-1.479 0-2.807-.7-3.642-1.921-.835-1.22-1.007-2.711-.472-4.09l19.379-49.873-.63-.452c-5.065-3.635-8.09-9.506-8.09-15.707 0-.976.096-1.927.236-2.864h-126.763c-13.165 0-23.838 10.673-23.838 23.838v190.069c61.702 0 118.069-22.817 161.145-60.463v-78.537z"
                        fill="#eaf6ff" />
                    <path
                        d="m256 321.931v190.069c6.256 0 12.456-.238 18.594-.698v-189.371c0-13.165 10.673-23.838 23.838-23.838h-18.594c-13.165 0-23.838 10.673-23.838 23.838z"
                        fill="#d8ecfe" />
                </g>
                <g>
                    <g>
                        <path
                            d="m381.475 342.32h-80.978c-4.143 0-7.5-3.357-7.5-7.5s3.357-7.5 7.5-7.5h80.978c4.143 0 7.5 3.357 7.5 7.5s-3.358 7.5-7.5 7.5z"
                            fill="#8ac9fe" />
                    </g>
                    <g>
                        <path
                            d="m381.475 373.53h-80.978c-4.143 0-7.5-3.357-7.5-7.5s3.357-7.5 7.5-7.5h80.978c4.143 0 7.5 3.357 7.5 7.5s-3.358 7.5-7.5 7.5z"
                            fill="#8ac9fe" />
                    </g>
                    <g>
                        <path
                            d="m381.475 404.74h-20.245c-4.143 0-7.5-3.357-7.5-7.5s3.357-7.5 7.5-7.5h20.244c4.143 0 7.5 3.357 7.5 7.5s-3.357 7.5-7.499 7.5z"
                            fill="#978ecb" />
                    </g>
                    <g>
                        <path
                            d="m337.612 404.74h-37.115c-4.143 0-7.5-3.357-7.5-7.5s3.357-7.5 7.5-7.5h37.115c4.143 0 7.5 3.357 7.5 7.5s-3.357 7.5-7.5 7.5z"
                            fill="#978ecb" />
                    </g>
                    <g>
                        <path
                            d="m381.475 435.95h-80.978c-4.143 0-7.5-3.357-7.5-7.5s3.357-7.5 7.5-7.5h80.978c4.143 0 7.5 3.357 7.5 7.5s-3.358 7.5-7.5 7.5z"
                            fill="#978ecb" />
                    </g>
                    <g>
                        <path
                            d="m342.11 467.16h-41.613c-4.143 0-7.5-3.357-7.5-7.5s3.357-7.5 7.5-7.5h41.613c4.143 0 7.5 3.357 7.5 7.5s-3.357 7.5-7.5 7.5z"
                            fill="#978ecb" />
                    </g>
                </g>
                <g>
                    <g>
                        <path
                            d="m220.646 467.16h-80.977c-4.143 0-7.5-3.357-7.5-7.5s3.357-7.5 7.5-7.5h80.977c4.143 0 7.5 3.357 7.5 7.5s-3.358 7.5-7.5 7.5z"
                            fill="#8ac9fe" />
                    </g>
                    <g>
                        <path
                            d="m220.646 435.95h-37.114c-4.143 0-7.5-3.357-7.5-7.5s3.357-7.5 7.5-7.5h37.114c4.143 0 7.5 3.357 7.5 7.5s-3.358 7.5-7.5 7.5z"
                            fill="#8ac9fe" />
                    </g>
                    <g>
                        <path
                            d="m159.913 435.95h-20.244c-4.143 0-7.5-3.357-7.5-7.5s3.357-7.5 7.5-7.5h20.244c4.143 0 7.5 3.357 7.5 7.5s-3.357 7.5-7.5 7.5z"
                            fill="#8ac9fe" />
                    </g>
                    <g>
                        <path
                            d="m220.646 404.74h-80.977c-4.143 0-7.5-3.357-7.5-7.5s3.357-7.5 7.5-7.5h80.977c4.143 0 7.5 3.357 7.5 7.5s-3.358 7.5-7.5 7.5z"
                            fill="#26a6fe" />
                    </g>
                    <g>
                        <path
                            d="m220.646 373.53h-80.977c-4.143 0-7.5-3.357-7.5-7.5s3.357-7.5 7.5-7.5h80.977c4.143 0 7.5 3.357 7.5 7.5s-3.358 7.5-7.5 7.5z"
                            fill="#26a6fe" />
                    </g>
                    <g>
                        <path
                            d="m181.281 342.32h-41.612c-4.143 0-7.5-3.357-7.5-7.5s3.357-7.5 7.5-7.5h41.612c4.143 0 7.5 3.357 7.5 7.5s-3.357 7.5-7.5 7.5z"
                            fill="#26a6fe" />
                    </g>
                </g>
            </g>
            <g>
                <path d="m418.201 216.066v67.07c2.307-.975 4.842-1.515 7.5-1.515s5.192.54 7.5 1.515v-73.311z"
                    fill="#e26392" />
                <g>
                    <path
                        d="m456.627 366.627-19.619-50.491c-3.161 2.361-7.067 3.777-11.307 3.777s-8.146-1.416-11.307-3.778l-19.619 50.492c-1.379 3.548 1.239 7.373 5.045 7.373h51.761c3.808 0 6.425-3.825 5.046-7.373z"
                        fill="#f689b1" />
                </g>
                <g>
                    <g>
                        <path
                            d="m416.378 366.627 19.258-49.562c-2.891 1.796-6.288 2.848-9.934 2.848-4.24 0-8.146-1.416-11.307-3.778l-19.619 50.492c-1.379 3.548 1.239 7.373 5.045 7.373h21.602c-3.807 0-6.424-3.825-5.045-7.373z"
                            fill="#e26392" />
                    </g>
                </g>
                <g>
                    <g>
                        <circle cx="425.701" cy="300.957" fill="#d26089" r="20.335" />
                    </g>
                </g>
            </g>
            <path
                d="m444.306 183.334-107.289-46.779c-15.555 28.819-46.036 48.445-81.017 48.445s-65.462-19.626-81.017-48.444l-107.289 46.778c-10.114 4.41-9.992 18.797.195 23.035l183.302 76.262c3.078 1.281 6.54 1.281 9.618 0l183.302-76.262c10.187-4.238 10.309-18.625.195-23.035z"
                fill="#596c76" />
            <g fill="#465a61">
                <path
                    d="m323.5 173h-22.112c-13.401 7.633-28.894 12-45.388 12s-31.987-4.367-45.388-12h-22.112c-6.904 0-12.5 5.596-12.5 12.5s5.596 12.5 12.5 12.5h135c6.904 0 12.5-5.596 12.5-12.5s-5.596-12.5-12.5-12.5z" />
                <path
                    d="m127.694 183.335 61.722-26.911c-5.648-5.927-10.513-12.606-14.433-19.868l-107.289 46.779c-10.114 4.409-9.992 18.797.195 23.035l183.302 76.262c3.078 1.281 6.54 1.281 9.618 0l25.191-10.481-158.111-65.781c-10.187-4.239-10.309-18.626-.195-23.035z" />
            </g>
        </g>
        <g>
            <g>
                <g>
                    <circle cx="256" cy="93" fill="#fed402" r="93" />
                </g>
                <g>
                    <path
                        d="m183.692 93c0-47.864 36.163-87.265 82.654-92.413-3.398-.377-6.847-.587-10.346-.587-51.362 0-93 41.637-93 93 0 51.362 41.637 93 93 93 3.499 0 6.948-.21 10.346-.587-46.491-5.148-82.654-44.55-82.654-92.413z"
                        fill="#fac600" />
                </g>
            </g>
            <g>
                <g>
                    <circle cx="256" cy="93" fill="#fac600" r="68.433" />
                </g>
                <g>
                    <path
                        d="m227.898 93c0-30.775 20.316-56.801 48.267-65.409-6.375-1.963-13.146-3.024-20.166-3.024-37.795 0-68.433 30.639-68.433 68.433 0 37.795 30.639 68.433 68.433 68.433 7.02 0 13.79-1.061 20.166-3.024-27.95-8.608-48.267-34.634-48.267-65.409z"
                        fill="#e8b800" />
                </g>
                <g>
                    <path
                        d="m256 168.934c-41.87 0-75.934-34.063-75.934-75.934s34.064-75.934 75.934-75.934 75.934 34.064 75.934 75.934-34.064 75.934-75.934 75.934zm0-136.868c-33.599 0-60.934 27.335-60.934 60.934s27.335 60.934 60.934 60.934 60.934-27.335 60.934-60.934-27.335-60.934-60.934-60.934z"
                        fill="#fee97d" />
                </g>
            </g>
            <path
                d="m263.581 85.5h-15.162c-3.43 0-6.22-2.79-6.22-6.219s2.79-6.219 6.22-6.219h26.716c4.143 0 7.5-3.357 7.5-7.5s-3.357-7.5-7.5-7.5h-11.635v-6.58c0-4.143-3.357-7.5-7.5-7.5s-7.5 3.357-7.5 7.5v6.58h-.081c-11.7 0-21.22 9.519-21.22 21.219s9.52 21.219 21.22 21.219h15.162c3.43 0 6.22 2.79 6.22 6.219s-2.79 6.219-6.22 6.219h-26.715c-4.143 0-7.5 3.357-7.5 7.5s3.357 7.5 7.5 7.5h11.634v6.58c0 4.143 3.357 7.5 7.5 7.5s7.5-3.357 7.5-7.5v-6.58h.081c11.7 0 21.22-9.519 21.22-21.219s-9.52-21.219-21.22-21.219z"
                fill="#fee97d" />
        </g>
    </g>
</svg>