<svg height="512pt" viewBox="0 -4 512.00079 512" width="512pt" xmlns="http://www.w3.org/2000/svg">
    <path
        d="m512 251.679688c0 57.730468-19.4375 110.933593-52.132812 153.386718-15.101563 19.621094-33.027344 36.953125-53.183594 51.375-16.382813 11.730469-34.226563 21.550782-53.210938 29.113282-3.214844 1.28125-6.460937 2.496093-9.738281 3.644531-20.566406 7.234375-42.363281 11.855469-64.984375 13.488281-6.082031.441406-12.234375.667969-18.429688.667969-15.921874 0-31.496093-1.480469-46.585937-4.304688-9.203125-1.714843-18.222656-3.945312-27.046875-6.644531-22.363281-6.832031-43.410156-16.695312-62.640625-29.101562-24.007813-15.492188-45.199219-34.949219-62.664063-57.445313-32.03125-41.265625-51.496093-92.773437-52.675781-148.765625-.042969-1.800781-.0625-3.609375-.0625-5.414062 0-9.863282.5625-19.601563 1.671875-29.164063 14.457032-125.265625 120.867188-222.515625 250.003906-222.515625 43.617188 0 84.636719 11.09375 120.394532 30.613281 9.011718 4.910157 17.671875 10.363281 25.96875 16.300781 34.515625 24.71875 62.519531 57.9375 80.949218 96.605469 15.625 32.757813 24.367188 69.429688 24.367188 108.160157zm0 0"
        fill="hsl(202, 80%, 50%)" />
    <path
        d="m229.410156 259.925781h-42.722656v232.480469c-22.363281-6.832031-43.410156-16.695312-62.640625-29.105469-24.007813-15.488281-45.199219-34.945312-62.664063-57.441406v-145.933594h-42.714843c-3.789063 0-7.15625-1.058593-9.960938-2.835937-9.011719-5.699219-12.101562-18.828125-4.089843-28.023438l5.699218-6.554687 113.730469-130.714844 104.449219 120.0625 14.96875 17.207031c10.5 12.0625 1.929687 30.859375-14.054688 30.859375zm0 0"
        fill="#efde9e" />
    <path
        d="m124.046875 91.796875v371.503906c-24.007813-15.488281-45.199219-34.945312-62.664063-57.441406v-145.933594h-42.710937c-3.792969 0-7.160156-1.058593-9.964844-2.835937-9.007812-5.699219-12.101562-18.828125-4.089843-28.023438l5.703124-6.554687zm0 0"
        fill="#f4a672" />
    <path
        d="m496.148438 143.519531h-36.28125v261.546875c-15.101563 19.621094-33.027344 36.953125-53.179688 51.375-16.386719 11.730469-34.230469 21.550782-53.214844 29.113282v-342.035157h-36.261718c-13.570313 0-20.839844-15.964843-11.933594-26.195312l75.441406-86.710938 25.96875-29.84375 101.398438 116.554688c8.90625 10.230469 1.632812 26.195312-11.9375 26.195312zm0 0"
        fill="#ac56e6" />
    <path
        d="m406.683594.769531v455.671875c-16.382813 11.730469-34.226563 21.550782-53.210938 29.113282v-342.035157h-36.261718c-13.570313 0-20.84375-15.964843-11.9375-26.195312l75.441406-86.710938zm0 0"
        fill="#782ec7" />
    <path
        d="m388.070312 328.535156h-44.335937v160.664063c-20.566406 7.230469-42.363281 11.855469-64.984375 13.488281-6.082031.441406-12.234375.667969-18.429688.667969-15.921874 0-31.496093-1.480469-46.585937-4.304688v-170.515625h-44.316406c-16.589844 0-25.472657-19.507812-14.585938-32.019531l73.664063-84.65625 50.253906-57.761719 74.722656 85.890625 49.1875 56.53125c10.878906 12.511719 1.992188 32.015625-14.589844 32.015625zm0 0"
        fill="#f3799b" />
    <path
        d="m278.75 154.097656v348.589844c-6.082031.441406-12.234375.667969-18.429688.667969-15.921874 0-31.496093-1.480469-46.585937-4.304688v-170.511719h-44.316406c-16.589844 0-25.472657-19.507812-14.585938-32.019531zm0 0"
        fill="#da4d5e" />
</svg>