<?xml version="1.0" encoding="utf-8"?>
<svg version="1.1" id="Layer_1" xmlns="http://www.w3.org/2000/svg" xmlns:xlink="http://www.w3.org/1999/xlink" x="0px" y="0px"
	 viewBox="0 0 120.9 139.8" style="enable-background:new 0 0 120.9 139.8;" xml:space="preserve">
<style type="text/css">
	.st0{fill:#FFFFFF;}
</style>
<path class="st0" d="M82,46.2c0,0,0,23.9,0,25.5c-1.5,0-18.4,0-18.4,0l-0.2,0.5c-0.3,0.8-0.9,1.5-2.9,1.5c-2,0-2.6-0.7-2.9-1.5
	l-0.2-0.5c0,0-16.9,0-18.4,0c0-1.6,0-25.5,0-25.5h-1.7V47l-1.6-0.5c-0.2-0.6-0.8-1.1-1.4-1.1c-0.8,0-1.5,0.7-1.5,1.5
	c0,0.8,0.7,1.5,1.5,1.5c0.4,0,0.7-0.1,1-0.4l2.1,0.6v2l-1.6-0.3c-0.2-0.5-0.8-0.9-1.4-0.9c-0.8,0-1.5,0.7-1.5,1.5
	c0,0.8,0.7,1.5,1.5,1.5c0.4,0,0.8-0.2,1.1-0.5l1.9,0.3v2.1l-1.6-0.1c-0.3-0.4-0.7-0.7-1.3-0.7c-0.8,0-1.5,0.7-1.5,1.5
	c0,0.8,0.7,1.5,1.5,1.5c0.5,0,0.9-0.2,1.2-0.6l1.7,0.1v2.3l-1.7,0.1c-0.3-0.4-0.7-0.6-1.2-0.6c-0.8,0-1.5,0.7-1.5,1.5
	c0,0.8,0.7,1.5,1.5,1.5c0.5,0,1-0.3,1.3-0.7l1.6-0.1v2.1l-1.8,0.3c-0.3-0.3-0.7-0.5-1.1-0.5c-0.8,0-1.5,0.7-1.5,1.5s0.7,1.5,1.5,1.5
	c0.6,0,1.2-0.4,1.4-0.9l1.5-0.3V66l-2,0.6c-0.3-0.2-0.6-0.4-1-0.4c-0.8,0-1.5,0.7-1.5,1.5c0,0.8,0.7,1.5,1.5,1.5
	c0.7,0,1.3-0.5,1.4-1.1l1.5-0.5v2l-2.2,1c-0.2-0.2-0.5-0.3-0.8-0.3c-0.8,0-1.5,0.7-1.5,1.5c0,0.8,0.7,1.5,1.5,1.5
	c0.7,0,1.4-0.5,1.5-1.3l1.6-0.7v1.8c0,0,18.2,0,19.1,0c0.8,1.4,2.1,2.1,4.1,2.1s3.4-0.7,4.1-2.1c0.9,0,19.1,0,19.1,0V46.2H82z"/>
<g>
	<ellipse class="st0" cx="47.9" cy="39.1" rx="7" ry="1.3"/>
	<path class="st0" d="M57.5,29.4l-4,2.8l0,0.3l1,0.4c0.2,0.1,0.2,0.2,0.1,0.3L52,35.4l-0.2,0L50,32.7c-0.1-0.2-0.1-0.3,0.1-0.4
		l1.2-0.2v-0.3l-3.1-4.4h-0.5l-3.1,4.4v0.3l1.2,0.2c0.2,0,0.3,0.2,0.1,0.4l-1.8,2.6l-0.2,0l-2.4-2.1c-0.1-0.1-0.1-0.2,0.1-0.3l1-0.4
		l0-0.3l-4.2-2.8L38,29.5l2.5,7.5c1.2-0.6,4.1-1,7.5-1c3.4,0,6.2,0.4,7.5,1l2.5-7.5L57.5,29.4z"/>
</g>
<g>
	<ellipse class="st0" cx="60.4" cy="89.5" rx="7" ry="1.3"/>
	<path class="st0" d="M70,79.8l-4,2.8l0,0.3l1,0.4c0.2,0.1,0.2,0.2,0.1,0.3l-2.5,2.1l-0.2,0l-1.8-2.6c-0.1-0.2-0.1-0.3,0.1-0.4
		l1.2-0.2v-0.3l-3.1-4.4h-0.5l-3.1,4.4v0.3l1.2,0.2c0.2,0,0.3,0.2,0.1,0.4l-1.8,2.6l-0.2,0L54,83.7c-0.1-0.1-0.1-0.2,0.1-0.3l1-0.4
		l0-0.3l-4.2-2.8L50.5,80l2.5,7.5c1.2-0.6,4.1-1,7.5-1c3.4,0,6.2,0.4,7.5,1l2.5-7.5L70,79.8z"/>
</g>
<g>
	<ellipse class="st0" cx="72.9" cy="39.1" rx="7" ry="1.3"/>
	<path class="st0" d="M82.5,29.4l-4,2.8l0,0.3l1,0.4c0.2,0.1,0.2,0.2,0.1,0.3L77,35.4l-0.2,0l-1.8-2.6c-0.1-0.2-0.1-0.3,0.1-0.4
		l1.2-0.2v-0.3l-3.1-4.4h-0.5l-3.1,4.4v0.3l1.2,0.2c0.2,0,0.3,0.2,0.1,0.4l-1.8,2.6l-0.2,0l-2.4-2.2c-0.1-0.1-0.1-0.2,0.1-0.3l1-0.4
		l0-0.3l-4.2-2.8L63,29.5l2.5,7.5c1.2-0.6,4.1-1,7.5-1c3.4,0,6.2,0.4,7.5,1l2.5-7.5L82.5,29.4z"/>
</g>
<g>
	<path class="st0" d="M59.6,50c0-2.1-0.7-3.9-2.3-4.8c-1-0.6-2.3-0.8-4-0.8l-11.9,0v24.1h13c3,0,4.8,0.7,4.9,3.4h0.3L59.6,50z
		 M50.9,51.5c0.3,0,0.4-0.1,0.4-0.3c0-0.2,0.1-0.4,0.1-0.9l0.1-1.1c0-0.7,0-0.7-0.4-0.8v-0.2h1.2l0.9,2.1l0.8-2.1h1.3v0.2
		c-0.4,0-0.4,0.1-0.4,0.6l0.1,1.8c0,0.6,0,0.6,0.4,0.6v0.2h-1.7v-0.2c0.4,0,0.4-0.1,0.4-0.6l0-1.9h0l-1,2.7h-0.3l-1-2.5h0l0,1.2
		c0,0.5,0,0.7,0,0.9c0,0.2,0.1,0.2,0.5,0.3v0.2h-1.3L50.9,51.5L50.9,51.5z M53.9,56.7L53.9,56.7c-0.5-0.2-1-0.5-1-1.1
		c0-0.6,0.4-1.1,1.3-1.1c0.2,0,0.3,0,0.5,0.1c0.1,0,0.2,0.1,0.3,0.1c0,0.2,0.1,0.5,0.1,0.8l-0.2,0c-0.1-0.3-0.3-0.7-0.7-0.7
		c-0.3,0-0.5,0.2-0.5,0.5c0,0.3,0.2,0.4,0.5,0.6l0.1,0.1c0.5,0.2,0.9,0.5,0.9,1.1c0,0.7-0.5,1.1-1.3,1.1c-0.2,0-0.4,0-0.6-0.1
		C53.1,58,53,58,52.9,57.9c0-0.2-0.1-0.5-0.2-0.9L53,57c0.1,0.3,0.4,0.9,0.9,0.9c0.3,0,0.5-0.2,0.5-0.5
		C54.4,57.1,54.2,56.9,53.9,56.7z M50.4,55.1c0.1,0.3,0.5,1.3,0.7,1.9c0.2-0.5,0.5-1.5,0.6-1.7c0.1-0.3,0.1-0.4-0.2-0.4l-0.2,0v-0.2
		h1.3v0.2c-0.3,0-0.4,0.1-0.6,0.5c0,0.1-0.7,1.7-1.1,2.7h-0.4c-0.4-1-0.9-2.3-1.1-2.8c-0.2-0.5-0.3-0.5-0.5-0.5v-0.2h1.7v0.2l-0.2,0
		C50.3,54.9,50.3,54.9,50.4,55.1z M48.8,48.2c1,0,1.7,0.7,1.7,1.8c0,1.1-0.8,1.8-1.8,1.8C47.7,51.8,47,51,47,50
		C47,49.2,47.6,48.2,48.8,48.2z M42.9,51.7v-0.2c0.4,0,0.4-0.1,0.4-0.6v-1.8c0-0.6,0-0.6-0.4-0.6v-0.2h1.6c0.7,0,1.2,0.1,1.6,0.5
		c0.2,0.2,0.5,0.6,0.5,1.1c0,1.3-1,1.9-2.2,1.9H42.9z M46.5,61.2c-0.4,0-0.4,0.1-0.4,0.6v1.8c0,0.6,0,0.6,0.4,0.6v0.2h-1.7v-0.2
		c0.4,0,0.4-0.1,0.4-0.6v-1.8c0-0.6,0-0.6-0.4-0.6V61h1.7V61.2z M46.5,58.1h-1.3v-0.2c0.2,0,0.4-0.1,0.4-0.3c0-0.2,0-0.5,0-1v-1
		c0-0.4,0-0.5-0.1-0.6c-0.1-0.1-0.2-0.1-0.4-0.2v-0.2h1.2l1.8,2.2h0v-0.7c0-0.6,0-0.8,0-1c0-0.2-0.2-0.3-0.5-0.3v-0.2h1.4v0.2
		c-0.3,0-0.4,0.1-0.4,0.3c0,0.2,0,0.5,0,1v2H48l-2-2.5h0v1c0,0.6,0,0.8,0,1c0,0.2,0.2,0.3,0.5,0.3L46.5,58.1L46.5,58.1z M49.4,64.5
		h-2.6v-0.2c0.4,0,0.4-0.1,0.4-0.6v-1.8c0-0.6,0-0.6-0.4-0.6V61h1.7v0.2c-0.4,0-0.4,0.1-0.4,0.6v1.8c0,0.3,0,0.4,0.1,0.5
		c0.1,0,0.2,0,0.4,0c0.2,0,0.4,0,0.5-0.2c0.1-0.1,0.2-0.2,0.3-0.5l0.2,0C49.6,63.7,49.5,64.3,49.4,64.5z M52.4,64.5h-2.6v-0.2
		c0.4,0,0.4-0.1,0.4-0.6v-1.8c0-0.6,0-0.6-0.4-0.6V61h1.7v0.2c-0.4,0-0.4,0.1-0.4,0.6v1.8c0,0.3,0,0.4,0.1,0.5c0.1,0,0.2,0,0.4,0
		c0.2,0,0.4,0,0.5-0.2c0.1-0.1,0.2-0.2,0.3-0.5l0.2,0C52.6,63.7,52.4,64.3,52.4,64.5z M55.7,61.2c-0.3,0-0.4,0.1-0.6,0.5
		c0,0.1-0.7,1.7-1.1,2.7h-0.4c-0.4-1-0.9-2.3-1.1-2.8c-0.2-0.5-0.3-0.5-0.5-0.5V61h1.7v0.2l-0.2,0c-0.2,0-0.2,0.1-0.1,0.3
		c0.1,0.3,0.5,1.3,0.7,1.9c0.2-0.5,0.5-1.5,0.6-1.7c0.1-0.3,0.1-0.4-0.2-0.4l-0.2,0V61h1.3L55.7,61.2L55.7,61.2z M57.4,48.5
		c-0.4,0-0.4,0.1-0.4,0.6v1.8c0,0.6,0,0.6,0.4,0.6v0.2h-1.7v-0.2c0.4,0,0.4-0.1,0.4-0.6v-1.8c0-0.6,0-0.6-0.4-0.6v-0.2h1.7V48.5z"/>
	<path class="st0" d="M44.5,48.5c-0.1,0-0.2,0-0.2,0c0,0,0,0.1,0,0.3v2c0,0.5,0.1,0.6,0.4,0.6c0.5,0,0.9-0.5,0.9-1.4
		C45.5,48.8,45,48.5,44.5,48.5z"/>
	<path class="st0" d="M48.9,51.5c0.5,0,0.7-0.4,0.7-1.4c0-1.1-0.4-1.7-0.8-1.7c-0.4,0-0.7,0.5-0.7,1.4C48,50.8,48.3,51.5,48.9,51.5z
		"/>
</g>
<g>
	<polygon class="st0" points="74.2,62.1 73.9,63.1 74.6,63.1 74.2,62.1 	"/>
	<polygon class="st0" points="75.5,49.3 75.1,50.4 75.8,50.4 75.5,49.3 	"/>
	<path class="st0" d="M72.5,56.2c0,1,0.4,1.7,0.9,1.7c0.5,0,0.7-0.4,0.7-1.4c0-1.1-0.4-1.7-0.8-1.7C72.8,54.8,72.5,55.3,72.5,56.2z"
		/>
	<path class="st0" d="M67.5,44.4c-1.6,0-3,0.2-4,0.8c-1.6,0.9-2.3,2.6-2.3,4.8l0,21.9h0.3c0.2-2.7,1.9-3.4,4.9-3.4h13.1V44.4
		L67.5,44.4z M70.3,48.3h1.2l1.8,2.2h0v-0.7c0-0.6,0-0.8,0-1c0-0.2-0.2-0.3-0.5-0.3v-0.2h1.4v0.2c-0.3,0-0.4,0.1-0.4,0.3
		c0,0.2,0,0.5,0,1v2h-0.5l-2-2.5h0v1c0,0.6,0,0.8,0,1c0,0.2,0.2,0.3,0.5,0.3v0.2h-1.3v-0.2c0.2,0,0.4-0.1,0.4-0.3c0-0.2,0-0.5,0-1
		v-1c0-0.4,0-0.5-0.1-0.6c-0.1-0.1-0.2-0.1-0.4-0.2L70.3,48.3L70.3,48.3z M75.1,56.3c0,1.1-0.8,1.8-1.8,1.8c-1.1,0-1.8-0.8-1.8-1.8
		c0-0.9,0.6-1.9,1.8-1.9C74.3,54.6,75.1,55.3,75.1,56.3z M71.1,57.9v0.2h-1.7v-0.2c0.4,0,0.4-0.1,0.4-0.6v-1.8c0-0.6,0-0.6-0.4-0.6
		v-0.2h1.7v0.2c-0.4,0-0.4,0.1-0.4,0.6v1.8C70.7,57.8,70.7,57.8,71.1,57.9z M68.3,51.5c0.4,0,0.4-0.1,0.4-0.6v-1.8
		c0-0.6,0-0.6-0.4-0.6v-0.2h1.7v0.2c-0.4,0-0.4,0.1-0.4,0.6v1.8c0,0.6,0,0.6,0.4,0.6v0.2h-1.7V51.5z M68.4,57.9v0.2h-1.9v-0.2
		c0.4,0,0.5-0.1,0.5-0.6v-2.3h-0.1c-0.4,0-0.5,0.1-0.6,0.2c-0.1,0.1-0.1,0.2-0.2,0.5h-0.2c0-0.4,0.1-0.8,0.1-1.1h0.2
		c0.1,0.1,0.1,0.1,0.3,0.1h2.1c0.1,0,0.2,0,0.2-0.1h0.2c0,0.2,0,0.7,0.1,1.1l-0.2,0c-0.1-0.3-0.1-0.5-0.2-0.5
		c-0.1-0.1-0.3-0.1-0.5-0.1h-0.1v2.3C67.9,57.8,67.9,57.8,68.4,57.9z M64.8,51.7h-1.3v-0.2c0.3,0,0.4-0.1,0.4-0.3
		c0-0.2,0.1-0.4,0.1-0.9l0.1-1.1c0-0.7,0-0.7-0.4-0.8v-0.2h1.2l0.9,2.1l0.8-2.1h1.3v0.2c-0.4,0-0.4,0.1-0.4,0.6l0.1,1.8
		c0,0.6,0,0.6,0.4,0.6v0.2h-1.7v-0.2c0.4,0,0.4-0.1,0.4-0.6l0-1.9h0l-1,2.7h-0.3l-1-2.5h0l0,1.2c0,0.5,0,0.7,0,0.9
		c0,0.2,0.1,0.2,0.5,0.3L64.8,51.7L64.8,51.7z M69.5,64.5h-1.7v-0.2c0.4,0,0.4-0.1,0.4-0.6l0-1.9h0l-1,2.7h-0.3l-1-2.5h0l0,1.2
		c0,0.5,0,0.7,0,0.9c0,0.2,0.1,0.2,0.5,0.3v0.2h-1.3v-0.2c0.3,0,0.4-0.1,0.4-0.3c0-0.2,0.1-0.4,0.1-0.9l0.1-1.1c0-0.7,0-0.7-0.4-0.8
		V61h1.2l0.9,2.1l0.8-2.1h1.3v0.2c-0.4,0-0.4,0.1-0.4,0.6l0.1,1.8c0,0.6,0,0.6,0.4,0.6L69.5,64.5L69.5,64.5z M72.5,64.5h-2.7v-0.2
		c0.4,0,0.5-0.1,0.5-0.6v-1.8c0-0.6,0-0.6-0.4-0.6V61h2.5c0,0.1,0,0.5,0.1,0.9l-0.2,0c-0.1-0.3-0.1-0.4-0.2-0.5
		c-0.1-0.1-0.3-0.1-0.5-0.1h-0.1c-0.2,0-0.2,0-0.2,0.2v1h0.3c0.5,0,0.5,0,0.5-0.4h0.2v1.3H72c-0.1-0.5-0.1-0.5-0.5-0.5h-0.3v0.9
		c0,0.3,0,0.4,0.1,0.5c0.1,0,0.2,0,0.4,0c0.2,0,0.4,0,0.6-0.2c0.1-0.1,0.2-0.3,0.3-0.5l0.2,0C72.7,63.8,72.6,64.3,72.5,64.5z
		 M76.2,64.5h-1.7v-0.2l0.2,0c0.2,0,0.2-0.1,0.1-0.3l-0.2-0.5h-0.9l-0.2,0.5c-0.1,0.2-0.1,0.3,0.2,0.3l0.2,0v0.2h-1.2v-0.2
		c0.3,0,0.4-0.1,0.5-0.5l1.1-2.7l0.4-0.1l0.4,1c0.2,0.6,0.5,1.3,0.7,1.8c0.2,0.5,0.3,0.5,0.5,0.5L76.2,64.5L76.2,64.5z M77.5,51.7
		h-1.7v-0.2l0.2,0c0.2,0,0.2-0.1,0.1-0.3l-0.2-0.5h-0.9l-0.2,0.5c-0.1,0.2-0.1,0.3,0.2,0.3l0.2,0v0.2H74v-0.2c0.3,0,0.4-0.1,0.5-0.5
		l1.1-2.7l0.4-0.1l0.4,1c0.2,0.6,0.5,1.3,0.7,1.8c0.2,0.5,0.3,0.5,0.5,0.5L77.5,51.7L77.5,51.7z"/>
</g>
<circle class="st0" cx="54.3" cy="107.2" r="1.4"/>
<circle class="st0" cx="68.3" cy="109.5" r="1.4"/>
<path class="st0" d="M15.8,31.4L15.8,31.4L15.8,31.4z"/>
<path class="st0" d="M74.1,6.3L74.1,6.3L74.1,6.3z"/>
<path class="st0" d="M96.5,33.9L96.5,33.9L96.5,33.9z"/>
<path class="st0" d="M107.3,79.1L107.3,79.1L107.3,79.1z"/>
<circle class="st0" cx="60.4" cy="9.1" r="1.4"/>
<circle class="st0" cx="93.4" cy="22.1" r="1.4"/>
<g>
	<path class="st0" d="M25.2,81.7c0.5,0.8,0.8,1.6,0.8,2.4c0,1-0.3,1.8-2.1,3l-5,3.6L18,89.4c0,0,5.1-3.7,5.2-3.7
		c0.9-0.6,1.3-1.1,1.3-1.8c0-0.4-0.2-0.9-0.5-1.4c-0.5-0.7-1.1-1-1.7-1c-0.5,0-1.1,0.4-2.1,1.1l-4.7,3.2l-0.9-1.3l4.5-3
		c1.2-0.9,2.2-1.5,3.2-1.5C23.6,80,24.6,80.9,25.2,81.7z"/>
</g>
<g>
	<path class="st0" d="M9.1,72l9.5-3.3l0.5,1.4l-5.5,6.7l6.9-2.7l0.5,1.4L11.7,79l-0.5-1.4l5.5-6.7l-7,2.5L9.1,72z"/>
</g>
<g>
	<path class="st0" d="M7.7,64.4l10-1.5l0.2,1.6L7.9,66L7.7,64.4z"/>
</g>
<g>
	<path class="st0" d="M7.4,52.3l0-1.7l10,4.1l-0.1,1.7L7.1,59.4l0-1.7l8.3-2.3L7.4,52.3z"/>
</g>
<path class="st0" d="M16.5,29.7c-1.4,0-2.1,0.8-3,2.5l-1.2,2.1l8.9,4.8l0.8-1.4l-3.7-2l0.2-0.4c0.6-1.1,0.8-1.3,2.4-1.2l2.9,0.3
	l0.8-1.5l-3.3-0.3c-0.7-0.1-1.2-0.1-1.6,0c-0.1,0-0.3,0.1-0.5,0.2c0-0.2,0.1-0.4,0.1-0.5c0-0.3,0-0.6-0.1-0.8
	c-0.2-0.6-0.6-1.1-1.3-1.4C17.5,29.9,17,29.7,16.5,29.7z M14.7,32.8c0.6-1.1,1-1.5,1.6-1.5c0.2,0,0.5,0.1,0.8,0.2
	c0.4,0.2,0.7,0.6,0.8,0.9c0,0.1,0.1,0.3,0.1,0.4c0,0.6-0.3,1.2-0.7,1.8l-0.2,0.4l-2.8-1.5L14.7,32.8z"/>
<g>
	<path class="st0" d="M27.6,15.4l1.3-1l6.1,8l-1.3,1L27.6,15.4z"/>
</g>
<g>
	<path class="st0" d="M33.1,11.5l6.5-3.4l0.6,1.2l-2.5,1.3l4,7.7l-1.4,0.7l-4-7.7l-2.6,1.3L33.1,11.5z"/>
</g>
<g>
	<path class="st0" d="M49.4,5l1.7-0.5l-1.4,6.8l1.1,3.8l-1.5,0.4l-1.1-3.8l-4.8-5l1.7-0.5l3.4,3.6L49.4,5z"/>
</g>
<g>
	<path class="st0" d="M80.2,18.8l5.1-8.7l4.8,2.8l-0.7,1.2l-3.4-2l-1.4,2.4l3.2,1.9l-0.7,1.2l-3.2-1.9l-2.3,3.9L80.2,18.8z"/>
</g>
<g>
	<path class="st0" d="M106.2,41.3l3.7-4.4l0.6,1.7l-2.7,3.1l4.1,0.9l0.5,1.6l-5.6-1.3l-4,4.7l-0.6-1.7l3-3.5l-4.5-1l-0.5-1.7
		L106.2,41.3z"/>
</g>
<g>
	<path class="st0" d="M103.3,51.3l10.1-0.8l0.5,5.6l-1.4,0.1l-0.3-4l-2.8,0.2l0.3,3.8l-1.3,0.1l-0.3-3.8l-4.6,0.4L103.3,51.3z"/>
</g>
<path class="st0" d="M107.7,60.3c-1.2,0-2.2,0.3-3.1,0.9c-1.5,1.1-1.8,2.7-1.8,3.6c0,3.4,3.2,4.8,5.6,4.8c1.2,0,2.2-0.3,3.1-0.9
	c1.7-1.2,1.8-3.1,1.8-3.7C113.3,62,110.6,60.3,107.7,60.3z M108.5,68c-2,0-4.3-1.1-4.3-3.1c0-0.7,0.2-1.7,1.1-2.3
	c0.6-0.4,1.4-0.7,2.3-0.7c1,0,2.8,0.3,3.8,1.6c0.3,0.4,0.5,1,0.5,1.5c0,0.8-0.3,1.7-1.1,2.3C110.2,67.7,109.4,68,108.5,68z"/>
<path class="st0" d="M101.9,26.6c-1,0-2.1,0.3-3.2,1c-1.9,1.2-2.6,3-2.6,4.3c0,0.8,0.2,1.7,0.7,2.4c1.1,1.7,2.7,2.1,3.8,2.1
	c1,0,2.1-0.3,3.2-1c1.2-0.8,2.6-2.3,2.6-4.3c0-0.8-0.2-1.6-0.7-2.4C104.8,27.4,103.4,26.6,101.9,26.6z M100.3,34.9
	c-0.9,0-1.7-0.4-2.3-1.3c-0.3-0.5-0.4-0.9-0.4-1.4c0-1.1,0.7-2.3,2-3.2c0.9-0.6,1.7-0.8,2.5-0.8c1,0,1.8,0.4,2.3,1.3
	c0.3,0.5,0.5,1,0.5,1.5c0,1.1-0.7,2.2-2,3C102,34.6,101.1,34.9,100.3,34.9z"/>
<path class="st0" d="M74.3,5.8c-2.1,0-3.9,1.4-4.7,3.9c-0.2,0.6-0.3,1.1-0.3,1.6c0,1,0.2,1.8,0.6,2.6c0.9,1.7,2.6,2.3,3.9,2.3
	c0.7,0,1.4-0.2,2.1-0.5c1.7-0.9,2.8-3.1,2.8-5.2c0-0.9-0.2-1.7-0.6-2.5C77.4,6.6,75.9,5.8,74.3,5.8z M73.8,14.9
	c-0.7,0-1.8-0.4-2.4-1.4c-0.3-0.5-0.4-1.2-0.4-1.8c0-1.8,1.2-4.3,3.4-4.3c1.2,0,2.8,0.9,2.8,3.2C77.2,11.9,76.2,14.9,73.8,14.9z"/>
<path class="st0" d="M18.4,42.5l1.4,0.4l-1.5,5.5l-9.8-2.7l1.7-5.6l1.3,0.4l-1.2,4l2.7,0.7l1-3.7l1.3,0.4l-1,3.7l3,0.8L18.4,42.5z"
	/>
<g>
	<g>
		<path class="st0" d="M21,21.4c1.4-1.6,2.8-1.5,2.8-1.5l0.2,1.3c0,0-1.1,0-2,1c-0.4,0.4-0.6,0.9-0.6,1.3c0,0.3,0.1,0.6,0.4,0.8
			c0.7,0.6,1.9-0.1,2.6-0.4c0.6-0.2,1.4-0.6,2.2-0.6c0.6,0,1.2,0.2,1.8,0.7c0.7,0.6,1,1.4,1,2.1c0,0.9-0.3,1.6-1,2.4
			c-1.3,1.4-3,1.6-3,1.6l-0.3-1.4c1-0.2,1.8-0.6,2.3-1.2c0.4-0.4,0.5-0.9,0.5-1.3c0-0.4-0.2-0.7-0.5-1c-0.3-0.2-0.6-0.3-0.9-0.3
			c-0.6,0-1.4,0.4-2.1,0.6c-1.2,0.5-2.5,0.9-3.7-0.1c-0.6-0.5-0.9-1.2-0.9-1.9C20,22.9,20.3,22.1,21,21.4z"/>
	</g>
</g>
<path class="st0" d="M100.6,73.3l3.8,1.7l-0.2,0.4c-0.5,1.2-0.7,1.4-2.3,1.4l-2.9,0l-0.7,1.6l3.3,0c0.7,0,1.2,0,1.6-0.2
	c0.1-0.1,0.3-0.1,0.4-0.2c0,0.1,0,0.2,0,0.3c0,0.4,0.1,0.7,0.2,1.1c0.5,1.1,1.7,1.6,2.6,1.6c1.6,0,2.2-1,3-2.7
	c0-0.1,0.9-2.2,0.9-2.2l-9.2-4.1L100.6,73.3z M106.6,79.3c-0.5,0-1.2-0.3-1.5-1c-0.1-0.2-0.1-0.4-0.1-0.6c0-0.6,0.3-1.1,0.5-1.7
	l0.2-0.4l2.9,1.3l-0.3,0.8C107.7,78.9,107.3,79.3,106.6,79.3z"/>
<path class="st0" d="M95.3,82.9c-1,1.3-1.8,2.5-1.8,4c0,1.3,0.6,2.7,2.1,3.9c1,0.8,2.1,1.2,3.2,1.2c1.4,0,2.5-0.4,4.3-2.6l1.6-2
	l-7.9-6.3L95.3,82.9z M98.9,90.5c-0.8,0-1.6-0.3-2.3-0.9c-0.8-0.6-1.6-1.6-1.6-2.9c0-0.9,0.5-1.7,1.2-2.6l0.7-0.8l5.8,4.6l-0.4,0.6
	C101,89.7,100.3,90.5,98.9,90.5z"/>
<path class="st0" d="M118.3,57.4c0-31.8-26-57.8-57.9-57.8C28.6-0.4,2.6,25.5,2.6,57.4c0,19.1,9.4,36.9,25.2,47.7
	c1.6,5.8,6.9,10.1,13.1,10.1c1.7,0,3.4-0.3,4.9-0.9c2.1,0.7,4.3,1.3,6.5,1.7c-0.6,1.8-1.5,3.4-2.4,4.9c0,0,0,0,0,0c0,0,0,0-0.1,0
	l1.2,1.2c0.3-0.2,0.7-0.3,1-0.3c1.2,0,2.2,1,2.2,2.2c0,1.2-1,2.2-2.2,2.2c-1,0-2-0.7-2.4-1.4c0,0-0.3,1-0.3,2.3
	c0,4.1,4.5,8.9,10.8,10.9c6.3-2,10.8-6.7,10.8-10.9c0-1.4-0.3-2.3-0.3-2.3c-0.5,0.6-1.3,1.4-2.4,1.4c-1.2,0-2.2-1-2.2-2.2
	c0-1.2,1-2.2,2.2-2.2c0.4,0,0.8,0.1,1.1,0.3l1.2-1.2c0,0,0,0,0,0c-0.7-1.6-1.1-3-1.5-4.4c10.4-1.4,19.2-5.8,26.2-13.1l0,0
	C110,92.3,118.3,75.6,118.3,57.4z M41,113.5c-6.6,0-11.9-5.4-11.9-11.9c0-2.1,0.5-4,1.4-5.7c0.6,0.6,1.3,1.1,1.9,1.7
	c-0.6,1.2-0.9,2.6-0.9,4c0,3.6,1.8,6.5,5.2,8.6c2,1.2,4.2,2.2,6.5,3.1C42.6,113.4,41.8,113.5,41,113.5z M60.4,96.1
	c-2.5,0-4.9-0.2-7.3-0.7c-2.3-4.5-7-7.4-12.1-7.4c-1.3,0-2.5,0.2-3.6,0.5c-9.8-7.3-15.7-18.9-15.7-31.1c0-21.4,17.4-38.8,38.8-38.8
	c21.4,0,38.8,17.4,38.8,38.8S81.8,96.1,60.4,96.1z M69.1,96.8c-1.2,1.7-1.9,4-2.1,6.3c-3.7-0.9-7-2.2-9.9-3.5
	c0.6-1.1,2.1-1.8,3.3-1.8C63.4,97.8,66.3,97.4,69.1,96.8z M56.8,97.6c-0.5,0.4-0.9,0.8-1.2,1.3c-1.5-0.7-3.3-1.6-4.5-2.3
	C52.8,96.9,55,97.4,56.8,97.6z M41,89.6c4,0,7.7,2,9.9,5.3c-1.9-0.5-3.8-1.1-5.6-1.9l0,0l-0.1,0c-1.3-0.6-2.7-0.9-4.1-0.9
	c-3.2,0-6,1.6-7.7,3.9c-0.7-0.4-1.5-0.8-2.2-1.3C33.4,91.7,36.9,89.6,41,89.6z M68.4,120.1c-2.1,0-3.9,1.5-3.9,3.8
	c0,2.3,1.8,3.8,3.9,3.8c0.3,0,0.6-0.1,0.9-0.1c-0.4,3.2-4.2,6.8-9,8.4c-4.8-1.6-8.5-5.2-9-8.4c0.3,0.1,0.6,0.1,0.9,0.1
	c2.3,0,3.9-1.6,3.9-3.8c0-2.1-1.7-3.8-3.8-3.8c0.7-1.2,1.3-2.5,1.7-3.8c2.7,0.5,5.3,0.7,7.7,0.7c2,0,3.9-0.1,5.8-0.3
	c0.2,1.1,0.6,2.2,1.1,3.4C68.6,120.1,68.5,120.1,68.4,120.1z M61.8,115.3c-7.8,0-17.4-2.6-24.1-6.6c-2-1.2-4.4-3.4-4.4-7.2
	c0-1,0.2-2,0.6-2.9c2.5,2.1,5.1,4,6.7,4.9c0.4,0.2,0.6,0.3,1,0.3c1,0,1.9-0.8,1.9-1.9c0-0.8-0.4-1.4-1.1-1.7
	c-1.4-0.6-4.3-1.8-7.4-3.4c1.4-1.9,3.7-3.1,6.2-3.1c1.2,0,2.3,0.2,3.3,0.7l2.1,1.2c6.8,4.1,24.2,14.7,45.1,8.9
	C83.7,111.8,73.9,115.3,61.8,115.3z M94.3,102.1c-9.4,3.3-18.2,3.1-25.7,1.4c0.2-3.3,1.6-6.9,3.7-7.6c16.5-5.1,28.5-20.5,28.5-38.6
	c0-22.3-18.2-40.4-40.5-40.4S20,35.1,20,57.4c0,12.4,5.8,24.2,15.5,31.8c-2.3,1-4.3,2.7-5.7,4.7c-0.7-0.5-1.5-1-2.1-1.6l-0.4,0.4
	c0.4,0.5,1.1,1.2,1.9,2c-1.2,2-1.9,4.4-1.9,6.9c0,0.4,0,0.8,0.1,1.2C12.9,92.2,4.3,75.4,4.3,57.4c0-31,25.2-56.1,56.1-56.1
	s56.1,25.2,56.1,56.1C116.6,75.1,108.5,91.4,94.3,102.1z"/>
</svg>
