<svg xmlns="http://www.w3.org/2000/svg" xmlns:xlink="http://www.w3.org/1999/xlink" viewBox="0 0 64 77">
        <g fill="#fff" fill-rule="evenodd">
            <path
                d="M63.206 23.212v3.218a.955.955 0 00-.063.39v.005c.02.692-.003 1.37-.067 2.014l-.073.757c-.05.523-.102 1.063-.162 1.59a43.32 43.32 0 01-.403 2.72 43.847 43.847 0 01-.737 3.35 52.153 52.153 0 01-.958 3.256 48.301 48.301 0 01-1.64 4.27c-.39.882-.832 1.882-1.323 2.822-.947 1.812-1.775 3.272-2.608 4.593a72.56 72.56 0 01-3.255 4.726c-.455.61-.957 1.215-1.443 1.8l-.533.645a68.031 68.031 0 01-2.524 2.874c-.949 1.034-1.967 2.042-2.952 3.018l-.577.572a45.824 45.824 0 01-2.54 2.308 101.55 101.55 0 01-3.84 3.127 77.147 77.147 0 01-4.805 3.409c-.226.149-.454.29-.696.44l-.309.192a54.874 54.874 0 01-3.087-2.164 123.298 123.298 0 01-2.66-2.045c-.453-.358-.904-.75-1.34-1.127l-.297-.256a238.97 238.97 0 01-2.35-2.05 19.615 19.615 0 01-.552-.514c-.089-.085-.177-.17-.266-.253a71.518 71.518 0 01-2.447-2.395 87.848 87.848 0 01-2.842-3.056 77.839 77.839 0 01-3.247-3.95 67.426 67.426 0 01-4.39-6.444 59.222 59.222 0 01-1.996-3.63 55.277 55.277 0 01-2.498-5.711A50.605 50.605 0 012.06 36.28a35.735 35.735 0 01-.72-3.679c-.122-.803-.247-1.632-.324-2.446a93.01 93.01 0 01-.147-1.833l-.051-.687c-.047-.611-.045-1.218-.043-1.86v-.422C.77 18.717.77 11.97.77 5.444V.798h7.577c18.63 0 36.85 0 54.866-.006-.008 7.479-.007 15.072-.007 22.42m.778-22.89c0-.275-.073-.305-.318-.305-18.44.006-36.88.006-55.32.006H0C0 8.466-.002 16.91.005 25.354c0 .78-.016 1.559.044 2.341.064.845.12 1.69.2 2.534.09.963.242 1.915.385 2.87.17 1.136.403 2.259.678 3.37a51.138 51.138 0 001.693 5.515 55.772 55.772 0 002.533 5.792 59.663 59.663 0 002.023 3.677A67.843 67.843 0 0012 57.972a78.175 78.175 0 003.28 3.99 88.331 88.331 0 002.866 3.082c.802.83 1.633 1.63 2.473 2.421.278.262.55.531.835.784.78.691 1.568 1.374 2.358 2.055.549.474 1.093.955 1.66 1.404a125.14 125.14 0 002.678 2.058 55.007 55.007 0 003.37 2.348.328.328 0 00.177.058c.054 0 .11-.017.167-.054.418-.268.846-.52 1.26-.793a78.312 78.312 0 004.852-3.443 103.164 103.164 0 003.87-3.15 45.978 45.978 0 002.582-2.348c1.198-1.191 2.41-2.37 3.554-3.616a68.69 68.69 0 002.553-2.907c.671-.82 1.364-1.624 1.997-2.473a73.927 73.927 0 003.29-4.776c.951-1.51 1.814-3.067 2.639-4.647.489-.936.918-1.902 1.345-2.868a48.818 48.818 0 001.667-4.339c.362-1.09.68-2.193.972-3.305a44.42 44.42 0 00.75-3.41c.164-.916.304-1.84.41-2.768.09-.786.158-1.573.237-2.359.07-.701.09-1.407.07-2.113-.002-.052-.01-.11.063-.125 0-8.786-.002-17.571.008-26.356" />
            <path
                d="M38.02 51.045c-.503-.161-.877-.466-1.038-1.006-.113-.382-.503-.52-.714-.263a.77.77 0 00-.162.618c.057.306.076.608.049.915-.013.146.025.284.131.373a.258.258 0 00.325-.006c.223-.177.454-.177.695-.056.516.258 1.037.356 1.624.238 1.53-.305 1.998-2.227 1.277-3.265-.366-.528-.885-.847-1.417-1.16-.559-.33-1.106-.671-1.481-1.23-.28-.416-.014-1.007.319-1.058.366-.056.732.01 1.081.125.216.071.264.31.397.466.055.064.108.135.175.184.234.175.523.036.6-.235.099-.352.034-.69-.011-1.031-.077-.575-.284-.738-.742-.539-.28.121-.551.11-.832.118-1.51-.08-2.08.882-2.13 2.074-.03.74.505 1.192 1.03 1.603.6.468 1.322.766 1.825 1.367.21.252.427.513.396.854-.064.735-.693 1.14-1.397.914M24.084 45.766c.232.104.362-.074.46-.267.122-.242.322-.41.548-.549.19-.116.376-.192.604-.055.253.152.379.336.333.643a13.281 13.281 0 00-.13 1.967c0 .677-.026 1.356.007 2.031.03.654.124 1.306-.456 1.795-.007.006-.003.022-.008.031-.174.33.013.735.414.695.236-.024.481-.137.713-.06.245.08.492.068.724.034.446-.066.624-.401.33-.817-.095-.134-.264-.232-.257-.45.013-.36-.02-.722-.044-1.082-.058-.83-.001-1.666-.064-2.5-.038-.5.114-1.01-.013-1.515 0-.097.002-.194 0-.29-.005-.187.073-.351.233-.416a.377.377 0 01.476.145c.052.078.104.157.163.229.132.16.31.226.507.183.162-.035.265-.148.293-.33.055-.359.125-.716.186-1.074.028-.161-.05-.265-.188-.332-.134-.066-.265-.111-.41-.012-.363.25-.77.334-1.207.339-.382.004-.763-.15-1.135-.06-.47.115-.88.05-1.278-.215-.262-.174-.561-.054-.664.24-.13.37-.315.723-.34 1.126-.012.22-.028.463.203.566M15.519 29.393c-1.005-.202-2.027-.157-3.041-.121-.775.027-1.551.08-2.324.04a76.3 76.3 0 00-1.427-.056c-.21-.007-.35-.099-.333-.358.027-.406.232-.68.575-.863.255-.135.467-.008.688.118.225.129.475.184.738.207 1.5.127 3.003.03 4.504.06.275.005.53.092.77.208.203.098.28.292.223.512-.046.178-.154.306-.373.253m-.07.962c-.026.195-.354.417-.57.354-.119-.035-.23-.028-.343-.028-2.104-.003-4.208-.008-6.311.003-.457.003-.908-.048-1.362-.072-.254-.013-.537-.326-.584-.581-.082-.444-.052-.891-.064-1.393.03-.436-.018-.924-.058-1.412-.01-.12-.04-.185-.157-.24a1.685 1.685 0 00-.683-.181c-.368-.01-.736.03-1.104-.056a1.024 1.024 0 01-.603-.418c-.212-.288.033-.778.434-.876.212-.052.43-.084.653-.071.244.014.49.007.736.002.493-.011.616-.176.664-.657.125-1.267.137-2.537.116-3.807-.008-.468-.102-.936-.054-1.404.074-.73.033-1.464.11-2.195a1.584 1.584 0 00-.288-1.096c-.265-.354-.705-.312-1.075-.237-.515.105-.97-.005-1.413-.234-.213-.111-.227-.493-.028-.724.218-.254.494-.402.838-.427.378-.028.755.02 1.134-.054.365-.071.58-.304.718-.867.098-.4.035-.805.068-1.206.033-.403.059-.809.365-1.136.167-.18.317-.183.515-.093.21.094.173.254.1.397-.235.462-.202.956-.22 1.451-.138 3.726-.01 7.452-.07 11.177-.008.477-.076.958-.048 1.436.065 1.146.169 2.289.197 3.437.007.26.17.486.464.566.375.102.747.155 1.143.136.749-.034 1.497.032 2.243.114.282.031.566-.02.85-.047.494-.048.993-.034 1.49-.06.578-.031 1.162.064 1.746.054.258-.004.477.24.45.445m-7.94-11.543c.106-2.082.009-4.163.067-6.243.013-.47.19-.917.58-1.24.136-.114.298-.117.41-.045.107.07.126.231.025.364-.12.158-.037.314-.004.48.087.448.044.897.022 1.353-.032.671-.147 1.344-.078 2.016.132 1.295.012 2.593.06 3.644 0 1.212.028 2.18-.008 3.147-.028.748-.093 1.497-.046 2.242.043.684.018 1.369.065 2.05.036.52.002 1.008-.25 1.472-.109.2-.255.36-.46.457-.196.092-.331.057-.326-.2.004-.267-.043-.531-.006-.803.055-.403-.04-.806-.058-1.21-.037-.802.069-1.6.073-2.403.008-1.695-.151-3.388-.066-5.081m1.745-3.066c.007-.542-.003-1.098.09-1.648.046-.277-.065-.585-.047-.884.019-.328-.002-.654.049-.986.047-.306-.013-.634-.053-.949-.06-.476.35-.614.701-.515.464.132.913.314 1.396.387.102.015.206.034.309.035.342.004.684-.005 1.025.003.665.017 1.324-.024 1.983-.123.423-.063.824.089 1.178.318.332.215.42.583.456.943.034.352.007.709.007 1.064.022 1.22.086 2.44.068 3.66-.015.996-.045 1.992-.088 2.984-.042.931-.02 1.861-.038 2.791-.004.226-.083.44-.068.661.08 1.134.054 2.269.066 3.404.002.207.046.417.089.622.06.291-.159.525-.443.444-.587-.167-1.189-.2-1.792-.26-.659-.065-1.32.012-1.97-.064-.53-.062-1.046.063-1.57.018-.379-.032-.729-.109-1.05-.324-.238-.16-.305-.372-.232-.626.044-.15.059-.284-.001-.43-.092-.223.043-.435.042-.655-.002-.946.045-1.895-.016-2.837-.044-.685 0-1.37-.053-2.05-.13-1.66-.06-3.323-.038-4.983m7.388 13.82c.193-.159.36-.21.591-.115.71.29.974 1.384.467 1.964-.185.212-.599.29-.922.16-.294-.12-.543-.28-.496-.665.014-.116.002-.236.002-.434-.062-.316.03-.642.358-.91m.292-10.939c.074-1.103.018-2.206.064-3.308.024-.559.144-1.121.104-1.677a5.47 5.47 0 01.067-1.47c.187-.956.582-.998 1.296-1.036.99-.052 1.986-.004 2.979-.016.764-.009 1.508-.118 2.192-.504.335-.19.536-.038.606.314.137.695-.098 1.37-.062 2.05.05.92.003 1.842.069 2.758.04.567.077 1.135.038 1.695-.148 2.075-.147 4.152-.102 6.228.02.952.025 1.904.052 2.856.005.186-.04.36-.092.524-.092.296-.35.417-.64.475-.442.089-.867.195-1.342.149-.74-.072-1.493-.018-2.24-.02a13.917 13.917 0 00-2.388.192c-.412.071-.651-.234-.578-.653.087-.501.281-1.002.098-1.524-.01-.028-.003-.064-.002-.096.038-1.125-.132-2.246-.064-3.18 0-.719.038-1.25-.01-1.772-.06-.663-.089-1.326-.045-1.985m8.227 9.54c.11.175.21.355.329.527.203.296.03.56-.366.564-.587.006-1.175.001-1.762.001-.523 0-1.05-.037-1.57.009-.881.078-1.763.027-2.644.065-.26.012-.522.053-.786.059-.204.004-.364-.088-.509-.205-.15-.122-.213-.303-.138-.485.102-.247.34-.31.576-.344.35-.051.695.035 1.04.07.418.04.837.014 1.245-.026.403-.04.803-.036 1.204-.044.91-.016 1.805-.112 2.65-.49.235-.105.558.025.73.299m-.311-3.244c.006-.117.024-.233.024-.35 0-4.376 0-8.753.003-13.13 0-.13-.073-.32.103-.367.175-.047.377-.07.518.124.324.447.568.92.523 1.498-.011.14.007.28.007.42v4.26c0 1.419.052 2.84-.012 4.257-.09 2.018-.018 4.034-.048 6.05-.002.143-.032.254-.15.327-.125.077-.181-.055-.27-.098-.38-.188-.466-.58-.598-.915-.264-.671-.137-1.38-.1-2.076m1.432 4.445a.721.721 0 00.187-.384 5.99 5.99 0 00.07-.853c.011-.544.119-1.084.065-1.63-.137-1.39-.097-2.788-.047-4.177.089-2.47.037-4.937.033-7.405a43.52 43.52 0 00-.06-2.403c-.02-.338-.047-.688-.159-1.019-.11-.329.086-.596.436-.56.225.022.438.099.511.38.061.232.126.458.124.703-.006.662-.024 1.325.059 1.984.035.285.245.46.625.474.368.012.736-.004 1.105.059.356.06.643.26.644.52.002.354-.26.624-.655.645-.309.017-.62 0-.929.005-.416.007-.604.214-.665.62-.14.943-.124 1.89-.122 2.839.001.637-.007 1.272-.12 1.903-.024.134.06.28.058.432-.008.688.01 1.377-.01 2.065-.008.322.04.64.085.95.073.485.393.692 1.007.738.276.021.555.002.833.004.444.002.755.28.774.688.012.255-.394.537-.78.538h-1.121c-.492.002-.767.27-.791.767l-.129 2.55a.705.705 0 01-.68.683c-.827.028-1.653.115-2.307.066-.657 0-1.139-.023-1.618.006-.742.045-1.488-.08-2.226.06-.554.104-1.095-.039-1.642-.067-.142-.008-.247-.056-.251-.247-.005-.205.107-.236.262-.272.537-.129 1.07-.228 1.631-.135.341.057.694-.02 1.041-.046.467-.036.94-.009 1.41-.009.746 0 1.492.006 2.238-.002.43-.005.807-.145 1.114-.47m-9.253 3.334c.504.035 1-.031 1.303-.459.327-.46.71-.605 1.26-.615.681-.012 1.374.246 2.046-.048.163-.072.332-.073.5-.06.42.036.839.112 1.26.121.875.02 1.752.026 2.627 0a5.543 5.543 0 001.76-.333c.266-.098.466-.281.548-.57.166-.585.168-1.175.087-1.773-.055-.403-.04-.81.09-1.2.035-.108.056-.26.238-.25.192.01.388-.021.576.008.717.114 1.31-.108 1.669-.733.43-.75.48-1.567-.4-2.14a2.297 2.297 0 00-1.51-.353c-.333.031-.505-.117-.588-.404a1.99 1.99 0 01-.097-.497c-.042-1.385.074-2.767.067-4.15 0-.033 0-.065.004-.097.066-.603.157-1.203.109-1.814-.023-.292.06-.529.407-.611.28-.067.566-.036.843-.112.399-.11.826-.19.998-.627.094-.24.12-.516.133-.778.02-.424-.064-.812-.409-1.121-.381-.343-.815-.46-1.31-.449-.553.013-.951-.486-.83-1.038.102-.461.143-.928.114-1.396-.022-.332-.135-.635-.41-.855a2.07 2.07 0 00-1.702-.428c-.55.103-.888-.096-1.23-.451-.493-.513-.813-.569-1.347-.14-.66.531-1.429.646-2.22.69-.474.025-.952-.01-1.43-.045-1.04-.073-2.076-.027-3.047.431-.207.098-.408.069-.606-.03a2.027 2.027 0 00-1.072-.223 2.979 2.979 0 01-.576-.006c-.802-.097-1.609-.162-2.413-.106-.403.028-.797.067-1.195-.014-.71-.145-1.432-.256-2.049-.682-.274-.19-.75-.067-.92.209-.266.434-.807.633-1.308.506a1.362 1.362 0 00-1.013.13c-.276.154-.577.34-.599.73-.042.756-.089 1.512-.125 2.268-.01.19-.082.279-.27.331-.296.083-.592.035-.886.06-.708.058-1.318.28-1.62 1.008-.15.36-.107.734-.11 1.105a.966.966 0 00.453.858c.551.377 1.164.465 1.81.45.514-.012.566.038.553.563-.022.89.039 1.777-.05 2.668-.061.628-.011 1.268-.011 1.903 0 .634-.01 1.269.004 1.903.007.31-.164.428-.422.441a1.98 1.98 0 01-.6-.042c-.56-.141-1.139.174-1.422.686-.222.4-.265.817-.258 1.262.01.585.274.995.772 1.26.431.229.91.245 1.384.26.56.019.659.127.673.674.016.652-.07 1.308.062 1.956.106.517.345.898.886 1.088.682.24 1.386.152 2.075.2.864.063 1.735-.01 2.606-.083.95-.078 1.912-.142 2.87-.089.715.04 1.436.011 2.014.598.322.328.79.423 1.254.455" />
            <path
                d="M18.386 16.565c.154.133.209.298.208.504-.006 1.462.005 2.923-.01 4.385-.003.328-.014.68-.223.96-.091.123-.14.254-.185.39-.072.214.065.436.286.451 1.03.069 2.061.123 3.09.198.783.057 1.343-.878 1.077-1.528-.063-.154-.105-.32-.315-.349-.234-.032-.256.15-.34.293-.202.339-.376.688-.878.702a3.05 3.05 0 00-.61.08c-.42.102-.722-.203-.746-.646-.014-.26-.09-.517-.104-.777-.028-.536-.09-1.077.143-1.593.085-.19.206-.265.416-.255.271.012.446.205.665.313.295.146.498.108.681-.156.167-.24.168-.523.099-.79-.134-.513-.334-.565-.752-.225-.048.038-.113.057-.155.1-.19.196-.435.258-.66.143-.27-.138-.385-.403-.397-.72-.014-.353.056-.698.066-1.047a.705.705 0 011.017-.63c.309.149.514.423.787.614.211.148.33.075.438-.102.187-.304-.023-.546-.122-.815-.162-.439-.44-.64-.908-.554-.051.01-.106 0-.16 0v-.014c-.705.048-1.41.083-2.113.151-.216.021-.506-.054-.618.234-.112.289.11.457.278.637.014.016.029.032.045.046M9.98 16.283c.175.104.3.248.414.42.4.602.618 1.28.852 1.957.381 1.101.773 2.2 1.097 3.32.075.26.14.52.287.747.163.25.345.51.691.46.305-.045.445-.3.52-.565.352-1.245.679-2.497 1.035-3.741.26-.91.394-1.866.901-2.69.115-.187.05-.305-.096-.402a.886.886 0 00-.64-.148c-.147 0-.243-.006-.339.001-.382.027-.543.342-.355.674.228.402.255.83.163 1.28-.153.741-.442 1.446-.553 2.2-.04.266-.065.56-.29.774-.233.223-.248.222-.418-.072-.21-.362-.255-.786-.43-1.157-.31-.648-.473-1.344-.7-2.02-.109-.322-.128-.64.109-.92.306-.364.13-.715-.291-.829-.623-.168-1.237.017-1.854.028-.153.003-.248.17-.275.34-.026.158.043.267.172.343M60.258 25.874c-.025.383-.3.647-.724.672-.245.014-.491.003-.737.003-.213 0-.427-.004-.64 0a.682.682 0 00-.654.67c.008.85-.112 1.683-.253 2.517-.03.174 0 .338-.15.494-.187.195-.378.249-.64.265-1.04.062-2.085.103-3.124.044-1.62-.092-3.238-.024-4.856-.05-.169-.003-.302-.045-.333-.22-.034-.189.043-.294.244-.374.569-.227 1.137-.17 1.727-.143.443.021.893.064 1.343.06.565-.007 1.141.012 1.712.024.85.017 1.697-.098 2.549-.066.243.009.425-.166.552-.362.125-.192.206-.42.196-.646-.034-.815.065-1.624.075-2.437.024-1.963.071-3.925.062-5.889-.012-2.624-.002-5.249-.004-7.873 0-.352-.238-.638-.287-.981-.036-.254.114-.5.365-.523.61-.055.924.273.95.98.017.46-.112.911-.065 1.372.04.394.123.767.513.97.204.106.423.18.656.16.308-.025.612.023.91.075a.559.559 0 01.483.509c.058.48-.013.576-.356.725-.452.197-.918.079-1.376.113-.35.025-.651.102-.786.493a.6.6 0 00-.04.306c.107.54.019 1.076.002 1.615-.025.806-.01 1.613-.005 2.42.004.713-.092 1.422-.11 2.13-.017.62.017 1.266.245 1.861.129.337.471.378.782.402.388.03.78-.032 1.167.066.452.114.63.282.607.618m-12.442 3.329c-.333.005-.367-.222-.437-.427-.088-.256.137-.3.297-.348a3.4 3.4 0 01.89-.144c.947-.026 1.89.076 2.836.073.946-.003 1.876-.101 2.788-.366.34-.1.637.037.88.277.14.14.268.298.375.465.168.264.052.461-.26.461h-3.684c-1.229 0-2.457-.012-3.685.009m-.385 1.786c-.142.322-.469.238-.734.275-.628.116-.991-.692-.916-1.186.02-.13.062-.262.123-.378.428-.813.993-.52 1.39-.023.32.4.338.858.137 1.312m-1.81-3.342c-.659-.087-1.317-.192-1.843-.13-.675 0-1.217-.058-1.74.014-.713.097-1.402-.035-2.1-.084-.713-.05-1.096-.541-.955-1.25.188-.945.144-1.896.102-2.84-.028-.618 0-1.238-.049-1.855-.109-1.402-.1-2.808-.046-4.209.077-2.027.02-4.053.047-6.08.003-.185.071-.346.143-.504a.272.272 0 01.313-.167c.467.08.94.134 1.38.329.19.083.395.116.604.124.925.037 1.85-.016 2.77-.085.328-.025.64.03.96.027.494-.005.695.27.824.94.163.844.173 1.7.109 2.545-.068.9-.048 1.798-.04 2.695.008 1.19-.101 2.374-.08 3.564.01.587.094 1.169.077 1.758a82.55 82.55 0 01-.09 2.37c-.047.835-.027 1.668-.036 2.501-.003.277-.09.371-.35.337m.016 1.432c-.05.129-.22.18-.75.18-.34-.012-.81-.158-1.293-.228a2.975 2.975 0 00-.947.001 1.814 1.814 0 01-.31.032c-1.217.002-2.433 0-3.65.003-.213 0-.441-.013-.535-.218-.109-.237.007-.447.204-.616.22-.188.385-.36.756-.285.825.169 1.668.299 2.507.32.543.014 1.098-.04 1.647-.038.663.001 1.329-.059 1.982.123.31.086.505.426.39.726m-.584 1.085c-.023.201-.186.3-.4.325-.474.056-.948.075-1.425.072-1.222-.1-2.446-.063-3.669-.081-.362-.006-.713.1-1.074.07-.304-.026-.61-.119-.912-.058-.262.054-.512.014-.768-.003a.828.828 0 01-.778-.82c-.004-.526.013-1.054-.006-1.58-.015-.422-.095-.82-.442-1.135-.212-.192-.436-.258-.7-.278-.324-.023-.647.03-.976-.053-.53-.134-.673-.44-.638-.767.03-.29.269-.499.766-.526.438-.025.873-.028 1.289-.2.306-.125.411-.356.456-.679.21-1.48.096-2.968.118-4.452.017-1.074.005-2.149.003-3.224a.812.812 0 00-.554-.746c-.236-.083-.475-.158-.73-.128-.33.038-.65-.047-.975-.073-.264-.022-.44-.215-.488-.466-.05-.256-.012-.501.289-.626.282-.117.566-.198.872-.192.347.006.683-.076 1.02-.14.275-.051.563-.46.565-.762a24.61 24.61 0 01.059-1.791c.048-.593.173-.837.595-.965.233-.07.429.038.619.139.122.064.059.165.018.274-.201.532-.456 1.05-.456 1.64l-.001 14.706c0 .394.077.781.075 1.178-.001.368.462.74.823.762 1.863.112 3.728.015 5.59.08.501.017 1.027-.033 1.52.166.172.07.336.147.315.333m-7.745-5.572c0-3.902-.005-7.804.006-11.706.001-.514.083-1.022.49-1.413.077-.074.152-.166.238-.14.088.028.137.13.171.245.177.606.105 1.223.12 1.836.003.13 0 .258 0 .387 0 .77.075 1.543.048 2.306-.085 2.371.023 4.743-.064 7.112-.048 1.307-.013 2.613-.047 3.92-.009.353-.217.624-.38.907-.081.14-.282.148-.435.108-.14-.036-.163-.18-.145-.307.133-.952-.103-1.907.028-2.861.016-.117-.03-.261-.03-.394m9.365 2.87c.06-.748.138-1.498.168-2.245.038-.959.095-1.927-.043-2.887-.012-.084-.003-.172-.003-.258 0-1.656-.044-3.313.016-4.967.04-1.114-.01-2.229.063-3.339.037-.566.034-1.13.047-1.695a.973.973 0 01.75-.95c.206-.05.412-.066.622-.064.523.005 1.047.002 1.57.002.491 0 .983.005 1.474-.002.858-.011 1.697-.133 2.496-.471.224-.095.39.026.395.304.009.383-.022.764-.049 1.147a13.243 13.243 0 00-.004 1.902c.119 1.586.09 3.175.038 4.758-.06 1.813.026 3.627-.061 5.436-.045.91-.031 1.818-.041 2.727-.004.32-.154.492-.413.587a2.21 2.21 0 01-.728.14c-.689.01-1.378.115-2.066.052-.647-.058-1.293-.04-1.94-.062-.602-.02-1.184.025-1.752.26-.403.167-.573.048-.539-.375m8.146-9.772c.017-.715-.011-1.438.07-2.144.1-.87-.032-1.724-.045-2.583-.008-.519.028-1.033.031-1.55.002-.255.213-.348.471-.234.35.154.403.512.546.803.121.245.127.52.14.796.067 1.393.103 2.788.043 4.178-.045 1.05.018 2.101-.064 3.145-.058.75-.071 1.5-.033 2.243.034.651.07 1.304.037 1.952a65.076 65.076 0 00-.056 1.598c-.01.417.092.823.076 1.243-.008.245-.083.478-.08.725.001.177-.263.251-.448.1-.387-.318-.695-.702-.697-1.24-.005-1.549-.002-3.097-.002-4.646 0-1.462-.024-2.925.01-4.386m5.284 6.63c-.31-.084-.647-.14-.976-.092-.458.066-.662-.27-.668-.68-.01-.61.045-1.22-.05-1.83-.038-.245-.002-.506.03-.764.067-.56.16-1.131.075-1.695-.104-.686-.042-1.364.025-2.042.015-.159.121-.312.346-.289.18.018.364-.008.544.006.789.062 1.289-.29 1.603-1.018.33-.763-.068-1.978-.93-2.149a6.385 6.385 0 00-1.064-.123c-.506-.014-.725-.28-.633-.782a8.334 8.334 0 00.108-1.622c-.009-.554-.29-1.011-.975-1.154-.501-.104-.994-.016-1.482.027-.256.023-.37-.038-.48-.224a2.927 2.927 0 00-.154-.24c-.348-.476-.756-.597-1.166-.32-.736.493-1.548.682-2.422.702-1.12.026-2.236-.128-3.354-.061-.548.032-1.123.015-1.604.374-.09.067-.173.026-.26-.018-1.044-.513-2.166-.48-3.273-.41-.915.058-1.815.066-2.715-.12-.466-.097-.875-.354-1.34-.457-.418-.092-.993.027-1.065.289-.084.311-.27.393-.551.413-.23.017-.453-.02-.678-.045-.4-.047-.812-.11-1.196.028-.645.231-.896.751-.928 1.414-.027.549.14 1.078.131 1.623-.005.363-.14.494-.482.589-.287.08-.573.071-.854.048-1.171-.094-1.833 1.455-1.408 2.295.274.54.774.682 1.315.745.396.045.797.057 1.181.187.15.05.283.13.24.283-.123.45-.008.89.009 1.334.022.568-.03 1.133-.065 1.698-.068 1.137.164 2.262.13 3.398-.013.468-.148.598-.628.658-.366.046-.736.034-1.1.12-.742.175-1.015.571-1.127 1.32-.083.547.151 1.11.647 1.47.442.323.947.448 1.49.441.48-.006.627.12.711.593.013.074 0 .15.006.226.037.494-.127.978-.065 1.396 0 .281-.006.486.002.69.016.417.184.673.485.76.591.169 1.203.253 1.809.261 2.282.03 4.565-.003 6.848.06.515.015.937.166 1.365.42.946.56 1.658.646 2.445-.258.204-.235.422-.23.697-.22 1.49.053 2.983-.024 4.476.058 1.228.068 2.464.056 3.693 0 .907-.04 1.269-.299 1.381-1.152.094-.72.143-1.444.134-2.17-.004-.424.176-.6.6-.6.308 0 .612-.02.919-.06.929-.121 1.677-1.248 1.358-2.11-.203-.55-.504-1.057-1.11-1.221" />
            <path
                d="M48.89 23.322c.555-.002 1.109.005 1.663-.003.249-.004.38-.249.287-.485a.854.854 0 00-.171-.295c-.214-.223-.297-.484-.289-.8.019-.71.006-1.42.006-2.13 0-.72-.014-1.44.006-2.16.01-.4-.03-.83.357-1.123.084-.063.127-.188.172-.29.14-.317.04-.565-.297-.58-.545-.025-1.097-.063-1.641.056-.185.04-.27.206-.245.335.029.152.043.326.16.464.112.134.204.286.208.477.012.651.005 1.301.048 1.953.057.835.038 1.678.005 2.515-.02.514-.012 1.065-.524 1.413a.39.39 0 00-.153.415c.05.16.222.24.409.238M42.794 19.255c-.513.023-.777-.29-.73-.75.066-.635.124-1.265.121-1.903-.001-.506.61-.658 1.102-.464.574.227.719.775.845 1.265.204.797-.482 1.829-1.338 1.852m2.467 3.325c-.13-.151-.284-.276-.4-.448-.369-.552-.62-1.177-1.036-1.698-.072-.09-.088-.176-.112-.281-.104-.469.302-.608.545-.803.65-.523 1.067-1.128.933-2.003-.056-.366-.08-.752-.34-1.05-.785-.9-1.818-1.001-2.905-.889-.358.038-.71.073-1.064-.01-.264-.06-.436.092-.542.284-.105.19.031.362.194.452.393.218.487.58.49.979.012 1.393-.036 2.785-.038 4.177 0 .557.048 1.047-.453 1.408-.044.032-.076.11-.078.167-.005.172.013.374.226.385.517.027 1.036-.003 1.554.061.158.02.328-.072.429-.243.121-.207-.041-.355-.136-.445-.366-.346-.485-.753-.415-1.132.011-.39-.017-.675.062-.958.033-.12.018-.267.155-.303.18-.046.252.098.322.237.406.798.957 1.503 1.426 2.261.188.304.48.571.91.53a.545.545 0 00.45-.306c.085-.167-.082-.26-.177-.372M48.459 55.276c-.157.08-.321.133-.506.127-.3-.008-.6-.003-.899-.002-.486.003-.816.237-.89.682-.089.526-.12 1.06-.21 1.587-.059.352-.06.703-.055 1.056.003.167-.12.247-.228.312a1.477 1.477 0 01-.704.207c-2.029.086-4.06.021-6.087.078-1.012.028-2.024.022-3.036.05-.521.014-1.035-.104-1.558-.069-.284.02-.326-.251-.387-.42-.051-.14.115-.263.272-.322.317-.119.648-.059.974-.072 2.37-.13 4.744-.01 7.114-.082.712-.022 1.45.024 2.146-.23.397-.146.501-.313.532-.716.107-1.374.18-2.752.11-4.126-.048-.962-.088-1.925-.037-2.882.099-1.822.071-3.645.032-5.464-.029-1.297-.02-2.593-.041-3.89-.004-.23-.152-.376-.268-.538-.121-.167-.18-.351-.09-.52.083-.157.267-.206.464-.206.715 0 .958.356.876 1.064-.078.67-.084 1.36.19 2.016a.603.603 0 00.5.383c.404.06.815.074 1.217.138.263.041.613.002.698.343.123.49-.06.747-.695.853-.405.068-.817.016-1.218.118a.89.89 0 00-.655.731c-.115.676-.072 1.356-.043 2.03.019.435.073.874.04 1.307-.06.793.001 1.59-.072 2.378-.068.73-.028 1.44.077 2.157.04.282.21.437.456.533.349.135.716.13 1.084.132.312 0 .62.038.907.183.184.093.335.173.328.429-.007.284-.073.509-.338.645m-15.015 2.142c-.052-.183.117-.284.288-.328.463-.117.926-.226 1.41-.126.093.02.192.012.287.012h4.14c.79.001 1.567-.104 2.341-.249.177-.033.34-.094.477-.198.32-.241.656-.105.85.14.171.218.28.48.489.67a.185.185 0 01.02.257.485.485 0 01-.404.201c-.589-.005-1.177-.002-1.765-.002h-.61c-.685 0-1.372-.033-2.054.01-.755.047-1.51.072-2.263.047-.926-.03-1.85-.073-2.777-.055-.273.005-.377-.191-.43-.379m-.722-1.207c-.006-.261.048-.51.105-.76.023-.1.06-.228.019-.305-.176-.326-.056-.661-.049-.987.024-1.035-.078-2.067-.088-3.101-.004-.484-.09-.968.023-1.446.031-.133-.013-.335.196-.381.212-.048.361.06.456.234.304.563.492 1.156.296 1.788-.086.276.068.405.247.411.528.02 1.05.166 1.584.082.14-.021.295-.082.326-.205.027-.11-.042-.244-.159-.335-.189-.148-.356-.324-.549-.468-.316-.235-.372-.567-.416-.921-.064-.515-.238-1.002-.443-1.48-.319-.748-.506-1.535-.715-2.316a17.932 17.932 0 00-.674-2.045c-.097-.24-.084-.529-.088-.796-.011-.65-.003-1.302-.004-1.952 0-.249.065-.49.08-.74.01-.194.225-.348.413-.379.619-.1 1.236-.268 1.87-.203 1.416.146 2.835.233 4.257.178.767-.03 1.532-.125 2.233-.489a1.21 1.21 0 01.536-.134c.395-.006.475.097.392.478-.043.2-.05.41-.066.613-.072.873-.138 1.754-.068 2.628.14 1.741.114 3.484.12 5.228 0 1.07.03 2.142-.012 3.21-.02.552-.1 1.108-.038 1.653.07.617.025 1.23.05 1.844.014.368-.119.639-.493.793-.542.223-1.096.374-1.687.375-1.712.001-3.425.017-5.138-.008-.67-.01-1.303.03-1.925.313-.439.2-.58.072-.59-.377m.48 2.794c-.035.138-.032.284-.058.425-.084.454-.157.507-.662.507-.603 0-1.044-.634-.935-1.234.083-.465.27-.793.732-.944.19-.063.376-.045.528.092.345.312.51.686.394 1.154m-1.7-1.55c-.039.287-.247.396-.51.4-.663.01-1.327.003-1.99.003h-.707c-.75 0-1.5.032-2.247-.008-.905-.048-1.81-.029-2.714-.07-.273-.012-.56-.022-.839-.1-.309-.087-.626.063-.944.054-.217-.006-.307-.033-.213-.295.144-.406.39-.708.738-.95.268-.188.533-.048.729.076.67.426 1.423.392 2.157.403 1.862.025 3.725.008 5.587.009.188 0 .373 0 .56.056.229.069.432.135.393.422m-.97 1.676c-.2.091-.434.1-.61.091-.58-.03-1.15.088-1.735.059-.52-.027-1.068.016-1.604.077-.826.093-1.66-.09-2.489-.043-1.306.075-2.611.142-3.92.12-.522-.01-.755-.26-.824-.76-.085-.616-.038-1.23-.053-1.844-.022-.864-.474-1.304-1.365-1.303-.483 0-.966-.007-1.41-.23-.313-.156-.338-.5-.075-.73.375-.33.85-.302 1.296-.356.323-.039.654-.004.978-.069.203-.04.43-.332.445-.606.144-2.535.038-5.071.058-7.607.005-.7-.58-1.096-1.273-1.004-.401.054-.83.09-1.229-.053-.261-.095-.5-.272-.502-.572-.001-.307.288-.562.588-.625.447-.095.9-.044 1.349-.11.41-.06.765-.169.988-.53a.475.475 0 00.09-.258c-.006-.531-.014-1.062.053-1.592.03-.234.08-.466.082-.708.002-.23.366-.441.698-.447.175-.004.401-.064.483.14.077.189.087.432-.059.594-.384.428-.414.925-.442 1.463-.036.69-.077 1.379-.04 2.065.096 1.78.017 3.56.069 5.34.013.455.099.92.036 1.368-.062.443.02.892-.11 1.327-.058.197.06.385.063.581.007.375-.05.748-.057 1.12-.02 1.145.136 2.286.132 3.434-.001.209.025.432.058.645.034.218.181.37.424.378.31.01.621.002.977.002.818.027 1.68-.052 2.54-.084.606-.021 1.218-.077 1.816-.029 1.49.119 2.978.116 4.468.11.292-.002.304.232.357.391.048.143-.115.194-.25.255m-9.89-2.492c.007-.041.002-.084.002-.126h.064c0-2.345.051-4.691-.016-7.034a150.43 150.43 0 01-.033-5.682c.007-.78.028-1.564.053-2.345.013-.415.314-.7.564-.992.116-.135.438.04.456.246a1.25 1.25 0 01-.053.489c-.082.264-.007.54-.007.812 0 2.801-.046 5.603.017 8.403.038 1.685.018 3.369.046 5.053.01.54-.2.99-.588 1.37-.094.091-.188.192-.327.136-.138-.056-.203-.175-.178-.33m1.815-16.946c.008-.112.137-.107.236-.106.393.006.751.156 1.102.296.347.139.703.181 1.064.206.83.056 1.663-.014 2.488-.076.633-.047 1.268-.063 1.899-.092.677-.031 1.363.051 2.037.172.303.054.683.492.662.847-.052.918-.012 1.84-.07 2.756-.053.82-.28 1.614-.554 2.399-.393 1.12-.6 2.293-.912 3.438-.1.37-.208.74-.332 1.104-.084.25-.317.361-.531.493-.131.08-.33.165-.282.357.046.186.243.209.416.27.343.121.666-.015.997-.016.27-.002.323-.205.313-.433-.03-.683.184-1.302.513-1.892.064-.116.142-.212.293-.187.155.025.133.18.147.265.096.585.054 1.171.03 1.763-.036.873-.053 1.751.028 2.63.068.73.029 1.47.005 2.204-.007.213-.198.318-.428.32a4.353 4.353 0 01-.82-.063c-.61-.11-1.219-.029-1.831-.013-1.6.04-3.201-.07-4.803-.067-.514 0-1.06-.083-1.468-.492a.49.49 0 01-.152-.384c.006-1.145.003-2.29.003-3.433 0-1.04.043-2.081-.01-3.118a58.189 58.189 0 01-.039-4.489c.024-.94.037-1.88.049-2.82a5.284 5.284 0 00-.127-1.197c-.048-.22.061-.426.077-.642m9.847 6.578c.307.187.548.48.741 1.545.07.386.751 1.18-.796.896-.47.018-.69-.177-.77-.456a.515.515 0 01-.041-.173 2.32 2.32 0 01.157-.993c.042-.113.11-.22.139-.335.021-.085.058-.162.116-.2l.013-.027s.134-.444.44-.257m10.947-2.64c-.006-.613-.037-1.228-.059-1.842-.015-.46.092-.912.07-1.37-.008-.167.122-.243.23-.312.113-.073.182.054.262.118.442.352.578.833.6 1.362.008.188.002.377.002.566h.064c0 3.898.017 7.797-.012 11.696-.007.938-.05 1.878-.051 2.818 0 .098.001.203-.104.238-.103.035-.202.007-.285-.084-.55-.603-.897-1.242-.728-2.112a3.312 3.312 0 00-.031-1.43c-.02-.08-.01-.167-.01-.25 0-1.994-.046-3.99.018-5.982.036-1.14.046-2.278.034-3.416m6.677 10.268c-.167-.63-1.515-1.217-2.011-1.057-.287.093-.544-.008-.807-.066-.252-.055-.214-.28-.171-.437.058-.21.05-.414.05-.621.002-1.48.001-2.96.001-4.441 0-.336-.008-.672.002-1.008.014-.476.196-.748.53-.751.226-.003.442-.05.662-.074.62-.067 1.162-.312 1.452-.87.447-.856-.283-2.117-1.102-2.172-.34-.024-.679-.03-1.017-.039-.553-.013-.67-.101-.651-.633.02-.592.174-1.175.126-1.773a1.091 1.091 0 00-.275-.675c-.427-.48-1.018-.605-1.587-.552a3.566 3.566 0 01-1.742-.257c-.6-.24-1.213-.428-1.904-.03-.898.516-1.96.45-2.969.509-.786.045-1.57-.053-2.355-.108-.788-.054-1.584-.004-2.376-.015-.436-.007-.844.08-1.21.308-.186.117-.343.094-.519.003-.252-.13-.513-.262-.792-.3-1.061-.148-2.128-.073-3.188.004-1.072.078-2.136.165-3.212.06-.74-.073-1.417-.274-2.038-.674-.563-.364-.876-.308-1.22.254-.245.402-.572.564-1.039.542-.398-.019-.785-.091-1.2-.022-.718.12-1.076.409-1.103 1.255-.018.597.106 1.186.071 1.784-.022.38-.07.434-.443.445-.435.013-.868-.014-1.306.051-.904.134-1.347.524-1.541 1.397-.19.849.268 1.425.961 1.64a7.63 7.63 0 001.929.311c.137.006.276-.03.272.193-.009.595.064 1.188.07 1.784.01.891-.105 1.776-.075 2.667.012.385.12.767.063 1.153-.045.3-.074.6-.06.903.022.519-.122.655-.64.535a2.3 2.3 0 00-1.28.08 1.681 1.681 0 00-1.16 1.772c.042.522.243 1.022 1.276 1.25.467.103.942.13 1.421.124.362-.004.444.112.521.447.057.246 0 .47-.014.703-.034.597.07 1.188.08 1.784.007.485.3.807.78.988.274.103.557.132.833.157.276.024.539.159.808.128.583-.067 1.159-.169 1.752-.117.714.062 1.426-.073 2.14-.062.25.003.485.098.75.011.36-.118.747-.124 1.13-.14.62-.027 1.232.084 1.851.072.543-.01 1.084-.063 1.627-.08.518-.018.926.144 1.357.399.657.388 1.351.556 2.056.032.342-.254.765-.344 1.192-.352.604-.011 1.21.002 1.814-.005.375-.004.754-.115 1.12.061.052.025.127.005.191.004.394-.002.79-.053 1.178-.049 1.368.013 2.733-.091 4.1-.078.493 0 .988.03 1.477-.01a9.28 9.28 0 001.431-.23c.502-.121.789-.394.932-.86.127-.411.045-.83.06-1.246.017-.478-.024-.957.126-1.426.047-.148.105-.24.268-.26.345-.038.69-.085 1.036-.124 1.17-.132 1.809-1.082 1.511-2.196" />
        </g>
</svg>