<?xml version="1.0" encoding="UTF-8"?>
<svg id="a" data-name="Calque 1" xmlns="http://www.w3.org/2000/svg" viewBox="0 0 202.28 202.29">
  <defs>
    <style>
      .b {
        fill: #0375b7;
      }

      .c {
        fill: #fff;
      }
    </style>
  </defs>
  <path class="c" d="M96.85,.17C95.03,.06,93.23,0,91.43,0,66.39-.03,43.71,10.63,23.95,31.76,5.99,50.96-.05,66.41,0,85.08c.03,9.98,1.8,20.88,4.42,33.77,4.93,24.23,19.31,47.61,39.46,64.17,15.42,12.67,32.62,19.15,50.75,19.27,9.39,.06,19.03-1.58,28.81-4.95,31.55-10.89,61.74-42.07,73.4-75.82,3.69-10.68,5.48-21.08,5.44-30.97-.09-24.18-11.14-45.37-32.24-60.52C144.44,11.63,119.82,1.59,96.85,.17Z"/>
  <path class="b" d="M60.83,101.47h-6.94v.2c-.06,1.35-.86,13.15-11.42,13.15-9.44,0-14.23-8.46-14.24-25.14,0-16.68,4.8-25.14,14.24-25.14,10.74,0,11.39,12.61,11.42,13.15v.2h6.95c.64,0,1.26-.26,1.71-.72,.43-.44,.65-1.01,.62-1.6-.14-3.27-1.82-19.6-20.79-19.6-15.33,0-23.43,11.65-23.43,33.69s8.1,33.76,23.43,33.76c18.25,0,20.52-14.91,20.79-19.48,.04-.63-.17-1.24-.61-1.7-.44-.47-1.07-.74-1.71-.74Z"/>
  <path class="b" d="M168.63,85.66h0l-5.98-2.6c-5.75-2.53-7.78-4.98-7.78-9.39,0-5.75,4.2-9.61,10.46-9.61,3.7,0,6.73,.76,10.44,4.53l.2,.21,3.19-2.92c1.85-1.71,1.31-3.26,.54-4.25-3.11-3.67-8.1-5.68-14.07-5.68-11.5,0-19.85,7.5-19.85,17.84s6.4,14.41,13.32,17.49l6.1,2.72c6.13,2.75,9.05,5.09,9.05,10.99,0,8.04-7.27,10.19-11.56,10.19-3.69,0-7.81-.79-12.86-6.51l-.2-.23-3.32,2.92c-1.71,1.5-1.72,2.79-.06,4.93,4.57,5.88,11.28,7.11,16.1,7.11,10.42,0,20.98-6.4,20.98-18.64,0-10.59-5.88-15.29-14.71-19.09Z"/>
  <path class="b" d="M109.71,75.25c0-10.41-8.44-19.23-18.85-19.23-4.9,0-9.36,1.87-12.71,4.93v-3.58h-6.27c-1.89,0-2.61,1.23-2.61,2.65v60.76c0,1.71,1.04,2.62,2.58,2.62h6.27v-47.78c0-6.28,5.09-11.37,11.37-11.37s11.37,5.09,11.37,11.37v47.79h6.23c1.73,0,2.62-.96,2.62-2.61v-45.54Z"/>
  <path class="b" d="M145.68,60.56c.33-.41,.53-.92,.53-1.48,0-1.05-.68-1.92-1.62-2.24-1.81-.61-3.75-.94-5.76-.94-4.9,0-9.36,1.87-12.71,4.93v-3.58h-6.27c-1.89,0-2.61,1.23-2.61,2.65v60.75c0,1.71,1.05,2.62,2.59,2.62h6.27v-47.78c0-6.28,5.09-11.37,11.37-11.37,1.64,0,3.2,.36,4.61,.98l3.62-4.55h-.02Z"/>
</svg>