<?xml version="1.0" encoding="utf-8"?>
<!-- Generator: Adobe Illustrator 27.9.0, SVG Export Plug-In . SVG Version: 6.00 Build 0)  -->
<svg version="1.1" id="Laag_1" xmlns="http://www.w3.org/2000/svg" xmlns:xlink="http://www.w3.org/1999/xlink" x="0px" y="0px"
viewBox="7 15 360 71.45" style="enable-background:new 0 0 595.28 240.94;" xml:space="preserve">
<style type="text/css">
	.st0{fill:#FFFFFF;}
</style>
<g fill="#0076BA">
	<rect x="14.17" y="14.17" class="st0" width="56.69" height="56.69"/>
	<polygon points="38.24,30.32 42.52,26.04 46.8,30.32 49.17,27.95 44.89,23.67 49.17,19.39 46.8,17.02 42.52,21.3 38.24,17.02 
		35.87,19.39 40.15,23.67 35.87,27.95 	"/>
	<polygon points="38.24,46.07 42.52,41.79 46.8,46.07 49.17,43.7 44.89,39.42 49.17,35.14 46.8,32.77 42.52,37.05 38.24,32.77 
		35.87,35.14 40.15,39.42 35.87,43.7 	"/>
	<polygon points="38.24,68 42.52,63.72 46.8,68 49.17,65.63 44.89,61.35 49.17,57.07 46.8,54.7 42.52,58.98 38.24,54.7 35.87,57.07 
		40.15,61.35 35.87,65.63 	"/>
	<g>
		<path d="M55.41,30.25l-4.93,0.23c0,0,0.7,5.2,0.41,10.45c-0.29,5.02-1.08,5.9-1.08,5.9c-1.11,2.09-4.56,2.6-6.32,2.73
			c-1.77,0.14-2.56,0.04-2.56,0.04s-5.08-0.2-6.22-2.56c-0.65-1.35-0.79-4-0.79-4s-0.03-12.41-0.08-12.69
			c-0.03-0.15-1.03,0.11-2.19,0.1c-0.94,0-2.32-0.06-2.32-0.06l0.41,9.11l-0.06,5.39c0,0,0,2.89,0.74,4.04
			c1.25,1.96,2.64,2.66,3.43,3.03c0.79,0.38,2.04,0.75,3.44,1.03c1.39,0.28,3.72,0.42,6.78-0.36c3.07-0.79,4.42-2.18,4.42-2.18
			l2.32-2.18l-0.01,5.16L55.7,52c0,0-0.64-4.09-0.64-11.06C55.07,33.97,55.41,30.25,55.41,30.25"/>
	</g>
</g>
<g>
	<path class="st0" d="M89.28,19.23c0-3.1-1.88-3.1-4.04-3.1l-0.2-0.16v-0.66c0-0.43,0.27-0.47,0.71-0.47c1.02,0,3.53,0.2,5.38,0.2
		c1.96,0,3.96-0.2,5.92-0.2l0.12,0.12v1.02l-0.19,0.16H96.5c-2.55,0-3.69,0.27-3.69,3.21v11.38c0,5.65,1.1,10.08,7.85,10.08
		c7.02,0,9.3-3.37,9.3-10v-10.2c0-4.47,0-4.16-3.45-4.47l-0.16-0.31v-0.75l0.12-0.24c0.7,0,1.49,0.2,4.43,0.2
		c1.65,0,3.73-0.2,4.98-0.2l0.16,0.24v0.82l-0.24,0.24c-2.86,0-3.88,0.16-3.88,2.12v14.01c0,7.18-4.2,10.83-11.34,10.83
		c-5.69,0-11.3-2-11.3-8.55V19.23z"/>
	<path class="st0" d="M118.27,25.35c0-0.59-0.03-0.74-0.15-0.97c-0.26-0.5-1.56-1.56-2.06-1.59l-1.56-0.09
		c-0.12,0-0.14-0.29-0.14-0.53c0-0.15,0-0.38,0.14-0.38c0.91,0,1.62-0.06,2.35-0.06c1.35,0,3.5,0.11,4.03,0.18l8.91,10.75
		c1.35,1.65,2.67,3.18,4.79,5.29h0.12V25.02c0-1.94-0.71-2.23-1.65-2.26l-1.26-0.06c-0.12,0-0.18-0.29-0.18-0.5
		c0-0.18,0.09-0.47,0.26-0.47c0.65,0,2.18,0.15,3.62,0.15c1.32,0,2.73-0.15,3.56-0.15c0.14,0,0.18,0.11,0.18,0.24v0.55
		c0,0.15-0.06,0.18-0.26,0.18h-0.76c-2.03,0-2.03,1.03-2.03,3.53v17.02h-0.71L119.6,25.12v13.49c0,2.53,0.35,2.82,2.88,2.91
		c0.12,0,0.21,0.26,0.21,0.5c0,0.23-0.03,0.47-0.12,0.47c-0.56,0-2.44-0.15-3.67-0.15c-1.45,0-2.09,0.15-3.44,0.15
		c-0.18,0-0.21-0.21-0.21-0.59c0-0.26,0.03-0.38,0.38-0.38c1.23,0,2.64-0.29,2.64-1.79V25.35z"/>
	<path class="st0" d="M146.95,37.05c0,4.29,0.09,4.32,2.97,4.47l0.15,0.21v0.55c0,0.18-0.44,0.21-0.7,0.21
		c-0.41,0-2.38-0.15-3.59-0.15c-1.41,0-2.85,0.15-4.38,0.15c-0.12-0.06-0.15-0.24-0.15-0.53c0.03-0.38,0.09-0.44,0.94-0.44
		c2.03,0,2.12-0.44,2.12-2.68V24.79c0-1.67-0.5-2.09-2.97-2.09l-0.09-0.14l-0.06-0.48c0.03-0.32,0.29-0.35,0.47-0.35
		c0.8,0,1.74,0.14,3.73,0.14c1.47,0,3.23-0.14,4.41-0.14l0.15,0.21v0.52l-0.12,0.18l-0.79,0.06c-1.18,0.09-2.09,0.21-2.09,1.56
		V37.05z"/>
	<path class="st0" d="M154.24,23.7c-0.32-0.79-1.5-1-2.32-1l-0.18-0.15v-0.76l0.32-0.06c1.23,0,3.03,0.14,3.67,0.14
		c1.36,0,2.68-0.14,4.03-0.14l0.09,0.09l-0.09,0.82l-1.38,0.12c-0.47,0.03-1,0.21-1,0.65c0,0.24,0.15,0.62,0.26,0.88l3.38,8.82
		l1.91,4.38c0.21,0.44,0.24,0.53,0.32,0.53c0.06,0,0.15-0.12,0.26-0.47l4.2-11.14c0.47-1.27,0.82-2.35,0.79-2.71
		c-0.03-0.5-0.17-0.76-1.03-0.85l-1.53-0.15l-0.18-0.09V21.7c1.15,0,2.29,0.18,3.44,0.18c0.91,0,2.85-0.18,3.06-0.18l0.24,0.12v0.68
		l-0.26,0.21l-0.91,0.06c-0.59,0.03-0.82,0.33-1.24,1.36c-2.79,6.73-3.47,8.84-5.7,14.52l-1.5,3.82c-0.15,0.42-0.2,0.44-0.41,0.44
		c-0.27,0-0.32-0.09-0.38-0.2L154.24,23.7z"/>
	<path class="st0" d="M177,24.73c0-1.91-1.44-2.12-3.14-2.12c-0.12,0-0.12-0.15-0.12-0.26v-0.32c0-0.26,0.5-0.29,1.53-0.29
		c1.17,0,2.5,0.15,3.73,0.15c1.18,0,2.35-0.15,3.53-0.15h6.2c0.23,0,0.26,0.26,0.26,0.59v3.59c0,0.12-0.06,0.24-0.21,0.24
		c-0.23,0-0.7,0.03-0.73-0.32l-0.09-0.91c-0.18-1.88-1.47-2.21-3.12-2.21h-3.03c-1.64,0-2.17,0.35-2.17,2.59v5.32
		c0,0.09,0.18,0.24,0.23,0.24l3.47-0.12c1.76-0.06,2.26-0.62,2.71-2.18c0.06-0.17,0.15-0.24,0.47-0.24c0.21,0,0.36,0.04,0.36,0.18
		c0,0.62-0.18,1.97-0.18,2.94c0,1.59,0.18,2.44,0.18,2.94c0,0.18-0.29,0.35-0.47,0.35c-0.23,0-0.44-0.09-0.5-0.38
		c-0.15-0.79-0.15-1.35-0.3-1.76c-0.15-0.44-0.5-0.65-1.38-0.68l-4.17-0.09c-0.41,0-0.41,0.14-0.41,0.35v7
		c0,2.11,1.56,2.17,3.59,2.17h1.59c1.56,0,2.65-0.03,3.38-0.47c0.65-0.38,1.56-2.17,1.88-2.91c0.38,0,0.88,0.09,0.88,0.29
		c0,0.09-0.09,0.32-0.15,0.47l-0.83,2.97c-0.23,0.8-0.38,0.8-0.76,0.8c-3.18,0-6.29-0.15-10.56-0.15c-0.97,0-3.44,0.15-4.94,0.15
		c-0.09,0-0.17-0.29-0.17-0.47c0-0.23,0.06-0.5,0.17-0.5c2.56-0.12,3.26-0.38,3.26-3.09V24.73z"/>
	<path class="st0" d="M195.88,24.91c0-1.47-0.06-2.21-1.91-2.21h-1.21c-0.18,0-0.21-0.32-0.21-0.56c0-0.15,0.09-0.41,0.21-0.41
		c1.7,0,3.44,0.09,5.14,0.09c1.36,0,2.68-0.09,4.03-0.09c3,0,5.94,2,5.94,5.08c0,2.67-2.44,4.47-4.73,4.82v0.06
		c1.14,0.26,2.35,2.41,2.64,2.88l3.23,4.94c1.03,1.56,1.71,1.85,3.47,1.94l0.18,0.17v0.56c0,0.26-0.21,0.29-0.32,0.29
		c-0.62,0-1.53-0.09-1.97-0.09c-0.71,0-1.42,0.09-2.12,0.09c-0.67,0-2-1.97-3.73-5.06c-1.91-3.38-3.03-5.24-4.97-5.24
		c-0.24,0-0.59,0-1.03,0.06v7.2c0,1.06,0,2.06,1.47,2.06c1.12,0,1.62,0,1.62,0.23c0,0.56-0.09,0.74-0.53,0.74
		c-1.53,0-2.79-0.15-4.06-0.15c-0.5,0-3.77,0.15-4.18,0.15c-0.18,0-0.24-0.38-0.24-0.62c0-0.26,0.12-0.32,0.71-0.35
		c2.03-0.09,2.56-0.38,2.56-2.41V24.91z M198.52,31.17c0.38,0.03,0.74,0.06,1.12,0.06c2.35,0,5.29-0.83,5.29-4.29
		c0-2.58-1.77-4.26-4.35-4.26c-2,0-2.06,0.47-2.06,1.35V31.17z"/>
	<path class="st0" d="M217.19,31.79c-2.11-1.27-2.97-2.44-2.97-4.73c0-3.68,3-5.73,6.96-5.73c1.12,0,2.71,0.38,3.71,0.82l0.21,3.68
		v0.15c0,0.15-0.3,0.21-0.71,0.21c-0.38,0-0.44-0.17-0.47-0.47c-0.21-1.97-1.62-3.24-3.7-3.24c-2,0-3.56,1.41-3.56,3.3
		c0,2.12,1.29,2.94,4.23,4.5c2.91,1.53,5.44,2.88,5.44,6.56c0,4-3.61,6.08-7.29,6.08c-1.21,0-3.2-0.38-4.32-0.85
		c-0.23-0.12-0.32-0.5-0.41-1.15l-0.35-2.76c0-0.17,0.59-0.17,0.76-0.17c0.09,0,0.17,0.06,0.23,0.26c0.68,2.23,2.2,3.53,4.56,3.53
		c2.06,0,4.03-1.79,4.03-3.79c0-1.91-1.09-3.06-2.62-3.97L217.19,31.79z"/>
	<path class="st0" d="M234.74,37.05c0,4.29,0.09,4.32,2.97,4.47l0.15,0.21v0.55c0,0.18-0.44,0.21-0.71,0.21
		c-0.41,0-2.38-0.15-3.59-0.15c-1.41,0-2.85,0.15-4.38,0.15c-0.12-0.06-0.15-0.24-0.15-0.53c0.03-0.38,0.09-0.44,0.94-0.44
		c2.03,0,2.11-0.44,2.11-2.68V24.79c0-1.67-0.5-2.09-2.97-2.09l-0.09-0.14l-0.06-0.48c0.03-0.32,0.29-0.35,0.47-0.35
		c0.79,0,1.73,0.14,3.73,0.14c1.47,0,3.23-0.14,4.41-0.14l0.15,0.21v0.52l-0.12,0.18l-0.8,0.06c-1.17,0.09-2.09,0.21-2.09,1.56
		V37.05z"/>
	<path class="st0" d="M250.6,39.34c0,2.18,1.47,2.18,3.29,2.18l0.18,0.14v0.47c0,0.35-0.15,0.35-0.62,0.35
		c-0.59,0-2.03-0.15-4.09-0.15c-1.62,0-4.14,0.15-4.85,0.15c-0.06-0.21-0.12-0.35-0.12-0.53c0-0.09,0.03-0.27,0.12-0.33l0.3-0.12
		h0.35c2.68,0,2.79-0.91,2.79-3.35V24.23l-0.09-1.35h-3.94c-2.24,0-2.59,1.41-3.15,3.29c-0.06,0.18-0.17,0.26-0.36,0.26
		c-0.41,0-0.67-0.12-0.67-0.29c0-0.5,0.35-3.23,0.35-5.56c0-0.12,0.41-0.12,0.82-0.12c0.94,1.26,1.24,1.26,2.5,1.26h10.94
		c2.05,0,2.64-0.62,3.38-1.53c0.2,0,0.88,0,0.88,0.27c0,0.24-0.59,2.64-0.65,4.76c0,0.32-0.09,0.94-0.24,0.94
		c-0.26,0-0.94-0.14-0.94-0.29l-0.12-1.47c-0.12-1.5-0.82-1.53-2.03-1.53h-4.06V39.34z"/>
	<path class="st0" d="M263.32,24.73c0-1.91-1.44-2.12-3.14-2.12c-0.12,0-0.12-0.15-0.12-0.26v-0.32c0-0.26,0.5-0.29,1.53-0.29
		c1.18,0,2.5,0.15,3.73,0.15c1.18,0,2.35-0.15,3.53-0.15h6.2c0.23,0,0.27,0.26,0.27,0.59v3.59c0,0.12-0.06,0.24-0.21,0.24
		c-0.23,0-0.7,0.03-0.73-0.32l-0.09-0.91c-0.18-1.88-1.47-2.21-3.12-2.21h-3.03c-1.64,0-2.18,0.35-2.18,2.59v5.32
		c0,0.09,0.18,0.24,0.23,0.24l3.47-0.12c1.76-0.06,2.26-0.62,2.71-2.18c0.06-0.17,0.15-0.24,0.47-0.24c0.21,0,0.35,0.04,0.35,0.18
		c0,0.62-0.17,1.97-0.17,2.94c0,1.59,0.17,2.44,0.17,2.94c0,0.18-0.29,0.35-0.47,0.35c-0.24,0-0.44-0.09-0.5-0.38
		c-0.14-0.79-0.14-1.35-0.29-1.76c-0.15-0.44-0.5-0.65-1.38-0.68l-4.18-0.09c-0.41,0-0.41,0.14-0.41,0.35v7
		c0,2.11,1.56,2.17,3.59,2.17h1.58c1.56,0,2.65-0.03,3.38-0.47c0.65-0.38,1.56-2.17,1.88-2.91c0.38,0,0.88,0.09,0.88,0.29
		c0,0.09-0.09,0.32-0.15,0.47l-0.83,2.97c-0.23,0.8-0.38,0.8-0.76,0.8c-3.17,0-6.29-0.15-10.56-0.15c-0.96,0-3.44,0.15-4.94,0.15
		c-0.09,0-0.18-0.29-0.18-0.47c0-0.23,0.06-0.5,0.18-0.5c2.56-0.12,3.26-0.38,3.26-3.09V24.73z"/>
	<path class="st0" d="M285.34,37.05c0,4.29,0.09,4.32,2.97,4.47l0.14,0.21v0.55c0,0.18-0.44,0.21-0.7,0.21
		c-0.41,0-2.38-0.15-3.58-0.15c-1.42,0-2.85,0.15-4.38,0.15c-0.12-0.06-0.15-0.24-0.15-0.53c0.03-0.38,0.09-0.44,0.94-0.44
		c2.03,0,2.11-0.44,2.11-2.68V24.79c0-1.67-0.5-2.09-2.97-2.09l-0.09-0.14l-0.06-0.48c0.03-0.32,0.29-0.35,0.47-0.35
		c0.79,0,1.73,0.14,3.73,0.14c1.47,0,3.23-0.14,4.41-0.14l0.14,0.21v0.52l-0.12,0.18l-0.79,0.06c-1.18,0.09-2.09,0.21-2.09,1.56
		V37.05z"/>
	<path class="st0" d="M300.63,39.34c0,2.18,1.47,2.18,3.3,2.18l0.17,0.14v0.47c0,0.35-0.15,0.35-0.62,0.35
		c-0.59,0-2.03-0.15-4.08-0.15c-1.62,0-4.15,0.15-4.86,0.15c-0.05-0.21-0.12-0.35-0.12-0.53c0-0.09,0.03-0.27,0.12-0.33l0.3-0.12
		h0.35c2.67,0,2.79-0.91,2.79-3.35V24.23l-0.09-1.35h-3.93c-2.24,0-2.58,1.41-3.14,3.29c-0.06,0.18-0.18,0.26-0.36,0.26
		c-0.41,0-0.68-0.12-0.68-0.29c0-0.5,0.36-3.23,0.36-5.56c0-0.12,0.41-0.12,0.82-0.12c0.94,1.26,1.23,1.26,2.5,1.26h10.94
		c2.06,0,2.64-0.62,3.38-1.53c0.2,0,0.88,0,0.88,0.27c0,0.24-0.59,2.64-0.65,4.76c0,0.32-0.08,0.94-0.23,0.94
		c-0.27,0-0.94-0.14-0.94-0.29l-0.12-1.47c-0.12-1.5-0.83-1.53-2.03-1.53h-4.05V39.34z"/>
	<path class="st0" d="M87.54,66.17c-0.32-0.79-1.5-1-2.32-1l-0.18-0.15v-0.76l0.33-0.06c1.23,0,3.02,0.14,3.67,0.14
		c1.35,0,2.67-0.14,4.03-0.14l0.09,0.08l-0.09,0.82l-1.38,0.12c-0.47,0.03-1,0.21-1,0.65c0,0.24,0.15,0.62,0.26,0.88l3.38,8.82
		l1.92,4.38c0.2,0.44,0.23,0.53,0.32,0.53c0.06,0,0.15-0.12,0.27-0.47l4.2-11.14c0.47-1.27,0.82-2.35,0.8-2.71
		c-0.03-0.5-0.18-0.76-1.03-0.85l-1.53-0.15l-0.18-0.09v-0.91c1.15,0,2.29,0.18,3.44,0.18c0.91,0,2.85-0.18,3.06-0.18l0.23,0.12
		v0.68l-0.26,0.21l-0.91,0.06c-0.59,0.03-0.82,0.33-1.24,1.36c-2.79,6.73-3.46,8.84-5.7,14.52l-1.5,3.82
		c-0.14,0.42-0.2,0.44-0.41,0.44c-0.26,0-0.32-0.09-0.38-0.2L87.54,66.17z"/>
	<path class="st0" d="M108.15,76.72l-1.29,4.17c-0.23,0.76-0.35,1.44-0.35,1.91c0,0.97,1.38,1.18,2.18,1.18
		c0.27,0,0.32,0.18,0.32,0.56c0,0.29-0.03,0.42-0.23,0.42c-0.68,0-2.83-0.15-3.62-0.15c-0.79,0-2.02,0.15-2.9,0.15
		c-0.59,0-0.59-0.09-0.59-0.47v-0.32c0-0.15,0.26-0.21,0.97-0.27c1.53-0.15,1.74-0.44,2.3-2.06l5.81-16.93
		c0.59-0.5,1.21-1.18,1.95-1.41l7.38,18.61c0.5,1.23,1.03,1.85,2.74,1.85c0.32,0,0.38,0.36,0.38,0.68c0,0.33-0.2,0.33-0.56,0.33
		c-0.47,0-2.35-0.15-3.5-0.15c-1.18,0-2.35,0.06-3.53,0.15c-0.44,0-0.47-0.09-0.47-0.51c0-0.32,0.18-0.47,0.59-0.47
		c0.44,0,1.88-0.09,1.88-0.8c0-0.23-0.12-0.7-0.53-1.73l-1.88-4.73H108.15z M114.64,75.58l-3.26-8.41h-0.06l-2.79,8.41H114.64z"/>
	<path class="st0" d="M126.8,67.81c0-0.59-0.04-0.74-0.15-0.97c-0.26-0.5-1.56-1.56-2.06-1.59l-1.56-0.09
		c-0.11,0-0.15-0.29-0.15-0.53c0-0.15,0-0.38,0.15-0.38c0.91,0,1.62-0.06,2.35-0.06c1.35,0,3.5,0.11,4.02,0.18l8.91,10.75
		c1.35,1.65,2.68,3.18,4.79,5.29h0.12V67.49c0-1.94-0.7-2.23-1.65-2.26l-1.26-0.06c-0.12,0-0.18-0.29-0.18-0.5
		c0-0.18,0.1-0.47,0.27-0.47c0.64,0,2.17,0.15,3.61,0.15c1.32,0,2.73-0.15,3.56-0.15c0.15,0,0.17,0.11,0.17,0.24v0.55
		c0,0.15-0.06,0.18-0.26,0.18h-0.77c-2.03,0-2.03,1.03-2.03,3.53v17.02h-0.71l-15.87-18.14v13.49c0,2.53,0.35,2.82,2.88,2.91
		c0.12,0,0.2,0.26,0.2,0.5c0,0.23-0.03,0.47-0.11,0.47c-0.57,0-2.44-0.15-3.68-0.15c-1.44,0-2.08,0.15-3.44,0.15
		c-0.17,0-0.21-0.21-0.21-0.59c0-0.26,0.03-0.38,0.38-0.38c1.24,0,2.65-0.29,2.65-1.79V67.81z"/>
	<path class="st0" d="M163.8,74.01l-1.73,5.57c-0.31,1.02-0.47,1.92-0.47,2.55c0,1.29,1.84,1.57,2.91,1.57
		c0.35,0,0.43,0.24,0.43,0.74c0,0.4-0.04,0.55-0.32,0.55c-0.9,0-3.76-0.2-4.83-0.2c-1.05,0-2.7,0.2-3.88,0.2
		c-0.79,0-0.79-0.12-0.79-0.63v-0.43c0-0.2,0.35-0.27,1.3-0.35c2.04-0.19,2.32-0.59,3.07-2.75l7.76-22.6
		c0.78-0.67,1.6-1.57,2.58-1.88l9.85,24.83c0.67,1.65,1.38,2.47,3.65,2.47c0.44,0,0.51,0.47,0.51,0.9c0,0.43-0.27,0.43-0.74,0.43
		c-0.63,0-3.14-0.2-4.67-0.2c-1.56,0-3.14,0.08-4.7,0.2c-0.59,0-0.63-0.12-0.63-0.67c0-0.43,0.23-0.63,0.79-0.63
		c0.59,0,2.51-0.12,2.51-1.06c0-0.31-0.16-0.94-0.71-2.31l-2.51-6.32H163.8z M172.47,72.49l-4.35-11.22h-0.08l-3.73,11.22H172.47z"
		/>
	<path class="st0" d="M204.97,64.2c0.91,0,1.85,0.09,2.79,0.09c0.74,0,1.5-0.09,2.23-0.09c0.44,0,0.53,0.11,0.53,0.21v0.47
		c0,0.21-0.09,0.35-0.21,0.35c-0.21,0-0.52-0.06-0.88-0.06c-1.71,0-1.71,0.85-1.71,2.76c0,1.67,0.33,12.67,0.33,14.29
		c0,0.82,0.41,1.76,1.68,1.76c1.18,0,1.32,0.06,1.32,0.32c0,0.35-0.17,0.65-0.26,0.65c-1.56,0-2.79-0.15-4.03-0.15
		c-1.23,0-2.5,0.15-3.76,0.15c-0.21,0-0.23-0.12-0.23-0.29v-0.3c0-0.29,0.26-0.38,1.62-0.38c0.59,0,1.12-0.71,1.12-1.73
		c0-3.17-0.12-10.02-0.24-15.05c-0.12-0.03-0.09-0.03-0.09-0.03c-1.65,3.38-3.79,8.29-4.79,10.91l-2.77,7.26
		c-0.02,0.09-0.11,0.17-0.26,0.17c-0.14,0-0.26-0.15-0.35-0.56c-0.17-0.74-0.44-1.44-0.74-2.15l-5.56-13.53
		c-0.21-0.5-0.38-0.85-0.5-0.85c-0.12,0-0.12,0.59-0.12,0.91c0,2.32-0.35,11.2-0.35,12.64c0,1.26,0,2,2.59,2
		c0.17,0,0.2,0.15,0.2,0.5c0,0.12-0.03,0.47-0.15,0.47c-0.41,0-1.85-0.15-3.44-0.15c-1.67,0-3.32,0.15-3.73,0.15
		c-0.09,0-0.18-0.09-0.18-0.24v-0.44c0-0.26,0.24-0.29,0.59-0.29c2.41,0,2.76-0.74,2.76-3.29c0-1.44,0.5-12.26,0.5-13.32
		c0-1.56-0.76-2.21-3.4-2.21c-0.09,0-0.15-0.14-0.15-0.32v-0.38c0-0.15,0.09-0.26,0.24-0.26c1.11,0,2.18,0.15,3.35,0.15
		c0.73,0,1.5-0.15,2.24-0.15c0.21,0,0.41,0.47,0.56,0.85l6.35,15.2h0.14L204.97,64.2z"/>
	<path class="st0" d="M215.6,74.25c-2.12-1.27-2.98-2.44-2.98-4.73c0-3.68,3-5.73,6.97-5.73c1.12,0,2.71,0.38,3.71,0.82l0.21,3.68
		v0.15c0,0.15-0.3,0.21-0.71,0.21c-0.38,0-0.44-0.17-0.47-0.47c-0.2-1.97-1.62-3.24-3.71-3.24c-2,0-3.56,1.41-3.56,3.3
		c0,2.12,1.29,2.94,4.23,4.5c2.91,1.53,5.44,2.88,5.44,6.56c0,4-3.62,6.08-7.29,6.08c-1.21,0-3.21-0.38-4.32-0.85
		c-0.23-0.12-0.32-0.5-0.41-1.15l-0.35-2.76c0-0.17,0.59-0.17,0.77-0.17c0.09,0,0.18,0.06,0.23,0.26c0.68,2.23,2.21,3.53,4.56,3.53
		c2.06,0,4.02-1.79,4.02-3.79c0-1.91-1.08-3.06-2.61-3.97L215.6,74.25z"/>
	<path class="st0" d="M237.01,81.8c0,2.18,1.47,2.18,3.29,2.18l0.18,0.14v0.47c0,0.35-0.15,0.35-0.62,0.35
		c-0.59,0-2.02-0.15-4.08-0.15c-1.62,0-4.15,0.15-4.85,0.15c-0.06-0.21-0.12-0.35-0.12-0.53c0-0.09,0.03-0.27,0.12-0.33l0.3-0.12
		h0.35c2.68,0,2.79-0.91,2.79-3.35V66.69l-0.09-1.35h-3.94c-2.24,0-2.59,1.41-3.15,3.29c-0.06,0.18-0.18,0.26-0.35,0.26
		c-0.42,0-0.67-0.12-0.67-0.29c0-0.5,0.35-3.23,0.35-5.56c0-0.12,0.41-0.12,0.83-0.12c0.94,1.26,1.23,1.26,2.5,1.26h10.93
		c2.06,0,2.65-0.62,3.38-1.53c0.21,0,0.88,0,0.88,0.27c0,0.24-0.59,2.64-0.65,4.76c0,0.32-0.09,0.94-0.23,0.94
		c-0.27,0-0.94-0.14-0.94-0.29l-0.12-1.47c-0.12-1.5-0.83-1.53-2.03-1.53h-4.06V81.8z"/>
	<path class="st0" d="M249.35,67.19c0-1.91-1.44-2.12-3.14-2.12c-0.12,0-0.12-0.15-0.12-0.26v-0.32c0-0.26,0.5-0.29,1.53-0.29
		c1.17,0,2.5,0.15,3.74,0.15c1.17,0,2.35-0.15,3.52-0.15h6.21c0.23,0,0.26,0.26,0.26,0.59v3.59c0,0.12-0.06,0.24-0.21,0.24
		c-0.23,0-0.71,0.03-0.73-0.32l-0.09-0.91c-0.17-1.88-1.47-2.21-3.11-2.21h-3.03c-1.64,0-2.17,0.35-2.17,2.59v5.32
		c0,0.09,0.18,0.24,0.24,0.24l3.46-0.12c1.76-0.06,2.27-0.62,2.71-2.18c0.06-0.17,0.15-0.24,0.47-0.24c0.2,0,0.34,0.04,0.34,0.18
		c0,0.62-0.17,1.97-0.17,2.94c0,1.59,0.17,2.44,0.17,2.94c0,0.18-0.29,0.35-0.47,0.35c-0.23,0-0.44-0.09-0.5-0.38
		c-0.15-0.79-0.15-1.35-0.29-1.76c-0.15-0.44-0.5-0.65-1.39-0.68l-4.17-0.09c-0.41,0-0.41,0.14-0.41,0.35v7
		c0,2.11,1.56,2.17,3.59,2.17h1.59c1.56,0,2.64-0.03,3.38-0.47c0.65-0.38,1.56-2.17,1.88-2.91c0.39,0,0.88,0.09,0.88,0.29
		c0,0.09-0.09,0.32-0.14,0.47l-0.83,2.97c-0.23,0.8-0.38,0.8-0.76,0.8c-3.17,0-6.29-0.15-10.55-0.15c-0.97,0-3.44,0.15-4.94,0.15
		c-0.09,0-0.18-0.29-0.18-0.47c0-0.23,0.06-0.5,0.18-0.5c2.55-0.12,3.26-0.38,3.26-3.09V67.19z"/>
	<path class="st0" d="M267.8,67.37c0-1.47-0.06-2.21-1.92-2.21h-1.21c-0.17,0-0.2-0.32-0.2-0.56c0-0.15,0.09-0.41,0.2-0.41
		c1.71,0,3.45,0.09,5.15,0.09c1.35,0,2.68-0.09,4.03-0.09c3,0,5.94,2,5.94,5.08c0,2.67-2.44,4.47-4.73,4.82v0.06
		c1.15,0.26,2.35,2.41,2.64,2.88l3.23,4.94c1.03,1.56,1.7,1.85,3.47,1.94l0.17,0.17v0.56c0,0.26-0.21,0.29-0.32,0.29
		c-0.62,0-1.53-0.09-1.97-0.09c-0.71,0-1.41,0.09-2.11,0.09c-0.68,0-2-1.97-3.73-5.06c-1.91-3.38-3.03-5.24-4.97-5.24
		c-0.23,0-0.59,0-1.02,0.06v7.2c0,1.06,0,2.06,1.47,2.06c1.11,0,1.62,0,1.62,0.23c0,0.56-0.09,0.74-0.54,0.74
		c-1.53,0-2.79-0.15-4.05-0.15c-0.5,0-3.76,0.15-4.17,0.15c-0.18,0-0.24-0.38-0.24-0.62c0-0.26,0.12-0.32,0.7-0.35
		c2.03-0.09,2.56-0.38,2.56-2.41V67.37z M270.45,73.63c0.38,0.03,0.74,0.06,1.12,0.06c2.35,0,5.29-0.83,5.29-4.29
		c0-2.58-1.76-4.26-4.35-4.26c-2,0-2.06,0.47-2.06,1.35V73.63z"/>
	<path class="st0" d="M288.89,67.44c0-1.12-0.23-2.26-1.32-2.26c-0.35,0-1.29,0.12-1.85,0.12c-0.12,0-0.12-0.44-0.12-0.59
		c0-0.18,0-0.26,0.5-0.38c1.97-0.41,6.67-0.74,9.2-0.74c1.62,0,3.15,0.15,4.59,0.53c3.99,1.09,7.73,4.65,7.73,10.05
		c0,7.29-6.09,10.58-11.67,10.58c-2.79,0-4.26-0.12-5.73-0.12c-1.47,0-2.94,0.09-4.41,0.12c-0.12,0-0.15-0.26-0.15-0.47
		c0-0.21,0.15-0.5,0.26-0.5c0.94-0.12,1.7-0.18,2.24-0.53c0.44-0.29,0.73-0.77,0.73-1.7V67.44z M291.54,80.55
		c0,3.24,3.32,3.24,4.61,3.24c4.02,0,8.32-3.32,8.32-9.47c0-5.23-2.82-7.82-4.85-8.99c-1.41-0.62-3.26-0.76-4.52-0.76
		c-2.41,0-3.55,0.17-3.55,2.06V80.55z"/>
	<path class="st0" d="M312.83,76.72l-1.29,4.17c-0.24,0.76-0.35,1.44-0.35,1.91c0,0.97,1.38,1.18,2.18,1.18
		c0.26,0,0.32,0.18,0.32,0.56c0,0.29-0.03,0.42-0.23,0.42c-0.68,0-2.82-0.15-3.62-0.15c-0.79,0-2.03,0.15-2.91,0.15
		c-0.59,0-0.59-0.09-0.59-0.47v-0.32c0-0.15,0.27-0.21,0.97-0.27c1.53-0.15,1.73-0.44,2.29-2.06l5.82-16.93
		c0.59-0.5,1.21-1.18,1.94-1.41l7.38,18.61c0.5,1.23,1.03,1.85,2.73,1.85c0.33,0,0.38,0.36,0.38,0.68c0,0.33-0.2,0.33-0.55,0.33
		c-0.47,0-2.35-0.15-3.5-0.15c-1.18,0-2.35,0.06-3.53,0.15c-0.44,0-0.47-0.09-0.47-0.51c0-0.32,0.18-0.47,0.59-0.47
		c0.44,0,1.88-0.09,1.88-0.8c0-0.23-0.12-0.7-0.53-1.73l-1.88-4.73H312.83z M319.34,75.58l-3.27-8.41h-0.06l-2.78,8.41H319.34z"/>
	<path class="st0" d="M348.27,64.2c0.91,0,1.86,0.09,2.79,0.09c0.73,0,1.5-0.09,2.23-0.09c0.44,0,0.53,0.11,0.53,0.21v0.47
		c0,0.21-0.09,0.35-0.2,0.35c-0.21,0-0.53-0.06-0.88-0.06c-1.7,0-1.7,0.85-1.7,2.76c0,1.67,0.32,12.67,0.32,14.29
		c0,0.82,0.41,1.76,1.68,1.76c1.17,0,1.32,0.06,1.32,0.32c0,0.35-0.18,0.65-0.27,0.65c-1.56,0-2.79-0.15-4.03-0.15
		c-1.23,0-2.5,0.15-3.77,0.15c-0.2,0-0.23-0.12-0.23-0.29v-0.3c0-0.29,0.26-0.38,1.61-0.38c0.59,0,1.12-0.71,1.12-1.73
		c0-3.17-0.11-10.02-0.23-15.05c-0.12-0.03-0.09-0.03-0.09-0.03c-1.65,3.38-3.79,8.29-4.79,10.91l-2.76,7.26
		c-0.03,0.09-0.12,0.17-0.26,0.17c-0.15,0-0.27-0.15-0.36-0.56c-0.18-0.74-0.44-1.44-0.74-2.15l-5.55-13.53
		c-0.21-0.5-0.38-0.85-0.5-0.85c-0.12,0-0.12,0.59-0.12,0.91c0,2.32-0.36,11.2-0.36,12.64c0,1.26,0,2,2.59,2
		c0.18,0,0.21,0.15,0.21,0.5c0,0.12-0.03,0.47-0.15,0.47c-0.41,0-1.85-0.15-3.44-0.15c-1.68,0-3.32,0.15-3.73,0.15
		c-0.09,0-0.17-0.09-0.17-0.24v-0.44c0-0.26,0.23-0.29,0.58-0.29c2.41,0,2.77-0.74,2.77-3.29c0-1.44,0.5-12.26,0.5-13.32
		c0-1.56-0.76-2.21-3.41-2.21c-0.08,0-0.15-0.14-0.15-0.32v-0.38c0-0.15,0.09-0.26,0.24-0.26c1.12,0,2.17,0.15,3.36,0.15
		c0.73,0,1.49-0.15,2.23-0.15c0.21,0,0.41,0.47,0.56,0.85l6.35,15.2h0.15L348.27,64.2z"/>
</g>
</svg>
