<?xml version="1.0" encoding="utf-8"?>
<!-- Generator: Adobe Illustrator 26.3.1, SVG Export Plug-In . SVG Version: 6.00 Build 0)  -->
<svg version="1.1" id="a" xmlns="http://www.w3.org/2000/svg" xmlns:xlink="http://www.w3.org/1999/xlink" x="0px" y="0px"
	 viewBox="0 0 319.73 71.45" xml:space="preserve">
<style type="text/css">
	.st0{fill:#FFFFFF;}
	.st1{fill:#0076BA;}
</style>
<rect class="st0" width="56.69" height="56.69"/>
<polygon class="st1" points="24.07,16.14 28.35,11.86 32.63,16.14 35,13.77 30.72,9.49 35,5.21 32.63,2.84 28.35,7.12 24.07,2.84 
	21.7,5.21 25.98,9.49 21.7,13.77 "/>
<polygon class="st1" points="24.07,31.9 28.35,27.62 32.63,31.9 35,29.53 30.72,25.25 35,20.97 32.63,18.6 28.35,22.88 24.07,18.6 
	21.7,20.97 25.98,25.25 21.7,29.53 "/>
<polygon class="st1" points="24.07,53.83 28.35,49.55 32.63,53.83 35,51.46 30.72,47.18 35,42.9 32.63,40.53 28.35,44.81 
	24.07,40.53 21.7,42.9 25.98,47.18 21.7,51.46 "/>
<path class="st1" d="M41.23,16.08l-4.93,0.23c0,0,0.7,5.2,0.41,10.45c-0.29,5.02-1.08,5.9-1.08,5.9c-1.11,2.09-4.56,2.6-6.32,2.73
	c-1.77,0.14-2.56,0.04-2.56,0.04s-5.08-0.2-6.22-2.56c-0.65-1.35-0.79-4-0.79-4s-0.03-12.41-0.08-12.69
	c-0.03-0.15-1.03,0.11-2.19,0.1c-0.94,0-2.32-0.06-2.32-0.06l0.41,9.11l-0.06,5.39c0,0,0,2.89,0.74,4.04
	c1.25,1.96,2.64,2.66,3.43,3.03c0.79,0.38,2.04,0.75,3.44,1.03c1.39,0.28,3.72,0.42,6.78-0.36c3.07-0.79,4.42-2.18,4.42-2.18
	l2.32-2.18v5.16l4.87-1.44c0,0-0.64-4.09-0.64-11.06s0.34-10.69,0.34-10.69"/>
<path class="st0" d="M75.09,5.29c0-3.09-1.88-3.09-4.03-3.09l-0.19-0.16V1.38c0-0.43,0.27-0.47,0.7-0.47c1.02,0,3.52,0.2,5.36,0.2
	c1.95,0,3.94-0.2,5.9-0.2l0.12,0.12v1.01L82.76,2.2h-0.47c-2.54,0-3.68,0.27-3.68,3.21v11.34c0,5.63,1.1,10.05,7.82,10.05
	s9.27-3.37,9.27-9.97V6.66c0-4.46,0-4.15-3.44-4.46L92.1,1.89V1.15l0.12-0.23c0.7,0,1.48,0.2,4.42,0.2c1.65,0,3.72-0.2,4.97-0.2
	l0.16,0.23v0.82l-0.24,0.24c-2.85,0-3.87,0.16-3.87,2.11v13.96c0,7.16-4.18,10.79-11.3,10.79c-5.67,0-11.26-1.99-11.26-8.52
	L75.09,5.29L75.09,5.29z"/>
<path class="st0" d="M103.99,11.39c0-0.59-0.03-0.74-0.15-0.97c-0.26-0.5-1.55-1.55-2.05-1.59l-1.55-0.09
	c-0.12,0-0.15-0.29-0.15-0.52c0-0.15,0-0.38,0.15-0.38c0.91,0,1.61-0.06,2.34-0.06c1.35,0,3.49,0.12,4.02,0.18l8.88,10.72
	c1.35,1.64,2.67,3.16,4.78,5.28h0.12v-12.9c0-1.93-0.7-2.23-1.64-2.26l-1.26-0.06c-0.12,0-0.18-0.29-0.18-0.49
	c0-0.18,0.09-0.47,0.27-0.47c0.64,0,2.17,0.15,3.6,0.15c1.32,0,2.73-0.15,3.55-0.15c0.15,0,0.18,0.12,0.18,0.24v0.55
	c0,0.14-0.06,0.18-0.26,0.18h-0.76c-2.02,0-2.02,1.03-2.02,3.52v16.96h-0.7l-15.82-18.08V24.6c0,2.52,0.35,2.81,2.87,2.9
	c0.12,0,0.21,0.26,0.21,0.49s-0.03,0.47-0.12,0.47c-0.56,0-2.43-0.15-3.66-0.15c-1.44,0-2.08,0.15-3.43,0.15
	c-0.18,0-0.21-0.2-0.21-0.58c0-0.27,0.03-0.38,0.38-0.38c1.23,0,2.63-0.29,2.63-1.79V11.39H103.99z"/>
<path class="st0" d="M132.57,23.05c0,4.28,0.09,4.3,2.96,4.46l0.15,0.21v0.55c0,0.18-0.44,0.2-0.7,0.2c-0.41,0-2.37-0.15-3.57-0.15
	c-1.41,0-2.84,0.15-4.37,0.15c-0.12-0.06-0.15-0.23-0.15-0.53c0.03-0.38,0.09-0.44,0.94-0.44c2.02,0,2.11-0.44,2.11-2.67v-14
	c0-1.67-0.5-2.08-2.96-2.08l-0.09-0.14l-0.06-0.47c0.03-0.32,0.29-0.35,0.47-0.35c0.79,0,1.73,0.15,3.72,0.15
	c1.46,0,3.23-0.15,4.39-0.15L135.56,8v0.52l-0.12,0.18l-0.79,0.06c-1.17,0.09-2.08,0.21-2.08,1.55v12.75V23.05z"/>
<path class="st0" d="M139.61,9.74c-0.32-0.79-1.49-1-2.32-1l-0.18-0.14V7.84l0.32-0.06c1.23,0,3.02,0.15,3.66,0.15
	c1.34,0,2.66-0.15,4.01-0.15l0.09,0.09l-0.09,0.82l-1.38,0.12c-0.47,0.02-1,0.2-1,0.64c0,0.24,0.15,0.62,0.26,0.88l3.37,8.79
	l1.91,4.36c0.2,0.44,0.23,0.53,0.32,0.53c0.06,0,0.14-0.12,0.26-0.46l4.19-11.11c0.47-1.26,0.82-2.35,0.79-2.7
	c-0.03-0.5-0.18-0.76-1.02-0.84l-1.52-0.15l-0.18-0.09V7.75c1.14,0,2.28,0.17,3.43,0.17c0.91,0,2.84-0.17,3.05-0.17l0.23,0.12v0.67
	l-0.26,0.2l-0.91,0.06c-0.59,0.02-0.82,0.32-1.23,1.35c-2.78,6.71-3.46,8.82-5.68,14.47l-1.49,3.81c-0.14,0.41-0.2,0.44-0.41,0.44
	c-0.27,0-0.32-0.09-0.38-0.2L139.6,9.74L139.61,9.74z"/>
<path class="st0" d="M162.53,10.77c0-1.9-1.44-2.11-3.14-2.11c-0.12,0-0.12-0.15-0.12-0.27V8.07c0-0.26,0.5-0.29,1.52-0.29
	c1.17,0,2.49,0.15,3.72,0.15c1.17,0,2.34-0.15,3.52-0.15h6.18c0.23,0,0.26,0.27,0.26,0.59v3.58c0,0.12-0.06,0.23-0.2,0.23
	c-0.23,0-0.7,0.03-0.73-0.32l-0.09-0.91c-0.18-1.87-1.47-2.2-3.11-2.2h-3.02c-1.64,0-2.17,0.35-2.17,2.58v5.3
	c0,0.09,0.18,0.23,0.23,0.23l3.46-0.12c1.76-0.06,2.26-0.62,2.7-2.17c0.06-0.17,0.15-0.23,0.47-0.23c0.21,0,0.36,0.03,0.36,0.18
	c0,0.62-0.18,1.96-0.18,2.93c0,1.58,0.18,2.43,0.18,2.92c0,0.18-0.3,0.36-0.47,0.36c-0.23,0-0.44-0.09-0.5-0.38
	c-0.15-0.79-0.15-1.35-0.29-1.76c-0.15-0.44-0.5-0.64-1.38-0.67l-4.16-0.09c-0.41,0-0.41,0.15-0.41,0.35v6.98
	c0,2.11,1.56,2.16,3.58,2.16h1.58c1.55,0,2.64-0.03,3.37-0.46c0.64-0.39,1.55-2.17,1.87-2.9c0.38,0,0.88,0.09,0.88,0.29
	c0,0.09-0.08,0.32-0.15,0.47l-0.82,2.96c-0.23,0.79-0.38,0.79-0.76,0.79c-3.16,0-6.27-0.15-10.52-0.15c-0.97,0-3.43,0.15-4.92,0.15
	c-0.09,0-0.18-0.29-0.18-0.47c0-0.23,0.06-0.49,0.18-0.49c2.56-0.12,3.25-0.38,3.25-3.08L162.53,10.77L162.53,10.77z"/>
<path class="st0" d="M181.85,10.94c0-1.46-0.06-2.2-1.9-2.2h-1.2c-0.18,0-0.2-0.32-0.2-0.56c0-0.14,0.09-0.41,0.2-0.41
	c1.7,0,3.43,0.09,5.13,0.09c1.35,0,2.67-0.09,4.01-0.09c2.99,0,5.92,1.99,5.92,5.07c0,2.66-2.43,4.45-4.72,4.81v0.06
	c1.14,0.27,2.34,2.41,2.64,2.87l3.22,4.93c1.03,1.55,1.7,1.84,3.46,1.93l0.18,0.17v0.55c0,0.27-0.21,0.29-0.32,0.29
	c-0.61,0-1.52-0.09-1.96-0.09c-0.7,0-1.41,0.09-2.11,0.09s-1.99-1.96-3.72-5.04c-1.9-3.37-3.02-5.21-4.95-5.21
	c-0.24,0-0.59,0-1.03,0.06v7.19c0,1.05,0,2.05,1.47,2.05c1.11,0,1.61,0,1.61,0.23c0,0.56-0.09,0.73-0.53,0.73
	c-1.52,0-2.78-0.15-4.04-0.15c-0.5,0-3.75,0.15-4.16,0.15c-0.18,0-0.23-0.38-0.23-0.62c0-0.26,0.12-0.32,0.71-0.35
	c2.02-0.09,2.54-0.38,2.54-2.4V10.94H181.85z M184.49,17.18c0.38,0.03,0.73,0.06,1.11,0.06c2.35,0,5.28-0.82,5.28-4.28
	c0-2.58-1.76-4.25-4.34-4.25c-1.99,0-2.05,0.47-2.05,1.35V17.18z"/>
<path class="st0" d="M203.22,17.8c-2.11-1.26-2.96-2.43-2.96-4.72c0-3.66,2.99-5.71,6.94-5.71c1.11,0,2.7,0.38,3.69,0.82l0.2,3.66
	V12c0,0.15-0.29,0.21-0.7,0.21c-0.38,0-0.44-0.18-0.47-0.47c-0.21-1.96-1.61-3.22-3.7-3.22s-3.54,1.4-3.54,3.29
	c0,2.11,1.28,2.93,4.21,4.48c2.9,1.53,5.42,2.87,5.42,6.54c0,3.98-3.6,6.06-7.27,6.06c-1.2,0-3.2-0.38-4.31-0.85
	c-0.23-0.12-0.32-0.5-0.41-1.14l-0.35-2.76c0-0.18,0.59-0.18,0.76-0.18c0.09,0,0.18,0.06,0.23,0.26c0.67,2.23,2.2,3.52,4.54,3.52
	c2.05,0,4.01-1.79,4.01-3.78s-1.08-3.05-2.61-3.96l-3.72-2.2L203.22,17.8z"/>
<path class="st0" d="M220.51,23.05c0,4.28,0.09,4.3,2.96,4.46l0.15,0.21v0.55c0,0.18-0.44,0.2-0.71,0.2c-0.41,0-2.37-0.15-3.57-0.15
	c-1.41,0-2.84,0.15-4.36,0.15c-0.12-0.06-0.15-0.23-0.15-0.53c0.03-0.38,0.09-0.44,0.94-0.44c2.03,0,2.11-0.44,2.11-2.67v-14
	c0-1.67-0.5-2.08-2.96-2.08l-0.09-0.14l-0.06-0.47c0.03-0.32,0.29-0.35,0.47-0.35c0.79,0,1.73,0.15,3.72,0.15
	c1.47,0,3.22-0.15,4.4-0.15L223.5,8v0.52l-0.11,0.18l-0.8,0.06c-1.17,0.09-2.08,0.21-2.08,1.55v12.75L220.51,23.05z"/>
<path class="st0" d="M236.07,25.34c0,2.16,1.47,2.16,3.28,2.16l0.18,0.15v0.47c0,0.35-0.15,0.35-0.62,0.35
	c-0.58,0-2.02-0.15-4.07-0.15c-1.61,0-4.13,0.15-4.84,0.15c-0.06-0.2-0.12-0.35-0.12-0.53c0-0.09,0.03-0.26,0.12-0.32l0.3-0.12h0.35
	c2.67,0,2.78-0.91,2.78-3.34V10.27l-0.09-1.35h-3.93c-2.23,0-2.58,1.4-3.14,3.28c-0.06,0.17-0.18,0.26-0.35,0.26
	c-0.41,0-0.68-0.12-0.68-0.29c0-0.5,0.36-3.22,0.36-5.54c0-0.12,0.41-0.12,0.82-0.12c0.94,1.26,1.23,1.26,2.5,1.26h10.9
	c2.05,0,2.64-0.62,3.37-1.52c0.2,0,0.88,0,0.88,0.26c0,0.24-0.58,2.64-0.64,4.75c0,0.32-0.09,0.94-0.23,0.94
	c-0.26,0-0.94-0.15-0.94-0.3l-0.12-1.46c-0.11-1.49-0.82-1.52-2.02-1.52h-4.05L236.07,25.34L236.07,25.34z"/>
<path class="st0" d="M254.12,19.15c0-0.3-0.03-0.68-0.35-1.15l-6.61-8.94c-0.18-0.27-0.44-0.41-1.12-0.44l-1.12-0.06l-0.18-0.09V7.7
	l0.18-0.09h0.35c0.5,0,3.66,0.15,4.22,0.15c0.74,0,1.92-0.15,2.89-0.15c0.65,0,0.94,0,0.94,0.18v0.36c0,0.29-0.09,0.44-0.18,0.44
	l-1.71,0.06c-0.42,0-0.68,0.17-0.68,0.5c0,0.12,0.17,0.41,0.48,0.79l4.22,5.88c0.24,0.33,0.5,0.62,0.8,0.89
	c0.56-0.54,3.16-4.11,4.43-5.96c0.47-0.68,0.74-1.24,0.74-1.48c0-0.41-0.24-0.59-1.1-0.62l-1.48-0.06c0,0,0-0.44,0-0.56
	c0-0.15,0.03-0.32,0.18-0.41c1.15,0.12,2.56,0.15,3.83,0.15c0.86,0,2.15-0.15,2.54-0.15l0.18,0.12v0.68l-0.12,0.12l-1.09,0.06
	c-0.94,0.06-2.12,2.06-2.69,2.83l-4.89,6.7v6.93c0,0.62,0.03,1.16,0.09,1.33c0.24,0.7,1,1.09,2.1,1.09h0.8l0.26,0.12v0.82
	l-0.15,0.03h-0.44c-1.3,0-2.56-0.15-3.86-0.15s-2.69,0.15-4.01,0.15h-0.42l-0.24-0.06v-0.5c0-0.17,0.06-0.38,0.29-0.41l1.39-0.15
	c0.86-0.09,1.54-0.38,1.54-1.86L254.12,19.15L254.12,19.15z"/>
<path class="st0" d="M129.15,59.94l-1.72,5.56c-0.31,1.02-0.47,1.92-0.47,2.55c0,1.29,1.84,1.57,2.9,1.57
	c0.35,0,0.43,0.23,0.43,0.75c0,0.39-0.04,0.55-0.32,0.55c-0.9,0-3.76-0.2-4.82-0.2s-2.7,0.2-3.88,0.2c-0.78,0-0.78-0.12-0.78-0.63
	v-0.43c0-0.19,0.35-0.27,1.29-0.35c2.04-0.2,2.32-0.59,3.06-2.75l7.76-22.57c0.78-0.66,1.6-1.57,2.58-1.88l9.84,24.81
	c0.66,1.65,1.37,2.47,3.64,2.47c0.43,0,0.51,0.47,0.51,0.9s-0.27,0.44-0.74,0.44c-0.64,0-3.14-0.2-4.67-0.2s-3.14,0.08-4.7,0.2
	c-0.59,0-0.63-0.12-0.63-0.67c0-0.43,0.23-0.63,0.79-0.63c0.59,0,2.51-0.12,2.51-1.06c0-0.31-0.16-0.94-0.71-2.31l-2.51-6.31h-9.37
	L129.15,59.94z M137.81,58.41l-4.35-11.21h-0.08l-3.72,11.21H137.81L137.81,58.41z"/>
<path class="st0" d="M72.02,60.78c0-6.12,5.24-11.13,11.3-11.13s11.62,4.22,11.62,10.31s-5.68,11.19-11.51,11.19
	S72.02,67.17,72.02,60.78 M91.81,60.55c0-4.92-3.37-9.93-8.64-9.93s-8.02,4.25-8.02,9.19s3.04,10.2,8.49,10.2
	S91.81,65.59,91.81,60.55"/>
<path class="st0" d="M98.53,53.35c0-1.78-0.29-2.17-2.02-2.17h-0.5c-0.52,0.03-0.76-0.06-0.76-0.24c0-0.23,0-0.73,0.33-0.73h12
	c0.99,0,1.99-0.14,3.02-0.14c0.17,0,0.41,0.03,0.41,0.26l0.12,3.3c0,0.2,0.03,0.41,0.03,0.62c0,0.12-0.23,0.17-0.53,0.17h-0.44
	c-0.06-0.35-0.12-0.7-0.2-1.02l-0.26-0.91c-0.32-1.15-1.17-1.32-2.08-1.32h-4.1c-2.17,0-2.37,0.67-2.37,2.81v5.15h4.34
	c2.51,0,3.13-0.7,3.13-2.31c0.29-0.06,0.59-0.15,0.79-0.15c0.12,0,0.18,0.06,0.18,0.21c0,0.23-0.12,0.67-0.12,2.81
	c0,0.85,0.12,2.37,0.12,3.02c0,0.26-0.2,0.38-0.53,0.38c-0.23,0-0.32-0.26-0.44-0.73c-0.2-1.2-0.79-2.26-3.28-2.26h-4.19v7.68
	c0,1.14,0.15,1.76,1.65,1.88l1.52,0.12c0.14,0,0.2,0.18,0.2,0.38c0,0.24,0,0.59-0.32,0.59c-2.2,0-3.13-0.14-4.51-0.14
	c-1.2,0-3.37,0.14-4.15,0.14c-0.24,0-0.24-0.29-0.24-0.52c0-0.18,0.03-0.44,0.15-0.44l1.29-0.09c1.55-0.12,1.78-0.47,1.78-2.2V53.35
	H98.53z"/>
<path class="st0" d="M170.34,50.14c0.91,0,1.85,0.08,2.79,0.08c0.74,0,1.5-0.08,2.23-0.08c0.44,0,0.53,0.11,0.53,0.21v0.47
	c0,0.21-0.09,0.35-0.21,0.35c-0.2,0-0.52-0.06-0.88-0.06c-1.71,0-1.71,0.85-1.71,2.77c0,1.67,0.33,12.67,0.33,14.29
	c0,0.82,0.41,1.76,1.68,1.76c1.18,0,1.32,0.06,1.32,0.32c0,0.35-0.17,0.65-0.26,0.65c-1.56,0-2.79-0.15-4.03-0.15
	s-2.5,0.15-3.76,0.15c-0.21,0-0.23-0.12-0.23-0.29v-0.3c0-0.29,0.27-0.38,1.62-0.38c0.59,0,1.12-0.71,1.12-1.73
	c0-3.17-0.12-10.02-0.23-15.05c-0.12-0.03-0.09-0.03-0.09-0.03c-1.64,3.38-3.79,8.29-4.79,10.91L163,71.29
	c-0.02,0.09-0.11,0.17-0.26,0.17c-0.14,0-0.26-0.15-0.35-0.56c-0.17-0.74-0.44-1.44-0.74-2.15l-5.55-13.52
	c-0.21-0.5-0.38-0.85-0.49-0.85c-0.12,0-0.12,0.59-0.12,0.91c0,2.32-0.35,11.2-0.35,12.64c0,1.26,0,2,2.59,2
	c0.17,0,0.2,0.14,0.2,0.5c0,0.12-0.03,0.47-0.15,0.47c-0.41,0-1.85-0.15-3.44-0.15c-1.67,0-3.32,0.15-3.73,0.15
	c-0.09,0-0.18-0.09-0.18-0.24v-0.44c0-0.26,0.24-0.29,0.59-0.29c2.41,0,2.76-0.74,2.76-3.29c0-1.44,0.5-12.26,0.5-13.32
	c0-1.56-0.76-2.2-3.4-2.2c-0.09,0-0.15-0.14-0.15-0.32v-0.38c0-0.15,0.09-0.26,0.24-0.26c1.12,0,2.18,0.15,3.35,0.15
	c0.73,0,1.5-0.15,2.24-0.15c0.21,0,0.41,0.47,0.56,0.85l6.35,15.2h0.14l6.77-16.05L170.34,50.14z"/>
<path class="st0" d="M180.97,60.2c-2.12-1.27-2.98-2.44-2.98-4.73c0-3.68,3-5.73,6.97-5.73c1.12,0,2.71,0.38,3.71,0.82l0.21,3.68
	v0.15c0,0.15-0.3,0.2-0.71,0.2c-0.38,0-0.44-0.17-0.47-0.47c-0.21-1.97-1.62-3.24-3.71-3.24s-3.55,1.41-3.55,3.3
	c0,2.11,1.29,2.94,4.23,4.5c2.91,1.53,5.44,2.88,5.44,6.55c0,4-3.62,6.08-7.29,6.08c-1.21,0-3.21-0.38-4.32-0.85
	c-0.23-0.12-0.32-0.5-0.41-1.15l-0.35-2.76c0-0.18,0.59-0.18,0.77-0.18c0.09,0,0.18,0.06,0.23,0.26c0.68,2.23,2.21,3.53,4.56,3.53
	c2.06,0,4.03-1.79,4.03-3.79s-1.08-3.06-2.61-3.97l-3.73-2.21L180.97,60.2z"/>
<path class="st0" d="M202.38,67.83c0,2.18,1.47,2.18,3.29,2.18l0.18,0.14v0.47c0,0.36-0.15,0.36-0.62,0.36
	c-0.59,0-2.02-0.15-4.08-0.15c-1.62,0-4.15,0.15-4.85,0.15c-0.06-0.21-0.12-0.36-0.12-0.53c0-0.09,0.03-0.27,0.12-0.33l0.3-0.12
	h0.35c2.68,0,2.79-0.91,2.79-3.35V52.71l-0.09-1.35h-3.94c-2.24,0-2.59,1.41-3.15,3.29c-0.06,0.18-0.18,0.27-0.35,0.27
	c-0.42,0-0.67-0.12-0.67-0.29c0-0.5,0.35-3.23,0.35-5.56c0-0.12,0.41-0.12,0.82-0.12c0.94,1.27,1.23,1.27,2.5,1.27h10.93
	c2.06,0,2.65-0.62,3.38-1.53c0.21,0,0.88,0,0.88,0.26c0,0.24-0.59,2.64-0.65,4.76c0,0.32-0.09,0.94-0.24,0.94
	c-0.27,0-0.94-0.14-0.94-0.29l-0.12-1.47c-0.12-1.5-0.82-1.53-2.03-1.53h-4.06v16.46L202.38,67.83z"/>
<path class="st0" d="M214.72,53.14c0-1.91-1.44-2.12-3.14-2.12c-0.12,0-0.12-0.15-0.12-0.26v-0.32c0-0.26,0.5-0.29,1.53-0.29
	c1.17,0,2.5,0.14,3.74,0.14c1.17,0,2.35-0.14,3.52-0.14h6.21c0.23,0,0.26,0.26,0.26,0.59v3.59c0,0.12-0.06,0.24-0.21,0.24
	c-0.23,0-0.7,0.03-0.73-0.32l-0.09-0.91c-0.18-1.88-1.47-2.2-3.11-2.2h-3.03c-1.64,0-2.17,0.35-2.17,2.59v5.32
	c0,0.09,0.18,0.24,0.24,0.24l3.46-0.12c1.76-0.06,2.27-0.62,2.71-2.18c0.06-0.18,0.15-0.24,0.47-0.24c0.2,0,0.35,0.04,0.35,0.18
	c0,0.62-0.17,1.97-0.17,2.94c0,1.59,0.17,2.44,0.17,2.94c0,0.18-0.29,0.35-0.47,0.35c-0.23,0-0.44-0.09-0.5-0.38
	c-0.15-0.79-0.15-1.35-0.29-1.76c-0.15-0.44-0.51-0.65-1.39-0.68l-4.17-0.09c-0.41,0-0.41,0.14-0.41,0.35v7
	c0,2.11,1.56,2.17,3.59,2.17h1.59c1.56,0,2.64-0.03,3.38-0.47c0.65-0.38,1.56-2.17,1.88-2.91c0.39,0,0.88,0.09,0.88,0.29
	c0,0.09-0.09,0.32-0.14,0.47l-0.82,2.97c-0.23,0.79-0.38,0.79-0.76,0.79c-3.18,0-6.29-0.15-10.55-0.15c-0.97,0-3.44,0.15-4.94,0.15
	c-0.09,0-0.18-0.29-0.18-0.47c0-0.23,0.06-0.5,0.18-0.5c2.55-0.12,3.26-0.38,3.26-3.09v-13.7L214.72,53.14z"/>
<path class="st0" d="M233.17,53.32c0-1.47-0.06-2.2-1.91-2.2h-1.21c-0.17,0-0.2-0.32-0.2-0.56c0-0.15,0.09-0.41,0.2-0.41
	c1.71,0,3.45,0.09,5.15,0.09c1.35,0,2.68-0.09,4.03-0.09c3,0,5.94,2,5.94,5.08c0,2.67-2.44,4.47-4.73,4.82v0.06
	c1.15,0.26,2.35,2.41,2.64,2.88l3.23,4.94c1.02,1.56,1.7,1.85,3.47,1.94l0.17,0.17v0.56c0,0.26-0.2,0.29-0.32,0.29
	c-0.62,0-1.53-0.09-1.97-0.09c-0.71,0-1.41,0.09-2.11,0.09s-2-1.97-3.73-5.06c-1.91-3.38-3.03-5.23-4.97-5.23
	c-0.23,0-0.59,0-1.02,0.06v7.2c0,1.06,0,2.06,1.47,2.06c1.11,0,1.62,0,1.62,0.23c0,0.56-0.09,0.74-0.54,0.74
	c-1.53,0-2.79-0.15-4.05-0.15c-0.5,0-3.76,0.15-4.17,0.15c-0.18,0-0.24-0.38-0.24-0.62c0-0.26,0.12-0.32,0.7-0.35
	c2.03-0.09,2.56-0.38,2.56-2.41v-14.2L233.17,53.32z M235.82,59.58c0.38,0.03,0.74,0.06,1.12,0.06c2.35,0,5.29-0.82,5.29-4.29
	c0-2.58-1.76-4.26-4.35-4.26c-2,0-2.06,0.47-2.06,1.35L235.82,59.58L235.82,59.58z"/>
<path class="st0" d="M254.25,53.38c0-1.12-0.23-2.26-1.32-2.26c-0.35,0-1.29,0.12-1.85,0.12c-0.12,0-0.12-0.44-0.12-0.59
	c0-0.18,0-0.27,0.5-0.38c1.97-0.41,6.67-0.74,9.2-0.74c1.62,0,3.15,0.15,4.59,0.53c3.99,1.09,7.73,4.65,7.73,10.06
	c0,7.29-6.09,10.58-11.67,10.58c-2.79,0-4.26-0.12-5.73-0.12s-2.94,0.09-4.41,0.12c-0.12,0-0.15-0.26-0.15-0.47s0.15-0.5,0.26-0.5
	c0.94-0.12,1.7-0.18,2.24-0.53c0.44-0.29,0.73-0.77,0.73-1.7V53.38L254.25,53.38z M256.9,66.49c0,3.23,3.32,3.23,4.61,3.23
	c4.03,0,8.32-3.32,8.32-9.47c0-5.23-2.82-7.82-4.85-8.99c-1.41-0.62-3.26-0.76-4.52-0.76c-2.41,0-3.55,0.17-3.55,2.06v13.93
	L256.9,66.49z"/>
<path class="st0" d="M278.2,62.67l-1.29,4.17c-0.24,0.76-0.35,1.44-0.35,1.91c0,0.97,1.38,1.18,2.18,1.18
	c0.26,0,0.32,0.18,0.32,0.56c0,0.29-0.03,0.41-0.23,0.41c-0.68,0-2.82-0.15-3.62-0.15s-2.03,0.15-2.91,0.15
	c-0.59,0-0.59-0.09-0.59-0.47v-0.32c0-0.15,0.27-0.21,0.97-0.27c1.53-0.15,1.73-0.44,2.29-2.06l5.82-16.93
	c0.59-0.5,1.21-1.18,1.94-1.41l7.38,18.61c0.5,1.23,1.03,1.85,2.73,1.85c0.33,0,0.38,0.36,0.38,0.68s-0.2,0.33-0.56,0.33
	c-0.47,0-2.35-0.15-3.5-0.15s-2.35,0.06-3.53,0.15c-0.44,0-0.47-0.09-0.47-0.5c0-0.32,0.18-0.47,0.59-0.47
	c0.44,0,1.89-0.09,1.89-0.8c0-0.23-0.12-0.7-0.53-1.73l-1.88-4.73L278.2,62.67L278.2,62.67z M284.7,61.53l-3.26-8.41h-0.06
	l-2.78,8.41H284.7L284.7,61.53z"/>
<path class="st0" d="M313.64,50.14c0.91,0,1.85,0.08,2.79,0.08c0.73,0,1.5-0.08,2.23-0.08c0.44,0,0.53,0.11,0.53,0.21v0.47
	c0,0.21-0.09,0.35-0.2,0.35c-0.21,0-0.54-0.06-0.89-0.06c-1.7,0-1.7,0.85-1.7,2.77c0,1.67,0.32,12.67,0.32,14.29
	c0,0.82,0.41,1.76,1.68,1.76c1.17,0,1.32,0.06,1.32,0.32c0,0.35-0.18,0.65-0.27,0.65c-1.56,0-2.79-0.15-4.03-0.15
	s-2.5,0.15-3.77,0.15c-0.21,0-0.23-0.12-0.23-0.29v-0.3c0-0.29,0.26-0.38,1.61-0.38c0.59,0,1.12-0.71,1.12-1.73
	c0-3.17-0.11-10.02-0.23-15.05c-0.12-0.03-0.09-0.03-0.09-0.03c-1.65,3.38-3.79,8.29-4.79,10.91l-2.76,7.26
	c-0.03,0.09-0.12,0.17-0.27,0.17s-0.26-0.15-0.36-0.56c-0.17-0.74-0.44-1.44-0.73-2.15l-5.55-13.52c-0.21-0.5-0.38-0.85-0.5-0.85
	s-0.12,0.59-0.12,0.91c0,2.32-0.36,11.2-0.36,12.64c0,1.26,0,2,2.59,2c0.18,0,0.2,0.14,0.2,0.5c0,0.12-0.03,0.47-0.15,0.47
	c-0.41,0-1.85-0.15-3.44-0.15c-1.68,0-3.32,0.15-3.73,0.15c-0.09,0-0.17-0.09-0.17-0.24v-0.44c0-0.26,0.23-0.29,0.58-0.29
	c2.41,0,2.77-0.74,2.77-3.29c0-1.44,0.5-12.26,0.5-13.32c0-1.56-0.76-2.2-3.41-2.2c-0.08,0-0.15-0.14-0.15-0.32v-0.38
	c0-0.15,0.09-0.26,0.24-0.26c1.12,0,2.17,0.15,3.36,0.15c0.73,0,1.49-0.15,2.23-0.15c0.21,0,0.41,0.47,0.56,0.85l6.35,15.2h0.15
	l6.76-16.05L313.64,50.14z"/>
</svg>
