<?xml version="1.0" encoding="utf-8"?>
<!-- Generator: Adobe Illustrator 27.1.1, SVG Export Plug-In . SVG Version: 6.00 Build 0)  -->
<svg version="1.1" xmlns="http://www.w3.org/2000/svg" xmlns:xlink="http://www.w3.org/1999/xlink" x="0px" y="0px"
	 viewBox="0 0 266.31 131.53" style="enable-background:new 0 0 266.31 131.53;" xml:space="preserve">
<style type="text/css">
	.st0{display:none;}
	.st1{fill-rule:evenodd;clip-rule:evenodd;fill:#FFFFFF;}
	.st2{fill:#FFFFFF;}
</style>
<g id="Siatka" class="st0">
</g>
<g id="Warstwa_1">
</g>
<g id="Pulpit">
</g>
<g id="Prowadnice">
</g>
<g id="Page_1">
	<g id="Warstwa_1_00000016792405923928222360000007258363460105075353_">
		<g>
			<polygon class="st1" points="47,88.49 51.94,94.83 48.47,97.54 43.5,91.21 47,88.49 			"/>
			<path class="st1" d="M17.64,59.29c-0.98-0.33-2.29-0.21-3.25,0.47c-0.12,0.09-0.36,0.07-0.45,0c-0.04-0.03-2-1.61-2-1.61
				l10.69-8.36l1.08,2.33c0.05,0.11,0.02,0.34-0.1,0.44c-0.71,0.64-1.21,1.53-1.23,3c-0.01,1.54,0.99,2.57,1.35,3.05
				c-0.64,0.5-2.84,2.22-3.48,2.73C19.41,60.12,18.73,59.56,17.64,59.29L17.64,59.29z"/>
			<path class="st1" d="M49.05,100.97c0.6,0.71,1.66,0.81,2.29,0.33l3.48-2.72c0.62-0.49,0.84-1.5,0.25-2.26l-0.5-0.64
				c-0.61-0.78-1.63-0.79-2.26-0.28l-3.48,2.71c-0.63,0.5-0.78,1.57-0.3,2.21L49.05,100.97L49.05,100.97z"/>
			<path class="st1" d="M38.78,78.02l5.71,7.26l-3.46,2.71l-5.04-6.39L38.78,78.02L38.78,78.02z M26.04,61.65l9.09,11.65l-2.8,3.58
				l-9.78-12.51L26.04,61.65L26.04,61.65z"/>
			<path class="st1" d="M45.32,85.69l-4.12,3.22c-0.96,0.73,0.49,2.67,1.49,1.9l4.12-3.21C47.76,86.86,46.26,84.96,45.32,85.69
				L45.32,85.69z"/>
			<path class="st1" d="M24.44,58.95l-4.12,3.22c-0.96,0.73,0.49,2.67,1.49,1.9l4.12-3.21C26.88,60.12,25.38,58.22,24.44,58.95
				L24.44,58.95z"/>
			<path class="st1" d="M11.33,57.62L6,53.5c-0.08-0.06-0.06-0.38,0.24-0.32c0.05,0.01,3.33,0.31,3.33,0.31l-0.02-2.37
				c-0.01-0.15,0.22-0.36,0.38-0.31c0.02,0,2.29,0.63,2.29,0.63l-1.11-5.06c-0.05-0.2,0.21-0.41,0.4-0.32c0,0,4.62,2.32,4.62,2.32
				l-0.03-2.36c-0.02-0.16,0.2-0.38,0.41-0.32c0.03,0.01,2.26,0.62,2.26,0.62L19.27,43c0.01-0.27,0.26-0.26,0.31-0.21
				c0.01,0.02,2.78,6.18,2.78,6.18L11.33,57.62L11.33,57.62z"/>
			<path class="st1" d="M24.3,88.29l-4.94,6.34c0,0,3.47,2.72,3.47,2.71l4.97-6.33L24.3,88.29L24.3,88.29z"/>
			<path class="st1" d="M53.5,59.29c0.98-0.33,2.29-0.21,3.25,0.47c0.12,0.09,0.36,0.07,0.45,0c0.04-0.03,1.92-1.54,1.92-1.54
				l-10.67-8.41l-1.02,2.31c-0.05,0.11-0.02,0.34,0.1,0.44c0.71,0.64,1.21,1.53,1.23,3c0.01,1.54-0.99,2.57-1.35,3.05
				c0.64,0.5,2.83,2.22,3.48,2.73C51.74,60.12,52.41,59.56,53.5,59.29L53.5,59.29z"/>
			<path class="st1" d="M22.24,100.78c-0.6,0.71-1.66,0.81-2.29,0.33l-3.48-2.72c-0.62-0.49-0.84-1.5-0.25-2.26l0.5-0.64
				c0.61-0.78,1.63-0.79,2.26-0.28l3.48,2.71c0.63,0.5,0.78,1.57,0.3,2.21L22.24,100.78L22.24,100.78z"/>
			<polygon class="st1" points="45.1,61.65 26.66,85.28 30.12,87.99 48.59,64.37 45.1,61.65 			"/>
			<path class="st1" d="M25.92,85.58l4.12,3.22c0.96,0.73-0.49,2.67-1.49,1.9l-4.12-3.21C23.47,86.75,24.97,84.84,25.92,85.58
				L25.92,85.58z"/>
			<path class="st1" d="M46.71,58.95l4.12,3.22c0.96,0.73-0.49,2.67-1.49,1.9l-4.12-3.21C44.26,60.12,45.77,58.22,46.71,58.95
				L46.71,58.95z"/>
			<path class="st1" d="M59.72,57.72l5.42-4.22c0.08-0.06,0.06-0.38-0.24-0.32c-0.05,0.01-3.33,0.31-3.33,0.31l0.02-2.37
				c0.01-0.15-0.22-0.36-0.38-0.31c-0.02,0-2.29,0.63-2.29,0.63l1.11-5.06c0.05-0.2-0.21-0.41-0.4-0.32c0,0-4.62,2.32-4.62,2.32
				l0.03-2.36c0.02-0.16-0.2-0.38-0.41-0.32c-0.03,0.01-2.26,0.62-2.26,0.62L51.88,43c-0.01-0.27-0.26-0.26-0.31-0.21
				c-0.01,0.02-2.8,6.35-2.8,6.35L59.72,57.72L59.72,57.72z"/>
			<path class="st2" d="M35.4,112.72c-18.95,0-34.32-15.36-34.32-34.31l0-40.77l0.91,0l66.81,0l0.91,0l0,40.77
				C69.72,97.35,54.35,112.71,35.4,112.72L35.4,112.72z M35.4,110.89c17.95,0,32.49-14.55,32.49-32.49l0-38.95l-64.98,0l0,38.95
				C2.91,96.34,17.45,110.89,35.4,110.89L35.4,110.89z"/>
			<path class="st2" d="M15.74,33.91c0,0-9.72-26.25-9.74-26.28c-0.05-0.62,0.29-0.53,0.63-0.4l0.39,0.19
				c1.17,0.59,2.36,0.99,3.6,1.32c1.31,0.3,2.36,0.46,3.15,1.71c0.39,0.76,0.36,1.34,0.15,2.2c-0.06,0.26,0.19,0.07,0.31-0.2
				c0.96-1.5,1.67-2.12,3.71-2.24c1.72-0.1,3.14,0.48,3.89,2.28c0.53,1.5-0.04,2.89-1.38,4.05c-0.23,0.34-0.28,0.47-0.21,0.89
				c0.02,0.3,0.76,0.64,1.03,0.67c0.24,0.02-1.84,2.69-3.88,0.82c-0.36-0.88-0.39-1.3-0.24-2.4c0.08-0.75-1.31-1.1-1.64,0.41
				c-0.45,2.58,0.82,4.81,2.45,5.95c1.46,0.74,3.41,0.64,4.56-0.28c0.62-0.54,0.91-0.76,1.01-2c-0.61-0.33-1.04-0.64-1.24-1.37
				c-0.38-1.41,0.23-2.62,1.64-3c1.41-0.38,2.73,0.7,2.73,2.16c0,0.68-0.41,1.4-0.82,1.86c0.61,1.79,1.8,1.74,3.09,1.79
				c1.73,0.1,4.36-1.04,4.42-5.26c-0.04-0.76-0.65-3.44-1.74-3.5c-0.71,0-0.89,0.57-0.61,1.09c0.22,0.36,0.42,0.49,0.4,1.34
				c-0.41,1.98-3.38,1.81-3.41,1.72c1.69-2.51-2.96-2.98-2.79-5.96c0.13-2.13,1.43-2.9,2.55-3.26c1.2-0.3,2.25-0.19,3.27,0.35
				c0.31,0.16,0.48,0.31,0.87,0.7C31.92,9.34,32.09,9.39,32,9.2c-0.03-0.08-0.09-0.21-0.21-0.47c-0.42-0.95-0.24-2.2,0.38-3.08
				c0.74-1,1.82-2.06,2.34-3.2c0.14-0.31,0.45-1.18,0.65-1.43c0.08-0.07,0.15-0.11,0.24-0.13c0.09,0.02,0.18,0.07,0.26,0.15
				c0.19,0.25,0.51,1.1,0.67,1.45c0.52,1.14,1.56,2.16,2.31,3.15c0.62,0.88,0.8,2.12,0.38,3.08c-0.08,0.2-0.22,0.36-0.25,0.44
				c-0.06,0.13,0.06,0.12,0.1,0.06c0.55-0.46,0.51-0.41,0.93-0.65c1.01-0.54,2.07-0.65,3.27-0.35c1.11,0.35,2.42,1.12,2.55,3.26
				c0.17,2.98-4.48,3.46-2.79,5.96c-0.03,0.08-3,0.26-3.41-1.72c-0.01-0.85,0.19-0.98,0.4-1.34c0.28-0.53,0.09-1.09-0.61-1.09
				c-1.09,0.06-1.7,2.73-1.74,3.5c0.06,4.22,2.69,5.36,4.42,5.26c1.29-0.05,2.48-0.01,3.09-1.79c-0.42-0.47-0.83-1.19-0.83-1.86
				c0-1.46,1.32-2.54,2.73-2.16c1.41,0.38,2.02,1.59,1.64,3c-0.19,0.73-0.62,1.04-1.24,1.37c0.11,1.23,0.39,1.46,1.01,2
				c1.15,0.93,3.1,1.03,4.56,0.28c1.63-1.14,2.9-3.37,2.45-5.95c-0.33-1.52-1.72-1.16-1.64-0.41c0.15,1.1,0.11,1.52-0.24,2.4
				c-2.04,1.86-4.12-0.8-3.88-0.82c0.27-0.02,1-0.37,1.03-0.67c0.07-0.42,0.02-0.55-0.21-0.89c-1.35-1.15-1.91-2.55-1.38-4.05
				c0.75-1.8,2.17-2.39,3.89-2.28c2.04,0.12,2.75,0.74,3.71,2.24c0.07,0.11,0.31,0.72,0.47,0.42c-0.13-0.92-0.49-1.82,0.11-2.73
				c0.79-1.25,1.72-1.1,3.03-1.4c1.24-0.33,2.32-0.68,3.5-1.27l0.5-0.22c0.41-0.28,0.8-0.28,0.63,0.38
				c-0.02,0.03-9.74,26.28-9.74,26.28H15.74L15.74,33.91z"/>
			<path class="st1" d="M89.56,104.9c0.16,0.52,0.26,0.74,0.46,0.74c0.24,0,0.34-0.24,0.72-1.07c0.86-1.85,3.54-8.96,3.92-9.99h0.04
				l4.18,10.07c0.3,0.74,0.42,0.98,0.62,0.98c0.26,0,0.36-0.24,0.58-0.94c0.98-3.01,3.1-9.41,4.02-11.94
				c0.42-1.15,0.64-1.95,1.13-2.13c0.22-0.08,0.5-0.1,0.7-0.1c0.18,0,0.28-0.06,0.28-0.2c0-0.12-0.14-0.16-0.36-0.16
				c-0.66,0-1.53,0.06-1.67,0.06c-0.18,0-1.03-0.06-2.09-0.06c-0.3,0-0.46,0.04-0.46,0.18c0,0.12,0.14,0.18,0.34,0.18
				c0.78,0,0.96,0.28,0.96,0.6c0,0.28-0.06,0.7-0.2,1.17c-0.7,2.35-2.31,7.66-2.67,9h-0.06L95.83,91.2
				c-0.26-0.64-0.36-0.94-0.58-0.94c-0.16,0-0.28,0.16-0.5,0.72l-3.9,10.47h-0.06c-0.36-1.13-2.23-7.22-2.57-8.54
				c-0.24-0.9-0.44-1.59-0.44-1.85c0-0.22,0.04-0.36,0.22-0.44c0.14-0.08,0.34-0.08,0.5-0.08c0.2,0,0.36-0.02,0.36-0.18
				c0-0.12-0.14-0.18-0.42-0.18c-1.17,0-2.05,0.06-2.23,0.06c-0.18,0-1.29-0.06-2.33-0.06c-0.28,0-0.44,0.04-0.44,0.18
				c0,0.16,0.12,0.18,0.32,0.18c0.18,0,0.58,0.04,0.8,0.18c0.28,0.2,0.5,0.68,0.74,1.43L89.56,104.9L89.56,104.9z"/>
			<path class="st1" d="M124.32,96c0-3.06,0-3.62,0.04-4.26c0.04-0.7,0.2-1.05,0.74-1.15c0.24-0.04,0.36-0.06,0.56-0.06
				c0.16,0,0.28-0.04,0.28-0.18c0-0.14-0.14-0.18-0.42-0.18c-0.68,0-1.95,0.06-2.43,0.06s-1.75-0.06-2.81-0.06
				c-0.3,0-0.44,0.04-0.44,0.18c0,0.14,0.12,0.18,0.34,0.18c0.28,0,0.62,0.02,0.78,0.06c0.66,0.14,0.82,0.46,0.86,1.15
				c0.04,0.64,0.04,1.21,0.04,4.26v3.54c0,1.85,0,3.44-0.1,4.28c-0.08,0.58-0.18,1.02-0.58,1.11c-0.18,0.04-0.42,0.08-0.72,0.08
				c-0.24,0-0.32,0.06-0.32,0.16c0,0.14,0.14,0.2,0.4,0.2c0.8,0,2.07-0.06,2.53-0.06c0.5,0,1.77,0.06,2.89,0.06
				c0.22,0,0.38-0.06,0.38-0.2c0-0.1-0.1-0.16-0.26-0.16c-0.26,0-0.7-0.04-0.98-0.08c-0.5-0.08-0.68-0.52-0.72-1.09
				c-0.06-0.86-0.06-2.45-0.06-4.3v-1.83h0.1l0.22,0.3c0.42,0.58,4.38,5.23,5.27,6.01c0.86,0.76,1.41,1.21,2.49,1.31
				c0.42,0.04,0.78,0.04,1.39,0.04h1.75c0.38,0,0.48-0.06,0.48-0.2c0-0.12-0.12-0.16-0.26-0.16c-0.24,0-0.64-0.06-1.25-0.3
				c-1.09-0.42-1.99-1.33-2.87-2.17c-0.78-0.74-4.72-4.98-5.45-5.93c0.68-0.72,3.72-3.74,4.34-4.34c0.86-0.84,1.55-1.27,2.17-1.51
				c0.38-0.14,0.88-0.22,1.17-0.22c0.2,0,0.3-0.04,0.3-0.18c0-0.14-0.14-0.18-0.34-0.18c-0.62,0-1.73,0.06-2.35,0.06
				c-0.54,0-1.65-0.06-2.07-0.06c-0.22,0-0.32,0.04-0.32,0.18c0,0.12,0.08,0.16,0.26,0.2c0.2,0.04,0.28,0.18,0.28,0.4
				c0,0.34-0.44,0.84-1.01,1.51c-0.58,0.68-3.52,3.68-4.2,4.42h-0.1V96L124.32,96z"/>
			<path class="st1" d="M141.43,99.54c0,1.85,0,3.44-0.1,4.28c-0.08,0.58-0.18,1.02-0.58,1.11c-0.18,0.04-0.42,0.08-0.72,0.08
				c-0.24,0-0.32,0.06-0.32,0.16c0,0.14,0.14,0.2,0.4,0.2c0.8,0,2.07-0.06,2.45-0.06c0.3,0,1.79,0.06,2.95,0.06
				c0.26,0,0.4-0.06,0.4-0.2c0-0.1-0.08-0.16-0.24-0.16c-0.24,0-0.68-0.04-0.98-0.08c-0.6-0.08-0.72-0.52-0.78-1.11
				c-0.1-0.84-0.1-2.43-0.1-4.3v-0.28c0-0.12,0.06-0.16,0.16-0.16l1.75,0.04c0.14,0,0.26,0.02,0.36,0.14
				c0.26,0.3,1.19,1.67,1.99,2.77c1.13,1.55,1.89,2.49,2.75,2.95c0.52,0.28,1.03,0.38,2.15,0.38h1.91c0.24,0,0.38-0.04,0.38-0.2
				c0-0.1-0.08-0.16-0.24-0.16c-0.16,0-0.34-0.02-0.56-0.06c-0.3-0.06-1.13-0.2-2.25-1.37c-1.19-1.25-2.57-3.03-4.36-5.29
				c2.03-1.65,2.65-3.01,2.65-4.5c0-1.35-0.8-2.37-1.37-2.75c-1.09-0.74-2.43-0.86-3.7-0.86c-0.62,0-2.15,0.06-2.83,0.06
				c-0.42,0-1.69-0.06-2.75-0.06c-0.3,0-0.44,0.04-0.44,0.18c0,0.14,0.12,0.18,0.34,0.18c0.28,0,0.62,0.02,0.78,0.06
				c0.66,0.14,0.82,0.46,0.86,1.15c0.04,0.64,0.04,1.21,0.04,4.26V99.54L141.43,99.54z M143.8,91.48c0-0.16,0.04-0.24,0.18-0.28
				c0.2-0.06,0.56-0.08,1.07-0.08c1.19,0,3.08,0.82,3.08,3.68c0,1.65-0.58,2.57-1.19,3.01c-0.36,0.26-0.62,0.34-1.43,0.34
				c-0.5,0-1.11-0.06-1.53-0.2c-0.14-0.06-0.18-0.14-0.18-0.36V91.48L143.8,91.48z"/>
			<path class="st1" d="M166.01,100.12c0.1,0,0.16,0.04,0.2,0.14l1.61,4.26c0.1,0.24-0.04,0.42-0.18,0.46
				c-0.2,0.02-0.28,0.06-0.28,0.18c0,0.14,0.24,0.14,0.6,0.16c1.61,0.04,3.08,0.04,3.8,0.04c0.74,0,0.92-0.04,0.92-0.2
				c0-0.14-0.1-0.16-0.26-0.16c-0.24,0-0.54-0.02-0.84-0.08c-0.42-0.1-1.01-0.38-1.77-2.19c-1.29-3.06-4.5-11.26-4.98-12.36
				c-0.2-0.46-0.32-0.64-0.5-0.64c-0.2,0-0.32,0.22-0.56,0.8l-5.04,12.62c-0.4,1.01-0.78,1.69-1.71,1.81
				c-0.16,0.02-0.44,0.04-0.62,0.04c-0.16,0-0.24,0.04-0.24,0.16c0,0.16,0.12,0.2,0.38,0.2c1.05,0,2.15-0.06,2.37-0.06
				c0.62,0,1.49,0.06,2.13,0.06c0.22,0,0.34-0.04,0.34-0.2c0-0.12-0.06-0.16-0.3-0.16h-0.3c-0.62,0-0.8-0.26-0.8-0.62
				c0-0.24,0.1-0.72,0.3-1.23l1.09-2.87c0.04-0.12,0.08-0.16,0.18-0.16H166.01L166.01,100.12z M161.93,99.12
				c-0.08,0-0.1-0.06-0.08-0.14l1.85-4.94c0.02-0.08,0.06-0.18,0.12-0.18c0.06,0,0.08,0.1,0.1,0.18l1.81,4.96
				c0.02,0.06,0,0.12-0.1,0.12H161.93L161.93,99.12z"/>
			<path class="st1" d="M180.57,96c0-3.06,0-3.62,0.04-4.26c0.04-0.7,0.2-1.05,0.74-1.15c0.24-0.04,0.36-0.06,0.56-0.06
				c0.16,0,0.28-0.04,0.28-0.18c0-0.14-0.14-0.18-0.42-0.18c-0.68,0-1.95,0.06-2.43,0.06s-1.75-0.06-2.81-0.06
				c-0.3,0-0.44,0.04-0.44,0.18c0,0.14,0.12,0.18,0.34,0.18c0.28,0,0.62,0.02,0.78,0.06c0.66,0.14,0.82,0.46,0.86,1.15
				c0.04,0.64,0.04,1.21,0.04,4.26v3.54c0,1.85,0,3.44-0.1,4.28c-0.08,0.58-0.18,1.02-0.58,1.11c-0.18,0.04-0.42,0.08-0.72,0.08
				c-0.24,0-0.32,0.06-0.32,0.16c0,0.14,0.14,0.2,0.4,0.2c0.8,0,2.07-0.06,2.53-0.06c0.5,0,1.77,0.06,2.89,0.06
				c0.22,0,0.38-0.06,0.38-0.2c0-0.1-0.1-0.16-0.26-0.16c-0.26,0-0.7-0.04-0.98-0.08c-0.5-0.08-0.68-0.52-0.72-1.09
				c-0.06-0.86-0.06-2.45-0.06-4.3v-1.83h0.1l0.22,0.3c0.42,0.58,4.38,5.23,5.27,6.01c0.86,0.76,1.41,1.21,2.49,1.31
				c0.42,0.04,0.78,0.04,1.39,0.04h1.75c0.38,0,0.48-0.06,0.48-0.2c0-0.12-0.12-0.16-0.26-0.16c-0.24,0-0.64-0.06-1.25-0.3
				c-1.09-0.42-1.99-1.33-2.87-2.17c-0.78-0.74-4.72-4.98-5.45-5.93c0.68-0.72,3.72-3.74,4.34-4.34c0.86-0.84,1.55-1.27,2.17-1.51
				c0.38-0.14,0.88-0.22,1.17-0.22c0.2,0,0.3-0.04,0.3-0.18c0-0.14-0.14-0.18-0.34-0.18c-0.62,0-1.73,0.06-2.35,0.06
				c-0.54,0-1.65-0.06-2.07-0.06c-0.22,0-0.32,0.04-0.32,0.18c0,0.12,0.08,0.16,0.26,0.2c0.2,0.04,0.28,0.18,0.28,0.4
				c0,0.34-0.44,0.84-1.01,1.51c-0.58,0.68-3.52,3.68-4.2,4.42h-0.1V96L180.57,96z"/>
			<path class="st1" d="M202.78,105.65c5.11,0,8.32-3.64,8.32-8.24c0-4.6-3.12-7.52-8.12-7.52c-6.03,0-8.3,4.44-8.3,7.88
				C194.68,101.33,197.02,105.65,202.78,105.65L202.78,105.65z M203.63,104.64c-3.86,0-6.17-3.32-6.17-7.5c0-5,2.63-6.29,4.94-6.29
				c3.3,0,5.89,2.79,5.89,7.3C208.29,103.96,205.04,104.64,203.63,104.64L203.63,104.64z"/>
			<path class="st1" d="M221.3,104.9c0.16,0.52,0.26,0.74,0.46,0.74c0.24,0,0.34-0.24,0.72-1.07c0.86-1.85,3.54-8.96,3.92-9.99h0.04
				l4.18,10.07c0.3,0.74,0.42,0.98,0.62,0.98c0.26,0,0.36-0.24,0.58-0.94c0.98-3.01,3.1-9.41,4.02-11.94
				c0.42-1.15,0.64-1.95,1.13-2.13c0.22-0.08,0.5-0.1,0.7-0.1c0.18,0,0.28-0.06,0.28-0.2c0-0.12-0.14-0.16-0.36-0.16
				c-0.66,0-1.53,0.06-1.67,0.06c-0.18,0-1.03-0.06-2.09-0.06c-0.3,0-0.46,0.04-0.46,0.18c0,0.12,0.14,0.18,0.34,0.18
				c0.78,0,0.96,0.28,0.96,0.6c0,0.28-0.06,0.7-0.2,1.17c-0.7,2.35-2.31,7.66-2.67,9h-0.06l-4.18-10.11
				c-0.26-0.64-0.36-0.94-0.58-0.94c-0.16,0-0.28,0.16-0.5,0.72l-3.9,10.47h-0.06c-0.36-1.13-2.23-7.22-2.57-8.54
				c-0.24-0.9-0.44-1.59-0.44-1.85c0-0.22,0.04-0.36,0.22-0.44c0.14-0.08,0.34-0.08,0.5-0.08c0.2,0,0.36-0.02,0.36-0.18
				c0-0.12-0.14-0.18-0.42-0.18c-1.17,0-2.05,0.06-2.23,0.06c-0.18,0-1.29-0.06-2.33-0.06c-0.28,0-0.44,0.04-0.44,0.18
				c0,0.16,0.12,0.18,0.32,0.18c0.18,0,0.58,0.04,0.8,0.18c0.28,0.2,0.5,0.68,0.74,1.43L221.3,104.9L221.3,104.9z"/>
			<path class="st1" d="M243.96,99.54c0,1.95,0,3.54-0.1,4.38c-0.06,0.58-0.18,0.92-0.58,1c-0.18,0.04-0.42,0.08-0.72,0.08
				c-0.24,0-0.32,0.06-0.32,0.16c0,0.14,0.14,0.2,0.4,0.2c0.8,0,2.07-0.06,2.53-0.06c0.54,0,1.81,0.06,3.14,0.06
				c0.22,0,0.38-0.06,0.38-0.2c0-0.1-0.1-0.16-0.32-0.16c-0.3,0-0.74-0.04-1.03-0.08c-0.6-0.08-0.74-0.44-0.8-0.98
				c-0.08-0.86-0.08-2.45-0.08-4.4V96c0-3.06,0-3.62,0.04-4.26c0.04-0.7,0.2-1.05,0.74-1.15c0.24-0.04,0.4-0.06,0.6-0.06
				c0.2,0,0.32-0.04,0.32-0.2c0-0.12-0.16-0.16-0.42-0.16c-0.76,0-1.95,0.06-2.45,0.06c-0.58,0-1.85-0.06-2.61-0.06
				c-0.32,0-0.48,0.04-0.48,0.16c0,0.16,0.12,0.2,0.32,0.2c0.24,0,0.5,0.02,0.72,0.08c0.44,0.1,0.64,0.44,0.68,1.13
				c0.04,0.64,0.04,1.21,0.04,4.26V99.54L243.96,99.54z"/>
			<path class="st1" d="M256.37,99.54c0,1.85,0,3.44-0.1,4.28c-0.08,0.58-0.18,1.02-0.58,1.11c-0.18,0.04-0.42,0.08-0.72,0.08
				c-0.24,0-0.32,0.06-0.32,0.16c0,0.14,0.14,0.2,0.4,0.2c0.8,0,2.07-0.06,2.53-0.06c1.19,0,2.53,0.12,5.57,0.12
				c0.76,0,0.94,0,1.09-0.52c0.1-0.4,0.26-1.77,0.26-2.23c0-0.2,0-0.36-0.16-0.36c-0.14,0-0.18,0.08-0.22,0.3
				c-0.14,0.82-0.38,1.25-0.9,1.49c-0.52,0.24-1.37,0.24-1.89,0.24c-2.05,0-2.37-0.3-2.41-1.69c-0.02-0.58,0-2.43,0-3.12v-1.59
				c0-0.12,0.02-0.2,0.12-0.2c0.48,0,2.47,0.02,2.85,0.06c0.74,0.08,1.03,0.38,1.13,0.78c0.06,0.26,0.06,0.52,0.08,0.72
				c0,0.1,0.04,0.18,0.18,0.18c0.18,0,0.18-0.22,0.18-0.38c0-0.14,0.04-0.94,0.08-1.35c0.06-1.03,0.16-1.35,0.16-1.47
				s-0.06-0.16-0.14-0.16c-0.1,0-0.18,0.1-0.32,0.26c-0.18,0.2-0.48,0.26-0.96,0.3c-0.46,0.04-2.77,0.04-3.22,0.04
				c-0.12,0-0.14-0.08-0.14-0.22v-5.09c0-0.14,0.04-0.2,0.14-0.2c0.4,0,2.51,0.04,2.85,0.08c1,0.12,1.21,0.36,1.35,0.72
				c0.1,0.24,0.12,0.58,0.12,0.72c0,0.18,0.04,0.28,0.18,0.28c0.14,0,0.18-0.12,0.2-0.22c0.04-0.24,0.08-1.13,0.1-1.33
				c0.06-0.92,0.16-1.17,0.16-1.31c0-0.1-0.02-0.18-0.12-0.18s-0.22,0.06-0.32,0.08c-0.16,0.04-0.48,0.08-0.86,0.12
				c-0.38,0.02-4.38,0.02-5.02,0.02c-0.56,0-1.83-0.06-2.89-0.06c-0.3,0-0.44,0.04-0.44,0.18c0,0.14,0.12,0.18,0.34,0.18
				c0.28,0,0.62,0.02,0.78,0.06c0.66,0.14,0.82,0.46,0.86,1.15c0.04,0.64,0.04,1.21,0.04,4.26V99.54L256.37,99.54z"/>
			<path class="st1" d="M86.33,75.4c0,3.94,0.02,5.95-1.51,7.5c-0.4,0.4-0.7,0.62-0.96,0.76c-0.34,0.18-0.44,0.26-0.44,0.36
				c0,0.1,0.08,0.16,0.16,0.16c0.1,0,0.26-0.04,0.4-0.12c0.42-0.2,0.74-0.36,1.01-0.52c1.93-1.19,2.99-2.57,3.42-3.8
				c0.4-1.13,0.48-2.41,0.48-3.56c0-1-0.06-1.97-0.06-2.83v-3.72c0-3.06,0-3.62,0.04-4.26c0.04-0.7,0.2-1.05,0.74-1.15
				c0.24-0.04,0.36-0.06,0.58-0.06c0.24,0,0.36-0.04,0.36-0.18c0-0.14-0.14-0.18-0.42-0.18c-0.78,0-2.05,0.06-2.53,0.06
				c-0.52,0-1.79-0.06-2.85-0.06c-0.3,0-0.44,0.04-0.44,0.18c0,0.14,0.12,0.18,0.34,0.18c0.28,0,0.62,0.02,0.78,0.06
				c0.66,0.14,0.82,0.46,0.86,1.15c0.04,0.64,0.04,1.21,0.04,4.26V75.4L86.33,75.4z"/>
			<path class="st1" d="M102.09,73.75c0.1,0,0.16,0.04,0.2,0.14l1.61,4.26c0.1,0.24-0.04,0.42-0.18,0.46
				c-0.2,0.02-0.28,0.06-0.28,0.18c0,0.14,0.24,0.14,0.6,0.16c1.61,0.04,3.08,0.04,3.8,0.04c0.74,0,0.92-0.04,0.92-0.2
				c0-0.14-0.1-0.16-0.26-0.16c-0.24,0-0.54-0.02-0.84-0.08c-0.42-0.1-1-0.38-1.77-2.19c-1.29-3.06-4.5-11.26-4.98-12.36
				c-0.2-0.46-0.32-0.64-0.5-0.64c-0.2,0-0.32,0.22-0.56,0.8l-5.05,12.62c-0.4,1-0.78,1.69-1.71,1.81
				c-0.16,0.02-0.44,0.04-0.62,0.04c-0.16,0-0.24,0.04-0.24,0.16c0,0.16,0.12,0.2,0.38,0.2c1.04,0,2.15-0.06,2.37-0.06
				c0.62,0,1.49,0.06,2.13,0.06c0.22,0,0.34-0.04,0.34-0.2c0-0.12-0.06-0.16-0.3-0.16h-0.3c-0.62,0-0.8-0.26-0.8-0.62
				c0-0.24,0.1-0.72,0.3-1.23l1.09-2.87c0.04-0.12,0.08-0.16,0.18-0.16H102.09L102.09,73.75z M98.01,72.75
				c-0.08,0-0.1-0.06-0.08-0.14l1.85-4.94c0.02-0.08,0.06-0.18,0.12-0.18c0.06,0,0.08,0.1,0.1,0.18l1.81,4.96
				c0.02,0.06,0,0.12-0.1,0.12H98.01L98.01,72.75z"/>
			<path class="st1" d="M125.19,75.44c0-1,0-1.81,0.02-2.41c0.02-0.7,0.22-1.05,0.76-1.15c0.24-0.04,0.38-0.06,0.54-0.06
				c0.14,0,0.26-0.04,0.26-0.16c0-0.16-0.14-0.2-0.4-0.2c-0.66,0-1.73,0.06-2.35,0.06c-0.6,0-1.87-0.06-2.91-0.06
				c-0.28,0-0.42,0.04-0.42,0.2c0,0.12,0.12,0.16,0.3,0.16c0.28,0,0.62,0.02,0.78,0.06c0.66,0.14,0.84,0.46,0.86,1.15
				c0.02,0.6,0.02,1.37,0.02,2.37v1.89c0,0.34-0.08,0.6-0.38,0.74c-0.48,0.22-1.19,0.22-1.71,0.22c-4.24,0-6.99-3.24-6.99-7.56
				c0-2.47,0.72-3.98,1.85-4.92c1.41-1.17,2.87-1.25,3.98-1.25c2.27,0,3.88,0.92,4.48,1.57c0.52,0.56,0.62,1.21,0.68,1.67
				c0.02,0.16,0.06,0.26,0.2,0.26c0.16,0,0.22-0.1,0.22-0.42c0-2.51,0.14-3.08,0.14-3.3c0-0.14-0.04-0.22-0.28-0.24
				c-0.46-0.02-1.17-0.14-1.59-0.22c-0.4-0.08-2.17-0.32-3.56-0.32c-1.69,0-3.48,0.14-5.41,1.31c-1.83,1.11-3.5,3.36-3.5,6.57
				c0,5.55,4.36,7.88,9.29,7.88c1.57,0,3.54-0.22,4.84-0.9c0.24-0.14,0.26-0.18,0.26-0.72V75.44L125.19,75.44z"/>
			<path class="st1" d="M132.91,73.17c0,1.95,0,3.54-0.1,4.38c-0.06,0.58-0.18,0.92-0.58,1c-0.18,0.04-0.42,0.08-0.72,0.08
				c-0.24,0-0.32,0.06-0.32,0.16c0,0.14,0.14,0.2,0.4,0.2c0.8,0,2.07-0.06,2.53-0.06c0.54,0,1.81,0.06,3.14,0.06
				c0.22,0,0.38-0.06,0.38-0.2c0-0.1-0.1-0.16-0.32-0.16c-0.3,0-0.74-0.04-1.03-0.08c-0.6-0.08-0.74-0.44-0.8-0.98
				c-0.08-0.86-0.08-2.45-0.08-4.4v-3.54c0-3.06,0-3.62,0.04-4.26c0.04-0.7,0.2-1.05,0.74-1.15c0.24-0.04,0.4-0.06,0.6-0.06
				c0.2,0,0.32-0.04,0.32-0.2c0-0.12-0.16-0.16-0.42-0.16c-0.76,0-1.95,0.06-2.45,0.06c-0.58,0-1.85-0.06-2.61-0.06
				c-0.32,0-0.48,0.04-0.48,0.16c0,0.16,0.12,0.2,0.32,0.2c0.24,0,0.5,0.02,0.72,0.08c0.44,0.1,0.64,0.44,0.68,1.13
				c0.04,0.64,0.04,1.21,0.04,4.26V73.17L132.91,73.17z"/>
			<path class="st1" d="M144.11,73.17c0,1.85,0,3.44-0.1,4.28c-0.08,0.58-0.18,1.03-0.58,1.11c-0.18,0.04-0.42,0.08-0.72,0.08
				c-0.24,0-0.32,0.06-0.32,0.16c0,0.14,0.14,0.2,0.4,0.2c0.8,0,2.07-0.06,2.53-0.06c1.19,0,2.53,0.12,5.57,0.12
				c0.76,0,0.94,0,1.09-0.52c0.1-0.4,0.26-1.77,0.26-2.23c0-0.2,0-0.36-0.16-0.36c-0.14,0-0.18,0.08-0.22,0.3
				c-0.14,0.82-0.38,1.25-0.9,1.49c-0.52,0.24-1.37,0.24-1.89,0.24c-2.05,0-2.37-0.3-2.41-1.69c-0.02-0.58,0-2.43,0-3.12v-1.59
				c0-0.12,0.02-0.2,0.12-0.2c0.48,0,2.47,0.02,2.85,0.06c0.74,0.08,1.03,0.38,1.13,0.78c0.06,0.26,0.06,0.52,0.08,0.72
				c0,0.1,0.04,0.18,0.18,0.18c0.18,0,0.18-0.22,0.18-0.38c0-0.14,0.04-0.94,0.08-1.35c0.06-1.03,0.16-1.35,0.16-1.47
				s-0.06-0.16-0.14-0.16c-0.1,0-0.18,0.1-0.32,0.26c-0.18,0.2-0.48,0.26-0.96,0.3c-0.46,0.04-2.77,0.04-3.22,0.04
				c-0.12,0-0.14-0.08-0.14-0.22v-5.08c0-0.14,0.04-0.2,0.14-0.2c0.4,0,2.51,0.04,2.85,0.08c1.01,0.12,1.21,0.36,1.35,0.72
				c0.1,0.24,0.12,0.58,0.12,0.72c0,0.18,0.04,0.28,0.18,0.28c0.14,0,0.18-0.12,0.2-0.22c0.04-0.24,0.08-1.13,0.1-1.33
				c0.06-0.92,0.16-1.17,0.16-1.31c0-0.1-0.02-0.18-0.12-0.18c-0.1,0-0.22,0.06-0.32,0.08c-0.16,0.04-0.48,0.08-0.86,0.12
				c-0.38,0.02-4.38,0.02-5.02,0.02c-0.56,0-1.83-0.06-2.89-0.06c-0.3,0-0.44,0.04-0.44,0.18c0,0.14,0.12,0.18,0.34,0.18
				c0.28,0,0.62,0.02,0.78,0.06c0.66,0.14,0.82,0.46,0.86,1.15c0.04,0.64,0.04,1.21,0.04,4.26V73.17L144.11,73.17z"/>
			<path class="st1" d="M161.44,69.63c0-3.06,0-3.62,0.04-4.26c0.04-0.7,0.2-1.05,0.74-1.15c0.24-0.04,0.56-0.06,0.78-0.06
				c0.24,0,0.36-0.04,0.36-0.18c0-0.14-0.14-0.18-0.42-0.18c-0.78,0-2.25,0.06-2.73,0.06c-0.54,0-1.81-0.06-2.75-0.06
				c-0.3,0-0.44,0.04-0.44,0.18c0,0.14,0.12,0.18,0.34,0.18c0.26,0,0.5,0.02,0.66,0.06c0.66,0.14,0.82,0.46,0.86,1.15
				c0.04,0.64,0.04,1.21,0.04,4.26v3.54c0,1.85,0,3.44-0.1,4.28c-0.08,0.58-0.18,1.03-0.58,1.11c-0.18,0.04-0.42,0.08-0.72,0.08
				c-0.24,0-0.32,0.06-0.32,0.16c0,0.14,0.14,0.2,0.4,0.2c0.8,0,2.07-0.06,2.53-0.06c1.63,0,2.95,0.12,5.85,0.12
				c1.05,0,1.15-0.1,1.27-0.54c0.16-0.58,0.3-2.09,0.3-2.31c0-0.24-0.02-0.34-0.16-0.34c-0.16,0-0.2,0.12-0.22,0.3
				c-0.04,0.38-0.28,0.94-0.52,1.21c-0.5,0.54-1.29,0.56-2.35,0.56c-1.57,0-2.09-0.14-2.43-0.44c-0.42-0.36-0.42-1.75-0.42-4.32
				V69.63L161.44,69.63z"/>
			<path class="st1" d="M175.72,69.63c0-3.06,0-3.62,0.04-4.26c0.04-0.7,0.2-1.05,0.74-1.15c0.24-0.04,0.56-0.06,0.78-0.06
				c0.24,0,0.36-0.04,0.36-0.18c0-0.14-0.14-0.18-0.42-0.18c-0.78,0-2.25,0.06-2.73,0.06c-0.54,0-1.81-0.06-2.75-0.06
				c-0.3,0-0.44,0.04-0.44,0.18c0,0.14,0.12,0.18,0.34,0.18c0.26,0,0.5,0.02,0.66,0.06c0.66,0.14,0.82,0.46,0.86,1.15
				c0.04,0.64,0.04,1.21,0.04,4.26v3.54c0,1.85,0,3.44-0.1,4.28c-0.08,0.58-0.18,1.03-0.58,1.11c-0.18,0.04-0.42,0.08-0.72,0.08
				c-0.24,0-0.32,0.06-0.32,0.16c0,0.14,0.14,0.2,0.4,0.2c0.8,0,2.07-0.06,2.53-0.06c1.63,0,2.95,0.12,5.85,0.12
				c1.05,0,1.15-0.1,1.27-0.54c0.16-0.58,0.3-2.09,0.3-2.31c0-0.24-0.02-0.34-0.16-0.34c-0.16,0-0.2,0.12-0.22,0.3
				c-0.04,0.38-0.28,0.94-0.52,1.21c-0.5,0.54-1.29,0.56-2.35,0.56c-1.57,0-2.09-0.14-2.43-0.44c-0.42-0.36-0.42-1.75-0.42-4.32
				V69.63L175.72,69.63z"/>
			<path class="st1" d="M193.39,79.28c5.11,0,8.32-3.64,8.32-8.24c0-4.6-3.12-7.52-8.12-7.52c-6.03,0-8.3,4.44-8.3,7.88
				C185.29,74.96,187.62,79.28,193.39,79.28L193.39,79.28z M194.24,78.28c-3.86,0-6.17-3.32-6.17-7.5c0-5,2.63-6.29,4.94-6.29
				c3.3,0,5.89,2.79,5.89,7.3C198.9,77.59,195.64,78.28,194.24,78.28L194.24,78.28z"/>
			<path class="st1" d="M216.99,59.4c-0.1-0.18-0.14-0.24-0.28-0.24c-0.06,0-0.2,0.04-0.4,0.18c-0.32,0.2-2.43,1.77-3.24,2.53
				c-0.1,0.1-0.18,0.18-0.18,0.26s0.08,0.12,0.12,0.12c0.04,0,0.18-0.08,0.34-0.16c0.74-0.4,2.33-1.04,3.44-1.19
				c0.4-0.04,0.58,0,0.68,0c0.1,0,0.22-0.06,0.1-0.3C217.33,60.07,217.15,59.68,216.99,59.4L216.99,59.4z M209.13,67.82h0.06
				c0.36,0.38,2.59,2.89,4.78,5.07c2.09,2.07,4.66,4.7,5.93,5.91c0.22,0.22,0.46,0.44,0.68,0.44c0.18,0,0.26-0.18,0.26-0.62
				l0.22-12.68c0.02-1.13,0.18-1.55,0.74-1.71c0.24-0.06,0.4-0.06,0.6-0.06c0.24,0,0.36-0.06,0.36-0.18c0-0.16-0.2-0.18-0.46-0.18
				c-0.98,0-1.75,0.06-1.97,0.06c-0.42,0-1.39-0.06-2.43-0.06c-0.3,0-0.52,0.02-0.52,0.18c0,0.12,0.08,0.18,0.32,0.18
				c0.28,0,0.76,0,1.07,0.12c0.48,0.2,0.66,0.58,0.68,1.81l0.2,9.02h-0.1c-0.34-0.32-3.06-3.22-4.42-4.58
				c-2.93-2.91-5.99-6.19-6.23-6.45c-0.34-0.36-0.52-0.62-0.74-0.62c-0.2,0-0.26,0.28-0.26,0.68l-0.18,11.9
				c-0.02,1.75-0.1,2.33-0.62,2.49c-0.28,0.08-0.64,0.1-0.9,0.1c-0.2,0-0.32,0.04-0.32,0.16c0,0.18,0.18,0.2,0.44,0.2
				c1.04,0,1.99-0.06,2.17-0.06c0.38,0,1.19,0.06,2.49,0.06c0.28,0,0.46-0.04,0.46-0.2c0-0.12-0.12-0.16-0.34-0.16
				c-0.32,0-0.7-0.02-1.05-0.14c-0.4-0.14-0.66-0.66-0.7-2.23L209.13,67.82L209.13,67.82z"/>
			<path class="st1" d="M231.21,79.28c1.07,0,2.19-0.18,3.2-0.82c1.45-0.94,1.89-2.33,1.89-3.5c0-1.91-0.88-3.26-3.3-5.13
				l-0.56-0.42c-1.67-1.27-2.13-1.97-2.13-2.89c0-1.21,0.9-2.07,2.39-2.07c1.31,0,1.89,0.6,2.19,0.98c0.42,0.52,0.52,1.15,0.52,1.33
				c0,0.24,0.06,0.36,0.2,0.36c0.16,0,0.22-0.16,0.22-0.6c0-1.57,0.08-2.15,0.08-2.41c0-0.14-0.1-0.2-0.28-0.24
				c-0.52-0.14-1.37-0.34-2.67-0.34c-2.79,0-4.64,1.59-4.64,3.8c0,1.63,0.76,3.03,2.97,4.76l0.92,0.72
				c1.67,1.29,1.97,2.23,1.97,3.22c0,1.07-0.88,2.29-2.69,2.29c-1.25,0-2.43-0.54-2.87-2.03c-0.1-0.34-0.18-0.76-0.18-1.03
				c0-0.16-0.02-0.34-0.2-0.34c-0.16,0-0.22,0.22-0.24,0.52c-0.02,0.32-0.1,1.53-0.1,2.63c0,0.44,0.06,0.54,0.38,0.68
				C229.14,79.14,230.04,79.28,231.21,79.28L231.21,79.28z"/>
			<path class="st1" d="M245.64,69.63c0-3.06,0-3.62,0.04-4.26c0.04-0.7,0.2-1.05,0.74-1.15c0.24-0.04,0.36-0.06,0.56-0.06
				c0.16,0,0.28-0.04,0.28-0.18c0-0.14-0.14-0.18-0.42-0.18c-0.68,0-1.95,0.06-2.43,0.06c-0.48,0-1.75-0.06-2.81-0.06
				c-0.3,0-0.44,0.04-0.44,0.18c0,0.14,0.12,0.18,0.34,0.18c0.28,0,0.62,0.02,0.78,0.06c0.66,0.14,0.82,0.46,0.86,1.15
				c0.04,0.64,0.04,1.21,0.04,4.26v3.54c0,1.85,0,3.44-0.1,4.28c-0.08,0.58-0.18,1.03-0.58,1.11c-0.18,0.04-0.42,0.08-0.72,0.08
				c-0.24,0-0.32,0.06-0.32,0.16c0,0.14,0.14,0.2,0.4,0.2c0.8,0,2.07-0.06,2.53-0.06c0.5,0,1.77,0.06,2.89,0.06
				c0.22,0,0.38-0.06,0.38-0.2c0-0.1-0.1-0.16-0.26-0.16c-0.26,0-0.7-0.04-0.98-0.08c-0.5-0.08-0.68-0.52-0.72-1.09
				c-0.06-0.86-0.06-2.45-0.06-4.3v-1.83h0.1l0.22,0.3c0.42,0.58,4.38,5.23,5.27,6.01c0.86,0.76,1.41,1.21,2.49,1.31
				C254.14,79,254.5,79,255.11,79h1.75c0.38,0,0.48-0.06,0.48-0.2c0-0.12-0.12-0.16-0.26-0.16c-0.24,0-0.64-0.06-1.25-0.3
				c-1.09-0.42-1.99-1.33-2.87-2.17c-0.78-0.74-4.72-4.98-5.45-5.93c0.68-0.72,3.72-3.74,4.34-4.34c0.86-0.84,1.55-1.27,2.17-1.51
				c0.38-0.14,0.88-0.22,1.17-0.22c0.2,0,0.3-0.04,0.3-0.18c0-0.14-0.14-0.18-0.34-0.18c-0.62,0-1.73,0.06-2.35,0.06
				c-0.54,0-1.65-0.06-2.07-0.06c-0.22,0-0.32,0.04-0.32,0.18c0,0.12,0.08,0.16,0.26,0.2c0.2,0.04,0.28,0.18,0.28,0.4
				c0,0.34-0.44,0.84-1.01,1.51c-0.58,0.68-3.52,3.68-4.2,4.42h-0.1V69.63L245.64,69.63z"/>
			<path class="st1" d="M260.74,73.17c0,1.95,0,3.54-0.1,4.38c-0.06,0.58-0.18,0.92-0.58,1c-0.18,0.04-0.42,0.08-0.72,0.08
				c-0.24,0-0.32,0.06-0.32,0.16c0,0.14,0.14,0.2,0.4,0.2c0.8,0,2.07-0.06,2.53-0.06c0.54,0,1.81,0.06,3.14,0.06
				c0.22,0,0.38-0.06,0.38-0.2c0-0.1-0.1-0.16-0.32-0.16c-0.3,0-0.74-0.04-1.03-0.08c-0.6-0.08-0.74-0.44-0.8-0.98
				c-0.08-0.86-0.08-2.45-0.08-4.4v-3.54c0-3.06,0-3.62,0.04-4.26c0.04-0.7,0.2-1.05,0.74-1.15c0.24-0.04,0.4-0.06,0.6-0.06
				c0.2,0,0.32-0.04,0.32-0.2c0-0.12-0.16-0.16-0.42-0.16c-0.76,0-1.95,0.06-2.45,0.06c-0.58,0-1.85-0.06-2.61-0.06
				c-0.32,0-0.48,0.04-0.48,0.16c0,0.16,0.12,0.2,0.32,0.2c0.24,0,0.5,0.02,0.72,0.08c0.44,0.1,0.64,0.44,0.68,1.13
				c0.04,0.64,0.04,1.21,0.04,4.26V73.17L260.74,73.17z"/>
			<path class="st1" d="M85.97,46.2c0,2.91,0.76,4.4,1.79,5.33c1.47,1.33,3.4,1.39,4.46,1.39c1.31,0,2.75-0.22,4.18-1.45
				c1.69-1.45,1.91-3.82,1.91-6.05v-2.15c0-3.06,0-3.62,0.04-4.26c0.04-0.7,0.2-1.05,0.74-1.15c0.24-0.04,0.36-0.06,0.58-0.06
				c0.24,0,0.36-0.04,0.36-0.18c0-0.14-0.14-0.18-0.42-0.18c-0.78,0-2.05,0.06-2.29,0.06c-0.02,0-1.29-0.06-2.31-0.06
				c-0.28,0-0.42,0.04-0.42,0.18c0,0.14,0.12,0.18,0.34,0.18c0.22,0,0.56,0.02,0.72,0.06c0.66,0.14,0.82,0.46,0.86,1.15
				c0.04,0.64,0.04,1.21,0.04,4.26v2.51c0,2.07-0.06,3.88-1.17,4.98c-0.8,0.8-1.89,1.09-2.77,1.09c-0.68,0-1.61-0.08-2.51-0.82
				c-0.98-0.8-1.57-2.03-1.57-4.94v-2.81c0-3.06,0-3.62,0.04-4.26c0.04-0.7,0.2-1.05,0.74-1.15c0.24-0.04,0.36-0.06,0.58-0.06
				c0.2,0,0.32-0.04,0.32-0.18c0-0.14-0.14-0.18-0.44-0.18c-0.72,0-1.99,0.06-2.47,0.06c-0.6,0-1.87-0.06-2.93-0.06
				c-0.3,0-0.44,0.04-0.44,0.18c0,0.14,0.12,0.18,0.34,0.18c0.28,0,0.62,0.02,0.78,0.06c0.66,0.14,0.82,0.46,0.86,1.15
				c0.04,0.64,0.04,1.21,0.04,4.26V46.2L85.97,46.2z"/>
			<path class="st1" d="M106.97,41.46h0.06c0.36,0.38,2.59,2.89,4.78,5.07c2.09,2.07,4.66,4.7,5.93,5.91
				c0.22,0.22,0.46,0.44,0.68,0.44c0.18,0,0.26-0.18,0.26-0.62l0.22-12.68c0.02-1.13,0.18-1.55,0.74-1.71
				c0.24-0.06,0.4-0.06,0.6-0.06c0.24,0,0.36-0.06,0.36-0.18c0-0.16-0.2-0.18-0.46-0.18c-0.98,0-1.75,0.06-1.97,0.06
				c-0.42,0-1.39-0.06-2.43-0.06c-0.3,0-0.52,0.02-0.52,0.18c0,0.12,0.08,0.18,0.32,0.18c0.28,0,0.76,0,1.07,0.12
				c0.48,0.2,0.66,0.58,0.68,1.81l0.2,9.02h-0.1c-0.34-0.32-3.06-3.22-4.42-4.58c-2.93-2.91-5.99-6.19-6.23-6.45
				c-0.34-0.36-0.52-0.62-0.74-0.62c-0.2,0-0.26,0.28-0.26,0.68l-0.18,11.9c-0.02,1.75-0.1,2.33-0.62,2.49
				c-0.28,0.08-0.64,0.1-0.9,0.1c-0.2,0-0.32,0.04-0.32,0.16c0,0.18,0.18,0.2,0.44,0.2c1.04,0,1.99-0.06,2.17-0.06
				c0.38,0,1.19,0.06,2.49,0.06c0.28,0,0.46-0.04,0.46-0.2c0-0.12-0.12-0.16-0.34-0.16c-0.32,0-0.7-0.02-1.05-0.14
				c-0.4-0.14-0.66-0.66-0.7-2.23L106.97,41.46L106.97,41.46z"/>
			<path class="st1" d="M127.22,46.8c0,1.95,0,3.54-0.1,4.38c-0.06,0.58-0.18,0.92-0.58,1.01c-0.18,0.04-0.42,0.08-0.72,0.08
				c-0.24,0-0.32,0.06-0.32,0.16c0,0.14,0.14,0.2,0.4,0.2c0.8,0,2.07-0.06,2.53-0.06c0.54,0,1.81,0.06,3.14,0.06
				c0.22,0,0.38-0.06,0.38-0.2c0-0.1-0.1-0.16-0.32-0.16c-0.3,0-0.74-0.04-1.03-0.08c-0.6-0.08-0.74-0.44-0.8-0.98
				c-0.08-0.86-0.08-2.45-0.08-4.4v-3.54c0-3.06,0-3.62,0.04-4.26c0.04-0.7,0.2-1.05,0.74-1.15c0.24-0.04,0.4-0.06,0.6-0.06
				s0.32-0.04,0.32-0.2c0-0.12-0.16-0.16-0.42-0.16c-0.76,0-1.95,0.06-2.45,0.06c-0.58,0-1.85-0.06-2.61-0.06
				c-0.32,0-0.48,0.04-0.48,0.16c0,0.16,0.12,0.2,0.32,0.2c0.24,0,0.5,0.02,0.72,0.08c0.44,0.1,0.64,0.44,0.68,1.13
				c0.04,0.64,0.04,1.21,0.04,4.26V46.8L127.22,46.8z"/>
			<path class="st1" d="M140.89,52.17c0.16,0.52,0.26,0.74,0.46,0.74c0.24,0,0.34-0.24,0.72-1.07c0.86-1.85,3.54-8.96,3.92-9.99
				h0.04l4.18,10.07c0.3,0.74,0.42,0.98,0.62,0.98c0.26,0,0.36-0.24,0.58-0.94c0.98-3.02,3.1-9.41,4.02-11.94
				c0.42-1.15,0.64-1.95,1.13-2.13c0.22-0.08,0.5-0.1,0.7-0.1c0.18,0,0.28-0.06,0.28-0.2c0-0.12-0.14-0.16-0.36-0.16
				c-0.66,0-1.53,0.06-1.67,0.06c-0.18,0-1.03-0.06-2.09-0.06c-0.3,0-0.46,0.04-0.46,0.18c0,0.12,0.14,0.18,0.34,0.18
				c0.78,0,0.96,0.28,0.96,0.6c0,0.28-0.06,0.7-0.2,1.17c-0.7,2.35-2.31,7.66-2.67,9h-0.06l-4.18-10.11
				c-0.26-0.64-0.36-0.94-0.58-0.94c-0.16,0-0.28,0.16-0.5,0.72l-3.9,10.47h-0.06c-0.36-1.13-2.23-7.22-2.57-8.54
				c-0.24-0.9-0.44-1.59-0.44-1.85c0-0.22,0.04-0.36,0.22-0.44c0.14-0.08,0.34-0.08,0.5-0.08c0.2,0,0.36-0.02,0.36-0.18
				c0-0.12-0.14-0.18-0.42-0.18c-1.17,0-2.05,0.06-2.23,0.06c-0.18,0-1.29-0.06-2.33-0.06c-0.28,0-0.44,0.04-0.44,0.18
				c0,0.16,0.12,0.18,0.32,0.18c0.18,0,0.58,0.04,0.8,0.18c0.28,0.2,0.5,0.68,0.74,1.43L140.89,52.17L140.89,52.17z"/>
			<path class="st1" d="M162.35,46.8c0,1.85,0,3.44-0.1,4.28c-0.08,0.58-0.18,1.03-0.58,1.11c-0.18,0.04-0.42,0.08-0.72,0.08
				c-0.24,0-0.32,0.06-0.32,0.16c0,0.14,0.14,0.2,0.4,0.2c0.8,0,2.07-0.06,2.53-0.06c1.19,0,2.53,0.12,5.57,0.12
				c0.76,0,0.94,0,1.09-0.52c0.1-0.4,0.26-1.77,0.26-2.23c0-0.2,0-0.36-0.16-0.36c-0.14,0-0.18,0.08-0.22,0.3
				c-0.14,0.82-0.38,1.25-0.9,1.49c-0.52,0.24-1.37,0.24-1.89,0.24c-2.05,0-2.37-0.3-2.41-1.69c-0.02-0.58,0-2.43,0-3.12v-1.59
				c0-0.12,0.02-0.2,0.12-0.2c0.48,0,2.47,0.02,2.85,0.06c0.74,0.08,1.03,0.38,1.13,0.78c0.06,0.26,0.06,0.52,0.08,0.72
				c0,0.1,0.04,0.18,0.18,0.18c0.18,0,0.18-0.22,0.18-0.38c0-0.14,0.04-0.94,0.08-1.35c0.06-1.03,0.16-1.35,0.16-1.47
				c0-0.12-0.06-0.16-0.14-0.16c-0.1,0-0.18,0.1-0.32,0.26c-0.18,0.2-0.48,0.26-0.96,0.3c-0.46,0.04-2.77,0.04-3.22,0.04
				c-0.12,0-0.14-0.08-0.14-0.22V38.7c0-0.14,0.04-0.2,0.14-0.2c0.4,0,2.51,0.04,2.85,0.08c1.01,0.12,1.21,0.36,1.35,0.72
				c0.1,0.24,0.12,0.58,0.12,0.72c0,0.18,0.04,0.28,0.18,0.28c0.14,0,0.18-0.12,0.2-0.22c0.04-0.24,0.08-1.13,0.1-1.33
				c0.06-0.92,0.16-1.17,0.16-1.31c0-0.1-0.02-0.18-0.12-0.18s-0.22,0.06-0.32,0.08c-0.16,0.04-0.48,0.08-0.86,0.12
				c-0.38,0.02-4.38,0.02-5.02,0.02c-0.56,0-1.83-0.06-2.89-0.06c-0.3,0-0.44,0.04-0.44,0.18c0,0.14,0.12,0.18,0.34,0.18
				c0.28,0,0.62,0.02,0.78,0.06c0.66,0.14,0.82,0.46,0.86,1.15c0.04,0.64,0.04,1.21,0.04,4.26V46.8L162.35,46.8z"/>
			<path class="st1" d="M177.16,46.8c0,1.85,0,3.44-0.1,4.28c-0.08,0.58-0.18,1.03-0.58,1.11c-0.18,0.04-0.42,0.08-0.72,0.08
				c-0.24,0-0.32,0.06-0.32,0.16c0,0.14,0.14,0.2,0.4,0.2c0.8,0,2.07-0.06,2.45-0.06c0.3,0,1.79,0.06,2.95,0.06
				c0.26,0,0.4-0.06,0.4-0.2c0-0.1-0.08-0.16-0.24-0.16c-0.24,0-0.68-0.04-0.98-0.08c-0.6-0.08-0.72-0.52-0.78-1.11
				c-0.1-0.84-0.1-2.43-0.1-4.3V46.5c0-0.12,0.06-0.16,0.16-0.16l1.75,0.04c0.14,0,0.26,0.02,0.36,0.14
				c0.26,0.3,1.19,1.67,1.99,2.77c1.13,1.55,1.89,2.49,2.75,2.95c0.52,0.28,1.03,0.38,2.15,0.38h1.91c0.24,0,0.38-0.04,0.38-0.2
				c0-0.1-0.08-0.16-0.24-0.16c-0.16,0-0.34-0.02-0.56-0.06c-0.3-0.06-1.13-0.2-2.25-1.37c-1.19-1.25-2.57-3.03-4.36-5.29
				c2.03-1.65,2.65-3.02,2.65-4.5c0-1.35-0.8-2.37-1.37-2.75c-1.09-0.74-2.43-0.86-3.7-0.86c-0.62,0-2.15,0.06-2.83,0.06
				c-0.42,0-1.69-0.06-2.75-0.06c-0.3,0-0.44,0.04-0.44,0.18c0,0.14,0.12,0.18,0.34,0.18c0.28,0,0.62,0.02,0.78,0.06
				c0.66,0.14,0.82,0.46,0.86,1.15c0.04,0.64,0.04,1.21,0.04,4.26V46.8L177.16,46.8z M179.53,38.74c0-0.16,0.04-0.24,0.18-0.28
				c0.2-0.06,0.56-0.08,1.07-0.08c1.19,0,3.08,0.82,3.08,3.68c0,1.65-0.58,2.57-1.19,3.02c-0.36,0.26-0.62,0.34-1.43,0.34
				c-0.5,0-1.11-0.06-1.53-0.2c-0.14-0.06-0.18-0.14-0.18-0.36V38.74L179.53,38.74z"/>
			<path class="st1" d="M196.28,52.91c1.07,0,2.19-0.18,3.2-0.82c1.45-0.94,1.89-2.33,1.89-3.5c0-1.91-0.88-3.26-3.3-5.13
				l-0.56-0.42c-1.67-1.27-2.13-1.97-2.13-2.89c0-1.21,0.9-2.07,2.39-2.07c1.31,0,1.89,0.6,2.19,0.98c0.42,0.52,0.52,1.15,0.52,1.33
				c0,0.24,0.06,0.36,0.2,0.36c0.16,0,0.22-0.16,0.22-0.6c0-1.57,0.08-2.15,0.08-2.41c0-0.14-0.1-0.2-0.28-0.24
				c-0.52-0.14-1.37-0.34-2.67-0.34c-2.79,0-4.64,1.59-4.64,3.8c0,1.63,0.76,3.04,2.97,4.76l0.92,0.72
				c1.67,1.29,1.97,2.23,1.97,3.22c0,1.07-0.88,2.29-2.69,2.29c-1.25,0-2.43-0.54-2.87-2.03c-0.1-0.34-0.18-0.76-0.18-1.03
				c0-0.16-0.02-0.34-0.2-0.34c-0.16,0-0.22,0.22-0.24,0.52c-0.02,0.32-0.1,1.53-0.1,2.63c0,0.44,0.06,0.54,0.38,0.68
				C194.21,52.77,195.12,52.91,196.28,52.91L196.28,52.91z"/>
			<path class="st1" d="M210.51,49.07c0,0.32,0,1.17-0.06,2.01c-0.04,0.58-0.22,1.03-0.62,1.11c-0.18,0.04-0.42,0.08-0.7,0.08
				c-0.22,0-0.32,0.06-0.32,0.16c0,0.16,0.16,0.2,0.44,0.2c0.74,0,2.01-0.06,2.51-0.06c0.54,0,1.81,0.06,3.08,0.06
				c0.26,0,0.42-0.06,0.42-0.2c0-0.1-0.1-0.16-0.32-0.16c-0.28,0-0.72-0.04-1-0.08c-0.6-0.08-0.78-0.52-0.82-1.11
				c-0.06-0.84-0.06-1.69-0.06-2.01v-1.65c0-0.66,0-1.29,0.3-2.01c0.36-0.86,3.18-5.59,3.84-6.39c0.44-0.54,0.66-0.78,1.09-0.98
				c0.3-0.16,0.68-0.24,0.88-0.24c0.22,0,0.38-0.06,0.38-0.2c0-0.12-0.14-0.16-0.36-0.16c-0.38,0-1.71,0.06-2.15,0.06
				c-0.58,0-1.23-0.06-1.89-0.06c-0.24,0-0.34,0.04-0.34,0.18c0,0.12,0.18,0.16,0.36,0.2c0.34,0.08,0.42,0.3,0.42,0.5
				c0,0.26-0.08,0.6-0.28,1.05c-0.28,0.62-2.81,5.04-3.01,5.53c-0.32-0.56-3.14-5.41-3.42-6.01c-0.14-0.28-0.24-0.52-0.24-0.68
				s0.1-0.32,0.28-0.36c0.3-0.08,0.44-0.1,0.44-0.22c0-0.12-0.1-0.18-0.3-0.18c-0.9,0-1.73,0.06-2.15,0.06
				c-0.66,0-2.17-0.06-2.53-0.06c-0.24,0-0.38,0.06-0.38,0.18c0,0.14,0.14,0.18,0.3,0.18c0.24,0,0.58,0.12,0.84,0.26
				c0.38,0.22,0.88,0.72,1.39,1.47c0.7,1.05,3.4,5.47,3.54,5.79c0.26,0.58,0.46,1.03,0.46,2.11V49.07L210.51,49.07z"/>
			<path class="st1" d="M226.52,46.8c0,1.85,0,3.44-0.1,4.28c-0.06,0.58-0.18,1.03-0.58,1.11c-0.18,0.04-0.42,0.08-0.72,0.08
				c-0.24,0-0.32,0.06-0.32,0.16c0,0.14,0.14,0.2,0.4,0.2c0.8,0,2.07-0.06,2.53-0.06c0.56,0,1.83,0.06,3.16,0.06
				c0.22,0,0.38-0.06,0.38-0.2c0-0.1-0.1-0.16-0.32-0.16c-0.3,0-0.74-0.04-1.03-0.08c-0.6-0.08-0.72-0.52-0.78-1.09
				c-0.1-0.86-0.1-2.45-0.1-4.3v-8.24l2.53,0.06c1.79,0.04,2.33,0.6,2.37,1.13l0.02,0.22c0.02,0.3,0.06,0.4,0.22,0.4
				c0.12,0,0.16-0.12,0.18-0.32c0-0.52,0.06-1.91,0.06-2.33c0-0.3-0.02-0.42-0.16-0.42c-0.16,0-0.64,0.2-1.93,0.2h-7.96
				c-0.66,0-1.43-0.04-2.01-0.1c-0.5-0.04-0.7-0.24-0.86-0.24c-0.12,0-0.18,0.12-0.24,0.38c-0.04,0.16-0.42,1.99-0.42,2.31
				c0,0.22,0.04,0.32,0.18,0.32c0.12,0,0.18-0.08,0.22-0.24c0.04-0.16,0.14-0.4,0.34-0.7c0.3-0.44,0.78-0.54,1.95-0.58l2.99-0.08
				V46.8L226.52,46.8z"/>
			<path class="st1" d="M240.23,46.8c0,1.85,0,3.44-0.1,4.28c-0.08,0.58-0.18,1.03-0.58,1.11c-0.18,0.04-0.42,0.08-0.72,0.08
				c-0.24,0-0.32,0.06-0.32,0.16c0,0.14,0.14,0.2,0.4,0.2c0.8,0,2.07-0.06,2.53-0.06c1.19,0,2.53,0.12,5.57,0.12
				c0.76,0,0.94,0,1.09-0.52c0.1-0.4,0.26-1.77,0.26-2.23c0-0.2,0-0.36-0.16-0.36c-0.14,0-0.18,0.08-0.22,0.3
				c-0.14,0.82-0.38,1.25-0.9,1.49c-0.52,0.24-1.37,0.24-1.89,0.24c-2.05,0-2.37-0.3-2.41-1.69c-0.02-0.58,0-2.43,0-3.12v-1.59
				c0-0.12,0.02-0.2,0.12-0.2c0.48,0,2.47,0.02,2.85,0.06c0.74,0.08,1.03,0.38,1.13,0.78c0.06,0.26,0.06,0.52,0.08,0.72
				c0,0.1,0.04,0.18,0.18,0.18c0.18,0,0.18-0.22,0.18-0.38c0-0.14,0.04-0.94,0.08-1.35c0.06-1.03,0.16-1.35,0.16-1.47
				c0-0.12-0.06-0.16-0.14-0.16c-0.1,0-0.18,0.1-0.32,0.26c-0.18,0.2-0.48,0.26-0.96,0.3c-0.46,0.04-2.77,0.04-3.22,0.04
				c-0.12,0-0.14-0.08-0.14-0.22V38.7c0-0.14,0.04-0.2,0.14-0.2c0.4,0,2.51,0.04,2.85,0.08c1.01,0.12,1.21,0.36,1.35,0.72
				c0.1,0.24,0.12,0.58,0.12,0.72c0,0.18,0.04,0.28,0.18,0.28c0.14,0,0.18-0.12,0.2-0.22c0.04-0.24,0.08-1.13,0.1-1.33
				c0.06-0.92,0.16-1.17,0.16-1.31c0-0.1-0.02-0.18-0.12-0.18c-0.1,0-0.22,0.06-0.32,0.08c-0.16,0.04-0.48,0.08-0.86,0.12
				c-0.38,0.02-4.38,0.02-5.02,0.02c-0.56,0-1.83-0.06-2.89-0.06c-0.3,0-0.44,0.04-0.44,0.18c0,0.14,0.12,0.18,0.34,0.18
				c0.28,0,0.62,0.02,0.78,0.06c0.66,0.14,0.82,0.46,0.86,1.15c0.04,0.64,0.04,1.21,0.04,4.26V46.8L240.23,46.8z"/>
			<path class="st1" d="M257.72,46.8c0,1.85,0,3.44-0.1,4.28c-0.06,0.58-0.18,1.03-0.58,1.11c-0.18,0.04-0.42,0.08-0.72,0.08
				c-0.24,0-0.32,0.06-0.32,0.16c0,0.14,0.14,0.2,0.4,0.2c0.8,0,2.07-0.06,2.53-0.06c0.56,0,1.83,0.06,3.16,0.06
				c0.22,0,0.38-0.06,0.38-0.2c0-0.1-0.1-0.16-0.32-0.16c-0.3,0-0.74-0.04-1.02-0.08c-0.6-0.08-0.72-0.52-0.78-1.09
				c-0.1-0.86-0.1-2.45-0.1-4.3v-8.24l2.53,0.06c1.79,0.04,2.33,0.6,2.37,1.13l0.02,0.22c0.02,0.3,0.06,0.4,0.22,0.4
				c0.12,0,0.16-0.12,0.18-0.32c0-0.52,0.06-1.91,0.06-2.33c0-0.3-0.02-0.42-0.16-0.42c-0.16,0-0.64,0.2-1.93,0.2h-7.96
				c-0.66,0-1.43-0.04-2.01-0.1c-0.5-0.04-0.7-0.24-0.86-0.24c-0.12,0-0.18,0.12-0.24,0.38c-0.04,0.16-0.42,1.99-0.42,2.31
				c0,0.22,0.04,0.32,0.18,0.32c0.12,0,0.18-0.08,0.22-0.24c0.04-0.16,0.14-0.4,0.34-0.7c0.3-0.44,0.78-0.54,1.95-0.58l2.99-0.08
				V46.8L257.72,46.8z"/>
		</g>
	</g>
</g>
</svg>
