<svg xmlns="http://www.w3.org/2000/svg" width="209.293" height="49.4" viewBox="0 4 209.293 49.4"><path d="M149.038 31.112h.599c.646 0 .725.146.725 1.228v3.941c0 .742-.077 1.017-.901 1.017h-.519v.792h4.521v-.792h-.227c-.822 0-.902-.271-.902-1.017v-2.649c0-1.519.809-2.354 1.984-2.354.871 0 1.42.517 1.42 1.662v3.345c0 .742-.078 1.017-.902 1.017h-.227v.792h4.426V37.3h-.422c-.822 0-.902-.271-.902-1.017V32.47c0-1.743-1.229-2.453-2.811-2.453-1.311 0-2.229.549-2.777 1.855h-.033v-1.793c-.791.097-2.229.192-3.051.192l-.001.841zm-1.276 3.198v-.372c0-2.713-1.082-3.924-3.684-3.924-2.713 0-3.875 1.774-3.875 4.167 0 2.392 1.162 4.166 3.875 4.166 2.697 0 3.506-1.391 3.521-2.777h-1.648c-.016 1.213-.5 1.843-1.68 1.843-1.986 0-2.002-2.003-2.002-3.103h5.493zm-5.492-.937c0-1.355.404-2.472 1.793-2.472 1.391 0 1.729 1.146 1.729 2.472h-3.522zm-6.152-.549c0 1.403-.404 2.083-1.277 2.083-.854 0-1.403-.613-1.403-2.067 0-1.403.483-1.938 1.39-1.938.772 0 1.29.452 1.29 1.922m.677 6.621c0 .742-.5 1.52-2.033 1.52-1.357 0-1.891-.646-1.891-1.438 0-.855.484-1.565 1.938-1.565 1.404-.002 1.986.66 1.986 1.483m2.342-9.302l-2.391.21c-.451-.129-1.195-.339-1.873-.339-2.115 0-3.504 1.211-3.504 2.776 0 1.469.92 2.195 2.131 2.584v.032c-1.113.097-1.582.501-1.582 1.017 0 .551.371.824 1.453 1.034v.032c-1.131.111-2.471.711-2.471 2.019 0 1.311 1.113 2.344 3.666 2.344 2.713 0 4.199-.89 4.199-2.392 0-1.904-1.52-2.132-3.037-2.245-1.775-.129-2.066-.291-2.066-.741 0-.532.727-.613 1.26-.693l.389-.064c2.26-.372 2.973-1.583 2.973-2.875 0-.692-.309-1.322-.713-1.631v-.03h1.566v-1.038zm-19.073.969h.599c.646 0 .726.146.726 1.228v3.941c0 .742-.08 1.017-.904 1.017h-.517v.792h4.521v-.792h-.225c-.824 0-.904-.271-.904-1.017v-2.649c0-1.519.809-2.354 1.986-2.354.871 0 1.42.517 1.42 1.662v3.345c0 .742-.08 1.017-.904 1.017h-.225v.792h4.424V37.3h-.42c-.824 0-.904-.271-.904-1.017V32.47c0-1.743-1.229-2.453-2.811-2.453-1.309 0-2.229.549-2.777 1.855h-.029v-1.793c-.793.097-2.229.192-3.055.192v.841h-.001zm-4.376-3.602c0 .694.42 1.213 1.18 1.213s1.18-.519 1.18-1.213c0-.692-.42-1.212-1.18-1.212-.761.001-1.18.518-1.18 1.212m-1.1 3.602h.6c.646 0 .729.146.729 1.228v3.941c0 .742-.082 1.017-.906 1.017h-.516v.792h4.715v-.792h-.42c-.822 0-.904-.271-.904-1.017v-6.202c-1.031.097-2.471.192-3.295.192l-.003.841zm-10.851 0h.597c.646 0 .727.146.727 1.228v3.941c0 .742-.081 1.017-.904 1.017h-.517v.792h4.522v-.792h-.227c-.824 0-.904-.271-.904-1.017v-2.649c0-1.519.807-2.354 1.986-2.354.871 0 1.42.517 1.42 1.662v3.345c0 .742-.08 1.017-.902 1.017h-.229v.792h4.426V37.3h-.42c-.822 0-.904-.271-.904-1.017V32.47c0-1.743-1.227-2.453-2.811-2.453-1.309 0-2.229.549-2.777 1.855h-.031v-1.793c-.791.097-2.229.192-3.053.192l.001.841zm-8.834 3.069c0 2.392 1.162 4.166 3.876 4.166 2.713 0 3.876-1.774 3.876-4.166 0-2.393-1.163-4.167-3.876-4.167-2.714 0-3.876 1.776-3.876 4.167m2.067 0c0-2.196.484-3.229 1.809-3.229 1.324 0 1.808 1.032 1.808 3.229 0 2.195-.484 3.229-1.808 3.229-1.325.001-1.809-1.033-1.809-3.229m-10.065-3.069h.694c.646 0 .727.146.727 1.228v3.941c0 .742-.081 1.017-.904 1.017h-.517v.792h5.152v-.792h-.856c-.824 0-.905-.271-.905-1.017v-2.649c0-1.354.743-2.354 1.486-2.354.63 0 .808.451.824 1.26h1.55v-2.325c-.371-.13-.823-.192-1.292-.192-1.308 0-2.228.549-2.778 1.855h-.032v-1.793a31.39 31.39 0 01-3.149.192v.837zm-3.763 1.712c0 1.403-.404 2.083-1.276 2.083-.856 0-1.405-.613-1.405-2.067 0-1.403.485-1.938 1.389-1.938.775 0 1.292.452 1.292 1.922m.678 6.621c0 .742-.5 1.52-2.035 1.52-1.356 0-1.889-.646-1.889-1.438 0-.855.484-1.565 1.938-1.565 1.405-.002 1.986.66 1.986 1.483m2.342-9.302l-2.39.21c-.452-.129-1.195-.339-1.874-.339-2.115 0-3.504 1.211-3.504 2.776 0 1.469.92 2.195 2.132 2.584v.032c-1.115.097-1.583.501-1.583 1.017 0 .551.371.824 1.453 1.034v.032c-1.13.111-2.471.711-2.471 2.019 0 1.311 1.115 2.344 3.667 2.344 2.713 0 4.199-.89 4.199-2.392 0-1.904-1.519-2.132-3.037-2.245-1.776-.129-2.067-.291-2.067-.741 0-.532.727-.613 1.26-.693l.387-.064c2.261-.372 2.972-1.583 2.972-2.875 0-.692-.307-1.322-.711-1.631v-.03h1.567v-1.038zm116.706-15.084h1.42v4.636c0 2.004.903 2.535 2.537 2.535 1.565 0 2.469-.774 2.469-2.504v-.354h-1.354v.823c0 .693-.258 1.002-.84 1.002-.58 0-.841-.309-.841-1.002v-5.137h2.584v-.938h-2.584v-2.277h-1.403c-.129 1.633-.483 2.103-1.985 2.277l-.003.939zm-4.282-3.698c0 .693.42 1.212 1.18 1.212s1.18-.519 1.18-1.212c0-.694-.42-1.212-1.18-1.212s-1.18.517-1.18 1.212m-1.098 3.601h.599c.646 0 .728.146.728 1.229v3.938c0 .743-.08 1.019-.901 1.019h-.519v.793h4.715v-.793h-.42c-.823 0-.903-.272-.903-1.019v-6.202c-1.033.1-2.472.194-3.295.194l-.004.841zm-1.275 3.198v-.372c0-2.713-1.082-3.924-3.684-3.924-2.713 0-3.877 1.774-3.877 4.167 0 2.39 1.164 4.166 3.877 4.166 2.697 0 3.506-1.391 3.521-2.778h-1.646c-.016 1.212-.5 1.842-1.68 1.842-1.986 0-2.002-2.003-2.002-3.101h5.491zm-5.49-.937c0-1.355.402-2.473 1.793-2.473 1.389 0 1.729 1.146 1.729 2.473h-3.522zm-9.642-2.164h1.422v4.636c0 2.004.904 2.535 2.535 2.535 1.565 0 2.471-.774 2.471-2.504v-.354h-1.354v.823c0 .693-.26 1.002-.84 1.002-.582 0-.84-.309-.84-1.002v-5.137h2.584v-.938h-2.584v-2.277h-1.406c-.129 1.633-.481 2.103-1.983 2.277v.938l-.005.001zm-4.28-3.698c0 .693.42 1.212 1.18 1.212.758 0 1.18-.519 1.18-1.212 0-.694-.422-1.212-1.18-1.212-.76 0-1.18.517-1.18 1.212m-1.097 3.601h.596c.646 0 .728.146.728 1.229v3.938c0 .743-.08 1.019-.901 1.019h-.519v.793h4.715v-.793h-.42c-.821 0-.903-.272-.903-1.019v-6.202c-1.033.1-2.472.194-3.293.194l-.003.841zm-7.737 6.718c.469.192 1.646.519 2.971.519 1.695 0 3.488-.729 3.488-2.616 0-1.229-.613-1.694-2.002-2.146l-1.324-.438c-.742-.242-1.162-.679-1.162-1.292 0-.646.47-.953 1.211-.953 1.162 0 1.471.519 1.471 1.762h1.355V14.3c-.469-.21-1.551-.436-2.776-.436-1.905 0-3.229.888-3.229 2.354 0 1.262.904 1.938 2.777 2.505 1.484.45 1.713.809 1.713 1.403 0 .743-.682 1.181-1.713 1.181-1.115 0-1.424-.742-1.424-1.892h-1.354l-.002 2.265zm-8.384-6.718h.694c.646 0 .726.146.726 1.229v3.938c0 .743-.08 1.019-.903 1.019h-.517v.793h5.151v-.793h-.856c-.823 0-.903-.272-.903-1.019v-2.646c0-1.355.743-2.356 1.485-2.356.629 0 .808.452.824 1.259h1.549V14.06c-.371-.13-.822-.192-1.291-.192-1.31 0-2.229.549-2.776 1.855h-.033V13.93c-.791.098-2.229.192-3.147.192l-.003.84zm-1.181 3.198v-.372c0-2.713-1.082-3.924-3.682-3.924-2.714 0-3.875 1.774-3.875 4.167 0 2.39 1.161 4.166 3.875 4.166 2.696 0 3.506-1.391 3.521-2.778h-1.648c-.016 1.212-.5 1.842-1.68 1.842-1.986 0-2.002-2.003-2.002-3.101h5.491zm-5.489-.937c0-1.355.403-2.473 1.793-2.473s1.728 1.146 1.728 2.473h-3.521zm-5.977-2.309h.678c.371 0 .471.096.471.21a1.1 1.1 0 01-.082.402l-1.679 4.798h-.032l-1.553-4.556c-.047-.161-.145-.354-.145-.564 0-.178.16-.29.646-.29h.531v-.792h-4.037v.792h.192c.354 0 .452.096.661.629l2.504 6.493H147l2.502-6.573c.162-.42.309-.549.646-.549h.209v-.792h-3.424v.792h.003zm-8.98-3.553c0 .693.42 1.212 1.178 1.212.761 0 1.181-.519 1.181-1.212 0-.694-.42-1.212-1.181-1.212-.759 0-1.178.517-1.178 1.212m-1.099 3.601h.597c.646 0 .728.146.728 1.229v3.938c0 .743-.08 1.019-.904 1.019h-.517v.793h4.716v-.793h-.42c-.824 0-.904-.272-.904-1.019v-6.202c-1.032.1-2.471.194-3.295.194v.841h-.001zm-10.853 0h.598c.646 0 .729.146.729 1.229v3.938c0 .743-.08 1.019-.904 1.019h-.518v.793h4.521v-.793h-.227c-.824 0-.904-.272-.904-1.019v-2.646c0-1.521.807-2.356 1.986-2.356.871 0 1.42.518 1.42 1.663v3.343c0 .743-.08 1.019-.904 1.019h-.225v.793H136v-.793h-.42c-.824 0-.904-.272-.904-1.019V16.32c0-1.744-1.227-2.454-2.811-2.454-1.309 0-2.229.549-2.777 1.855h-.031v-1.795c-.791.1-2.229.194-3.053.194v.842zm-3.908 6.977h3.053v-.793h-.42c-.824 0-.902-.272-.902-1.019v-6.202c-1.035.1-2.473.194-3.297.194v.84h.6c.646 0 .729.146.729 1.229v2.213c0 1.663-.6 2.535-1.973 2.535-.92 0-1.438-.471-1.438-1.422v-5.59c-1.032.1-2.471.194-3.295.194v.84h.599c.646 0 .728.146.728 1.229v3.777c0 1.501.97 2.229 2.567 2.229 1.631 0 2.647-.711 3.021-1.792h.033v1.534l-.005.004zm-14.679-.259c.467.192 1.646.519 2.972.519 1.694 0 3.487-.729 3.487-2.616 0-1.229-.612-1.694-2.002-2.146l-1.324-.438c-.743-.242-1.163-.679-1.163-1.292 0-.646.469-.953 1.211-.953 1.164 0 1.471.519 1.471 1.762h1.354V14.3c-.467-.21-1.549-.436-2.776-.436-1.903 0-3.229.888-3.229 2.354 0 1.262.902 1.938 2.775 2.505 1.486.45 1.713.809 1.713 1.403 0 .743-.678 1.181-1.713 1.181-1.113 0-1.42-.742-1.42-1.892h-1.355l-.001 2.265zm-10.37-10.497h.598c.646 0 .727.146.727 1.229v7.72c0 .743-.081 1.019-.905 1.019h-.517v.793h4.522v-.794h-.226c-.823 0-.904-.272-.904-1.019v-9.979c-1.034.098-2.471.191-3.295.191v.84zm4.684 3.731h.807c.113 0 .259.063.259.228 0 .129-.113.259-.792.951l-1.485 1.552c2.293 2.986 2.357 3.103 2.357 3.229 0 .161-.161.272-.403.272h-.323v.793h4.085v-.793c-.661-.018-.87-.111-1.453-.839l-2.342-2.956 2.084-2.065c.307-.291.5-.371.774-.371h.533v-.792h-4.102l.001.791zm-9.06-3.553c0 .693.42 1.212 1.179 1.212.759 0 1.179-.519 1.179-1.212 0-.694-.42-1.212-1.179-1.212-.759 0-1.179.517-1.179 1.212m-3.23 14.05c.323.081 1.13.291 2.131.291 2.714 0 3.295-1.696 3.295-3.313v-8.465c-1.066.1-2.503.194-3.634.194v.84h.905c.646 0 .759.146.759 1.229v6.54c0 1.503-.469 1.938-1.179 1.938-.727 0-.921-.5-.921-1.26h-1.356v2.006zm-2.245-14.05c0 .693.42 1.212 1.179 1.212s1.179-.519 1.179-1.212c0-.694-.42-1.212-1.179-1.212s-1.179.517-1.179 1.212m-1.098 3.601h.597c.646 0 .727.146.727 1.229v3.938c0 .743-.081 1.019-.904 1.019h-.517v.793h4.716v-.793h-.42c-.824 0-.905-.272-.905-1.019v-6.202c-1.033.1-2.471.194-3.294.194v.841zm-8.253 0h.694c.646 0 .727.146.727 1.229v3.938c0 .743-.081 1.019-.904 1.019h-.517v.793h5.152v-.793h-.856c-.824 0-.905-.272-.905-1.019v-2.646c0-1.355.743-2.356 1.486-2.356.63 0 .808.452.824 1.259h1.55V14.06c-.371-.13-.823-.192-1.292-.192-1.308 0-2.228.549-2.777 1.855h-.033V13.93c-.791.098-2.228.192-3.149.192v.84zm-8.648-.957L40.518 49.401l-2.279-.002 28.676-35.392zM13.854 7.112c-.208.031-.502.114-.674-.258-.155-.337.428-.883.621-1.061.25-.229-.075-.475-.266-.207-.053.074-.51.722-.869.722-.556 0-.524-.651-.524-.651s-.621-.396-.621-1.653c0-1.118.739-1.651.739-1.651s.005-.639.503-.621c.497.018.819.701.851.748.251.378.567.058.347-.213-.521-.638-.631-1.139-.061-1.406.207-.473.832-.805 1.514-.856l.023-.001.021-.004c.682.058 1.307.39 1.514.859.57.269.46.77-.061 1.403-.22.271.096.591.348.213.031-.049.353-.73.851-.748.497-.018.503.621.503.621s.738.534.738 1.652c0 1.258-.621 1.653-.621 1.653s.032.651-.524.651c-.358 0-.815-.646-.869-.722-.19-.268-.516-.021-.266.207.193.176.777.724.621 1.061-.171.372-.465.289-.674.258 0 0-.191.332-.48.333 1.444 1.079 3.711.469 4.015-.321 0 0-.384.076-.38-.326.003-.244.251-.376.586-.425a1.142 1.142 0 01-.093-.54c.033-.564.423-1.041.873-1.063.449-.021.786.424.753.987a1.281 1.281 0 01-.284.74c.329.111.561.28.53.479-.08.521-.561.393-.561.393-.058 1.188 1.752 1.414 2.215 1.106-.183-.687.09-.893.299-1.075.149-.132.592-.403.653-.443.138-.09.21-.282.123-.354-.081-.065-.262.049-.348.146-.122.138-.337.464-.674.375-.407-.105-.231-.573-.3-.824-.434-1.583-.063-2.688 1.52-3.35 0 0 .602-.635 1.142-.35.517.272.196 1.117.196 1.117l.16.075c.578-1.049 1.414-1.811 2.613-1.84.85-.021 1.26.479 1.293 1.166.074 1.527-1.488.959-1.366.388 0 0-.378.039-.586.371 0-.096.012-1.003-.798-.521-.231.138-.639.82-.669.909-.101.301.045.349-.112.644-.123.229-.295.282-.369.442-.075.158.032.478-.07.681-.124.248-.295.268-.407.492-.089.179-1.22 3.062-1.22 3.062s.45.288.364.716c-.114.574-.479.45-.673.827-6.142-1.578-12.499-1.587-19.069-.025-.197-.346-.547-.239-.659-.802-.086-.425.365-.713.365-.713S4.469 6.702 4.38 6.524c-.112-.225-.283-.243-.407-.493-.102-.203.005-.521-.07-.681-.074-.16-.246-.215-.368-.442-.158-.293-.013-.342-.114-.642-.028-.087-.438-.772-.669-.91-.809-.479-.796.428-.797.524-.207-.332-.586-.371-.586-.371.122.571-1.44 1.141-1.366-.388.033-.688.443-1.188 1.293-1.166 1.2.029 2.035.791 2.613 1.84l.16-.075s-.321-.845.196-1.117c.539-.285 1.141.35 1.141.35 1.583.66 1.954 1.764 1.52 3.347-.069.251.107.719-.3.824-.336.088-.55-.239-.673-.376-.085-.096-.266-.211-.349-.144-.085.07-.015.263.124.353.061.04.503.313.652.444.209.186.482.392.3 1.075.462.308 2.272.079 2.215-1.106 0 0-.482.128-.562-.393-.029-.196.202-.365.53-.477a1.294 1.294 0 01-.283-.74c-.034-.566.303-1.008.753-.989.449.021.84.495.873 1.063.011.201-.024.386-.094.54.335.049.584.183.586.425.004.402-.38.326-.38.326.304.79 2.571 1.4 4.016.321-.29-.002-.48-.334-.48-.334m.521-2.956a1.062 1.062 0 102.124 0 1.062 1.062 0 00-2.124 0m5.857 4.604c.457-.013 1.351.176 1.351.176s-.38-.427-.554-.716c0 0-.203.19-.326.279-.096.07-.471.261-.471.261m-4.795-.931c-.179.198-.525.54-.901.669 0 0 .619-.017.887-.021h.027c.268.005.888.021.888.021-.378-.129-.724-.47-.901-.669m-4.797.931s-.375-.188-.471-.261a4.405 4.405 0 01-.327-.28c-.174.29-.553.716-.553.716s.894-.188 1.351-.175m14.052 2.868c.294.079.708.369.594.794-.114.428-.617.472-.912.393-.295-.078-.708-.368-.594-.794.115-.428.617-.472.912-.393m-3.859-.115l-.895.752-.751-.896.895-.751.751.895zm-14.232 1.3c-.295.079-.798.035-.912-.393-.114-.425.3-.715.594-.794.295-.079.798-.035.912.393.114.425-.299.715-.594.794m7.954-1.584c0-.337.418-.609.933-.609.515 0 .933.272.933.609 0 .339-.418.61-.933.61-.515.003-.933-.271-.933-.61m-4.413.284l.751-.896.895.751-.751.896-.895-.751zM2.484 38.536c.102-.407.536-.316.536-.316s-.103-.375.279-.547c.424-.188.635.278.635.278l.178 1.205-1.285-.044c0 .001-.455-.125-.343-.576m1.821-1.995c.101-.406.535-.313.535-.313s-.103-.375.279-.547c.424-.189.634.275.634.275l.178 1.206-1.284-.043c-.001 0-.456-.127-.342-.578m1.819-1.995c.102-.404.535-.313.535-.313s-.103-.375.279-.548c.424-.188.635.276.635.276l.178 1.205-1.285-.043c-.001.001-.455-.126-.342-.577m9.323-18.472c.102-.407.535-.316.535-.316s-.103-.375.279-.547c.424-.188.634.278.634.278l.179 1.204-1.285-.043c.001.001-.455-.126-.342-.576m1.779 6.803c.102-.407.535-.314.535-.314s-.103-.375.279-.546c.424-.189.634.275.634.275l.179 1.205-1.285-.042c-.001 0-.456-.127-.342-.578m2.134-2.261c.102-.407.535-.315.535-.315s-.102-.376.28-.547c.424-.189.634.277.634.277l.178 1.205-1.284-.043c.001.001-.454-.126-.343-.577m2.137-2.262c.102-.404.535-.313.535-.313s-.103-.375.28-.547c.423-.191.634.275.634.275l.178 1.206-1.284-.043c-.001.001-.457-.126-.343-.578m2.135-2.26c.102-.404.535-.313.535-.313s-.103-.375.279-.548c.424-.19.635.275.635.275l.178 1.205-1.285-.043c.001.002-.454-.125-.342-.576M1.275 31.314c.102-.405.535-.314.535-.314s-.103-.376.279-.547c.424-.189.635.275.635.275l.178 1.206-1.285-.043c.001.001-.454-.126-.342-.577m4.959 12.102c.102-.406.535-.313.535-.313s-.103-.375.279-.547c.424-.189.635.276.635.276l.178 1.205-1.285-.043c.001 0-.454-.127-.342-.578m2.112-2.296c.102-.406.535-.313.535-.313s-.102-.375.28-.549c.423-.188.634.278.634.278l.178 1.205-1.284-.043c-.001 0-.457-.127-.343-.578m2.112-2.296c.102-.406.535-.315.535-.315s-.103-.375.279-.547c.424-.189.634.277.634.277l.179 1.205-1.285-.042c-.001 0-.455-.127-.342-.578m2.11-2.296c.102-.406.535-.315.535-.315s-.103-.376.279-.547c.424-.189.635.276.635.276l.178 1.206-1.285-.043c.001.001-.454-.126-.342-.577m9.3-9.762c.102-.406.535-.314.535-.314s-.103-.375.28-.546c.423-.191.634.275.634.275l.178 1.206-1.284-.045c-.001.002-.457-.125-.343-.576m1.903-2.077c.102-.405.535-.314.535-.314s-.103-.376.279-.547c.424-.189.635.275.635.275l.178 1.206-1.285-.043c0 .001-.454-.126-.342-.577m1.904-2.077c.102-.405.535-.314.535-.314s-.103-.375.279-.547c.424-.189.635.277.635.277l.178 1.205-1.285-.043c.001 0-.454-.127-.342-.578m1.905-2.077c.102-.406.535-.315.535-.315s-.103-.375.279-.547c.424-.188.635.278.635.278l.178 1.205-1.285-.044c-.001.001-.456-.126-.342-.577M12.801 45.454c.102-.406.535-.313.535-.313s-.103-.375.279-.549c.424-.188.635.278.635.278l.178 1.205-1.285-.043c.001 0-.455-.126-.342-.578M27.59 29.087c.102-.405.535-.314.535-.314s-.103-.375.279-.547c.424-.188.635.276.635.276l.178 1.205-1.285-.042c.001 0-.454-.127-.342-.578m-14.304 1.642c0-.063.101-.055.293-.085.192-.031.363-.098.363-.031 0 .097-.133.021-.133.177v1.5c0 .075.101.021.101.08 0 .074-.181.043-.315.043-.139 0-.315.031-.315-.027 0-.101.123 0 .123-.096v-1.425c-.001-.151-.117-.012-.117-.136m-1.629.65c0-.042.053-.047.149-.096.097-.048.155-.103.241-.026.085.075.549.608.549.608v-.759c0-.086-.149.024-.149-.061 0-.063.064-.063.17-.104.107-.043.262-.159.262-.086 0 .092-.112.063-.112.183V32.5c0 .123-.011.123-.064.123-.032 0-.771-.932-.771-.932v.992c0 .091.179-.034.179.051 0 .049-.107.074-.214.117-.107.042-.256.11-.256.06 0-.091.133-.06.133-.147v-1.286c-.001-.099-.117-.024-.117-.099m-.578.915c0-.619-.395-.389-.395-.389v1.271c0 .001.395-.006.395-.882m-.924-.256c0-.045.192-.116.32-.177.23-.106.972-.485.972.428 0 .838-.588.979-.774 1.063-.187.086-.44.209-.459.168-.033-.064.101-.076.101-.228v-1.041c0-.261-.16-.125-.16-.213m2.586-3.782c-.004-.039.151-.063.23-.087.134-.036.219-.063.275-.006.056.057.33.499.33.499s.353-.499.381-.532c.028-.032.039-.081.18-.084.162-.003.235-.021.235.016 0 .063-.101.029-.107.158-.004.103 0 1.296 0 1.361 0 .151.104.103.104.151s-.067.027-.305.025c-.196-.003-.328.025-.328-.012 0-.065.104-.012.104-.146v-.91s-.342.499-.359.499c-.02 0-.437-.639-.437-.639v1.092c0 .175.173.07.173.142 0 .033-.132.049-.229.072-.112.025-.21.067-.222.038-.024-.066.121-.029.121-.229 0-.174.002-1.174 0-1.247-.007-.189-.14-.105-.146-.161m-.493.19c.058-.026.211-.109.229-.085.027.037-.061.046-.122.31-.023.098-.31 1.606-.417 1.66-.034.02-.521-1.188-.566-1.286-.08-.171-.165-.057-.181-.117-.01-.037.123-.089.234-.139.059-.025.274-.157.297-.131.045.051-.118.053-.04.236.052.124.325.727.325.727s.16-.679.209-.907c.047-.229-.128-.113-.134-.165-.003-.027.085-.064.16-.099l.006-.004zm-1.87 1.586v.829s.427-.089.427-.605c.001-.443-.427-.224-.427-.224m-.005-.728v.55s.31-.114.31-.383c0-.32-.31-.167-.31-.167m.032-.143c.181-.069.656-.165.656.246 0 .294-.192.361-.192.361s.347.063.347.354c0 .331-.16.563-.341.656-.093.05-.662.324-.716.354-.053.032-.18.104-.194.07-.033-.072.093-.061.093-.271V29.6c0-.282-.133-.157-.133-.23 0-.046.295-.138.48-.209m2.963-3.747v.672s.316-.021.316-.384c0-.432-.316-.288-.316-.288m.835 1.5c.096.012.139-.024.139-.024s-.032.238-.283.238c-.341 0-.336-.587-.432-.758s-.257-.08-.257-.08v.6c0 .19.12.107.12.18 0 .028-.093.045-.093.045s-.261.074-.357.097c-.096.021-.138.043-.138 0 0-.076.095-.025.095-.235V25.74c0-.239-.138-.159-.141-.229-.002-.039.096-.059.192-.083.161-.038.222-.09.451-.144.221-.053.609.054.609.361 0 .343-.193.411-.299.489.394.193.217.759.394.78m-2.594-.878a4.8 4.8 0 00.747-.345c.041-.022.165-.103.224.012.061.114.107.267.07.282-.055.021-.091-.021-.16-.062-.061-.03-.139-.066-.214-.048-.074.025-.176.07-.176.07l.001.523s.186 0 .208-.101c.017-.081.05-.188.109-.203.034-.009.024.101.028.25l.006.108c.004.187-.007.247-.034.252-.051.011-.094-.125-.106-.156-.022-.057-.211-.005-.211.024v.758s.144-.076.208-.114c.087-.052.234-.221.291-.32.056-.099.078-.18.13-.171.033.005-.037.331-.037.331s-.005.128-.112.183c-.106.055-.703.333-.755.356-.102.048-.225.136-.227.088-.003-.073.099-.035.099-.256l-.003-1.263s-.004-.105-.085-.12c-.063-.008-.121-.037-.001-.078m-1.396.58c.086-.03.329-.135.342-.105.034.076-.126.062-.073.213.045.128.326.796.326.796l.246-.961c.053-.208-.115-.138-.129-.188-.009-.035.123-.075.198-.105.061-.028.259-.113.27-.09.026.067-.075.067-.128.256-.064.222-.438 1.727-.542 1.78-.059.032-.574-1.266-.614-1.366-.04-.1-.179-.063-.192-.121-.005-.027.21-.08.296-.109m6.763 4.165c-.003-.04.058-.024.149.004.091.025.2.054.275.176.074.122.637 1.084.637 1.084l-.004-.868c0-.113-.102-.116-.102-.166 0-.044.078 0 .16.028.081.026.2.04.2.078 0 .036-.105-.019-.105.084v1.637s0 .071-.048.006c-.038-.052-.881-1.407-.881-1.407s.003.852 0 .938c-.003.103.109.091.109.144 0 .052-.119.022-.193.011-.075-.015-.187-.003-.187-.067 0-.063.102.034.102-.118V30.95c-.001-.108-.109-.115-.112-.169m.795-2.507c0-.063.268.047.478.105.21.063.606.126.606.254 0 .158.041.312-.01.312-.031 0-.095-.199-.159-.266-.098-.1-.298-.144-.352-.151-.055-.011-.041-.008-.041.03v.509s.135.064.21.033c.075-.033.085-.151.129-.145.043.01.027.104.02.277-.007.177.014.336-.031.316-.043-.017-.047-.166-.138-.255-.092-.088-.193-.101-.193-.101v.829s.101.109.311.044c.21-.067.359-.21.393-.177.034.032.017.081-.084.238-.102.16-.156.264-.258.219s-.332-.134-.474-.194c-.142-.065-.437-.138-.437-.197 0-.061.145.051.145-.125v-1.42c.001-.065-.115-.086-.115-.135m-.342-.243c.075 0 .06.274.071.364.021.172.072.32.018.323-.081.006-.178-.269-.309-.401-.123-.127-.575-.357-.575.599 0 .817.355.801.549.74.19-.063.269-.211.291-.195.023.017-.157.404-.553.449-.396.044-.784-.345-.784-.953 0-.607.299-.98.676-.98.303 0 .392.209.522.209.086-.002.007-.155.094-.155m1.021-2.169c.015-.076.152.021.376.11.223.093.386.14.373.178-.014.036-.173-.023-.153.081.02.104.271.929.271.929s.291-.69.298-.719c.021-.085-.078-.101-.068-.142.011-.043.099.017.17.057.071.04.186.077.166.126-.02.047-.105-.063-.139.021-.034.081-.617 1.391-.617 1.391l-.583-1.88c-.033-.112-.105-.102-.094-.152m-1.332-.505c0-.045.082-.008.082-.008l.518.188s.091.03.088.071c-.003.04-.176-.052-.176.104v1.46s.037.1.21.027c.173-.071.43-.241.43-.241s.122-.062.092.023c-.031.085-.153.354-.153.354s-.027.104-.166.081c-.139-.022-.481-.129-.576-.156-.095-.024-.359-.104-.359-.104s-.054-.012-.054-.053c0-.04.166.004.166-.129V25.55c0-.129-.102-.132-.102-.193m2.007 5.159c0-.103.139.038.139-.122v-1.409c0-.177-.08-.17-.08-.239s.155.031.192.049c.037.017.443.226.486.245.042.021.475.197.475.672 0 .326-.272.272-.272.272s.272.159.287.397c.017.24.049.443.049.478 0 .031.048.172.197.043 0 0 .017.286-.309.182-.213-.067-.273-.268-.288-.398-.017-.136-.091-.776-.38-.77v.646c0 .172.101.123.101.226 0 .063-.149-.038-.282-.093-.197-.091-.315-.12-.315-.179m.498-1.435v.655c.043.017.368.225.368-.182a.464.464 0 00-.368-.473m-.715 2.458c.031-.104-.065-.131-.046-.174.014-.032.147.04.227.076.08.037.203.067.235.18l.491 1.671c.045.148.133.106.107.176-.011.027-.134-.03-.377-.128-.202-.08-.302-.104-.302-.138 0-.066.204.043.156-.097-.032-.096-.102-.339-.102-.339l-.563-.185-.08.271c-.04.137.088.111.064.164-.013.026-.093-.01-.197-.053-.1-.04-.143-.048-.139-.075.005-.05.085.021.122-.076.038-.094.375-1.186.404-1.273m.089.187l-.197.632.438.146-.241-.778zM30.276 14.05v18.732c.208 11.188-8.946 15.159-14.985 15.159-6.04 0-15.194-3.973-14.986-15.159V14.05h5.586c-.03-.346.064-.587.073-.598 7.631-1.528 11.322-1.602 18.947.004a.73.73 0 01.167.594h5.198zM3.099 41.202l5.85-6.229v-1.819l-.663-.024s-.456-.127-.343-.578c.102-.405.535-.313.535-.313s-.102-.375.28-.546a.49.49 0 01.191-.047l.001-1.207-7.31 7.784a12.78 12.78 0 001.459 2.979m7.28-15.92c.079-.036.159-.073.239-.113.282-.143.79-.408 1.337-.639.538-.229 1.174-.449 1.684-.449.513 0 .925.153 1.208.308.142.074.253.151.33.212l.028.021a1.104 1.104 0 01.305-.281c.25-.156.632-.279 1.21-.279.606 0 1.286.24 1.834.488l.126.061 9.399-10.01h-4.258l-8.278 8.813v-4.243l4.293-4.57H.854v18.188c-.012.68.011 1.331.067 1.957l4.095-4.362H8.95v-3.476c-.073.102-.185.083-.185.083s.099-.301-.174-.345a.358.358 0 00-.068-.006c-.155 0-.242.076-.335.15-.145.116-.575.62-.659.702-.084-.082-.515-.586-.661-.702-.092-.074-.18-.15-.334-.15a.46.46 0 00-.068.005c-.274.044-.174.345-.174.345s-.248.04-.248-.337c0-.269.212-.424.4-.474.284-.063.565-.087.618-.557.003-.095-.013-.113-.013-.113s-.102.155-.354.275c-.292.151-1.081.142-1.061.594-.006.183.192.164.192.164s-.01.082-.143.104a.44.44 0 01-.106.004c-.183-.025-.244-.22-.231-.464.011-.151-.091-.354-.289-.325a.455.455 0 00-.112.039c-.151.088-.098.229-.098.229s-.171-.096-.145-.295c.023-.171.136-.249.296-.313a.986.986 0 00.058-.013c.205-.029.377.03.377.03s-.052-.154-.033-.31c.017-.136.087-.27.287-.307.298-.056.362.146.317.254-.016.013-.069-.066-.154-.056a.172.172 0 00-.039.012.198.198 0 00-.094.097c-.05.118.048.269.065.292.06.08.244.137.473.093a.854.854 0 00.547-.385c.049-.079.07-.153.063-.204l.145-1.609s.046-.414-.236-.462a.24.24 0 00-.1-.002c-.238.037-.486.354-.408.752.06.305-.096.538-.246.571-.191.045-.307.008-.374-.133.333-.021.312-.289.207-.387-.045-.04-.11-.051-.185-.04-.311.051-.803.479-.882.733-.071.229.101.171.174.364.059.153-.073.277-.073.277a.81.81 0 01-.02.136c-.036.136-.106.181-.171.188a.259.259 0 01-.124-.015c.083-.035.108-.112.115-.176.005-.045.001-.079.001-.079s-.093.011-.174-.114c-.094-.146.022-.192-.081-.352-.105-.156-.395-.324-.622-.354a.154.154 0 00-.043.001c-.044.006-.086.028-.154.039a.323.323 0 01-.066.006c-.179.004-.13-.104-.277-.093-.076.016-.12.088-.095.189.004.019-.008.025-.008.025a.27.27 0 01-.121-.219c-.001-.231.147-.396.287-.408.166-.017.243.087.256.104.091-.387-.211-.256-.357-.438-.098-.128-.059-.192-.046-.238.02-.067-.101-.078-.193-.063a.497.497 0 00-.067.017c-.018-.018.029-.197.219-.226a.475.475 0 01.253.036c.098-.028.192.02.227.086.042.08.007.172.018.271.03.256.187.249.211.246-.139-.366.036-.476.054-.532.018-.058-.004-.135-.095-.167-.019-.007-.045-.021-.015-.028 0 0 .351-.018.405.214 0 0 .151.08.155.271.004.236-.124.258-.173.307.036.246.182.287.319.269.134-.021.258-.102.258-.102.231-.094.71-.39.581-.632a.254.254 0 00-.263-.142.365.365 0 00-.154.065c-.139.133-.07.308-.07.308-.211.056-.31-.313-.178-.467a.53.53 0 01.326-.174c.138-.023.287-.021.429-.05.169-.031.298-.139.423-.354a.58.58 0 00.015-.532c-.082-.185-.251-.414-.488-.457a1.28 1.28 0 01-.532.9.557.557 0 01-.211.081c-.047.008-.077.004-.066-.013.349-.405.259-.836.249-.877-.025.049-.298.55-.785.765a.674.674 0 01-.146.041c-.262.041-.524-.081-.42-.097.173-.021.871-.429.661-1.288-.027.051-.334.599-.712.855-.161.11-.329.166-.478.188-.298.048-.524-.035-.482-.074 0 0 .822-.392.832-.762a1.218 1.218 0 01-.508.232.756.756 0 01-.106.008c-.701 0-.701-.504-.701-.504.049.005.704.048 1.239-1.088 0 0-.349.123-.751.167-.238.026-.338-.123-.31-.121a.268.268 0 00.149.009c.132-.021.32-.104.559-.286-.064-.027-.923-.408-.591-.999 0 0 .237.207.529.232.215.021.589-.021.68-.237 0 0-.463-.024-.917-.313-.268-.167-.373-.564-.275-.449.1.118.203.152.357.191.12.028.202.002.202.002s-.667-.628-.245-1.117c0 0 .225.629.778.631 0 0-.28-.261-.336-.572-.039-.214-.023-.498.016-.417.027.058.087.157.126.229.069.124.216.29.334.393 0 0-.084-.329.031-.628.017-.046.171-.297.182-.233 0 0 .002.196.013.262.034.213.115.479.515.886.507.517 1.057.513 1.061.836-.02.385-.494.335-.805.309-.108 0-.094.165-.004.282.259.349 1.357.433 1.701-.132a.736.736 0 00.073-.651c-.104-.292-.34-.302-.788-.396-.318-.067-.232-.209-.185-.209 0 0 .097.055.191.055.235.002.092-.301.067-.297-.06.009-.314.11-.533.13-.278.023-.611-.087-.611-.278 0-.23.291-.299.278-.235-.003.016-.175.329.338.313.162-.005.489-.021.488-.036-.01-.088-.162-.209-.278-.209-.086 0-.165.021-.322.006-.056-.14.094-.276.197-.329.103-.052.177-.026.222-.044.06-.021.096-.21.439-.215.18-.005.441.12.562.12.12 0 .334-.076.356-.038.021.038-.086.161-.065.271-.01.251.424 1.242.882 1.337.457-.095.893-1.086.882-1.337.021-.108-.086-.23-.065-.271.022-.038.237.038.357.038s.381-.125.562-.12c.343.005.379.192.439.215.045.018.118-.008.221.044.103.053.253.189.197.329-.156.018-.236-.006-.322-.006-.116 0-.268.121-.277.209-.002.015.325.031.488.036.513.02.341-.297.337-.313-.013-.063.279.005.279.235 0 .191-.334.305-.612.278-.218-.02-.472-.121-.532-.13-.025-.004-.169.299.067.297.094 0 .191-.055.191-.055.047 0 .133.143-.185.211-.449.1-.685.108-.789.4a.739.739 0 00.073.65c.344.563 1.443.479 1.702.132.089-.116.104-.281-.005-.281-.31.025-.784.077-.805-.31.005-.321.555-.317 1.062-.836.399-.407.481-.673.515-.885.01-.063.013-.262.013-.262.01-.063.165.188.182.232.114.299.03.628.03.628.118-.102.266-.268.334-.392.04-.073.1-.175.126-.23.039-.081.055.203.017.417-.056.313-.336.572-.336.572.553-.002.777-.631.777-.631.422.489-.245 1.122-.245 1.122s.082.027.203-.002c.154-.039.256-.074.356-.192.099-.113-.006.282-.274.449-.454.286-.917.313-.917.313.09.216.465.256.679.235.292-.024.53-.231.53-.231.331.59-.528.972-.591.999.238.185.427.268.558.287a.28.28 0 00.15-.011c.028-.002-.072.147-.311.121-.401-.044-.75-.167-.75-.167.535 1.136 1.189 1.093 1.239 1.088 0 0 0 .504-.701.504a.745.745 0 01-.106-.008c-.259-.04-.482-.212-.509-.231.011.371.832.762.832.762.043.038-.184.121-.481.073a1.114 1.114 0 01-.478-.188c-.379-.259-.686-.808-.713-.854-.21.858.488 1.267.661 1.289.104.014-.158.136-.42.095a.682.682 0 01-.145-.041c-.488-.215-.76-.716-.785-.763-.01.041-.101.47.248.877.012.016-.018.019-.065.011a.548.548 0 01-.211-.08 1.29 1.29 0 01-.533-.901c-.237.043-.405.272-.487.457a.583.583 0 00.014.532c.126.219.255.323.424.356.141.027.29.021.428.048a.503.503 0 01.327.175c.132.154.032.521-.179.466 0 0 .07-.174-.069-.308a.324.324 0 00-.155-.065c-.106-.017-.204.031-.263.144-.129.24.351.538.581.63 0 0 .124.079.259.102.136.021.283-.021.318-.269-.049-.047-.177-.067-.173-.307.004-.188.156-.271.156-.271.054-.229.404-.214.404-.214.031.009.004.021-.015.028-.09.032-.112.109-.094.167.017.06.193.166.054.532.023.003.181.01.21-.246.011-.099-.023-.188.019-.271.035-.066.128-.114.227-.086a.483.483 0 01.253-.036c.19.027.236.208.236.208s.003.021-.018.018a.376.376 0 00-.066-.016c-.092-.016-.213-.007-.193.063.013.048.052.11-.047.238-.145.188-.447.055-.356.439.012-.021.089-.122.256-.105.14.014.287.177.286.409a.267.267 0 01-.12.218s-.013-.01-.009-.023c.025-.104-.018-.179-.095-.191-.146-.014-.098.097-.277.093a.337.337 0 01-.066-.006c-.068-.011-.11-.033-.154-.039a.148.148 0 00-.042-.001c-.227.028-.517.196-.622.354-.104.155.013.203-.082.351-.081.125-.174.114-.174.114s-.004.035.001.079a.322.322 0 00.01.054m-.6.226c.142-.042.298-.098.459-.165a.33.33 0 01-.049-.111.646.646 0 01-.02-.134s-.132-.124-.073-.279c.073-.193.245-.136.174-.364-.08-.257-.572-.686-.883-.732-.075-.012-.139 0-.184.039-.105.098-.126.363.207.387-.068.141-.183.179-.374.133-.151-.033-.307-.27-.247-.571.079-.396-.169-.714-.408-.752a.274.274 0 00-.099.002c-.282.046-.236.46-.236.46l.145 1.609c-.008.051.014.125.062.204a.875.875 0 00.548.386c.229.043.412-.014.473-.094.016-.023.115-.174.065-.292a.226.226 0 00-.094-.097.164.164 0 00-.04-.012c-.084-.014-.138.065-.154.058-.044-.109.02-.312.317-.256.201.037.271.173.287.307.02.153-.033.313-.033.313s.064-.028.157-.039m-.829.574a.502.502 0 01.002-.128c-.218-.063-.457-.098-.591-.167a.922.922 0 01-.354-.273s-.015.021-.012.111c.053.47.334.49.617.557a.553.553 0 01.338.241v-.341zm10.143 9.058c-.044.092-.042.266.022.351.235.313 1.16.41 1.587.008-.553-.088-1.074-.231-1.609-.359m2.575-.866c.138.187.297.332.459.364.458-.095.893-1.088.882-1.339.021-.104-.085-.229-.064-.271.022-.037.236.04.356.04s.382-.125.562-.121c.343.005.379.192.439.215.045.018.119-.009.221.044.104.051.254.19.198.329-.157.016-.236-.007-.322-.007-.116 0-.268.123-.278.21-.001.014.326.032.488.037.513.018.341-.297.337-.313-.012-.061.279.004.279.236 0 .192-.334.304-.611.279-.219-.021-.473-.121-.533-.131-.025-.006-.168.3.067.298.094 0 .191-.058.191-.058.047 0 .133.146-.185.211-.448.101-.684.107-.789.399a.742.742 0 00.073.651c.344.563 1.443.479 1.702.133.089-.118.104-.283-.005-.283-.31.026-.784.076-.805-.31.005-.322.555-.317 1.062-.837.4-.405.481-.674.515-.886.01-.063.013-.26.013-.26.01-.063.165.188.182.233.114.299.03.628.03.628.118-.104.266-.271.335-.395.039-.072.099-.174.125-.229.039-.082.056.202.017.416-.056.313-.336.57-.336.57.553-.003.778-.632.778-.632.421.49-.246 1.122-.246 1.122s.083.029.203-.001c.154-.04.257-.075.357-.19.098-.115-.007.279-.275.446-.454.286-.917.313-.917.313.09.215.465.256.679.235.292-.024.53-.231.53-.231.332.589-.528.97-.591.999.238.183.427.266.559.286.059.01.107.006.149-.01.028-.002-.072.146-.311.121-.401-.045-.75-.167-.75-.167.535 1.137 1.189 1.094 1.239 1.088 0 0 0 .505-.701.505a.623.623 0 01-.106-.009c-.259-.04-.482-.214-.509-.231.011.37.832.76.832.76.043.039-.184.122-.481.075a1.142 1.142 0 01-.478-.189c-.378-.259-.685-.807-.712-.854-.21.858.487 1.265.661 1.289.104.013-.158.135-.42.094a.578.578 0 01-.146-.041c-.488-.214-.76-.715-.785-.763-.01.041-.1.47.249.879.011.013-.019.016-.066.009a.541.541 0 01-.211-.081 1.281 1.281 0 01-.533-.898c-.237.043-.405.271-.487.455a.577.577 0 00.015.531c.125.222.254.324.423.359.141.026.29.021.428.047a.51.51 0 01.327.173c.132.156.033.521-.179.466 0 0 .07-.174-.069-.306a.35.35 0 00-.154-.067c-.107-.016-.204.031-.264.146-.129.241.351.537.581.63 0 0 .125.079.259.1.137.021.283-.02.319-.267-.05-.048-.178-.069-.173-.306.003-.188.155-.271.155-.271.054-.229.405-.214.405-.214.03.008.004.023-.016.03-.09.03-.112.106-.094.167.018.058.193.166.054.53.024.005.181.012.21-.244.012-.102-.023-.19.019-.271a.196.196 0 01.227-.086.494.494 0 01.253-.036c.19.028.237.208.237.208s.002.022-.018.021a.196.196 0 00-.067-.02c-.092-.014-.213-.006-.193.063.013.047.052.107-.047.235-.145.188-.447.058-.356.441.013-.021.089-.123.256-.107.14.016.288.18.286.41a.268.268 0 01-.12.218s-.012-.011-.009-.021c.026-.106-.018-.179-.095-.194-.146-.012-.097.1-.277.094a.337.337 0 01-.066-.006c-.067-.011-.109-.031-.154-.04a.146.146 0 00-.042-.001c-.227.029-.517.197-.622.355-.104.157.013.202-.082.349-.08.125-.174.116-.174.116s-.004.035.001.079c.008.063.033.14.113.156 0 0 .025.013.003.019a.305.305 0 01-.125.015c-.064-.011-.135-.055-.17-.188a.667.667 0 01-.02-.135s-.132-.124-.073-.279c.073-.194.245-.136.174-.365-.079-.256-.572-.684-.883-.73-.075-.014-.139 0-.184.041-.105.096-.126.359.207.385-.067.139-.183.177-.374.133-.15-.035-.307-.269-.247-.572.079-.396-.169-.715-.407-.753a.28.28 0 00-.1.002c-.282.05-.236.464-.236.464l.145 1.608c-.008.05.014.125.062.205a.865.865 0 00.548.384c.229.043.413-.012.473-.092.016-.024.115-.174.065-.292a.205.205 0 00-.094-.096c-.014-.006-.027-.012-.039-.015-.085-.012-.138.066-.155.059-.044-.109.02-.313.318-.253.2.037.27.17.287.305.019.154-.034.313-.034.313s.173-.063.378-.029l.058.013c.16.064.273.145.296.313.026.196-.145.295-.145.295s.053-.146-.098-.23a.363.363 0 00-.113-.039c-.198-.028-.299.172-.288.325.013.244-.048.438-.231.463a.506.506 0 01-.106-.003c-.133-.021-.143-.103-.143-.103s.198.019.192-.164c.02-.451-.77-.441-1.062-.597a.895.895 0 01-.353-.272s-.016.02-.013.112c.053.471.334.488.617.557.188.05.401.206.401.473 0 .377-.248.336-.248.336s.099-.3-.174-.343a.46.46 0 00-.068-.005c-.154 0-.242.077-.335.15-.145.114-.575.618-.659.7-.084-.082-.515-.586-.66-.7-.093-.073-.181-.15-.335-.15a.472.472 0 00-.068.005c-.273.043-.174.343-.174.343s-.248.041-.248-.336c0-.267.213-.423.401-.473.283-.065.564-.086.617-.557.003-.096-.013-.112-.013-.112s-.102.154-.353.272c-.292.152-1.082.146-1.062.597-.006.183.192.164.192.164s-.01.081-.143.103a.506.506 0 01-.106.003c-.183-.024-.244-.219-.231-.463.011-.153-.09-.354-.288-.325a.461.461 0 00-.113.039c-.151.088-.098.23-.098.23s-.171-.099-.145-.295c.023-.172.136-.249.296-.313l.058-.013c.206-.03.378.029.378.029s-.053-.148-.033-.303c.017-.134.087-.268.288-.305.297-.06.361.144.317.254-.017.01-.07-.068-.155-.058a.197.197 0 00-.133.109c-.05.118.049.269.065.292.06.08.244.135.473.092a.858.858 0 00.548-.384c.048-.08.07-.155.062-.205l.145-1.608s.046-.414-.236-.462a.207.207 0 00-.099-.002c-.239.036-.487.354-.408.753.06.305-.096.535-.247.57-.191.044-.307.006-.374-.133.333-.021.312-.289.207-.385-.045-.041-.109-.053-.184-.041-.311.05-.804.478-.883.73-.071.23.101.173.174.365.059.156-.073.28-.073.28a.667.667 0 01-.02.134c-.035.135-.106.179-.17.188a.237.237 0 01-.125-.016c.083-.035.108-.111.116-.175.005-.044.001-.079.001-.079s-.094.009-.174-.116c-.095-.146.022-.188-.082-.349-.105-.158-.395-.326-.622-.354a.117.117 0 00-.042.001c-.045.007-.087.027-.154.04a.443.443 0 01-.066.005c-.18.005-.131-.104-.277-.095-.077.019-.121.09-.095.194.003.014-.009.022-.009.022a.271.271 0 01-.12-.219c-.002-.23.146-.396.286-.408a.267.267 0 01.256.105c.091-.387-.211-.255-.356-.439-.099-.13-.06-.19-.047-.237.02-.069-.101-.077-.193-.063a.235.235 0 00-.066.02c-.019-.021.028-.197.218-.229a.493.493 0 01.253.036.199.199 0 01.227.086c.042.08.007.172.019.271.029.256.186.249.21.245-.139-.365.036-.477.054-.531.018-.061-.004-.136-.094-.167-.02-.007-.046-.022-.016-.03 0 0 .351-.016.405.214 0 0 .152.081.155.271.005.233-.123.259-.173.306.036.247.182.288.319.269.134-.021.259-.102.259-.102.23-.092.71-.389.581-.63-.06-.111-.157-.158-.264-.144a.37.37 0 00-.154.065c-.139.132-.069.307-.069.307-.212.058-.311-.311-.179-.467a.543.543 0 01.327-.173c.138-.022.287-.02.428-.047.169-.035.298-.141.423-.359a.575.575 0 00.015-.53c-.082-.186-.25-.413-.487-.456-.046.396-.265.71-.533.898a.541.541 0 01-.211.081c-.047.007-.077.004-.066-.009.35-.409.259-.837.249-.878-.025.047-.297.548-.785.762a.54.54 0 01-.146.041c-.261.041-.523-.081-.42-.094.174-.024.871-.43.661-1.289-.027.049-.333.597-.712.854a1.167 1.167 0 01-.478.188c-.297.047-.524-.036-.481-.075 0 0 .821-.389.832-.76-.027.021-.25.192-.509.232a.745.745 0 01-.106.008c-.701 0-.701-.504-.701-.504.05.005.704.049 1.239-1.088 0 0-.349.122-.75.167-.239.024-.339-.123-.311-.121a.3.3 0 00.149.01c.132-.021.321-.104.559-.287-.063-.029-.923-.41-.591-.999 0 0 .238.207.53.232.214.02.589-.021.679-.236 0 0-.463-.027-.917-.313l-.041-.025a6.51 6.51 0 00-.643.032c-.147.573-.624.996-1.189.996-.563 0-1.038-.418-1.187-.987a4.226 4.226 0 00-1.065-.046l-8.05 8.57a13.572 13.572 0 002.514 1.857l7.527-8.016v4.24l-4.727 5.034c1.719.581 3.452.845 4.987.845 5.87 0 14.637-3.847 14.437-14.604V25.86l-3.761 4.007h-3.985l7.746-8.25v-4.535l-8.121 8.648c.037.028.059.063.059.104l.001 8.44zm-.876 2.595h2.672v-1.074h-2.673l.001 1.074zm1.336 2.096c1.201 0 1.306-1.135 1.306-1.135h-2.621s.113 1.135 1.315 1.135M6.192 20.266h2.672v-1.073H6.191l.001 1.073zm1.336 2.096c1.201 0 1.306-1.136 1.306-1.136H6.213c0 .001.114 1.136 1.315 1.136m7.208 12.353a.576.576 0 001.15 0 .575.575 0 00-1.15 0m-5.421-8.658v8.813s.096.117.685-.043c.678-.187 1.519-1.05 2.697-1.308.884-.19 2.076.087 2.354.277v-8.828s-.534-.521-1.412-.521c-.857 0-2.302.77-2.858 1.049-.484.24-.993.424-1.364.46-.111.01-.102.101-.102.101m7.727 7.443c1.531 0 2.328.949 2.847 1.156 1.209.479 1.412.233 1.412.233v-8.858c0-.087-.128-.087-.128-.087s-1.179-.182-1.584-.429c-.385-.233-1.819-1.094-2.868-1.094-1.052 0-1.241.45-1.241.45v8.945c-.001.005.492-.316 1.562-.316" fill="#fff"/></svg>