<?xml version="1.0" encoding="utf-8"?>
<!-- Generator: Adobe Illustrator 27.9.0, SVG Export Plug-In . SVG Version: 6.00 Build 0)  -->
<svg version="1.1" xmlns="http://www.w3.org/2000/svg" xmlns:xlink="http://www.w3.org/1999/xlink" x="0px" y="0px"
	 viewBox="0 0 142.93 58.01" style="enable-background:new 0 0 142.93 58.01;" xml:space="preserve">
<style type="text/css">
	.st0{display:none;}
	.st1{display:inline;fill:#0D41FF;}
	.st2{fill:#FFFFFF;}
</style>
<g id="Layer_2" class="st0">
	<rect x="-104.51" y="-168.23" class="st1" width="607.99" height="570.51"/>
</g>
<g id="Layer_1">
	<g>
		<path class="st2" d="M112.78,34.96h0.6c0.65,0,0.73,0.14,0.73,1.23v3.94c0,0.74-0.08,1.02-0.9,1.02h-0.52v0.79h4.52v-0.79h-0.23
			c-0.82,0-0.9-0.27-0.9-1.02v-2.65c0-1.52,0.81-2.36,1.99-2.36c0.87,0,1.42,0.52,1.42,1.66v3.34c0,0.74-0.08,1.02-0.9,1.02h-0.23
			v0.79h4.42v-0.79h-0.42c-0.82,0-0.9-0.27-0.9-1.02v-3.81c0-1.75-1.23-2.46-2.81-2.46c-1.31,0-2.23,0.55-2.78,1.86h-0.03v-1.79
			c-0.79,0.1-2.23,0.19-3.05,0.19V34.96z M111.51,38.16v-0.37c0-2.71-1.08-3.92-3.68-3.92c-2.71,0-3.88,1.78-3.88,4.17
			c0,2.39,1.16,4.17,3.88,4.17c2.7,0,3.5-1.39,3.52-2.78h-1.65c-0.02,1.21-0.5,1.84-1.68,1.84c-1.99,0-2-2-2-3.1H111.51z
			 M106.02,37.23c0-1.36,0.4-2.47,1.79-2.47c1.39,0,1.73,1.15,1.73,2.47H106.02z M99.86,36.68c0,1.4-0.4,2.08-1.28,2.08
			c-0.86,0-1.41-0.61-1.41-2.07c0-1.41,0.49-1.94,1.39-1.94C99.35,34.75,99.86,35.21,99.86,36.68 M100.54,43.3
			c0,0.74-0.5,1.52-2.03,1.52c-1.36,0-1.89-0.65-1.89-1.44c0-0.86,0.49-1.57,1.94-1.57C99.96,41.81,100.54,42.47,100.54,43.3
			 M102.88,33.99l-2.39,0.21c-0.45-0.13-1.19-0.34-1.87-0.34c-2.12,0-3.5,1.21-3.5,2.78c0,1.47,0.92,2.2,2.13,2.58v0.03
			c-1.11,0.1-1.58,0.5-1.58,1.02c0,0.55,0.37,0.82,1.45,1.03v0.03c-1.13,0.11-2.47,0.71-2.47,2.02c0,1.31,1.11,2.34,3.67,2.34
			c2.71,0,4.2-0.89,4.2-2.39c0-1.91-1.52-2.13-3.04-2.25c-1.78-0.13-2.07-0.29-2.07-0.74c0-0.53,0.73-0.61,1.26-0.69l0.39-0.06
			c2.26-0.37,2.97-1.58,2.97-2.88c0-0.69-0.31-1.32-0.71-1.63v-0.03h1.57V33.99z M83.81,34.96h0.6c0.65,0,0.73,0.14,0.73,1.23v3.94
			c0,0.74-0.08,1.02-0.9,1.02h-0.52v0.79h4.52v-0.79h-0.23c-0.82,0-0.9-0.27-0.9-1.02v-2.65c0-1.52,0.81-2.36,1.99-2.36
			c0.87,0,1.42,0.52,1.42,1.66v3.34c0,0.74-0.08,1.02-0.9,1.02h-0.23v0.79h4.42v-0.79h-0.42c-0.82,0-0.9-0.27-0.9-1.02v-3.81
			c0-1.75-1.23-2.46-2.81-2.46c-1.31,0-2.23,0.55-2.78,1.86h-0.03v-1.79c-0.79,0.1-2.23,0.19-3.05,0.19V34.96z M79.43,31.36
			c0,0.69,0.42,1.21,1.18,1.21c0.76,0,1.18-0.52,1.18-1.21c0-0.69-0.42-1.21-1.18-1.21C79.85,30.15,79.43,30.67,79.43,31.36
			 M78.34,34.96h0.6c0.65,0,0.73,0.14,0.73,1.23v3.94c0,0.74-0.08,1.02-0.9,1.02h-0.52v0.79h4.72v-0.79h-0.42
			c-0.82,0-0.9-0.27-0.9-1.02v-6.2c-1.03,0.1-2.47,0.19-3.29,0.19V34.96z M67.48,34.96h0.6c0.65,0,0.73,0.14,0.73,1.23v3.94
			c0,0.74-0.08,1.02-0.9,1.02h-0.52v0.79h4.52v-0.79h-0.23c-0.82,0-0.9-0.27-0.9-1.02v-2.65c0-1.52,0.81-2.36,1.99-2.36
			c0.87,0,1.42,0.52,1.42,1.66v3.34c0,0.74-0.08,1.02-0.9,1.02h-0.23v0.79h4.43v-0.79h-0.42c-0.82,0-0.9-0.27-0.9-1.02v-3.81
			c0-1.75-1.23-2.46-2.81-2.46c-1.31,0-2.23,0.55-2.78,1.86h-0.03v-1.79c-0.79,0.1-2.23,0.19-3.05,0.19V34.96z M58.65,38.03
			c0,2.39,1.16,4.17,3.88,4.17c2.71,0,3.88-1.78,3.88-4.17c0-2.39-1.16-4.17-3.88-4.17C59.81,33.87,58.65,35.64,58.65,38.03
			 M60.72,38.03c0-2.2,0.48-3.23,1.81-3.23c1.32,0,1.81,1.03,1.81,3.23c0,2.2-0.48,3.23-1.81,3.23
			C61.2,41.26,60.72,40.23,60.72,38.03 M50.65,34.96h0.69c0.65,0,0.73,0.14,0.73,1.23v3.94c0,0.74-0.08,1.02-0.9,1.02h-0.52v0.79
			h5.15v-0.79h-0.86c-0.82,0-0.9-0.27-0.9-1.02v-2.65c0-1.36,0.74-2.36,1.49-2.36c0.63,0,0.81,0.45,0.82,1.26h1.55v-2.33
			c-0.37-0.13-0.82-0.19-1.29-0.19c-1.31,0-2.23,0.55-2.78,1.86H53.8v-1.79c-0.79,0.1-2.23,0.19-3.15,0.19V34.96z M46.89,36.68
			c0,1.4-0.4,2.08-1.28,2.08c-0.86,0-1.4-0.61-1.4-2.07c0-1.41,0.48-1.94,1.39-1.94C46.37,34.75,46.89,35.21,46.89,36.68
			 M47.57,43.3c0,0.74-0.5,1.52-2.04,1.52c-1.36,0-1.89-0.65-1.89-1.44c0-0.86,0.48-1.57,1.94-1.57
			C46.99,41.81,47.57,42.47,47.57,43.3 M49.91,33.99l-2.39,0.21c-0.45-0.13-1.19-0.34-1.87-0.34c-2.12,0-3.5,1.21-3.5,2.78
			c0,1.47,0.92,2.2,2.13,2.58v0.03c-1.12,0.1-1.58,0.5-1.58,1.02c0,0.55,0.37,0.82,1.45,1.03v0.03c-1.13,0.11-2.47,0.71-2.47,2.02
			c0,1.31,1.11,2.34,3.67,2.34c2.71,0,4.2-0.89,4.2-2.39c0-1.91-1.52-2.13-3.04-2.25c-1.78-0.13-2.07-0.29-2.07-0.74
			c0-0.53,0.73-0.61,1.26-0.69l0.39-0.06c2.26-0.37,2.97-1.58,2.97-2.88c0-0.69-0.31-1.32-0.71-1.63v-0.03h1.57V33.99z"/>
		<path class="st2" d="M135.09,18.91h1.42v5.07c0,0.74-0.08,1.02-0.9,1.02h-0.52v0.79h5.15V25h-0.86c-0.82,0-0.91-0.27-0.91-1.02
			v-5.07h2.12v-0.94h-2.12v-1.6c0-0.97,0.39-1.44,1.05-1.44c0.6,0,0.81,0.36,0.81,1.42h1.36v-2.13c-0.65-0.13-1.36-0.23-2.15-0.23
			c-2.94,0-3.04,1.78-3.04,3.97h-1.42V18.91z M126.35,21.88c0,2.39,1.16,4.17,3.88,4.17c2.71,0,3.88-1.78,3.88-4.17
			c0-2.39-1.16-4.17-3.88-4.17C127.51,17.72,126.35,19.49,126.35,21.88 M128.42,21.88c0-2.2,0.48-3.23,1.81-3.23
			c1.32,0,1.81,1.03,1.81,3.23c0,2.2-0.48,3.23-1.81,3.23C128.9,25.11,128.42,24.08,128.42,21.88 M118.44,25.6l-0.77,1.97
			c-0.21,0.57-0.42,0.9-1.03,0.9h-0.73v0.79h4.33v-0.79h-0.53c-0.63,0-0.81-0.15-0.81-0.49c0-0.26,0.16-0.63,0.26-0.86l3.17-7.57
			c0.23-0.53,0.37-0.79,0.71-0.79h0.35v-0.79h-3.42v0.79h0.68c0.28,0,0.39,0.05,0.39,0.27c0,0.15-0.08,0.34-0.18,0.57l-1.47,3.76
			l-1.33-3.58c-0.1-0.26-0.21-0.48-0.21-0.73c0-0.23,0.16-0.29,0.44-0.29h0.6v-0.79h-4v0.79h0.24c0.39,0,0.58,0.24,0.91,1.02
			L118.44,25.6z M107.62,18.91h1.42v4.63c0,2,0.9,2.54,2.54,2.54c1.57,0,2.47-0.77,2.47-2.5v-0.35h-1.36v0.82c0,0.69-0.26,1-0.84,1
			c-0.58,0-0.84-0.31-0.84-1v-5.14h2.58v-0.94h-2.58V15.7h-1.4c-0.13,1.63-0.48,2.1-1.99,2.28V18.91z M103.34,15.21
			c0,0.69,0.42,1.21,1.18,1.21c0.76,0,1.18-0.52,1.18-1.21c0-0.69-0.42-1.21-1.18-1.21C103.76,14,103.34,14.52,103.34,15.21
			 M102.24,18.81h0.6c0.65,0,0.73,0.15,0.73,1.23v3.94c0,0.74-0.08,1.02-0.9,1.02h-0.52v0.79h4.72V25h-0.42
			c-0.82,0-0.9-0.27-0.9-1.02v-6.2c-1.03,0.1-2.47,0.19-3.29,0.19V18.81z M94.5,25.53c0.47,0.19,1.65,0.52,2.97,0.52
			c1.69,0,3.49-0.73,3.49-2.62c0-1.23-0.61-1.7-2-2.15l-1.32-0.44c-0.74-0.24-1.16-0.68-1.16-1.29c0-0.65,0.47-0.95,1.21-0.95
			c1.16,0,1.47,0.52,1.47,1.76h1.36v-2.21c-0.47-0.21-1.55-0.44-2.78-0.44c-1.91,0-3.23,0.89-3.23,2.36c0,1.26,0.9,1.94,2.78,2.5
			c1.49,0.45,1.71,0.81,1.71,1.41c0,0.74-0.68,1.18-1.71,1.18c-1.11,0-1.42-0.74-1.42-1.89H94.5V25.53z M86.12,18.81h0.69
			c0.65,0,0.73,0.15,0.73,1.23v3.94c0,0.74-0.08,1.02-0.9,1.02h-0.52v0.79h5.15V25h-0.86c-0.82,0-0.9-0.27-0.9-1.02v-2.65
			c0-1.36,0.74-2.36,1.49-2.36c0.63,0,0.81,0.45,0.82,1.26h1.55v-2.33c-0.37-0.13-0.82-0.19-1.29-0.19c-1.31,0-2.23,0.55-2.78,1.86
			h-0.03v-1.79c-0.79,0.1-2.23,0.19-3.15,0.19V18.81z M84.94,22.01v-0.37c0-2.71-1.08-3.92-3.68-3.92c-2.71,0-3.88,1.78-3.88,4.17
			c0,2.39,1.16,4.17,3.88,4.17c2.7,0,3.51-1.39,3.52-2.78h-1.65c-0.02,1.21-0.5,1.84-1.68,1.84c-1.99,0-2-2-2-3.1H84.94z
			 M79.45,21.07c0-1.36,0.4-2.47,1.79-2.47c1.39,0,1.73,1.15,1.73,2.47H79.45z M73.47,18.77h0.68c0.37,0,0.47,0.1,0.47,0.21
			c0,0.13-0.03,0.29-0.08,0.4l-1.68,4.8h-0.03l-1.55-4.55c-0.05-0.16-0.15-0.36-0.15-0.57c0-0.18,0.16-0.29,0.65-0.29h0.53v-0.79
			h-4.04v0.79h0.19c0.36,0,0.45,0.1,0.66,0.63l2.5,6.49h1.91l2.5-6.57c0.16-0.42,0.31-0.55,0.65-0.55h0.21v-0.79h-3.42V18.77z
			 M64.49,15.21c0,0.69,0.42,1.21,1.18,1.21c0.76,0,1.18-0.52,1.18-1.21c0-0.69-0.42-1.21-1.18-1.21
			C64.91,14,64.49,14.52,64.49,15.21 M63.39,18.81h0.6c0.65,0,0.73,0.15,0.73,1.23v3.94c0,0.74-0.08,1.02-0.9,1.02H63.3v0.79h4.72
			V25h-0.42c-0.82,0-0.9-0.27-0.9-1.02v-6.2c-1.03,0.1-2.47,0.19-3.29,0.19V18.81z M52.54,18.81h0.6c0.65,0,0.73,0.15,0.73,1.23
			v3.94c0,0.74-0.08,1.02-0.9,1.02h-0.52v0.79h4.52V25h-0.23c-0.82,0-0.9-0.27-0.9-1.02v-2.65c0-1.52,0.81-2.36,1.99-2.36
			c0.87,0,1.42,0.52,1.42,1.66v3.34c0,0.74-0.08,1.02-0.9,1.02h-0.23v0.79h4.43V25h-0.42c-0.82,0-0.9-0.27-0.9-1.02v-3.81
			c0-1.74-1.23-2.46-2.81-2.46c-1.31,0-2.23,0.55-2.78,1.86h-0.03v-1.79c-0.79,0.1-2.23,0.19-3.05,0.19V18.81z M48.63,25.79h3.05V25
			h-0.42c-0.82,0-0.9-0.27-0.9-1.02v-6.2c-1.03,0.1-2.47,0.19-3.29,0.19v0.84h0.6c0.65,0,0.73,0.15,0.73,1.23v2.21
			c0,1.66-0.6,2.54-1.97,2.54c-0.92,0-1.44-0.47-1.44-1.42v-5.59c-1.03,0.1-2.47,0.19-3.29,0.19v0.84h0.6
			c0.65,0,0.73,0.15,0.73,1.23v3.78c0,1.5,0.97,2.23,2.57,2.23c1.63,0,2.65-0.71,3.02-1.79h0.03V25.79z"/>
	</g>
	<g>
		<path class="st2" d="M15.01,10.96c-0.21,0.03-0.5,0.11-0.67-0.26c-0.16-0.34,0.43-0.88,0.62-1.06c0.25-0.23-0.07-0.47-0.27-0.21
			c-0.05,0.07-0.51,0.72-0.87,0.72c-0.56,0-0.52-0.65-0.52-0.65s-0.62-0.4-0.62-1.65c0-1.12,0.74-1.65,0.74-1.65s0.01-0.64,0.5-0.62
			c0.5,0.02,0.82,0.7,0.85,0.75c0.25,0.38,0.57,0.06,0.35-0.21c-0.52-0.63-0.63-1.14-0.06-1.4c0.21-0.47,0.83-0.8,1.51-0.86l0.02,0
			l0.02,0c0.68,0.06,1.31,0.39,1.51,0.86c0.57,0.27,0.46,0.77-0.06,1.4c-0.22,0.27,0.1,0.59,0.35,0.21
			c0.03-0.05,0.35-0.73,0.85-0.75c0.5-0.02,0.5,0.62,0.5,0.62s0.74,0.54,0.74,1.65c0,1.26-0.62,1.65-0.62,1.65s0.03,0.65-0.52,0.65
			c-0.36,0-0.81-0.65-0.87-0.72c-0.19-0.27-0.52-0.02-0.27,0.21c0.19,0.18,0.78,0.72,0.62,1.06c-0.17,0.37-0.46,0.29-0.67,0.26
			c0,0-0.19,0.33-0.48,0.33c1.44,1.08,3.71,0.47,4.02-0.32c0,0-0.38,0.08-0.38-0.33c0-0.24,0.25-0.38,0.59-0.42
			c-0.07-0.15-0.1-0.34-0.09-0.54c0.03-0.57,0.42-1.04,0.87-1.06c0.45-0.02,0.79,0.42,0.75,0.99c-0.02,0.29-0.12,0.55-0.28,0.74
			c0.33,0.11,0.56,0.28,0.53,0.48c-0.08,0.52-0.56,0.39-0.56,0.39c-0.06,1.19,1.75,1.41,2.21,1.11c-0.18-0.68,0.09-0.89,0.3-1.08
			c0.15-0.13,0.59-0.4,0.65-0.44c0.14-0.09,0.21-0.28,0.12-0.35c-0.08-0.07-0.26,0.05-0.35,0.14c-0.12,0.14-0.34,0.46-0.67,0.38
			c-0.41-0.11-0.23-0.57-0.3-0.82c-0.43-1.58-0.06-2.69,1.52-3.35c0,0,0.6-0.63,1.14-0.35c0.52,0.27,0.2,1.12,0.2,1.12l0.16,0.08
			c0.58-1.05,1.41-1.81,2.61-1.84c0.85-0.02,1.26,0.48,1.29,1.17c0.07,1.53-1.49,0.96-1.37,0.39c0,0-0.38,0.04-0.59,0.37
			c0-0.1,0.01-1-0.8-0.52c-0.23,0.14-0.64,0.82-0.67,0.91c-0.1,0.3,0.04,0.35-0.11,0.64c-0.12,0.23-0.29,0.28-0.37,0.44
			c-0.08,0.16,0.03,0.48-0.07,0.68c-0.12,0.25-0.29,0.27-0.41,0.49c-0.09,0.18-1.22,3.06-1.22,3.06s0.45,0.29,0.36,0.72
			c-0.11,0.57-0.48,0.45-0.67,0.83c-6.14-1.58-12.5-1.59-19.07-0.03c-0.2-0.34-0.55-0.24-0.66-0.8c-0.09-0.43,0.36-0.72,0.36-0.72
			s-1.13-2.88-1.22-3.06c-0.11-0.23-0.28-0.24-0.41-0.49c-0.1-0.2,0-0.52-0.07-0.68C4.98,9.04,4.81,8.99,4.69,8.76
			C4.53,8.47,4.67,8.42,4.57,8.12C4.54,8.03,4.14,7.35,3.9,7.21c-0.81-0.48-0.8,0.43-0.8,0.52C2.9,7.4,2.52,7.36,2.52,7.36
			C2.64,7.93,1.08,8.5,1.15,6.97C1.19,6.29,1.6,5.79,2.45,5.81c1.2,0.03,2.04,0.79,2.61,1.84l0.16-0.08c0,0-0.32-0.84,0.2-1.12
			C5.96,6.17,6.56,6.8,6.56,6.8c1.58,0.66,1.95,1.77,1.52,3.35c-0.07,0.25,0.11,0.72-0.3,0.82c-0.34,0.09-0.55-0.24-0.67-0.38
			c-0.08-0.1-0.27-0.21-0.35-0.14c-0.09,0.07-0.02,0.26,0.12,0.35c0.06,0.04,0.5,0.31,0.65,0.44c0.21,0.18,0.48,0.39,0.3,1.08
			c0.46,0.31,2.27,0.08,2.21-1.11c0,0-0.48,0.13-0.56-0.39c-0.03-0.2,0.2-0.37,0.53-0.48C9.86,10.16,9.75,9.9,9.73,9.61
			c-0.03-0.57,0.3-1.01,0.75-0.99c0.45,0.02,0.84,0.5,0.87,1.06c0.01,0.2-0.02,0.39-0.09,0.54c0.34,0.05,0.58,0.18,0.59,0.42
			c0,0.4-0.38,0.33-0.38,0.33c0.3,0.79,2.57,1.4,4.02,0.32C15.2,11.3,15.01,10.96,15.01,10.96 M15.53,8.01
			c0,0.59,0.48,1.06,1.06,1.06c0.59,0,1.06-0.48,1.06-1.06c0-0.59-0.48-1.06-1.06-1.06C16,6.95,15.53,7.42,15.53,8.01 M21.38,12.61
			c0.46-0.01,1.35,0.17,1.35,0.17s-0.38-0.42-0.55-0.71c0,0-0.2,0.19-0.33,0.28C21.76,12.42,21.38,12.61,21.38,12.61 M16.59,11.68
			c-0.18,0.2-0.52,0.54-0.9,0.67c0,0,0.62-0.02,0.89-0.02h0.03c0.27,0,0.89,0.02,0.89,0.02C17.11,12.22,16.77,11.88,16.59,11.68
			 M11.79,12.61c0,0-0.38-0.19-0.47-0.26c-0.12-0.09-0.33-0.28-0.33-0.28c-0.17,0.29-0.55,0.71-0.55,0.71S11.33,12.6,11.79,12.61
			 M25.84,15.48c0.29,0.08,0.71,0.37,0.59,0.79c-0.11,0.43-0.62,0.47-0.91,0.39c-0.29-0.08-0.71-0.37-0.59-0.79
			C25.05,15.44,25.55,15.4,25.84,15.48 M21.99,15.36l-0.89,0.75l-0.75-0.9l0.9-0.75L21.99,15.36z M7.75,16.66
			c-0.29,0.08-0.8,0.04-0.91-0.39c-0.11-0.42,0.3-0.71,0.59-0.79c0.29-0.08,0.8-0.04,0.91,0.39C8.46,16.3,8.05,16.59,7.75,16.66
			 M15.71,15.08c0-0.34,0.42-0.61,0.93-0.61c0.52,0,0.93,0.27,0.93,0.61c0,0.34-0.42,0.61-0.93,0.61
			C16.12,15.69,15.71,15.42,15.71,15.08 M11.29,15.36l0.75-0.89l0.89,0.75l-0.75,0.9L11.29,15.36z M3.64,42.39
			c0.1-0.41,0.54-0.32,0.54-0.32s-0.1-0.38,0.28-0.55c0.42-0.19,0.64,0.28,0.64,0.28l0.18,1.21l-1.28-0.04
			C3.98,42.97,3.52,42.84,3.64,42.39 M5.46,40.39c0.1-0.41,0.53-0.32,0.53-0.32s-0.1-0.38,0.28-0.55c0.42-0.19,0.63,0.28,0.63,0.28
			l0.18,1.21L5.8,40.97C5.8,40.97,5.34,40.84,5.46,40.39 M7.28,38.4c0.1-0.41,0.54-0.31,0.54-0.31s-0.1-0.38,0.28-0.55
			c0.42-0.19,0.63,0.28,0.63,0.28l0.18,1.21l-1.29-0.04C7.62,38.98,7.16,38.85,7.28,38.4 M16.6,19.93c0.1-0.41,0.54-0.32,0.54-0.32
			s-0.1-0.38,0.28-0.55c0.42-0.19,0.63,0.28,0.63,0.28l0.18,1.2l-1.29-0.04C16.94,20.5,16.49,20.38,16.6,19.93 M18.38,26.73
			c0.1-0.41,0.54-0.32,0.54-0.32s-0.1-0.38,0.28-0.55c0.42-0.19,0.63,0.28,0.63,0.28L20,27.35l-1.29-0.04
			C18.72,27.31,18.26,27.18,18.38,26.73 M20.51,24.47c0.1-0.41,0.54-0.32,0.54-0.32s-0.1-0.38,0.28-0.55
			c0.42-0.19,0.63,0.28,0.63,0.28l0.18,1.21l-1.28-0.04C20.86,25.05,20.4,24.92,20.51,24.47 M22.65,22.21
			c0.1-0.41,0.54-0.31,0.54-0.31s-0.1-0.38,0.28-0.55c0.42-0.19,0.63,0.28,0.63,0.28l0.18,1.21l-1.28-0.04
			C22.99,22.78,22.54,22.66,22.65,22.21 M24.78,19.95c0.1-0.41,0.54-0.31,0.54-0.31s-0.1-0.38,0.28-0.55
			c0.42-0.19,0.64,0.28,0.64,0.28l0.18,1.2l-1.28-0.04C25.13,20.52,24.67,20.4,24.78,19.95 M2.43,35.17
			c0.1-0.41,0.54-0.32,0.54-0.32s-0.1-0.38,0.28-0.55c0.42-0.19,0.64,0.28,0.64,0.28l0.18,1.21l-1.28-0.04
			C2.77,35.74,2.31,35.62,2.43,35.17 M7.39,47.27c0.1-0.41,0.54-0.32,0.54-0.32s-0.1-0.38,0.28-0.55c0.42-0.19,0.64,0.28,0.64,0.28
			l0.18,1.21l-1.28-0.04C7.73,47.85,7.27,47.72,7.39,47.27 M9.5,44.97c0.1-0.41,0.53-0.32,0.53-0.32s-0.1-0.38,0.28-0.55
			c0.42-0.19,0.63,0.28,0.63,0.28l0.18,1.21l-1.28-0.04C9.84,45.55,9.38,45.42,9.5,44.97 M11.61,42.68c0.1-0.41,0.54-0.32,0.54-0.32
			s-0.1-0.38,0.28-0.55c0.42-0.19,0.63,0.28,0.63,0.28l0.18,1.21l-1.29-0.04C11.95,43.25,11.5,43.13,11.61,42.68 M13.72,40.38
			c0.1-0.41,0.54-0.32,0.54-0.32s-0.1-0.38,0.28-0.55c0.42-0.19,0.64,0.28,0.64,0.28L15.35,41l-1.28-0.04
			C14.06,40.96,13.61,40.83,13.72,40.38 M23.02,30.62c0.1-0.41,0.53-0.32,0.53-0.32s-0.1-0.38,0.28-0.55
			c0.42-0.19,0.63,0.28,0.63,0.28l0.18,1.21l-1.28-0.04C23.36,31.2,22.91,31.07,23.02,30.62 M24.92,28.54
			c0.1-0.41,0.54-0.32,0.54-0.32s-0.1-0.38,0.28-0.55c0.42-0.19,0.64,0.28,0.64,0.28l0.18,1.21l-1.29-0.04
			C25.27,29.12,24.81,28.99,24.92,28.54 M26.83,26.46c0.1-0.41,0.54-0.32,0.54-0.32s-0.1-0.38,0.28-0.55
			c0.42-0.19,0.64,0.28,0.64,0.28l0.18,1.21l-1.29-0.04C27.17,27.04,26.71,26.91,26.83,26.46 M28.73,24.39
			c0.1-0.41,0.53-0.32,0.53-0.32s-0.1-0.38,0.28-0.55c0.42-0.19,0.63,0.28,0.63,0.28l0.18,1.2l-1.29-0.04
			C29.07,24.97,28.62,24.84,28.73,24.39 M13.95,49.31c0.1-0.41,0.54-0.32,0.54-0.32s-0.1-0.38,0.28-0.55
			c0.42-0.19,0.63,0.28,0.63,0.28l0.18,1.21l-1.29-0.04C14.3,49.88,13.84,49.76,13.95,49.31 M28.74,32.94
			c0.1-0.41,0.54-0.32,0.54-0.32s-0.1-0.38,0.28-0.55c0.42-0.19,0.64,0.28,0.64,0.28l0.18,1.21l-1.28-0.04
			C29.08,33.52,28.63,33.39,28.74,32.94 M14.44,34.58c0-0.06,0.1-0.05,0.29-0.08c0.19-0.03,0.36-0.1,0.36-0.03
			c0,0.1-0.13,0.02-0.13,0.18v1.5c0,0.08,0.1,0.02,0.1,0.08c0,0.08-0.18,0.04-0.31,0.04c-0.14,0-0.32,0.03-0.32-0.03
			c0-0.1,0.12,0,0.12-0.1v-1.42C14.55,34.57,14.44,34.7,14.44,34.58 M12.81,35.23c0-0.04,0.05-0.05,0.15-0.1
			c0.1-0.05,0.15-0.1,0.24-0.03c0.08,0.08,0.55,0.61,0.55,0.61v-0.76c0-0.09-0.15,0.03-0.15-0.06c0-0.06,0.06-0.06,0.17-0.11
			c0.11-0.04,0.26-0.16,0.26-0.09c0,0.09-0.11,0.06-0.11,0.18v1.46c0,0.12-0.01,0.12-0.06,0.12c-0.03,0-0.77-0.93-0.77-0.93v0.99
			c0,0.09,0.18-0.03,0.18,0.05c0,0.05-0.11,0.07-0.21,0.12c-0.11,0.04-0.26,0.11-0.26,0.06c0-0.09,0.13-0.06,0.13-0.15v-1.29
			C12.93,35.23,12.81,35.31,12.81,35.23 M12.23,36.15c0-0.62-0.39-0.39-0.39-0.39v1.27C11.84,37.03,12.23,37.02,12.23,36.15
			 M11.31,35.89c0-0.04,0.19-0.12,0.32-0.18c0.23-0.11,0.97-0.49,0.97,0.43c0,0.84-0.59,0.98-0.77,1.06
			c-0.19,0.09-0.44,0.21-0.46,0.17c-0.03-0.07,0.1-0.08,0.1-0.23V36.1C11.47,35.84,11.31,35.98,11.31,35.89 M13.89,32.11
			c0-0.04,0.15-0.07,0.23-0.09c0.13-0.04,0.22-0.06,0.27-0.01c0.06,0.06,0.33,0.5,0.33,0.5s0.35-0.5,0.38-0.53
			c0.03-0.03,0.04-0.08,0.18-0.08c0.16,0,0.23-0.02,0.23,0.01c0,0.06-0.1,0.03-0.11,0.16c0,0.1,0,1.29,0,1.36
			c0,0.15,0.1,0.1,0.1,0.15c0,0.05-0.07,0.03-0.31,0.03c-0.2,0-0.33,0.03-0.33-0.01c0-0.07,0.1-0.01,0.1-0.15v-0.91
			c0,0-0.34,0.5-0.36,0.5c-0.02,0-0.44-0.64-0.44-0.64v1.09c0,0.17,0.17,0.07,0.17,0.14c0,0.03-0.13,0.05-0.23,0.07
			c-0.11,0.03-0.21,0.07-0.22,0.04c-0.02-0.07,0.12-0.03,0.12-0.23c0-0.17,0-1.17,0-1.25C14.03,32.08,13.9,32.16,13.89,32.11
			 M13.4,32.3c0.06-0.03,0.21-0.11,0.23-0.09c0.03,0.04-0.06,0.04-0.12,0.31c-0.02,0.1-0.31,1.61-0.42,1.66
			c-0.03,0.02-0.52-1.19-0.57-1.29c-0.08-0.17-0.17-0.06-0.18-0.12c-0.01-0.04,0.12-0.09,0.23-0.14c0.06-0.03,0.27-0.16,0.3-0.13
			c0.04,0.05-0.12,0.05-0.04,0.24c0.05,0.12,0.32,0.73,0.32,0.73s0.16-0.68,0.21-0.91c0.05-0.23-0.13-0.12-0.13-0.17
			C13.23,32.37,13.32,32.33,13.4,32.3L13.4,32.3z M11.53,33.88v0.83c0,0,0.43-0.09,0.43-0.61C11.96,33.66,11.53,33.88,11.53,33.88
			 M11.52,33.16v0.55c0,0,0.31-0.12,0.31-0.38C11.83,33,11.52,33.16,11.52,33.16 M11.56,33.01c0.18-0.07,0.66-0.17,0.66,0.25
			c0,0.29-0.19,0.36-0.19,0.36s0.35,0.06,0.35,0.35c0,0.33-0.16,0.56-0.34,0.66c-0.09,0.05-0.66,0.32-0.72,0.36
			c-0.05,0.03-0.18,0.1-0.19,0.07c-0.03-0.07,0.09-0.06,0.09-0.27v-1.33c0-0.28-0.13-0.16-0.13-0.23
			C11.08,33.18,11.37,33.08,11.56,33.01 M14.52,29.27v0.67c0,0,0.32-0.02,0.32-0.38C14.84,29.12,14.52,29.27,14.52,29.27
			 M15.35,30.77c0.1,0.01,0.14-0.03,0.14-0.03s-0.03,0.24-0.28,0.24c-0.34,0-0.34-0.59-0.43-0.76c-0.1-0.17-0.26-0.08-0.26-0.08v0.6
			c0,0.19,0.12,0.11,0.12,0.18c0,0.03-0.09,0.04-0.09,0.04s-0.26,0.07-0.36,0.1c-0.1,0.02-0.14,0.04-0.14,0
			c0-0.08,0.1-0.03,0.1-0.24v-1.24c0-0.24-0.14-0.16-0.14-0.23c0-0.04,0.1-0.06,0.19-0.08c0.16-0.04,0.22-0.09,0.45-0.14
			c0.22-0.05,0.61,0.05,0.61,0.36c0,0.34-0.19,0.41-0.3,0.49C15.35,30.18,15.18,30.74,15.35,30.77 M12.76,29.89
			c0.16-0.05,0.44-0.17,0.75-0.34c0.04-0.02,0.17-0.1,0.22,0.01c0.06,0.12,0.11,0.27,0.07,0.28c-0.05,0.02-0.09-0.02-0.16-0.06
			c-0.06-0.03-0.14-0.07-0.21-0.05c-0.07,0.02-0.18,0.07-0.18,0.07l0,0.53c0,0,0.19,0,0.21-0.1c0.02-0.08,0.05-0.19,0.11-0.2
			c0.03-0.01,0.02,0.1,0.03,0.25c0,0.05,0.01,0.08,0.01,0.11c0,0.19-0.01,0.25-0.03,0.25c-0.05,0.01-0.09-0.12-0.11-0.16
			c-0.02-0.06-0.21,0-0.21,0.03v0.76c0,0,0.14-0.08,0.21-0.12c0.09-0.05,0.23-0.22,0.29-0.32c0.06-0.1,0.08-0.18,0.13-0.17
			c0.03,0-0.04,0.33-0.04,0.33s0,0.13-0.11,0.18c-0.11,0.05-0.7,0.33-0.75,0.36c-0.1,0.05-0.23,0.14-0.23,0.09
			c0-0.08,0.1-0.04,0.1-0.26l0-1.26c0,0,0-0.11-0.08-0.12C12.7,29.96,12.64,29.93,12.76,29.89 M11.37,30.47
			c0.09-0.03,0.33-0.13,0.34-0.11c0.03,0.08-0.13,0.06-0.07,0.21c0.04,0.13,0.33,0.8,0.33,0.8l0.25-0.96
			c0.05-0.21-0.12-0.14-0.13-0.19c-0.01-0.04,0.12-0.08,0.2-0.11c0.06-0.03,0.26-0.11,0.27-0.09c0.03,0.07-0.08,0.07-0.13,0.25
			c-0.06,0.22-0.44,1.73-0.54,1.78c-0.06,0.03-0.57-1.26-0.61-1.37c-0.04-0.1-0.18-0.06-0.19-0.12
			C11.06,30.55,11.28,30.5,11.37,30.47 M18.13,34.63c0-0.04,0.06-0.02,0.15,0c0.09,0.03,0.2,0.05,0.27,0.18
			c0.07,0.12,0.64,1.08,0.64,1.08l0-0.87c0-0.12-0.1-0.12-0.1-0.17c0-0.04,0.08,0,0.16,0.03c0.08,0.03,0.2,0.04,0.2,0.08
			c0,0.04-0.1-0.02-0.1,0.08v1.64c0,0,0,0.07-0.05,0.01c-0.04-0.05-0.88-1.41-0.88-1.41s0,0.85,0,0.94c0,0.1,0.11,0.09,0.11,0.14
			c0,0.05-0.12,0.02-0.19,0.01c-0.07-0.01-0.19,0-0.19-0.07c0-0.06,0.1,0.03,0.1-0.12V34.8C18.24,34.69,18.13,34.69,18.13,34.63
			 M18.92,32.13c0-0.06,0.27,0.05,0.48,0.11c0.21,0.06,0.61,0.13,0.61,0.25c0,0.16,0.04,0.31-0.01,0.31c-0.03,0-0.1-0.2-0.16-0.27
			c-0.1-0.1-0.3-0.14-0.35-0.15c-0.06-0.01-0.04-0.01-0.04,0.03v0.51c0,0,0.14,0.07,0.21,0.03c0.08-0.03,0.08-0.15,0.13-0.14
			c0.04,0.01,0.03,0.1,0.02,0.28c-0.01,0.18,0.01,0.34-0.03,0.32c-0.04-0.02-0.05-0.17-0.14-0.25c-0.09-0.09-0.19-0.1-0.19-0.1v0.83
			c0,0,0.1,0.11,0.31,0.04c0.21-0.07,0.36-0.21,0.39-0.18c0.03,0.03,0.02,0.08-0.08,0.24c-0.1,0.16-0.16,0.26-0.26,0.22
			c-0.1-0.04-0.33-0.13-0.47-0.2c-0.14-0.07-0.44-0.14-0.44-0.2c0-0.06,0.15,0.05,0.15-0.12v-1.42
			C19.04,32.2,18.92,32.17,18.92,32.13 M18.58,31.88c0.07,0,0.06,0.28,0.07,0.37c0.02,0.17,0.07,0.32,0.02,0.33
			c-0.08,0-0.18-0.27-0.31-0.4c-0.12-0.13-0.58-0.36-0.58,0.6c0,0.82,0.35,0.8,0.55,0.74c0.19-0.06,0.27-0.21,0.29-0.2
			c0.02,0.01-0.16,0.4-0.55,0.45c-0.4,0.04-0.78-0.34-0.78-0.95c0-0.61,0.3-0.98,0.68-0.98c0.3,0,0.39,0.21,0.52,0.21
			C18.57,32.04,18.49,31.88,18.58,31.88 M19.6,29.71c0.01-0.08,0.15,0.02,0.38,0.11c0.22,0.09,0.39,0.14,0.37,0.18
			c-0.01,0.04-0.17-0.02-0.15,0.08c0.02,0.1,0.27,0.93,0.27,0.93s0.29-0.69,0.3-0.72c0.02-0.08-0.08-0.1-0.07-0.14
			c0.01-0.04,0.1,0.01,0.17,0.05c0.07,0.04,0.19,0.08,0.17,0.13c-0.02,0.05-0.11-0.06-0.14,0.02c-0.03,0.08-0.62,1.39-0.62,1.39
			l-0.58-1.88C19.66,29.75,19.59,29.76,19.6,29.71 M18.27,29.21c0-0.04,0.08-0.01,0.08-0.01l0.52,0.19c0,0,0.09,0.03,0.09,0.07
			c0,0.04-0.18-0.05-0.18,0.1v1.46c0,0,0.04,0.1,0.21,0.03c0.17-0.07,0.43-0.24,0.43-0.24s0.12-0.06,0.09,0.02
			c-0.03,0.09-0.15,0.36-0.15,0.36s-0.03,0.11-0.17,0.08c-0.14-0.02-0.48-0.13-0.58-0.16c-0.09-0.03-0.36-0.11-0.36-0.11
			s-0.05-0.01-0.05-0.05c0-0.04,0.17,0,0.17-0.13V29.4C18.37,29.27,18.27,29.27,18.27,29.21 M20.28,34.37c0-0.1,0.14,0.04,0.14-0.12
			v-1.41c0-0.18-0.08-0.17-0.08-0.24c0-0.07,0.15,0.03,0.19,0.05c0.04,0.01,0.44,0.22,0.49,0.25c0.04,0.02,0.48,0.2,0.48,0.67
			c0,0.33-0.27,0.27-0.27,0.27s0.27,0.16,0.29,0.4c0.02,0.24,0.05,0.44,0.05,0.48c0,0.03,0.05,0.17,0.2,0.04
			c0,0,0.02,0.29-0.31,0.18c-0.21-0.07-0.27-0.27-0.29-0.4c-0.02-0.13-0.09-0.78-0.38-0.77v0.65c0,0.17,0.1,0.12,0.1,0.22
			c0,0.06-0.15-0.04-0.28-0.09C20.39,34.46,20.28,34.43,20.28,34.37 M20.77,32.93v0.66c0.04,0.02,0.37,0.22,0.37-0.18
			C21.14,33,20.77,32.93,20.77,32.93 M20.06,35.39c0.03-0.1-0.07-0.13-0.05-0.17c0.01-0.03,0.15,0.04,0.23,0.08
			c0.08,0.04,0.2,0.07,0.24,0.18c0.03,0.11,0.45,1.54,0.49,1.67c0.04,0.15,0.13,0.11,0.11,0.18c-0.01,0.03-0.13-0.03-0.38-0.13
			c-0.2-0.08-0.3-0.11-0.3-0.14c0-0.07,0.2,0.04,0.16-0.1c-0.03-0.09-0.1-0.34-0.1-0.34l-0.56-0.18l-0.08,0.27
			c-0.04,0.14,0.09,0.11,0.06,0.16c-0.01,0.03-0.09-0.01-0.2-0.05c-0.1-0.04-0.14-0.05-0.14-0.08c0.01-0.05,0.09,0.02,0.12-0.08
			C19.69,36.57,20.03,35.48,20.06,35.39 M20.15,35.58l-0.2,0.63l0.44,0.15L20.15,35.58z M31.43,17.9v18.73
			c0.21,11.19-8.95,15.16-14.98,15.16c-6.04,0-15.19-3.97-14.99-15.16V17.9h5.59c-0.03-0.35,0.06-0.59,0.07-0.6
			c7.63-1.53,11.32-1.6,18.95,0c0.16,0.2,0.19,0.41,0.17,0.59H31.43z M4.25,45.05l5.85-6.23V37l-0.66-0.02c0,0-0.46-0.13-0.34-0.58
			c0.1-0.41,0.54-0.32,0.54-0.32s-0.1-0.38,0.28-0.55c0.07-0.03,0.13-0.05,0.19-0.05l0-1.21l-7.31,7.78
			C3.17,43.18,3.66,44.17,4.25,45.05 M11.53,29.13c0.08-0.04,0.16-0.07,0.24-0.11c0.28-0.14,0.79-0.41,1.34-0.64
			c0.54-0.23,1.17-0.45,1.68-0.45c0.51,0,0.92,0.15,1.21,0.31c0.14,0.08,0.25,0.15,0.33,0.21l0.03,0.02
			c0.01-0.01,0.02-0.03,0.04-0.05c0.06-0.07,0.15-0.16,0.27-0.23c0.25-0.16,0.63-0.28,1.21-0.28c0.61,0,1.29,0.24,1.83,0.49
			l0.13,0.06l9.4-10.01h-4.26l-8.28,8.82v-4.24l4.29-4.57H2.01v18.19c-0.01,0.68,0.01,1.33,0.07,1.96l4.1-4.36h3.93v-3.48
			c-0.07,0.1-0.19,0.08-0.19,0.08s0.1-0.3-0.17-0.34c-0.02,0-0.04,0-0.07,0c-0.15,0-0.24,0.08-0.34,0.15
			c-0.15,0.12-0.58,0.62-0.66,0.7c-0.08-0.08-0.51-0.59-0.66-0.7c-0.09-0.07-0.18-0.15-0.33-0.15c-0.03,0-0.05,0-0.07,0
			c-0.27,0.04-0.17,0.34-0.17,0.34S7.2,30.88,7.2,30.51c0-0.27,0.21-0.42,0.4-0.47c0.28-0.06,0.56-0.08,0.62-0.55
			c0-0.09-0.01-0.11-0.01-0.11s-0.1,0.16-0.35,0.28c-0.29,0.15-1.08,0.14-1.06,0.59c-0.01,0.18,0.19,0.16,0.19,0.16
			s-0.01,0.08-0.14,0.1c-0.03,0-0.06,0.01-0.11,0c-0.18-0.03-0.24-0.22-0.23-0.46c0.01-0.15-0.09-0.35-0.29-0.33
			c-0.03,0.01-0.07,0.02-0.11,0.04C5.95,29.84,6,29.98,6,29.98s-0.17-0.1-0.14-0.29c0.02-0.17,0.14-0.25,0.3-0.32
			c0.02,0,0.04-0.01,0.06-0.01c0.2-0.03,0.38,0.03,0.38,0.03s-0.05-0.16-0.03-0.31c0.02-0.13,0.09-0.27,0.29-0.3
			c0.3-0.06,0.36,0.14,0.32,0.25C7.14,29.04,7.09,28.96,7,28.98c-0.01,0-0.02,0.01-0.04,0.01c-0.05,0.03-0.08,0.06-0.09,0.09
			c-0.05,0.12,0.05,0.27,0.07,0.29c0.06,0.08,0.24,0.14,0.47,0.09c0.27-0.06,0.46-0.23,0.55-0.38C8,29,8.02,28.93,8.02,28.88
			l0.15-1.61c0,0,0.05-0.41-0.24-0.46c-0.03-0.01-0.07-0.01-0.1,0c-0.24,0.04-0.49,0.35-0.41,0.75c0.06,0.3-0.1,0.54-0.25,0.57
			c-0.19,0.04-0.31,0.01-0.37-0.13c0.33-0.02,0.31-0.29,0.21-0.38c-0.04-0.04-0.11-0.05-0.18-0.04c-0.31,0.05-0.8,0.48-0.88,0.73
			c-0.07,0.23,0.1,0.17,0.17,0.37c0.06,0.16-0.07,0.28-0.07,0.28c0,0.05-0.01,0.1-0.02,0.13c-0.04,0.14-0.11,0.18-0.17,0.19
			c-0.05,0.01-0.1-0.01-0.12-0.01c0.08-0.04,0.11-0.11,0.12-0.18c0-0.04,0-0.08,0-0.08s-0.09,0.01-0.17-0.12
			c-0.09-0.15,0.02-0.19-0.08-0.35c-0.11-0.16-0.39-0.33-0.62-0.35c-0.02,0-0.03,0-0.04,0c-0.04,0.01-0.09,0.03-0.15,0.04
			c-0.02,0-0.04,0.01-0.07,0.01c-0.18,0-0.13-0.11-0.28-0.09c-0.08,0.02-0.12,0.09-0.1,0.19c0,0.02-0.01,0.03-0.01,0.03
			C4.24,28.3,4.2,28.22,4.2,28.14c0-0.23,0.15-0.4,0.29-0.41c0.17-0.02,0.24,0.09,0.26,0.11c0.09-0.39-0.21-0.25-0.36-0.44
			c-0.1-0.13-0.06-0.19-0.05-0.24c0.02-0.07-0.1-0.08-0.19-0.06c-0.03,0-0.05,0.01-0.07,0.02c-0.02-0.02,0.03-0.2,0.22-0.22
			c0.06-0.01,0.15,0,0.25,0.04c0.1-0.03,0.19,0.02,0.23,0.09c0.04,0.08,0.01,0.17,0.02,0.27c0.03,0.26,0.19,0.25,0.21,0.25
			c-0.14-0.37,0.04-0.47,0.05-0.53c0.02-0.06,0-0.13-0.1-0.17c-0.02-0.01-0.04-0.02-0.02-0.03c0,0,0.35-0.02,0.41,0.21
			c0,0,0.15,0.08,0.15,0.27c0,0.24-0.12,0.26-0.17,0.3c0.04,0.25,0.18,0.29,0.32,0.27c0.13-0.02,0.26-0.1,0.26-0.1
			c0.23-0.09,0.71-0.39,0.58-0.63c-0.06-0.11-0.16-0.16-0.26-0.14c-0.05,0.01-0.1,0.03-0.15,0.07c-0.14,0.13-0.07,0.31-0.07,0.31
			C5.8,27.4,5.7,27.04,5.83,26.88c0.09-0.11,0.2-0.15,0.33-0.17c0.14-0.02,0.29-0.02,0.43-0.05c0.17-0.03,0.3-0.14,0.42-0.36
			c0.09-0.15,0.1-0.36,0.02-0.53c-0.08-0.18-0.25-0.41-0.49-0.46c-0.04,0.4-0.26,0.71-0.53,0.9c-0.07,0.05-0.15,0.07-0.21,0.08
			c-0.05,0.01-0.08,0-0.07-0.01c0.35-0.41,0.26-0.84,0.25-0.88c-0.03,0.05-0.3,0.55-0.79,0.76c-0.05,0.02-0.1,0.03-0.15,0.04
			c-0.26,0.04-0.52-0.08-0.42-0.09c0.17-0.02,0.87-0.43,0.66-1.29c-0.03,0.05-0.33,0.6-0.71,0.86c-0.16,0.11-0.33,0.17-0.48,0.19
			c-0.3,0.05-0.52-0.04-0.48-0.07c0,0,0.82-0.39,0.83-0.76c-0.03,0.02-0.25,0.19-0.51,0.23c-0.04,0-0.07,0.01-0.11,0.01
			c-0.7,0-0.7-0.5-0.7-0.5c0.05,0,0.7,0.05,1.24-1.09c0,0-0.35,0.12-0.75,0.17c-0.24,0.03-0.34-0.12-0.31-0.12
			c0.04,0.01,0.09,0.02,0.15,0.01c0.13-0.02,0.32-0.1,0.56-0.29c-0.06-0.03-0.92-0.41-0.59-1c0,0,0.24,0.21,0.53,0.23
			c0.21,0.02,0.59-0.02,0.68-0.24c0,0-0.46-0.03-0.92-0.31c-0.27-0.17-0.37-0.56-0.27-0.45c0.1,0.12,0.2,0.15,0.36,0.19
			c0.12,0.03,0.2,0,0.2,0s-0.67-0.63-0.25-1.12c0,0,0.23,0.63,0.78,0.63c0,0-0.28-0.26-0.34-0.57c-0.04-0.21-0.02-0.5,0.02-0.42
			c0.03,0.06,0.09,0.16,0.13,0.23c0.07,0.12,0.22,0.29,0.33,0.39c0,0-0.08-0.33,0.03-0.63c0.02-0.05,0.17-0.3,0.18-0.23
			c0,0,0,0.2,0.01,0.26c0.03,0.21,0.11,0.48,0.52,0.88c0.51,0.52,1.06,0.51,1.06,0.84c-0.02,0.38-0.49,0.33-0.81,0.31
			c-0.11,0-0.09,0.17,0,0.28c0.26,0.35,1.36,0.43,1.7-0.13c0.12-0.2,0.16-0.43,0.07-0.65c-0.1-0.29-0.34-0.3-0.79-0.4
			c-0.32-0.07-0.23-0.21-0.19-0.21c0,0,0.1,0.05,0.19,0.05c0.24,0,0.09-0.3,0.07-0.3c-0.06,0.01-0.31,0.11-0.53,0.13
			c-0.28,0.02-0.61-0.09-0.61-0.28c0-0.23,0.29-0.3,0.28-0.24c0,0.01-0.17,0.33,0.34,0.31c0.16,0,0.49-0.02,0.49-0.04
			c-0.01-0.09-0.16-0.21-0.28-0.21c-0.09,0-0.16,0.02-0.32,0.01c-0.06-0.14,0.09-0.28,0.2-0.33c0.1-0.05,0.18-0.03,0.22-0.04
			c0.06-0.02,0.1-0.21,0.44-0.21c0.18,0,0.44,0.12,0.56,0.12c0.12,0,0.33-0.08,0.36-0.04c0.02,0.04-0.09,0.16-0.06,0.27
			c-0.01,0.25,0.42,1.24,0.88,1.34c0.46-0.09,0.89-1.09,0.88-1.34c0.02-0.11-0.09-0.23-0.07-0.27c0.02-0.04,0.24,0.04,0.36,0.04
			c0.12,0,0.38-0.12,0.56-0.12c0.34,0,0.38,0.19,0.44,0.21c0.05,0.02,0.12-0.01,0.22,0.04c0.1,0.05,0.25,0.19,0.2,0.33
			c-0.16,0.02-0.24-0.01-0.32-0.01c-0.12,0-0.27,0.12-0.28,0.21c0,0.01,0.33,0.03,0.49,0.04c0.51,0.02,0.34-0.3,0.34-0.31
			c-0.01-0.06,0.28,0,0.28,0.24c0,0.19-0.33,0.3-0.61,0.28c-0.22-0.02-0.47-0.12-0.53-0.13c-0.02,0-0.17,0.3,0.07,0.3
			c0.09,0,0.19-0.05,0.19-0.05c0.05,0,0.13,0.14-0.18,0.21c-0.45,0.1-0.69,0.11-0.79,0.4c-0.08,0.22-0.05,0.46,0.07,0.65
			c0.34,0.56,1.44,0.48,1.7,0.13c0.09-0.12,0.1-0.28,0-0.28c-0.31,0.03-0.78,0.08-0.81-0.31c0-0.32,0.56-0.32,1.06-0.84
			c0.4-0.41,0.48-0.67,0.52-0.88c0.01-0.06,0.01-0.26,0.01-0.26c0.01-0.06,0.17,0.19,0.18,0.23c0.11,0.3,0.03,0.63,0.03,0.63
			c0.12-0.1,0.27-0.27,0.33-0.39c0.04-0.07,0.1-0.17,0.13-0.23c0.04-0.08,0.05,0.2,0.02,0.42c-0.06,0.31-0.34,0.57-0.34,0.57
			c0.55,0,0.78-0.63,0.78-0.63c0.42,0.49-0.25,1.12-0.25,1.12s0.08,0.03,0.2,0c0.15-0.04,0.26-0.07,0.36-0.19
			c0.1-0.12-0.01,0.28-0.27,0.45c-0.45,0.29-0.92,0.31-0.92,0.31c0.09,0.22,0.46,0.26,0.68,0.24c0.29-0.03,0.53-0.23,0.53-0.23
			c0.33,0.59-0.53,0.97-0.59,1c0.24,0.18,0.43,0.27,0.56,0.29c0.06,0.01,0.11,0,0.15-0.01c0.03,0-0.07,0.15-0.31,0.12
			c-0.4-0.04-0.75-0.17-0.75-0.17c0.54,1.14,1.19,1.09,1.24,1.09c0,0,0,0.5-0.7,0.5c-0.04,0-0.07,0-0.11-0.01
			c-0.26-0.04-0.48-0.21-0.51-0.23c0.01,0.37,0.83,0.76,0.83,0.76c0.04,0.04-0.18,0.12-0.48,0.07c-0.15-0.02-0.32-0.08-0.48-0.19
			c-0.38-0.26-0.69-0.81-0.71-0.86c-0.21,0.86,0.49,1.27,0.66,1.29c0.1,0.01-0.16,0.14-0.42,0.09c-0.05-0.01-0.1-0.02-0.14-0.04
			c-0.49-0.21-0.76-0.72-0.79-0.76c-0.01,0.04-0.1,0.47,0.25,0.88c0.01,0.01-0.02,0.02-0.07,0.01c-0.06-0.01-0.14-0.04-0.21-0.08
			c-0.27-0.19-0.49-0.5-0.53-0.9c-0.24,0.04-0.4,0.27-0.49,0.46c-0.08,0.17-0.08,0.38,0.01,0.53c0.13,0.22,0.25,0.32,0.42,0.36
			c0.14,0.03,0.29,0.02,0.43,0.05c0.12,0.02,0.24,0.06,0.33,0.17c0.13,0.16,0.03,0.52-0.18,0.47c0,0,0.07-0.17-0.07-0.31
			c-0.05-0.04-0.1-0.06-0.15-0.07c-0.11-0.02-0.2,0.03-0.26,0.14c-0.13,0.24,0.35,0.54,0.58,0.63c0,0,0.12,0.08,0.26,0.1
			c0.14,0.02,0.28-0.02,0.32-0.27c-0.05-0.05-0.18-0.07-0.17-0.3c0-0.19,0.16-0.27,0.16-0.27c0.05-0.23,0.4-0.21,0.4-0.21
			c0.03,0.01,0,0.02-0.01,0.03c-0.09,0.03-0.11,0.11-0.09,0.17c0.02,0.06,0.19,0.17,0.05,0.53c0.02,0,0.18,0.01,0.21-0.25
			c0.01-0.1-0.02-0.19,0.02-0.27c0.03-0.07,0.13-0.12,0.23-0.09c0.1-0.04,0.19-0.05,0.25-0.04c0.19,0.03,0.24,0.21,0.24,0.21
			s0,0.02-0.02,0.02c-0.02-0.01-0.04-0.01-0.07-0.02c-0.09-0.01-0.21-0.01-0.19,0.06c0.01,0.05,0.05,0.11-0.05,0.24
			c-0.14,0.19-0.45,0.05-0.36,0.44c0.01-0.02,0.09-0.12,0.26-0.11c0.14,0.01,0.29,0.18,0.29,0.41c0,0.09-0.04,0.16-0.12,0.22
			c0,0-0.01-0.01-0.01-0.03c0.02-0.1-0.02-0.18-0.09-0.19c-0.15-0.01-0.1,0.1-0.28,0.09c-0.02,0-0.05,0-0.07-0.01
			c-0.07-0.01-0.11-0.03-0.15-0.04c-0.01,0-0.03,0-0.04,0c-0.23,0.03-0.52,0.2-0.62,0.35c-0.1,0.16,0.01,0.2-0.08,0.35
			C11.61,29.01,11.52,29,11.52,29s0,0.04,0,0.08C11.52,29.1,11.53,29.12,11.53,29.13 M10.93,29.36c0.14-0.04,0.3-0.1,0.46-0.17
			c-0.02-0.03-0.04-0.06-0.05-0.11c-0.01-0.04-0.02-0.08-0.02-0.13c0,0-0.13-0.12-0.07-0.28c0.07-0.19,0.24-0.14,0.17-0.37
			c-0.08-0.26-0.57-0.68-0.88-0.73c-0.08-0.01-0.14,0-0.18,0.04c-0.1,0.1-0.13,0.36,0.21,0.38c-0.07,0.14-0.18,0.18-0.37,0.13
			c-0.15-0.03-0.31-0.27-0.25-0.57c0.08-0.4-0.17-0.71-0.41-0.75c-0.03,0-0.07,0-0.1,0c-0.28,0.05-0.24,0.46-0.24,0.46l0.14,1.61
			c-0.01,0.05,0.01,0.12,0.06,0.2c0.09,0.15,0.28,0.33,0.55,0.38c0.23,0.04,0.41-0.01,0.47-0.09c0.02-0.02,0.12-0.17,0.07-0.29
			c-0.02-0.04-0.05-0.07-0.09-0.09c-0.01-0.01-0.03-0.01-0.04-0.01c-0.08-0.01-0.14,0.07-0.15,0.06c-0.04-0.11,0.02-0.31,0.32-0.25
			c0.2,0.04,0.27,0.17,0.29,0.3c0.02,0.16-0.03,0.31-0.03,0.31S10.84,29.37,10.93,29.36 M10.1,29.93c0-0.02-0.01-0.07,0-0.13
			c-0.22-0.06-0.46-0.1-0.59-0.17c-0.25-0.12-0.35-0.28-0.35-0.28s-0.01,0.02-0.01,0.11c0.05,0.47,0.33,0.49,0.62,0.55
			c0.12,0.03,0.26,0.11,0.34,0.24V29.93z M20.25,38.99c-0.04,0.09-0.04,0.26,0.02,0.35c0.23,0.31,1.16,0.41,1.59,0.01
			C21.3,39.26,20.78,39.12,20.25,38.99 M22.82,38.13c0.14,0.19,0.3,0.33,0.46,0.36c0.46-0.09,0.89-1.09,0.88-1.34
			c0.02-0.11-0.08-0.23-0.06-0.27c0.02-0.04,0.24,0.04,0.36,0.04c0.12,0,0.38-0.12,0.56-0.12c0.34,0,0.38,0.19,0.44,0.21
			c0.05,0.02,0.12-0.01,0.22,0.04c0.1,0.05,0.25,0.19,0.2,0.33c-0.16,0.02-0.24-0.01-0.32-0.01c-0.12,0-0.27,0.12-0.28,0.21
			c0,0.01,0.33,0.03,0.49,0.04c0.51,0.02,0.34-0.3,0.34-0.31c-0.01-0.06,0.28,0,0.28,0.24c0,0.19-0.33,0.3-0.61,0.28
			c-0.22-0.02-0.47-0.12-0.53-0.13c-0.02,0-0.17,0.3,0.07,0.3c0.09,0,0.19-0.06,0.19-0.06c0.05,0,0.13,0.14-0.19,0.21
			c-0.45,0.1-0.68,0.11-0.79,0.4c-0.08,0.22-0.05,0.46,0.07,0.65c0.34,0.56,1.44,0.48,1.7,0.13c0.09-0.12,0.1-0.28,0-0.28
			c-0.31,0.03-0.78,0.08-0.81-0.31c0-0.32,0.56-0.32,1.06-0.84c0.4-0.41,0.48-0.67,0.52-0.88c0.01-0.06,0.01-0.26,0.01-0.26
			c0.01-0.06,0.16,0.19,0.18,0.23c0.11,0.3,0.03,0.63,0.03,0.63c0.12-0.1,0.27-0.27,0.33-0.39c0.04-0.07,0.1-0.17,0.12-0.23
			c0.04-0.08,0.06,0.2,0.02,0.42C27.71,37.74,27.43,38,27.43,38c0.55,0,0.78-0.63,0.78-0.63c0.42,0.49-0.25,1.12-0.25,1.12
			s0.08,0.03,0.2,0c0.15-0.04,0.26-0.08,0.36-0.19c0.1-0.12-0.01,0.28-0.28,0.45c-0.45,0.29-0.92,0.31-0.92,0.31
			c0.09,0.21,0.47,0.26,0.68,0.24c0.29-0.03,0.53-0.23,0.53-0.23c0.33,0.59-0.53,0.97-0.59,1c0.24,0.18,0.43,0.27,0.56,0.29
			c0.06,0.01,0.11,0,0.15-0.01c0.03,0-0.07,0.15-0.31,0.12c-0.4-0.04-0.75-0.17-0.75-0.17c0.54,1.14,1.19,1.09,1.24,1.09
			c0,0,0,0.5-0.7,0.5c-0.04,0-0.07,0-0.11-0.01c-0.26-0.04-0.48-0.21-0.51-0.23c0.01,0.37,0.83,0.76,0.83,0.76
			c0.04,0.04-0.18,0.12-0.48,0.08c-0.15-0.02-0.32-0.08-0.48-0.19c-0.38-0.26-0.69-0.81-0.71-0.86c-0.21,0.86,0.49,1.26,0.66,1.29
			c0.1,0.01-0.16,0.13-0.42,0.09c-0.05-0.01-0.1-0.02-0.15-0.04c-0.49-0.21-0.76-0.71-0.79-0.76c-0.01,0.04-0.1,0.47,0.25,0.88
			c0.01,0.01-0.02,0.02-0.07,0.01c-0.06-0.01-0.15-0.04-0.21-0.08c-0.27-0.19-0.49-0.5-0.53-0.9c-0.24,0.04-0.4,0.27-0.49,0.46
			c-0.08,0.17-0.08,0.38,0.01,0.53c0.12,0.22,0.25,0.32,0.42,0.36c0.14,0.03,0.29,0.02,0.43,0.05c0.12,0.02,0.24,0.06,0.33,0.17
			c0.13,0.16,0.03,0.52-0.18,0.47c0,0,0.07-0.17-0.07-0.31c-0.05-0.04-0.1-0.06-0.15-0.07c-0.11-0.02-0.2,0.03-0.26,0.14
			c-0.13,0.24,0.35,0.54,0.58,0.63c0,0,0.12,0.08,0.26,0.1c0.14,0.02,0.28-0.02,0.32-0.27c-0.05-0.05-0.18-0.07-0.17-0.3
			c0-0.19,0.16-0.27,0.16-0.27c0.05-0.23,0.4-0.21,0.4-0.21c0.03,0.01,0,0.02-0.02,0.03c-0.09,0.03-0.11,0.11-0.09,0.17
			c0.02,0.06,0.19,0.17,0.05,0.53c0.02,0,0.18,0.01,0.21-0.25c0.01-0.1-0.02-0.19,0.02-0.27c0.04-0.07,0.13-0.12,0.23-0.09
			c0.1-0.04,0.19-0.05,0.25-0.04c0.19,0.03,0.24,0.21,0.24,0.21s0,0.02-0.02,0.02c-0.02-0.01-0.04-0.01-0.07-0.02
			c-0.09-0.01-0.21-0.01-0.19,0.06c0.01,0.05,0.05,0.11-0.05,0.24c-0.15,0.19-0.45,0.06-0.36,0.44c0.01-0.02,0.09-0.12,0.26-0.11
			c0.14,0.01,0.29,0.18,0.29,0.41c0,0.09-0.04,0.16-0.12,0.22c0,0-0.01-0.01-0.01-0.02c0.03-0.11-0.02-0.18-0.1-0.19
			c-0.15-0.01-0.1,0.1-0.28,0.09c-0.02,0-0.05,0-0.07,0c-0.07-0.01-0.11-0.03-0.15-0.04c-0.01,0-0.03,0-0.04,0
			c-0.23,0.03-0.52,0.2-0.62,0.36c-0.1,0.16,0.01,0.2-0.08,0.35c-0.08,0.12-0.17,0.12-0.17,0.12s0,0.04,0,0.08
			c0.01,0.06,0.03,0.14,0.11,0.16c0,0,0.02,0.01,0,0.02c-0.02,0.01-0.07,0.02-0.12,0.01c-0.06-0.01-0.13-0.05-0.17-0.19
			c-0.01-0.04-0.02-0.08-0.02-0.13c0,0-0.13-0.12-0.07-0.28c0.07-0.19,0.25-0.13,0.17-0.37c-0.08-0.26-0.57-0.68-0.88-0.73
			c-0.07-0.01-0.14,0-0.18,0.04c-0.11,0.09-0.13,0.36,0.21,0.38c-0.07,0.14-0.18,0.18-0.37,0.13c-0.15-0.04-0.31-0.27-0.25-0.57
			c0.08-0.4-0.17-0.71-0.41-0.75c-0.03,0-0.07,0-0.1,0c-0.28,0.05-0.24,0.46-0.24,0.46l0.14,1.61c-0.01,0.05,0.01,0.12,0.06,0.21
			c0.09,0.15,0.28,0.33,0.55,0.38c0.23,0.04,0.41-0.01,0.47-0.09c0.02-0.03,0.11-0.17,0.07-0.29c-0.02-0.04-0.05-0.07-0.09-0.09
			c-0.01-0.01-0.03-0.01-0.04-0.01c-0.08-0.01-0.14,0.07-0.16,0.06c-0.04-0.11,0.02-0.31,0.32-0.25c0.2,0.04,0.27,0.17,0.29,0.3
			c0.02,0.16-0.03,0.31-0.03,0.31s0.17-0.06,0.38-0.03c0.02,0,0.04,0.01,0.06,0.01c0.16,0.07,0.27,0.14,0.3,0.31
			c0.03,0.2-0.15,0.29-0.15,0.29s0.05-0.14-0.1-0.23c-0.04-0.02-0.08-0.03-0.11-0.04c-0.2-0.03-0.3,0.17-0.29,0.33
			c0.01,0.24-0.05,0.44-0.23,0.46c-0.04,0-0.08,0-0.11,0c-0.13-0.02-0.14-0.1-0.14-0.1s0.2,0.02,0.19-0.16
			c0.02-0.45-0.77-0.44-1.06-0.59c-0.25-0.12-0.35-0.27-0.35-0.27s-0.02,0.02-0.01,0.11c0.05,0.47,0.33,0.49,0.62,0.56
			c0.19,0.05,0.4,0.21,0.4,0.47c0,0.38-0.25,0.34-0.25,0.34s0.1-0.3-0.17-0.34c-0.02,0-0.04,0-0.07,0c-0.15,0-0.24,0.08-0.33,0.15
			c-0.15,0.12-0.58,0.62-0.66,0.7c-0.08-0.08-0.52-0.59-0.66-0.7c-0.09-0.07-0.18-0.15-0.33-0.15c-0.02,0-0.05,0-0.07,0
			c-0.27,0.04-0.17,0.34-0.17,0.34s-0.25,0.04-0.25-0.34c0-0.27,0.21-0.42,0.4-0.47c0.28-0.07,0.56-0.08,0.62-0.56
			c0-0.09-0.01-0.11-0.01-0.11s-0.1,0.15-0.35,0.27c-0.29,0.15-1.08,0.14-1.06,0.59C21.38,47.02,21.58,47,21.58,47
			s-0.01,0.08-0.14,0.1c-0.03,0-0.06,0.01-0.11,0c-0.18-0.03-0.24-0.22-0.23-0.46c0.01-0.15-0.09-0.36-0.29-0.33
			c-0.04,0-0.07,0.02-0.11,0.04c-0.15,0.09-0.1,0.23-0.1,0.23s-0.17-0.1-0.15-0.29c0.02-0.17,0.14-0.25,0.3-0.31
			c0.02,0,0.04-0.01,0.06-0.01c0.21-0.03,0.38,0.03,0.38,0.03s-0.05-0.16-0.03-0.31c0.02-0.13,0.09-0.27,0.29-0.3
			c0.3-0.06,0.36,0.14,0.32,0.25c-0.02,0.01-0.07-0.07-0.15-0.06c-0.01,0-0.03,0.01-0.04,0.01c-0.05,0.03-0.08,0.06-0.09,0.09
			c-0.05,0.12,0.05,0.27,0.06,0.29c0.06,0.08,0.24,0.13,0.47,0.09c0.27-0.06,0.46-0.23,0.55-0.38c0.05-0.08,0.07-0.16,0.06-0.21
			l0.14-1.61c0,0,0.05-0.41-0.24-0.46c-0.03-0.01-0.07-0.01-0.1,0c-0.24,0.04-0.49,0.36-0.41,0.75c0.06,0.3-0.1,0.54-0.25,0.57
			c-0.19,0.04-0.31,0.01-0.37-0.13c0.33-0.02,0.31-0.29,0.21-0.38c-0.04-0.04-0.11-0.05-0.18-0.04c-0.31,0.05-0.8,0.48-0.88,0.73
			c-0.07,0.23,0.1,0.17,0.17,0.37c0.06,0.16-0.07,0.28-0.07,0.28c0,0.05-0.01,0.1-0.02,0.13c-0.03,0.13-0.11,0.18-0.17,0.19
			c-0.05,0.01-0.1-0.01-0.12-0.01c0.08-0.04,0.11-0.11,0.12-0.17c0-0.04,0-0.08,0-0.08s-0.09,0.01-0.17-0.12
			c-0.09-0.15,0.02-0.19-0.08-0.35c-0.11-0.16-0.4-0.33-0.62-0.36c-0.02,0-0.03,0-0.04,0c-0.05,0.01-0.09,0.03-0.15,0.04
			c-0.02,0-0.04,0-0.07,0c-0.18,0-0.13-0.1-0.28-0.09c-0.08,0.02-0.12,0.09-0.1,0.19c0,0.01-0.01,0.02-0.01,0.02
			c-0.08-0.05-0.12-0.13-0.12-0.22c0-0.23,0.15-0.4,0.29-0.41c0.17-0.02,0.24,0.09,0.26,0.11c0.09-0.39-0.21-0.25-0.36-0.44
			c-0.1-0.13-0.06-0.19-0.05-0.24c0.02-0.07-0.1-0.08-0.19-0.06c-0.03,0-0.05,0.01-0.07,0.02c-0.02-0.02,0.03-0.2,0.22-0.23
			c0.07-0.01,0.15,0,0.25,0.04c0.1-0.03,0.19,0.02,0.23,0.09c0.04,0.08,0.01,0.17,0.02,0.27c0.03,0.26,0.19,0.25,0.21,0.25
			c-0.14-0.37,0.04-0.47,0.05-0.53c0.02-0.06,0-0.14-0.09-0.17c-0.02-0.01-0.05-0.02-0.02-0.03c0,0,0.35-0.01,0.41,0.21
			c0,0,0.15,0.08,0.15,0.27c0,0.24-0.12,0.26-0.17,0.3c0.04,0.25,0.18,0.29,0.32,0.27c0.13-0.02,0.26-0.1,0.26-0.1
			c0.23-0.09,0.71-0.39,0.58-0.63c-0.06-0.11-0.16-0.16-0.26-0.14c-0.05,0.01-0.1,0.03-0.15,0.07c-0.14,0.13-0.07,0.31-0.07,0.31
			c-0.21,0.06-0.31-0.31-0.18-0.47c0.09-0.11,0.21-0.15,0.33-0.17c0.14-0.02,0.29-0.02,0.43-0.05c0.17-0.04,0.3-0.14,0.42-0.36
			c0.09-0.15,0.09-0.36,0.02-0.53c-0.08-0.18-0.25-0.41-0.49-0.46c-0.05,0.4-0.26,0.71-0.53,0.9c-0.07,0.05-0.15,0.07-0.21,0.08
			c-0.05,0.01-0.08,0-0.07-0.01c0.35-0.41,0.26-0.84,0.25-0.88c-0.02,0.05-0.3,0.55-0.78,0.76c-0.05,0.02-0.1,0.03-0.15,0.04
			c-0.26,0.04-0.52-0.08-0.42-0.09c0.17-0.02,0.87-0.43,0.66-1.29c-0.03,0.05-0.33,0.6-0.71,0.86c-0.16,0.11-0.33,0.17-0.48,0.19
			c-0.3,0.05-0.52-0.04-0.48-0.08c0,0,0.82-0.39,0.83-0.76c-0.03,0.02-0.25,0.19-0.51,0.23c-0.04,0-0.07,0.01-0.11,0.01
			c-0.7,0-0.7-0.5-0.7-0.5c0.05,0,0.7,0.05,1.24-1.09c0,0-0.35,0.12-0.75,0.17c-0.24,0.03-0.34-0.12-0.31-0.12
			c0.04,0.01,0.09,0.02,0.15,0.01c0.13-0.02,0.32-0.1,0.56-0.29c-0.06-0.03-0.92-0.41-0.59-1c0,0,0.24,0.21,0.53,0.23
			c0.21,0.02,0.59-0.02,0.68-0.24c0,0-0.46-0.03-0.92-0.31c-0.01-0.01-0.03-0.02-0.04-0.03c-0.21,0-0.42,0.01-0.64,0.03
			c-0.15,0.58-0.62,1-1.19,1c-0.56,0-1.04-0.42-1.19-0.99c-0.37-0.07-0.72-0.07-1.07-0.05l-8.05,8.57c0.78,0.73,1.63,1.34,2.51,1.86
			l7.53-8.01v4.24l-4.73,5.03c1.72,0.58,3.45,0.84,4.99,0.84c5.87,0,14.64-3.85,14.44-14.61v-6.92l-3.76,4.01h-3.98l7.75-8.25v-4.54
			l-8.12,8.65c0.04,0.03,0.06,0.07,0.06,0.1L22.82,38.13z M21.94,40.72h2.67v-1.07h-2.67L21.94,40.72z M23.28,42.82
			c1.2,0,1.31-1.13,1.31-1.13h-2.62C21.97,41.68,22.08,42.82,23.28,42.82 M7.34,24.12h2.67v-1.07H7.34L7.34,24.12z M8.68,26.21
			c1.2,0,1.31-1.14,1.31-1.14H7.37C7.37,25.08,7.48,26.21,8.68,26.21 M15.89,38.57c0,0.32,0.26,0.58,0.58,0.58
			c0.32,0,0.58-0.26,0.58-0.58c0-0.32-0.26-0.58-0.58-0.58C16.15,37.99,15.89,38.25,15.89,38.57 M10.47,29.91v8.81
			c0,0,0.1,0.12,0.69-0.04c0.68-0.19,1.52-1.05,2.7-1.31c0.88-0.19,2.08,0.09,2.35,0.28v-8.83c0,0-0.53-0.52-1.41-0.52
			c-0.86,0-2.3,0.77-2.86,1.05c-0.48,0.24-0.99,0.42-1.36,0.46C10.46,29.82,10.47,29.91,10.47,29.91 M18.19,37.35
			c1.53,0,2.33,0.95,2.85,1.16c1.21,0.48,1.41,0.23,1.41,0.23v-8.86c0-0.09-0.13-0.09-0.13-0.09s-1.18-0.18-1.58-0.43
			c-0.38-0.23-1.82-1.09-2.87-1.09c-1.05,0-1.24,0.45-1.24,0.45v8.95C16.63,37.67,17.12,37.35,18.19,37.35"/>
	</g>
</g>
</svg>
