<?xml version="1.0" encoding="UTF-8" standalone="no"?>
<!-- Created with Inkscape (http://www.inkscape.org/) -->

<svg
   xmlns:dc="http://purl.org/dc/elements/1.1/"
   xmlns:cc="http://creativecommons.org/ns#"
   xmlns:rdf="http://www.w3.org/1999/02/22-rdf-syntax-ns#"
   xmlns:svg="http://www.w3.org/2000/svg"
   xmlns="http://www.w3.org/2000/svg"
   xmlns:sodipodi="http://sodipodi.sourceforge.net/DTD/sodipodi-0.dtd"
   xmlns:inkscape="http://www.inkscape.org/namespaces/inkscape"
   width="109.0748mm"
   height="62.713501mm"
   viewBox="0 0 386.48551 222.2132"
   id="svg2"
   version="1.1"
   inkscape:version="0.92.3 (2405546, 2018-03-11)"
   sodipodi:docname="header-pl.svg">
  <defs
     id="defs4" />
  <sodipodi:namedview
     id="base"
     pagecolor="#ffffff"
     bordercolor="#666666"
     borderopacity="1.0"
     inkscape:pageopacity="0.0"
     inkscape:pageshadow="2"
     inkscape:zoom="1.4"
     inkscape:cx="130.01246"
     inkscape:cy="234.40045"
     inkscape:document-units="px"
     inkscape:current-layer="g3344"
     showgrid="false"
     fit-margin-top="4.09"
     fit-margin-left="6.819"
     fit-margin-right="6.819"
     fit-margin-bottom="17.819"
     inkscape:window-width="1853"
     inkscape:window-height="1025"
     inkscape:window-x="67"
     inkscape:window-y="27"
     inkscape:window-maximized="1" />
  <metadata
     id="metadata7">
    <rdf:RDF>
      <cc:Work
         rdf:about="">
        <dc:format>image/svg+xml</dc:format>
        <dc:type
           rdf:resource="http://purl.org/dc/dcmitype/StillImage" />
        <dc:title></dc:title>
      </cc:Work>
    </rdf:RDF>
  </metadata>
  <g
     inkscape:label="Layer 1"
     inkscape:groupmode="layer"
     id="layer1"
     transform="translate(-66.630189,-355.52572)">
    <g
       transform="matrix(1.25,0,0,-1.25,-2132.795,2989.6126)"
       inkscape:label="asm_pds_pl_c"
       id="g3344">
      <path
         inkscape:connector-curvature="0"
         id="path3444"
         style="fill:#1c58aa;fill-opacity:1;fill-rule:evenodd;stroke:none"
         d="m 1848.455,2014.8009 c -7e-4,-19.2142 -15.5781,-34.7907 -34.794,-34.7914 -19.2157,-8e-4 -34.7922,15.5744 -34.7914,34.7887 v 41.5147 h 69.5809 l 6e-4,-41.5147 z" />
      <path
         inkscape:connector-curvature="0"
         id="path3446"
         style="fill:#fbc707;fill-opacity:1;fill-rule:evenodd;stroke:none"
         d="m 1823.3898,2032.1782 3.6352,-2.8416 -18.9951,-24.3188 -3.6352,2.8415 z" />
      <path
         inkscape:connector-curvature="0"
         id="path3448"
         style="fill:#fbc707;fill-opacity:1;fill-rule:evenodd;stroke:none"
         d="m 1799.687,1991.4769 c -0.6311,-0.7543 -1.7603,-0.8583 -2.4225,-0.35 l -3.6876,2.8811 c -0.6584,0.5143 -0.8938,1.5914 -0.2666,2.3948 l 0.5329,0.6824 c 0.6415,0.821 1.7288,0.8332 2.3894,0.2998 l 3.6842,-2.8713 c 0.6688,-0.5297 0.8303,-1.6575 0.3184,-2.3353 z" />
      <path
         inkscape:connector-curvature="0"
         id="path3450"
         style="fill:#fbc707;fill-opacity:1;fill-rule:evenodd;stroke:none"
         d="m 1826.9758,2044.6441 -1.1387,-2.4623 c -0.054,-0.1065 -0.012,-0.3558 0.1149,-0.4603 0.9435,-0.8097 1.4046,-2.1241 1.3164,-3.2135 8e-4,-1.1881 -0.3994,-2.0284 -1.4375,-3.2075 l 3.65,-2.8518 c 0.8928,1.2926 1.6115,1.884 2.7644,2.1708 1.0359,0.3493 2.4227,0.2197 3.4367,-0.4999 0.132,-0.098 0.384,-0.078 0.4743,-3e-4 l 2.1138,1.7007 z" />
      <path
         inkscape:connector-curvature="0"
         id="path3452"
         style="fill:#fbc707;fill-opacity:1;fill-rule:evenodd;stroke:none"
         d="m 1838.8232,2036.2819 5.739,4.4644 c 0.087,0.068 0.063,0.4055 -0.2539,0.3422 l -3.5284,-0.3285 0.024,2.5119 c 0.011,0.1614 -0.2301,0.3775 -0.3973,0.3244 l -2.4218,-0.6684 1.1755,5.3509 c 0.026,0.099 -0.024,0.2009 -0.063,0.239 -0.046,0.029 -0.1589,0.053 -0.2483,0 l -4.9075,-2.4349 0.063,2.5113 c 0.011,0.1751 -0.2569,0.3565 -0.4109,0.3069 l -2.4315,-0.6313 -0.5347,3.5029 c -0.015,0.3225 -0.3482,0.2644 -0.3934,0.1638 l -2.9435,-6.6485 11.533,-9.0107 z" />
      <path
         inkscape:connector-curvature="0"
         id="path3454"
         style="fill:#fbc707;fill-opacity:1;fill-rule:evenodd;stroke:none"
         d="m 1829.4122,2031.5784 c 1.014,-0.7767 -0.5191,-2.8209 -1.5733,-2.0135 l -4.409,3.4448 c -1.0383,0.8275 0.5743,2.8096 1.5732,2.0136 z" />
      <path
         inkscape:connector-curvature="0"
         id="path3456"
         style="fill:#fbc707;fill-opacity:1;fill-rule:evenodd;stroke:none"
         d="m 1807.9622,2004.1241 c 1.0141,-0.7767 -0.519,-2.8209 -1.5732,-2.0137 l -4.4091,3.4448 c -1.0383,0.8276 0.5742,2.8096 1.5733,2.0137 z" />
      <path
         inkscape:connector-curvature="0"
         id="path3458"
         style="fill:#fbc707;fill-opacity:1;fill-rule:evenodd;stroke:none"
         d="m 1801.9185,2004.6658 3.642,-2.8454 -5.2467,-6.7153 -3.642,2.8454 z" />
      <path
         inkscape:connector-curvature="0"
         id="path3460"
         style="fill:#fbc707;fill-opacity:1;fill-rule:evenodd;stroke:none"
         d="m 1817.0371,2015.4326 5.9749,-7.6497 -3.6351,-2.8414 -5.2672,6.7433 z m -13.1394,16.8219 9.3404,-11.9583 -2.9272,-3.7477 -10.0484,12.8644 z" />
      <path
         inkscape:connector-curvature="0"
         id="path3462"
         style="fill:#fbc707;fill-opacity:1;fill-rule:evenodd;stroke:none"
         d="m 1827.7197,1991.4005 c 0.6312,-0.7543 1.7602,-0.8582 2.4226,-0.3499 l 3.6876,2.8811 c 0.6582,0.5143 0.8938,1.5913 0.2666,2.3948 l -0.533,0.6824 c -0.6416,0.821 -1.7287,0.8332 -2.3895,0.2996 l -3.6841,-2.8712 c -0.6689,-0.5296 -0.8303,-1.6576 -0.3184,-2.3352 z" />
      <path
         inkscape:connector-curvature="0"
         id="path3464"
         style="fill:#fbc707;fill-opacity:1;fill-rule:evenodd;stroke:none"
         d="m 1800.3117,2044.7204 1.1387,-2.4621 c 0.054,-0.1067 0.012,-0.356 -0.1149,-0.4604 -0.9433,-0.8097 -1.4046,-2.1241 -1.3163,-3.2136 -8e-4,-1.1881 0.3993,-2.0284 1.4374,-3.2075 l -3.65,-2.8517 c -0.8928,1.2925 -1.6115,1.884 -2.7644,2.1707 -1.0358,0.3493 -2.4227,0.2197 -3.4367,-0.4998 -0.1319,-0.098 -0.3839,-0.078 -0.4743,-2e-4 l -2.1138,1.7006 z" />
      <path
         inkscape:connector-curvature="0"
         id="path3466"
         style="fill:#fbc707;fill-opacity:1;fill-rule:evenodd;stroke:none"
         d="m 1788.4643,2036.3583 -5.7389,4.4643 c -0.087,0.068 -0.063,0.4055 0.2539,0.3421 l 3.5285,-0.3284 -0.025,2.512 c -0.011,0.1613 0.23,0.3774 0.3974,0.3244 l 2.4216,-0.6684 -1.1755,5.3509 c -0.026,0.099 0.024,0.2009 0.063,0.239 0.046,0.029 0.159,0.053 0.2483,0 l 4.9076,-2.435 -0.063,2.5114 c -0.011,0.1751 0.2568,0.3565 0.4108,0.3069 l 2.4315,-0.6313 0.5348,3.5029 c 0.015,0.3225 0.3481,0.2644 0.3934,0.1636 l 2.9434,-6.6485 -11.533,-9.0105 z" />
      <path
         inkscape:connector-curvature="0"
         id="path3468"
         style="fill:#fbc707;fill-opacity:1;fill-rule:evenodd;stroke:none"
         d="m 1797.8753,2031.6549 c -1.0139,-0.7768 0.5191,-2.821 1.5733,-2.0136 l 4.4091,3.4447 c 1.0382,0.8275 -0.5744,2.8097 -1.5733,2.0137 z" />
      <path
         inkscape:connector-curvature="0"
         id="path3470"
         style="fill:#fbc707;fill-opacity:1;fill-rule:evenodd;stroke:none"
         d="m 1819.4445,2004.0477 c -1.014,-0.7768 0.5191,-2.8208 1.5733,-2.0136 l 4.409,3.4447 c 1.0384,0.8277 -0.5742,2.8097 -1.5732,2.0137 z" />
      <path
         inkscape:connector-curvature="0"
         id="path3472"
         style="fill:#fbc707;fill-opacity:1;fill-rule:evenodd;stroke:none"
         d="m 1825.4882,2004.5895 -3.6419,-2.8454 5.2467,-6.7153 3.6419,2.8454 z" />
      <path
         inkscape:connector-curvature="0"
         id="path3474"
         style="fill:#1c58aa;fill-opacity:1;fill-rule:nonzero;stroke:none"
         d="m 1792.5159,2059.5266 -1.741,4.6994 -3.5496,9.3433 c -2.5753,6.7805 -5.1677,13.6084 -5.2736,13.8244 l -0.2313,0.6741 c 0,0 0.105,0.315 0.3358,0.3989 0.1679,0.1048 1.3432,-0.5246 2.5043,-0.8925 0.8107,-0.2569 1.7844,-0.6888 2.9471,-0.9497 1.2288,-0.2874 1.7361,-0.5103 2.5913,-1.6858 0.393,-0.6228 0.3886,-1.6062 0.3652,-2.2698 1.1222,2.054 2.7378,3.3823 5.3243,2.9949 3.0641,-0.3828 4.3085,-4.5196 2.5494,-6.2017 -0.5409,-0.6438 -1.7529,-1.7905 -0.562,-2.4748 0.2472,-0.099 0.5418,-0.03 0.5418,-0.03 0,0 -0.1212,-0.6411 -0.3222,-0.9292 -0.5759,-0.8442 -2.7415,-1.7944 -3.8701,-0.1787 -0.4781,0.7478 -0.562,1.1719 -0.368,2.0081 l 0.1789,0.7302 c -0.018,0.4502 -0.6041,0.7324 -1.1949,0.5581 -0.2224,-0.079 -0.683,-0.4356 -0.7643,-1.7549 -0.2391,-3.272 1.7671,-7.5666 6.2051,-6.3845 2.2345,0.5954 2.8294,1.4433 2.9099,2.6802 -0.9802,0.3305 -1.6857,1.257 -1.6857,2.3488 0,1.3689 0.9396,2.4783 2.3084,2.4783 1.3686,0 2.4784,-1.1094 2.4784,-2.4783 0,-0.7675 -0.3493,-1.4531 -0.8955,-1.9069 0.5166,-1.1873 1.174,-1.8638 3.5559,-1.6521 4.5747,0.4067 5.1285,5.1521 3.7849,8.1447 -0.5364,1.2325 -1.1017,1.3951 -1.3303,1.3872 -0.6093,-0.043 -1.0563,-0.5058 -0.9201,-0.9326 l 0.4181,-0.625 c 0.4683,-0.7195 0.5344,-1.1465 0.3408,-2.0127 -0.5079,-1.904 -2.8679,-1.7522 -3.6979,-1.1557 -0.352,0.2644 -0.6293,0.8188 -0.6293,0.8188 0,0 0.4332,0.017 0.5079,0.1572 0.8904,1.0569 -0.6621,1.7188 -1.3909,2.1429 -2.2117,0.9948 -2.4571,5.2924 0.2964,6.6928 2.197,1.1939 3.7587,0.649 5.3568,-0.5066 0.1633,-0.1181 0.307,-0.2954 0.4142,-0.4143 -0.093,0.2156 -0.1255,0.251 -0.2341,0.4678 -0.1115,0.2393 -0.2416,0.5134 -0.2626,0.8171 -0.1503,0.9322 0.015,1.9065 0.4186,2.6358 0.4034,0.696 0.9748,1.2637 1.4702,1.8906 0.5367,0.6792 1.1456,1.5152 1.6932,2.8772 0.086,0.1514 0.2676,0.6655 0.4009,0.7422 0.043,0.037 0.094,0.059 0.1962,0.072 0.1028,-0.013 0.1666,-0.036 0.2092,-0.072 0.1334,-0.077 0.3148,-0.5908 0.4009,-0.7422 0.5476,-1.362 1.1565,-2.198 1.6932,-2.8772 0.4954,-0.6269 1.0668,-1.1946 1.4702,-1.8906 0.4037,-0.7293 0.5689,-1.7036 0.4186,-2.6358 -0.021,-0.3037 -0.1511,-0.5778 -0.2626,-0.8171 -0.1085,-0.2168 -0.1407,-0.2522 -0.234,-0.4678 0.1071,0.1189 0.2508,0.2962 0.4141,0.4143 1.5981,1.1556 3.1599,1.7005 5.3568,0.5066 2.7535,-1.4004 2.5082,-5.698 0.2965,-6.6928 -0.7289,-0.4241 -2.2814,-1.086 -1.3911,-2.1429 0.075,-0.1399 0.5081,-0.1572 0.5081,-0.1572 0,0 -0.2774,-0.5544 -0.6294,-0.8188 -0.8299,-0.5965 -3.19,-0.7483 -3.6979,1.1557 -0.1936,0.8662 -0.1275,1.2932 0.3408,2.0127 l 0.4181,0.625 c 0.1362,0.4268 -0.3108,0.8892 -0.9199,0.9326 -0.2288,0.01 -0.7941,-0.1547 -1.3305,-1.3872 -1.3436,-2.9926 -0.7898,-7.738 3.7851,-8.1447 2.3817,-0.2117 3.0391,0.4648 3.5558,1.6521 -0.5463,0.4538 -0.8954,1.1394 -0.8954,1.9069 0,1.3689 1.1096,2.4783 2.4782,2.4783 1.3689,0 2.3084,-1.1094 2.3084,-2.4783 0,-1.0918 -0.7055,-2.0183 -1.6857,-2.3488 0.08,-1.2369 0.6754,-2.0848 2.9099,-2.6802 4.438,-1.1821 6.4442,3.1125 6.2051,6.3845 -0.081,1.3193 -0.5419,1.676 -0.7643,1.7549 -0.5908,0.1743 -1.1769,-0.1079 -1.1948,-0.5581 l 0.1788,-0.7302 c 0.194,-0.8362 0.1101,-1.2603 -0.368,-2.0081 -1.1285,-1.6157 -3.2942,-0.6655 -3.8701,0.1787 -0.2008,0.2881 -0.3222,0.9292 -0.3222,0.9292 0,0 0.2946,-0.069 0.5419,0.03 1.1907,0.6843 -0.021,1.831 -0.5621,2.4748 -1.7591,1.6821 -0.5147,5.8189 2.5495,6.2017 2.5866,0.3874 4.2021,-0.9409 5.3242,-2.9949 -0.023,0.6636 -0.028,1.647 0.3652,2.2698 0.8552,1.1755 1.3625,1.3984 2.5913,1.6858 1.1627,0.2609 2.1364,0.6928 2.9471,0.9497 1.1611,0.3679 2.3364,0.9973 2.5043,0.8925 0.2308,-0.084 0.3358,-0.3989 0.3358,-0.3989 l -0.2313,-0.6741 c -0.1059,-0.216 -2.6983,-7.0439 -5.2736,-13.8244 l -3.5495,-9.3433 -1.7411,-4.6994 z" />
      <path
         inkscape:connector-curvature="0"
         id="path3476"
         style="fill:#fbc707;fill-opacity:1;fill-rule:nonzero;stroke:none"
         d="m 1792.9857,2060.3356 c -0.054,0.061 -10.2034,26.8855 -10.4145,27.3167 0.6722,-0.2083 2.3792,-1.1692 4.7752,-1.7073 0.7914,-0.185 1.3174,-0.2234 2.1733,-1.3999 0.4606,-0.7297 0.3716,-1.863 0.2415,-2.508 0.1041,-0.3213 0.6661,-0.5621 0.953,-0.1951 0.7219,1.2529 1.7661,3.6103 4.9161,3.1384 2.5756,-0.3144 3.4777,-3.8244 2.1444,-5.0464 -0.4859,-0.5857 -2.3271,-2.3916 -0.4056,-3.4961 -0.4618,-0.677 -2.0258,-1.2089 -2.7427,-0.1826 -0.5271,0.824 -0.3905,0.9488 -0.077,2.2669 0.063,1.2966 -1.4092,1.4646 -2.0445,1.2773 -0.5924,-0.1931 -1.1427,-0.8782 -1.2325,-2.3376 -0.2455,-3.3587 2.066,-8.4717 7.2106,-7.1014 2.8904,0.7703 3.1747,2.1832 3.1998,3.9151 -0.9452,0.053 -1.6954,0.8359 -1.6954,1.7944 0,0.9925 0.8047,1.7971 1.7972,1.7971 0.9927,0 1.7972,-0.8046 1.7972,-1.7971 0,-0.7156 -0.418,-1.3335 -1.0234,-1.6225 0.04,-0.1683 0.142,-0.4214 0.2084,-0.5887 0.5972,-1.3713 1.4756,-2.3383 4.1498,-2.1005 5.3028,0.4714 5.7264,6.0666 4.347,9.1389 -0.5836,1.3408 -1.335,1.7964 -1.9576,1.7751 -0.661,-0.041 -1.9866,-0.7024 -1.4843,-1.8994 0.7459,-1.1313 0.9168,-1.2019 0.7033,-2.1563 -0.3225,-1.2094 -1.9744,-1.2446 -2.6398,-0.7663 1.428,1.6951 -0.9198,2.7622 -1.5765,3.1462 -1.6708,0.6927 -2.0236,4.2993 0.2891,5.4756 2.7985,1.5208 4.5861,-0.3374 5.6929,-1.2678 0.395,-0.2468 0.8408,0.1716 0.8289,0.509 -0.2791,0.4571 -0.9012,1.0728 -0.9287,1.7979 -0.1329,0.7973 0.01,1.6152 0.3349,2.2036 0.6607,1.1401 1.9946,1.9961 3.1697,4.7742 1.175,-2.7781 2.503,-3.6341 3.1637,-4.7742 0.3257,-0.5884 0.4679,-1.4063 0.335,-2.2036 -0.028,-0.7251 -0.6497,-1.3408 -0.9286,-1.7979 -0.012,-0.3374 0.4337,-0.7558 0.8287,-0.509 1.1068,0.9304 2.8944,2.7886 5.6929,1.2678 2.3127,-1.1763 1.9601,-4.7829 0.2892,-5.4756 -0.6568,-0.384 -3.0046,-1.4511 -1.5766,-3.1462 -0.6654,-0.4783 -2.3172,-0.4431 -2.6398,0.7663 -0.2133,0.9544 -0.043,1.025 0.7033,2.1563 0.5023,1.197 -0.8232,1.8584 -1.4843,1.8994 -0.6225,0.021 -1.374,-0.4343 -1.9576,-1.7751 -1.3794,-3.0723 -0.9558,-8.6675 4.347,-9.1389 2.6742,-0.2378 3.5527,0.7292 4.1498,2.1005 0.066,0.1673 0.1685,0.4204 0.2084,0.5887 -0.6052,0.289 -1.0233,0.9069 -1.0233,1.6225 0,0.9925 0.8045,1.7971 1.7971,1.7971 0.9926,0 1.7972,-0.8046 1.7972,-1.7971 0,-0.9585 -0.7502,-1.7417 -1.6953,-1.7944 0.025,-1.7319 0.3094,-3.1448 3.1999,-3.9151 5.1444,-1.3703 7.4559,3.7427 7.2105,7.1014 -0.09,1.4594 -0.6401,2.1445 -1.2326,2.3376 -0.6353,0.1873 -2.1072,0.019 -2.0443,-1.2773 0.3138,-1.3181 0.4504,-1.4429 -0.077,-2.2669 -0.7169,-1.0263 -2.2809,-0.4944 -2.7427,0.1826 1.9216,1.1045 0.08,2.9104 -0.4056,3.4961 -1.3333,1.222 -0.4312,4.732 2.1445,5.0464 3.1499,0.4719 4.1941,-1.8855 4.916,-3.1384 0.2869,-0.367 0.8489,-0.1262 0.953,0.1951 -0.1301,0.645 -0.2191,1.7783 0.2415,2.508 0.8559,1.1765 1.3821,1.2149 2.1733,1.3999 2.3961,0.5381 4.1031,1.499 4.7752,1.7073 -0.2111,-0.4312 -10.3601,-27.2561 -10.4145,-27.3167 h -41.4146 z" />
      <path
         inkscape:connector-curvature="0"
         id="path3478"
         style="fill:#1c58aa;fill-opacity:1;fill-rule:evenodd;stroke:none"
         d="m 1868.9537,1987.3881 c 0.1648,-0.5355 0.2678,-0.7622 0.4737,-0.7622 0.2474,0 0.3503,0.2473 0.7417,1.0918 0.8858,1.8952 3.6255,9.1874 4.0169,10.2379 h 0.041 l 4.2847,-10.3203 c 0.309,-0.7621 0.4326,-1.0094 0.6385,-1.0094 0.2679,0 0.3709,0.2473 0.5975,0.9683 1.0094,3.0898 3.1723,9.6405 4.1198,12.236 0.4326,1.1741 0.6592,1.9981 1.1536,2.1835 0.2266,0.082 0.515,0.1029 0.7209,0.1029 0.1855,0 0.2885,0.062 0.2885,0.2061 0,0.1235 -0.1442,0.1648 -0.3707,0.1648 -0.6798,0 -1.5657,-0.062 -1.7099,-0.062 -0.1854,0 -1.0505,0.062 -2.1423,0.062 -0.309,0 -0.4738,-0.041 -0.4738,-0.1854 0,-0.1236 0.1442,-0.1855 0.3503,-0.1855 0.8033,0 0.9887,-0.2883 0.9887,-0.6179 0,-0.2883 -0.062,-0.7209 -0.206,-1.1948 -0.721,-2.41 -2.3689,-7.8483 -2.7397,-9.2285 h -0.062 l -4.2847,10.3616 c -0.2677,0.6591 -0.3707,0.9681 -0.5973,0.9681 -0.1648,0 -0.2885,-0.1648 -0.515,-0.7416 l -3.9964,-10.7323 h -0.062 c -0.3708,1.1536 -2.2865,7.3952 -2.6367,8.7548 -0.2472,0.927 -0.4533,1.6273 -0.4533,1.8951 0,0.2266 0.041,0.3708 0.2267,0.4533 0.1442,0.082 0.3502,0.082 0.515,0.082 0.2059,0 0.3707,0.021 0.3707,0.1855 0,0.1236 -0.1441,0.1854 -0.4326,0.1854 -1.1947,0 -2.1011,-0.062 -2.2865,-0.062 -0.1854,0 -1.3183,0.062 -2.3895,0.062 -0.2885,0 -0.4533,-0.041 -0.4533,-0.1854 0,-0.1648 0.1237,-0.1855 0.3296,-0.1855 0.1855,0 0.5975,-0.041 0.824,-0.1853 0.2885,-0.206 0.515,-0.7004 0.7622,-1.4626 l 4.3671,-13.0806 z" />
      <path
         inkscape:connector-curvature="0"
         id="path3480"
         style="fill:#1c58aa;fill-opacity:1;fill-rule:evenodd;stroke:none"
         d="m 1904.5803,1996.5136 c 0,3.1311 0,3.708 0.041,4.3672 0.041,0.721 0.206,1.0711 0.7621,1.1741 0.2472,0.041 0.3709,0.062 0.5768,0.062 0.1648,0 0.2885,0.041 0.2885,0.1855 0,0.1441 -0.1442,0.1854 -0.4327,0.1854 -0.7003,0 -1.9981,-0.062 -2.4925,-0.062 -0.4944,0 -1.7921,0.062 -2.8839,0.062 -0.309,0 -0.4532,-0.041 -0.4532,-0.1854 0,-0.1442 0.1236,-0.1855 0.3503,-0.1855 0.2883,0 0.6385,-0.021 0.8033,-0.062 0.6798,-0.1442 0.8446,-0.4738 0.8858,-1.1741 0.041,-0.6592 0.041,-1.2361 0.041,-4.3672 v -3.6255 c 0,-1.895 0,-3.5224 -0.103,-4.3875 -0.082,-0.5975 -0.1854,-1.0507 -0.5974,-1.133 -0.1855,-0.041 -0.4326,-0.082 -0.7416,-0.082 -0.2472,0 -0.3296,-0.062 -0.3296,-0.1648 0,-0.1442 0.1442,-0.2059 0.412,-0.2059 0.824,0 2.1217,0.062 2.5956,0.062 0.5149,0 1.8127,-0.062 2.9663,-0.062 0.2265,0 0.3913,0.062 0.3913,0.2059 0,0.103 -0.103,0.1648 -0.2678,0.1648 -0.2678,0 -0.7209,0.041 -1.0094,0.082 -0.5149,0.082 -0.7003,0.5355 -0.7416,1.1123 -0.062,0.8858 -0.062,2.5132 -0.062,4.4082 v 1.8747 h 0.103 l 0.2266,-0.309 c 0.4326,-0.5974 4.4907,-5.3559 5.3971,-6.1593 0.8857,-0.7827 1.4419,-1.236 2.5543,-1.339 0.4325,-0.041 0.8033,-0.041 1.4212,-0.041 h 1.7923 c 0.3913,0 0.4944,0.062 0.4944,0.2059 0,0.1237 -0.1237,0.1648 -0.2679,0.1648 -0.2472,0 -0.6591,0.062 -1.2772,0.3091 -1.1123,0.4326 -2.0393,1.3595 -2.9457,2.2247 -0.8033,0.7621 -4.8408,5.1087 -5.5824,6.0768 0.7004,0.7416 3.811,3.8315 4.4495,4.4495 0.8857,0.8652 1.5862,1.2977 2.2247,1.5449 0.3914,0.1443 0.9064,0.2265 1.1947,0.2265 0.2061,0 0.3091,0.041 0.3091,0.1855 0,0.1441 -0.1443,0.1854 -0.3502,0.1854 -0.6385,0 -1.7716,-0.062 -2.4102,-0.062 -0.5561,0 -1.689,0.062 -2.1217,0.062 -0.2265,0 -0.3295,-0.041 -0.3295,-0.1854 0,-0.1236 0.082,-0.1648 0.2678,-0.206 0.2059,-0.041 0.2883,-0.1854 0.2883,-0.4119 0,-0.3503 -0.4531,-0.8653 -1.0299,-1.5451 -0.5974,-0.7003 -3.605,-3.7696 -4.3053,-4.5317 h -0.103 v 0.9062 z" />
      <path
         inkscape:connector-curvature="0"
         id="path3482"
         style="fill:#1c58aa;fill-opacity:1;fill-rule:evenodd;stroke:none"
         d="m 1922.1136,1992.8881 c 0,-1.895 0,-3.5224 -0.103,-4.3875 -0.082,-0.5975 -0.1855,-1.0507 -0.5974,-1.133 -0.1855,-0.041 -0.4325,-0.082 -0.7416,-0.082 -0.2472,0 -0.3296,-0.062 -0.3296,-0.1648 0,-0.1442 0.1443,-0.2059 0.412,-0.2059 0.824,0 2.1217,0.062 2.5132,0.062 0.3089,0 1.8333,-0.062 3.028,-0.062 0.2679,0 0.412,0.062 0.412,0.2059 0,0.103 -0.082,0.1648 -0.2472,0.1648 -0.2472,0 -0.7003,0.041 -1.0094,0.082 -0.6179,0.082 -0.7415,0.5355 -0.8033,1.133 -0.103,0.8651 -0.103,2.4925 -0.103,4.4082 v 0.2884 c 0,0.1236 0.062,0.1648 0.1648,0.1648 l 1.7921,-0.041 c 0.1443,0 0.2678,-0.021 0.3708,-0.1442 0.2678,-0.309 1.2154,-1.7097 2.0393,-2.8427 1.1536,-1.5861 1.9364,-2.5544 2.8222,-3.0282 0.5355,-0.2883 1.0505,-0.3913 2.2041,-0.3913 h 1.9569 c 0.2473,0 0.3915,0.041 0.3915,0.2059 0,0.103 -0.082,0.1648 -0.2472,0.1648 -0.1648,0 -0.3503,0.021 -0.5768,0.062 -0.309,0.062 -1.1536,0.2059 -2.3071,1.4008 -1.2155,1.2771 -2.6368,3.1104 -4.4701,5.4176 2.0805,1.689 2.7191,3.0899 2.7191,4.6142 0,1.3801 -0.824,2.4308 -1.4008,2.8222 -1.1123,0.7622 -2.4925,0.8857 -3.7903,0.8857 -0.6385,0 -2.2041,-0.062 -2.9045,-0.062 -0.4326,0 -1.7303,0.062 -2.822,0.062 -0.3091,0 -0.4533,-0.041 -0.4533,-0.1854 0,-0.1442 0.1237,-0.1855 0.3503,-0.1855 0.2883,0 0.6385,-0.021 0.8033,-0.062 0.6798,-0.1442 0.8446,-0.4738 0.8857,-1.1741 0.041,-0.6592 0.041,-1.2361 0.041,-4.3672 v -3.6255 z m 2.4307,8.2604 c 0,0.1648 0.041,0.2472 0.1854,0.2885 0.206,0.062 0.5768,0.082 1.0918,0.082 1.2153,0 3.1516,-0.8446 3.1516,-3.7697 0,-1.6892 -0.5973,-2.6367 -1.2153,-3.09 -0.3708,-0.2678 -0.6386,-0.3502 -1.4626,-0.3502 -0.515,0 -1.1329,0.062 -1.5655,0.2061 -0.1442,0.062 -0.1854,0.1441 -0.1854,0.3707 v 6.2622 z" />
      <path
         inkscape:connector-curvature="0"
         id="path3484"
         style="fill:#1c58aa;fill-opacity:1;fill-rule:evenodd;stroke:none"
         d="m 1947.3128,1992.2908 c 0.103,0 0.1648,-0.041 0.2061,-0.1441 l 1.6479,-4.3672 c 0.1029,-0.2471 -0.041,-0.4325 -0.1854,-0.4738 -0.2061,-0.021 -0.2885,-0.062 -0.2885,-0.1854 0,-0.1442 0.2472,-0.1442 0.6181,-0.1648 1.6479,-0.041 3.1517,-0.041 3.8933,-0.041 0.7621,0 0.9475,0.041 0.9475,0.2059 0,0.1443 -0.103,0.1648 -0.2678,0.1648 -0.2472,0 -0.5562,0.021 -0.8651,0.082 -0.4326,0.1029 -1.0301,0.3914 -1.8128,2.2453 -1.3183,3.1311 -4.6142,11.5356 -5.1086,12.6685 -0.2061,0.4739 -0.3296,0.6592 -0.515,0.6592 -0.206,0 -0.3296,-0.2265 -0.5768,-0.824 l -5.1704,-12.9362 c -0.412,-1.0301 -0.8034,-1.7305 -1.751,-1.854 -0.1648,-0.021 -0.4531,-0.041 -0.6385,-0.041 -0.1648,0 -0.2472,-0.041 -0.2472,-0.1648 0,-0.1648 0.1235,-0.2059 0.3913,-0.2059 1.0712,0 2.2041,0.062 2.4308,0.062 0.6386,0 1.5243,-0.062 2.1835,-0.062 0.2265,0 0.3502,0.041 0.3502,0.2059 0,0.1237 -0.062,0.1648 -0.309,0.1648 h -0.309 c -0.6386,0 -0.824,0.2678 -0.824,0.6387 0,0.2472 0.103,0.7416 0.3091,1.2566 l 1.1123,2.9456 c 0.041,0.1236 0.082,0.1648 0.1854,0.1648 h 4.5936 z m -4.1816,1.03 c -0.082,0 -0.1031,0.062 -0.082,0.1442 l 1.8951,5.0674 c 0.021,0.082 0.062,0.1854 0.1236,0.1854 0.062,0 0.082,-0.103 0.103,-0.1854 l 1.854,-5.088 c 0.021,-0.062 0,-0.1236 -0.103,-0.1236 h -3.7903 z" />
      <path
         inkscape:connector-curvature="0"
         id="path3486"
         style="fill:#1c58aa;fill-opacity:1;fill-rule:evenodd;stroke:none"
         d="m 1962.2319,1996.5136 c 0,3.1311 0,3.708 0.041,4.3672 0.041,0.721 0.206,1.0711 0.7622,1.1741 0.2472,0.041 0.3708,0.062 0.5768,0.062 0.1648,0 0.2883,0.041 0.2883,0.1855 0,0.1441 -0.1441,0.1854 -0.4326,0.1854 -0.7003,0 -1.998,-0.062 -2.4924,-0.062 -0.4944,0 -1.7922,0.062 -2.8839,0.062 -0.309,0 -0.4533,-0.041 -0.4533,-0.1854 0,-0.1442 0.1237,-0.1855 0.3503,-0.1855 0.2884,0 0.6385,-0.021 0.8033,-0.062 0.6798,-0.1442 0.8446,-0.4738 0.8857,-1.1741 0.041,-0.6592 0.041,-1.2361 0.041,-4.3672 v -3.6255 c 0,-1.895 0,-3.5224 -0.103,-4.3875 -0.082,-0.5975 -0.1853,-1.0507 -0.5974,-1.133 -0.1853,-0.041 -0.4325,-0.082 -0.7415,-0.082 -0.2473,0 -0.3296,-0.062 -0.3296,-0.1648 0,-0.1442 0.1442,-0.2059 0.4119,-0.2059 0.824,0 2.1218,0.062 2.5956,0.062 0.515,0 1.8127,-0.062 2.9663,-0.062 0.2265,0 0.3913,0.062 0.3913,0.2059 0,0.103 -0.1029,0.1648 -0.2677,0.1648 -0.2678,0 -0.721,0.041 -1.0094,0.082 -0.515,0.082 -0.7004,0.5355 -0.7415,1.1123 -0.062,0.8858 -0.062,2.5132 -0.062,4.4082 v 1.8747 h 0.1029 l 0.2267,-0.309 c 0.4325,-0.5974 4.4906,-5.3559 5.3969,-6.1593 0.8858,-0.7827 1.4419,-1.236 2.5544,-1.339 0.4326,-0.041 0.8033,-0.041 1.4214,-0.041 h 1.7921 c 0.3913,0 0.4944,0.062 0.4944,0.2059 0,0.1237 -0.1236,0.1648 -0.2679,0.1648 -0.2472,0 -0.6591,0.062 -1.2771,0.3091 -1.1124,0.4326 -2.0393,1.3595 -2.9458,2.2247 -0.8033,0.7621 -4.8408,5.1087 -5.5824,6.0768 0.7005,0.7416 3.8109,3.8315 4.4495,4.4495 0.8859,0.8652 1.5862,1.2977 2.2247,1.5449 0.3914,0.1443 0.9064,0.2265 1.1949,0.2265 0.2059,0 0.3089,0.041 0.3089,0.1855 0,0.1441 -0.1442,0.1854 -0.3502,0.1854 -0.6386,0 -1.7715,-0.062 -2.4102,-0.062 -0.5561,0 -1.6891,0.062 -2.1217,0.062 -0.2265,0 -0.3296,-0.041 -0.3296,-0.1854 0,-0.1236 0.082,-0.1648 0.2679,-0.206 0.2059,-0.041 0.2884,-0.1854 0.2884,-0.4119 0,-0.3503 -0.4532,-0.8653 -1.03,-1.5451 -0.5974,-0.7003 -3.6049,-3.7696 -4.3053,-4.5317 h -0.1029 v 0.9062 z" />
      <path
         inkscape:connector-curvature="0"
         id="path3488"
         style="fill:#1c58aa;fill-opacity:1;fill-rule:evenodd;stroke:none"
         d="m 1984.9971,1986.6259 c 5.2322,0 8.5281,3.7285 8.5281,8.4458 0,4.7173 -3.1929,7.7041 -8.3221,7.7041 -6.1798,0 -8.5075,-4.5523 -8.5075,-8.0749 0,-3.646 2.3896,-8.075 8.3015,-8.075 z m 0.8652,1.0301 c -3.9551,0 -6.324,3.3989 -6.324,7.6835 0,5.1292 2.6985,6.4476 5.0675,6.4476 3.3783,0 6.0355,-2.8633 6.0355,-7.4776 0,-5.9531 -3.337,-6.6535 -4.779,-6.6535 z" />
      <path
         inkscape:connector-curvature="0"
         id="path3490"
         style="fill:#1c58aa;fill-opacity:1;fill-rule:evenodd;stroke:none"
         d="m 2003.9744,1987.3881 c 0.1648,-0.5355 0.2679,-0.7622 0.4739,-0.7622 0.2472,0 0.3501,0.2473 0.7416,1.0918 0.8857,1.8952 3.6255,9.1874 4.0168,10.2379 h 0.041 l 4.2846,-10.3203 c 0.3091,-0.7621 0.4327,-1.0094 0.6387,-1.0094 0.2677,0 0.3707,0.2473 0.5973,0.9683 1.0094,3.0898 3.1724,9.6405 4.1199,12.236 0.4326,1.1741 0.6592,1.9981 1.1535,2.1835 0.2267,0.082 0.5151,0.1029 0.7211,0.1029 0.1853,0 0.2883,0.062 0.2883,0.2061 0,0.1235 -0.1441,0.1648 -0.3707,0.1648 -0.6798,0 -1.5655,-0.062 -1.7098,-0.062 -0.1853,0 -1.0506,0.062 -2.1424,0.062 -0.3089,0 -0.4737,-0.041 -0.4737,-0.1854 0,-0.1236 0.1442,-0.1855 0.3502,-0.1855 0.8034,0 0.9888,-0.2883 0.9888,-0.6179 0,-0.2883 -0.062,-0.7209 -0.2061,-1.1948 -0.7209,-2.41 -2.3689,-7.8483 -2.7396,-9.2285 h -0.062 l -4.2847,10.3616 c -0.2677,0.6591 -0.3707,0.9681 -0.5973,0.9681 -0.1647,0 -0.2884,-0.1648 -0.515,-0.7416 l -3.9963,-10.7323 h -0.062 c -0.3707,1.1536 -2.2865,7.3952 -2.6367,8.7548 -0.2472,0.927 -0.4531,1.6273 -0.4531,1.8951 0,0.2266 0.041,0.3708 0.2265,0.4533 0.1442,0.082 0.3503,0.082 0.5151,0.082 0.2059,0 0.3707,0.021 0.3707,0.1855 0,0.1236 -0.1442,0.1854 -0.4326,0.1854 -1.1947,0 -2.1011,-0.062 -2.2865,-0.062 -0.1855,0 -1.3184,0.062 -2.3896,0.062 -0.2883,0 -0.4531,-0.041 -0.4531,-0.1854 0,-0.1648 0.1236,-0.1855 0.3296,-0.1855 0.1853,0 0.5973,-0.041 0.824,-0.1853 0.2883,-0.206 0.5149,-0.7004 0.7621,-1.4626 l 4.367,-13.0806 z" />
      <path
         inkscape:connector-curvature="0"
         id="path3492"
         style="fill:#1c58aa;fill-opacity:1;fill-rule:evenodd;stroke:none"
         d="m 2027.2012,1992.8881 c 0,-1.998 0,-3.6255 -0.103,-4.4906 -0.062,-0.5974 -0.1853,-0.9476 -0.5973,-1.0299 -0.1854,-0.041 -0.4326,-0.082 -0.7416,-0.082 -0.2471,0 -0.3295,-0.062 -0.3295,-0.1648 0,-0.1442 0.1441,-0.2059 0.4119,-0.2059 0.824,0 2.1218,0.062 2.5955,0.062 0.5562,0 1.854,-0.062 3.2135,-0.062 0.2266,0 0.3914,0.062 0.3914,0.2059 0,0.103 -0.1029,0.1648 -0.3296,0.1648 -0.309,0 -0.7621,0.041 -1.0506,0.082 -0.6179,0.082 -0.7622,0.4532 -0.8239,1.0093 -0.082,0.8857 -0.082,2.5132 -0.082,4.5112 v 3.6255 c 0,3.1311 0,3.708 0.041,4.3672 0.041,0.721 0.206,1.0711 0.7621,1.1741 0.2472,0.041 0.412,0.062 0.6181,0.062 0.2059,0 0.3295,0.041 0.3295,0.2061 0,0.1235 -0.1648,0.1648 -0.4326,0.1648 -0.7827,0 -1.9981,-0.062 -2.513,-0.062 -0.5974,0 -1.8952,0.062 -2.678,0.062 -0.3296,0 -0.4944,-0.041 -0.4944,-0.1648 0,-0.1648 0.1237,-0.2061 0.3296,-0.2061 0.2472,0 0.515,-0.021 0.7416,-0.082 0.4532,-0.1031 0.6591,-0.4533 0.7004,-1.1536 0.041,-0.6592 0.041,-1.2361 0.041,-4.3672 v -3.6255 z" />
      <path
         inkscape:connector-curvature="0"
         id="path3494"
         style="fill:#1c58aa;fill-opacity:1;fill-rule:evenodd;stroke:none"
         d="m 2039.9123,1992.8881 c 0,-1.895 0,-3.5224 -0.103,-4.3875 -0.082,-0.5975 -0.1854,-1.0507 -0.5974,-1.133 -0.1855,-0.041 -0.4327,-0.082 -0.7416,-0.082 -0.2472,0 -0.3296,-0.062 -0.3296,-0.1648 0,-0.1442 0.1442,-0.2059 0.412,-0.2059 0.824,0 2.1217,0.062 2.5954,0.062 1.2155,0 2.5956,-0.1235 5.7061,-0.1235 0.7828,0 0.9683,0 1.1124,0.5355 0.1029,0.412 0.2677,1.8128 0.2677,2.2867 0,0.2059 0,0.3707 -0.1648,0.3707 -0.1441,0 -0.1853,-0.082 -0.2265,-0.309 -0.1442,-0.8446 -0.3914,-1.2772 -0.927,-1.5244 -0.5356,-0.2472 -1.4007,-0.2472 -1.9363,-0.2472 -2.1011,0 -2.4307,0.309 -2.4719,1.7304 -0.021,0.5974 0,2.4925 0,3.1928 v 1.6275 c 0,0.1235 0.021,0.2059 0.1235,0.2059 0.4944,0 2.5338,-0.021 2.9252,-0.062 0.7622,-0.082 1.0505,-0.3913 1.1535,-0.8033 0.062,-0.2678 0.062,-0.5356 0.082,-0.7416 0,-0.103 0.041,-0.1854 0.1855,-0.1854 0.1854,0 0.1854,0.2266 0.1854,0.3914 0,0.1442 0.041,0.9682 0.082,1.3801 0.062,1.0506 0.1648,1.3802 0.1648,1.5038 0,0.1236 -0.062,0.1648 -0.1442,0.1648 -0.1029,0 -0.1854,-0.1029 -0.3296,-0.2677 -0.1854,-0.2061 -0.4944,-0.2679 -0.9888,-0.3091 -0.4737,-0.041 -2.8426,-0.041 -3.2959,-0.041 -0.1235,0 -0.1441,0.082 -0.1441,0.2266 v 5.2117 c 0,0.1441 0.041,0.2059 0.1441,0.2059 0.412,0 2.575,-0.041 2.9252,-0.082 1.0299,-0.1235 1.236,-0.3707 1.3801,-0.7416 0.1031,-0.2472 0.1236,-0.5974 0.1236,-0.7415 0,-0.1855 0.041,-0.2884 0.1854,-0.2884 0.1442,0 0.1854,0.1236 0.206,0.2266 0.041,0.2472 0.082,1.1535 0.1029,1.3595 0.062,0.9476 0.1648,1.1948 0.1648,1.339 0,0.103 -0.021,0.1854 -0.1235,0.1854 -0.103,0 -0.2266,-0.062 -0.3296,-0.082 -0.1648,-0.041 -0.4944,-0.082 -0.8857,-0.1237 -0.3914,-0.021 -4.4907,-0.021 -5.1499,-0.021 -0.5768,0 -1.8745,0.062 -2.9663,0.062 -0.309,0 -0.4532,-0.041 -0.4532,-0.1854 0,-0.1442 0.1236,-0.1855 0.3501,-0.1855 0.2885,0 0.6387,-0.021 0.8035,-0.062 0.6797,-0.1442 0.8445,-0.4738 0.8857,-1.1741 0.041,-0.6592 0.041,-1.2361 0.041,-4.3672 v -3.6255 z" />
      <path
         inkscape:connector-curvature="0"
         id="path3496"
         style="fill:#1c58aa;fill-opacity:1;fill-rule:evenodd;stroke:none"
         d="m 1865.6496,2017.6253 c 0,-4.0375 0.021,-6.0974 -1.5449,-7.6836 -0.412,-0.412 -0.721,-0.6385 -0.9888,-0.7828 -0.3501,-0.1853 -0.4531,-0.2677 -0.4531,-0.3707 0,-0.1031 0.082,-0.1648 0.1648,-0.1648 0.103,0 0.2678,0.041 0.412,0.1235 0.4325,0.2061 0.7621,0.3708 1.0299,0.5356 1.9775,1.2154 3.0693,2.6368 3.5019,3.8934 0.412,1.1535 0.4944,2.4719 0.4944,3.6459 0,1.0301 -0.062,2.0188 -0.062,2.9046 v 3.8109 c 0,3.1311 0,3.7079 0.041,4.3671 0.041,0.7209 0.2059,1.0711 0.7622,1.1742 0.2472,0.041 0.3707,0.062 0.5973,0.062 0.2473,0 0.3708,0.041 0.3708,0.1855 0,0.1441 -0.1441,0.1853 -0.4326,0.1853 -0.8033,0 -2.1011,-0.062 -2.5954,-0.062 -0.5357,0 -1.8334,0.062 -2.9252,0.062 -0.309,0 -0.4531,-0.041 -0.4531,-0.1853 0,-0.1443 0.1235,-0.1855 0.3502,-0.1855 0.2883,0 0.6385,-0.021 0.8033,-0.062 0.6798,-0.1443 0.8446,-0.4739 0.8858,-1.1742 0.041,-0.6592 0.041,-1.236 0.041,-4.3671 v -5.912 z" />
      <path
         inkscape:connector-curvature="0"
         id="path3498"
         style="fill:#1c58aa;fill-opacity:1;fill-rule:evenodd;stroke:none"
         d="m 1881.7976,2019.3144 c 0.103,0 0.1648,-0.041 0.2059,-0.1442 l 1.6479,-4.367 c 0.1031,-0.2472 -0.041,-0.4326 -0.1854,-0.4738 -0.2059,-0.021 -0.2883,-0.062 -0.2883,-0.1854 0,-0.1442 0.2472,-0.1442 0.6179,-0.1648 1.648,-0.041 3.1517,-0.041 3.8933,-0.041 0.7622,0 0.9476,0.041 0.9476,0.2061 0,0.1442 -0.103,0.1648 -0.2678,0.1648 -0.2472,0 -0.5561,0.021 -0.8651,0.082 -0.4326,0.103 -1.03,0.3913 -1.8127,2.2453 -1.3184,3.1312 -4.6143,11.5357 -5.1087,12.6686 -0.206,0.4738 -0.3296,0.6592 -0.515,0.6592 -0.206,0 -0.3296,-0.2266 -0.5768,-0.824 l -5.1704,-12.9364 c -0.4121,-1.03 -0.8034,-1.7303 -1.751,-1.854 -0.1648,-0.02 -0.4532,-0.041 -0.6386,-0.041 -0.1648,0 -0.2471,-0.041 -0.2471,-0.1648 0,-0.1648 0.1235,-0.2061 0.3914,-0.2061 1.0711,0 2.2041,0.062 2.4306,0.062 0.6387,0 1.5244,-0.062 2.1836,-0.062 0.2266,0 0.3501,0.041 0.3501,0.2061 0,0.1235 -0.062,0.1648 -0.3089,0.1648 h -0.309 c -0.6386,0 -0.824,0.2678 -0.824,0.6385 0,0.2472 0.103,0.7416 0.309,1.2566 l 1.1124,2.9457 c 0.041,0.1237 0.082,0.1648 0.1853,0.1648 z m -4.1817,1.03 c -0.082,0 -0.103,0.062 -0.082,0.1442 l 1.8953,5.0674 c 0.021,0.082 0.062,0.1854 0.1235,0.1854 0.062,0 0.082,-0.103 0.103,-0.1854 l 1.8539,-5.088 c 0.021,-0.062 0,-0.1236 -0.1029,-0.1236 h -3.7903 z" />
      <path
         inkscape:connector-curvature="0"
         id="path3500"
         style="fill:#1c58aa;fill-opacity:1;fill-rule:evenodd;stroke:none"
         d="m 1905.4714,2017.5841 c 0,1.03 0,1.854 0.021,2.4719 0.021,0.7209 0.2266,1.0711 0.7827,1.1742 0.2472,0.041 0.3915,0.062 0.5563,0.062 0.1442,0 0.2677,0.041 0.2677,0.1648 0,0.1648 -0.1442,0.2061 -0.412,0.2061 -0.6797,0 -1.7715,-0.062 -2.41,-0.062 -0.6181,0 -1.9158,0.062 -2.987,0.062 -0.2884,0 -0.4326,-0.041 -0.4326,-0.2061 0,-0.1235 0.1237,-0.1648 0.309,-0.1648 0.2884,0 0.6387,-0.021 0.8035,-0.062 0.6796,-0.1442 0.8651,-0.4738 0.8857,-1.1742 0.021,-0.6179 0.021,-1.4008 0.021,-2.4307 v -1.9364 c 0,-0.3502 -0.082,-0.6179 -0.3915,-0.7622 -0.4943,-0.2266 -1.2153,-0.2266 -1.7508,-0.2266 -4.3466,0 -7.1686,3.3166 -7.1686,7.7454 0,2.5337 0.7416,4.0787 1.8952,5.0469 1.4418,1.1947 2.9456,1.2771 4.0786,1.2771 2.3277,0 3.9757,-0.9475 4.5936,-1.6067 0.5356,-0.5768 0.6387,-1.236 0.7004,-1.7097 0.021,-0.1648 0.062,-0.2678 0.206,-0.2678 0.1648,0 0.2267,0.103 0.2267,0.4326 0,2.5748 0.1441,3.1516 0.1441,3.3783 0,0.1441 -0.041,0.2265 -0.2884,0.2472 -0.4738,0.02 -1.1947,0.1441 -1.6274,0.2265 -0.4119,0.082 -2.2247,0.3296 -3.6461,0.3296 -1.7303,0 -3.5636,-0.1442 -5.5411,-1.339 -1.8746,-1.1329 -3.5844,-3.44 -3.5844,-6.7359 0,-5.6855 4.4701,-8.075 9.517,-8.075 1.6067,0 3.6255,0.2266 4.9644,0.927 0.2472,0.1442 0.2678,0.1853 0.2678,0.7416 v 2.2659 z" />
      <path
         inkscape:connector-curvature="0"
         id="path3502"
         style="fill:#1c58aa;fill-opacity:1;fill-rule:evenodd;stroke:none"
         d="m 1913.3895,2019.9118 c 0,-1.9982 0,-3.6255 -0.1031,-4.4907 -0.062,-0.5973 -0.1853,-0.9475 -0.5972,-1.0299 -0.1855,-0.041 -0.4327,-0.082 -0.7416,-0.082 -0.2472,0 -0.3296,-0.062 -0.3296,-0.1648 0,-0.1442 0.1442,-0.2061 0.412,-0.2061 0.824,0 2.1217,0.062 2.5954,0.062 0.5562,0 1.854,-0.062 3.2135,-0.062 0.2266,0 0.3914,0.062 0.3914,0.2061 0,0.103 -0.1029,0.1648 -0.3296,0.1648 -0.309,0 -0.7621,0.041 -1.0505,0.082 -0.618,0.082 -0.7622,0.4531 -0.824,1.0094 -0.082,0.8857 -0.082,2.513 -0.082,4.5112 v 3.6255 c 0,3.1311 0,3.7079 0.041,4.3671 0.041,0.7209 0.2059,1.0711 0.762,1.1742 0.2472,0.041 0.412,0.062 0.6181,0.062 0.2059,0 0.3296,0.041 0.3296,0.206 0,0.1236 -0.1648,0.1648 -0.4326,0.1648 -0.7828,0 -1.9982,-0.062 -2.5131,-0.062 -0.5974,0 -1.8951,0.062 -2.678,0.062 -0.3296,0 -0.4944,-0.041 -0.4944,-0.1648 0,-0.1648 0.1237,-0.206 0.3296,-0.206 0.2472,0 0.515,-0.021 0.7416,-0.082 0.4532,-0.103 0.6592,-0.4532 0.7004,-1.1535 0.041,-0.6592 0.041,-1.236 0.041,-4.3671 v -3.6255 z" />
      <path
         inkscape:connector-curvature="0"
         id="path3504"
         style="fill:#1c58aa;fill-opacity:1;fill-rule:evenodd;stroke:none"
         d="m 1924.8647,2019.9118 c 0,-1.8951 0,-3.5224 -0.103,-4.3877 -0.082,-0.5974 -0.1855,-1.0505 -0.5974,-1.1329 -0.1853,-0.041 -0.4327,-0.082 -0.7416,-0.082 -0.2472,0 -0.3296,-0.062 -0.3296,-0.1648 0,-0.1442 0.1442,-0.2061 0.412,-0.2061 0.824,0 2.1218,0.062 2.5956,0.062 1.2153,0 2.5954,-0.1236 5.7059,-0.1236 0.7828,0 0.9683,0 1.1124,0.5356 0.103,0.412 0.2678,1.8128 0.2678,2.2865 0,0.2059 0,0.3707 -0.1648,0.3707 -0.1441,0 -0.1854,-0.082 -0.2266,-0.3089 -0.1442,-0.8446 -0.3914,-1.2771 -0.9269,-1.5243 -0.5357,-0.2472 -1.4008,-0.2472 -1.9364,-0.2472 -2.1011,0 -2.4307,0.309 -2.4719,1.7303 -0.021,0.5973 0,2.4925 0,3.1929 v 1.6273 c 0,0.1237 0.021,0.2061 0.1236,0.2061 0.4944,0 2.5337,-0.021 2.9251,-0.062 0.7622,-0.082 1.0506,-0.3914 1.1535,-0.8033 0.062,-0.2679 0.062,-0.5356 0.082,-0.7416 0,-0.103 0.041,-0.1854 0.1854,-0.1854 0.1855,0 0.1855,0.2266 0.1855,0.3914 0,0.1442 0.041,0.9682 0.082,1.3802 0.062,1.0505 0.1648,1.3801 0.1648,1.5037 0,0.1236 -0.062,0.1648 -0.1442,0.1648 -0.103,0 -0.1854,-0.103 -0.3296,-0.2678 -0.1854,-0.206 -0.4944,-0.2678 -0.9888,-0.3089 -0.4738,-0.041 -2.8427,-0.041 -3.2959,-0.041 -0.1236,0 -0.1442,0.082 -0.1442,0.2266 v 5.2116 c 0,0.1442 0.041,0.2061 0.1442,0.2061 0.4119,0 2.5749,-0.041 2.9251,-0.082 1.03,-0.1237 1.236,-0.3709 1.3801,-0.7416 0.103,-0.2472 0.1237,-0.5974 0.1237,-0.7416 0,-0.1854 0.041,-0.2884 0.1854,-0.2884 0.1442,0 0.1853,0.1236 0.2059,0.2265 0.041,0.2472 0.082,1.1536 0.1031,1.3597 0.062,0.9475 0.1648,1.1947 0.1648,1.339 0,0.1029 -0.021,0.1853 -0.1237,0.1853 -0.103,0 -0.2266,-0.062 -0.3296,-0.082 -0.1648,-0.041 -0.4944,-0.082 -0.8857,-0.1236 -0.3914,-0.021 -4.4908,-0.021 -5.1499,-0.021 -0.5767,0 -1.8745,0.062 -2.9663,0.062 -0.309,0 -0.4532,-0.041 -0.4532,-0.1853 0,-0.1443 0.1236,-0.1855 0.3502,-0.1855 0.2884,0 0.6386,-0.021 0.8034,-0.062 0.6798,-0.1443 0.8446,-0.4739 0.8857,-1.1742 0.041,-0.6592 0.041,-1.236 0.041,-4.3671 v -3.6255 z" />
      <path
         inkscape:connector-curvature="0"
         id="path3506"
         style="fill:#1c58aa;fill-opacity:1;fill-rule:evenodd;stroke:none"
         d="m 1942.6251,2023.5373 c 0,3.1311 0,3.7079 0.041,4.3671 0.041,0.7209 0.206,1.0711 0.7621,1.1742 0.2472,0.041 0.5768,0.062 0.8035,0.062 0.2472,0 0.3707,0.041 0.3707,0.1855 0,0.1441 -0.1442,0.1853 -0.4326,0.1853 -0.8034,0 -2.3071,-0.062 -2.8015,-0.062 -0.5562,0 -1.8539,0.062 -2.822,0.062 -0.3091,0 -0.4533,-0.041 -0.4533,-0.1853 0,-0.1443 0.1237,-0.1855 0.3502,-0.1855 0.2679,0 0.515,-0.021 0.6798,-0.062 0.6797,-0.1443 0.8445,-0.4739 0.8858,-1.1742 0.041,-0.6592 0.041,-1.236 0.041,-4.3671 v -3.6255 c 0,-1.8951 0,-3.5224 -0.1029,-4.3877 -0.082,-0.5974 -0.1854,-1.0505 -0.5974,-1.1329 -0.1854,-0.041 -0.4326,-0.082 -0.7416,-0.082 -0.2472,0 -0.3296,-0.062 -0.3296,-0.1648 0,-0.1442 0.1442,-0.2061 0.412,-0.2061 0.824,0 2.1217,0.062 2.5955,0.062 1.6686,0 3.0282,-0.1236 5.9945,-0.1236 1.0712,0 1.1741,0.103 1.2977,0.5561 0.1648,0.5974 0.309,2.1424 0.309,2.369 0,0.2472 -0.021,0.3501 -0.1648,0.3501 -0.1648,0 -0.2059,-0.1235 -0.2266,-0.3089 -0.041,-0.3914 -0.2884,-0.9682 -0.5356,-1.236 -0.5149,-0.5561 -1.3184,-0.5768 -2.4101,-0.5768 -1.6068,0 -2.1423,0.1442 -2.4925,0.4533 -0.4326,0.3707 -0.4326,1.7921 -0.4326,4.4288 v 3.6255 z" />
      <path
         inkscape:connector-curvature="0"
         id="path3508"
         style="fill:#1c58aa;fill-opacity:1;fill-rule:evenodd;stroke:none"
         d="m 1957.2568,2023.5373 c 0,3.1311 0,3.7079 0.041,4.3671 0.041,0.7209 0.206,1.0711 0.7623,1.1742 0.2471,0.041 0.5767,0.062 0.8033,0.062 0.2472,0 0.3707,0.041 0.3707,0.1855 0,0.1441 -0.1441,0.1853 -0.4325,0.1853 -0.8034,0 -2.3071,-0.062 -2.8015,-0.062 -0.5563,0 -1.854,0.062 -2.8221,0.062 -0.309,0 -0.4533,-0.041 -0.4533,-0.1853 0,-0.1443 0.1237,-0.1855 0.3502,-0.1855 0.2679,0 0.5151,-0.021 0.6799,-0.062 0.6798,-0.1443 0.8446,-0.4739 0.8857,-1.1742 0.041,-0.6592 0.041,-1.236 0.041,-4.3671 v -3.6255 c 0,-1.8951 0,-3.5224 -0.1031,-4.3877 -0.082,-0.5974 -0.1854,-1.0505 -0.5974,-1.1329 -0.1854,-0.041 -0.4326,-0.082 -0.7416,-0.082 -0.2472,0 -0.3295,-0.062 -0.3295,-0.1648 0,-0.1442 0.1441,-0.2061 0.4119,-0.2061 0.824,0 2.1217,0.062 2.5956,0.062 1.6685,0 3.0281,-0.1236 5.9944,-0.1236 1.0712,0 1.1742,0.103 1.2977,0.5561 0.1648,0.5974 0.309,2.1424 0.309,2.369 0,0.2472 -0.021,0.3501 -0.1648,0.3501 -0.1648,0 -0.2059,-0.1235 -0.2266,-0.3089 -0.041,-0.3914 -0.2883,-0.9682 -0.5355,-1.236 -0.515,-0.5561 -1.3183,-0.5768 -2.4101,-0.5768 -1.6069,0 -2.1424,0.1442 -2.4926,0.4533 -0.4326,0.3707 -0.4326,1.7921 -0.4326,4.4288 v 3.6255 z" />
      <path
         inkscape:connector-curvature="0"
         id="path3510"
         style="fill:#1c58aa;fill-opacity:1;fill-rule:evenodd;stroke:none"
         d="m 1975.3698,2013.6496 c 5.2323,0 8.5282,3.7285 8.5282,8.4457 0,4.7173 -3.1928,7.7042 -8.3221,7.7042 -6.1798,0 -8.5076,-4.5525 -8.5076,-8.0749 0,-3.6462 2.3895,-8.075 8.3015,-8.075 z m 0.8653,1.0299 c -3.9551,0 -6.324,3.3989 -6.324,7.6836 0,5.1293 2.6985,6.4476 5.0674,6.4476 3.3783,0 6.0356,-2.8632 6.0356,-7.4775 0,-5.9532 -3.3371,-6.6537 -4.779,-6.6537 z" />
      <path
         inkscape:connector-curvature="0"
         id="path3512"
         style="fill:#1c58aa;fill-opacity:1;fill-rule:evenodd;stroke:none"
         d="m 1999.559,2034.0224 c -0.103,0.1853 -0.1441,0.2472 -0.2884,0.2472 -0.062,0 -0.206,-0.041 -0.412,-0.1854 -0.3296,-0.2061 -2.4924,-1.8128 -3.3164,-2.5956 -0.103,-0.1029 -0.1854,-0.1853 -0.1854,-0.2677 0,-0.082 0.082,-0.1237 0.1235,-0.1237 0.041,0 0.1854,0.082 0.3502,0.1648 0.7622,0.412 2.3895,1.0712 3.5225,1.2154 0.412,0.041 0.5974,0 0.7004,0 0.103,0 0.2266,0.062 0.103,0.309 -0.2471,0.5562 -0.4326,0.9476 -0.5974,1.236 z m -8.0543,-8.6312 h 0.062 c 0.3707,-0.3914 2.6573,-2.9663 4.9026,-5.1911 2.1423,-2.1217 4.779,-4.8201 6.0769,-6.0561 0.2265,-0.2266 0.4737,-0.4533 0.7003,-0.4533 0.1854,0 0.2678,0.1855 0.2678,0.6387 l 0.2266,12.9982 c 0.021,1.1536 0.1854,1.5862 0.7622,1.751 0.2472,0.062 0.412,0.062 0.6179,0.062 0.2472,0 0.3708,0.062 0.3708,0.1855 0,0.1648 -0.206,0.1853 -0.4737,0.1853 -1.0094,0 -1.7922,-0.062 -2.0188,-0.062 -0.4326,0 -1.4214,0.062 -2.4926,0.062 -0.3089,0 -0.5355,-0.02 -0.5355,-0.1853 0,-0.1237 0.082,-0.1855 0.3296,-0.1855 0.2883,0 0.7827,0 1.0918,-0.1236 0.4944,-0.206 0.6797,-0.5973 0.7003,-1.8539 l 0.2061,-9.2492 h -0.103 c -0.3503,0.3296 -3.1312,3.2959 -4.5319,4.6967 -3.0076,2.9869 -6.1387,6.3446 -6.3859,6.6124 -0.3501,0.3708 -0.5355,0.6386 -0.7621,0.6386 -0.206,0 -0.2678,-0.2884 -0.2678,-0.7003 l -0.1854,-12.1949 c -0.021,-1.7922 -0.103,-2.3895 -0.6386,-2.5543 -0.2884,-0.082 -0.6591,-0.103 -0.927,-0.103 -0.2059,0 -0.3295,-0.041 -0.3295,-0.1648 0,-0.1854 0.1854,-0.2061 0.4532,-0.2061 1.0712,0 2.0393,0.062 2.2247,0.062 0.3914,0 1.2154,-0.062 2.5544,-0.062 0.2883,0 0.4737,0.041 0.4737,0.2061 0,0.1235 -0.1236,0.1648 -0.3502,0.1648 -0.3296,0 -0.721,0.021 -1.0712,0.1442 -0.412,0.1441 -0.6798,0.6798 -0.7209,2.2865 l -0.2266,8.6517 z" />
      <path
         inkscape:connector-curvature="0"
         id="path3514"
         style="fill:#1c58aa;fill-opacity:1;fill-rule:evenodd;stroke:none"
         d="m 2014.1289,2013.6496 c 1.0918,0 2.2453,0.1854 3.2752,0.8446 1.4832,0.9682 1.9364,2.3895 1.9364,3.5842 0,1.957 -0.9063,3.3372 -3.3783,5.2528 l -0.5768,0.4327 c -1.7098,1.2977 -2.1835,2.0188 -2.1835,2.9663 0,1.2359 0.927,2.1217 2.4512,2.1217 1.339,0 1.9364,-0.6179 2.2454,-1.0093 0.4326,-0.5356 0.5357,-1.1742 0.5357,-1.3596 0,-0.2472 0.062,-0.3707 0.2059,-0.3707 0.1648,0 0.2265,0.1647 0.2265,0.6179 0,1.6068 0.082,2.2041 0.082,2.4719 0,0.1442 -0.1029,0.2061 -0.2883,0.2472 -0.5356,0.1442 -1.4007,0.3502 -2.7397,0.3502 -2.8633,0 -4.7585,-1.6273 -4.7585,-3.8933 0,-1.6686 0.7828,-3.1105 3.0488,-4.8821 l 0.9475,-0.7416 c 1.7098,-1.3183 2.0188,-2.2865 2.0188,-3.2959 0,-1.0916 -0.9064,-2.3482 -2.7604,-2.3482 -1.2771,0 -2.4924,0.5561 -2.9457,2.0805 -0.103,0.3501 -0.1854,0.7828 -0.1854,1.0506 0,0.1648 -0.021,0.3502 -0.2059,0.3502 -0.1648,0 -0.2266,-0.2267 -0.2472,-0.5356 -0.021,-0.3296 -0.1031,-1.5656 -0.1031,-2.6985 0,-0.4533 0.062,-0.5562 0.3914,-0.7005 0.8859,-0.3913 1.8127,-0.5355 3.0076,-0.5355 z" />
      <path
         inkscape:connector-curvature="0"
         id="path3516"
         style="fill:#1c58aa;fill-opacity:1;fill-rule:evenodd;stroke:none"
         d="m 2028.9196,2023.5373 c 0,3.1311 0,3.7079 0.041,4.3671 0.041,0.7209 0.206,1.0711 0.7622,1.1742 0.2472,0.041 0.3708,0.062 0.5768,0.062 0.1647,0 0.2884,0.041 0.2884,0.1855 0,0.1441 -0.1443,0.1853 -0.4326,0.1853 -0.7004,0 -1.9982,-0.062 -2.4926,-0.062 -0.4943,0 -1.7921,0.062 -2.8839,0.062 -0.3089,0 -0.4531,-0.041 -0.4531,-0.1853 0,-0.1443 0.1235,-0.1855 0.3501,-0.1855 0.2884,0 0.6387,-0.021 0.8035,-0.062 0.6797,-0.1443 0.8444,-0.4739 0.8857,-1.1742 0.041,-0.6592 0.041,-1.236 0.041,-4.3671 v -3.6255 c 0,-1.8951 0,-3.5224 -0.1029,-4.3877 -0.082,-0.5974 -0.1854,-1.0505 -0.5974,-1.1329 -0.1854,-0.041 -0.4326,-0.082 -0.7416,-0.082 -0.2471,0 -0.3295,-0.062 -0.3295,-0.1648 0,-0.1442 0.1441,-0.2061 0.4119,-0.2061 0.824,0 2.1218,0.062 2.5955,0.062 0.515,0 1.8128,-0.062 2.9663,-0.062 0.2267,0 0.3915,0.062 0.3915,0.2061 0,0.103 -0.103,0.1648 -0.2678,0.1648 -0.2679,0 -0.721,0.041 -1.0094,0.082 -0.515,0.082 -0.7003,0.5355 -0.7416,1.1123 -0.062,0.8859 -0.062,2.5132 -0.062,4.4083 v 1.8745 h 0.1031 l 0.2265,-0.3089 c 0.4326,-0.5974 4.4906,-5.3559 5.397,-6.1592 0.8859,-0.7828 1.442,-1.236 2.5543,-1.339 0.4326,-0.041 0.8035,-0.041 1.4214,-0.041 h 1.7921 c 0.3915,0 0.4944,0.062 0.4944,0.2061 0,0.1235 -0.1235,0.1648 -0.2677,0.1648 -0.2472,0 -0.6592,0.062 -1.2772,0.3089 -1.1123,0.4327 -2.0393,1.3597 -2.9457,2.2248 -0.8033,0.7622 -4.8408,5.1086 -5.5824,6.0768 0.7003,0.7415 3.8108,3.8315 4.4495,4.4494 0.8857,0.8653 1.586,1.2979 2.2247,1.5451 0.3914,0.1441 0.9064,0.2265 1.1947,0.2265 0.2061,0 0.309,0.041 0.309,0.1855 0,0.1441 -0.1442,0.1853 -0.3501,0.1853 -0.6387,0 -1.7716,-0.062 -2.4102,-0.062 -0.5562,0 -1.6892,0.062 -2.1217,0.062 -0.2267,0 -0.3296,-0.041 -0.3296,-0.1853 0,-0.1237 0.082,-0.1648 0.2677,-0.2061 0.2061,-0.041 0.2885,-0.1854 0.2885,-0.412 0,-0.3502 -0.4533,-0.8651 -1.0301,-1.5449 -0.5973,-0.7004 -3.6048,-3.7697 -4.3051,-4.5319 h -0.1031 v 0.9064 z" />
      <path
         inkscape:connector-curvature="0"
         id="path3518"
         style="fill:#1c58aa;fill-opacity:1;fill-rule:evenodd;stroke:none"
         d="m 2044.3929,2019.9118 c 0,-1.9982 0,-3.6255 -0.103,-4.4907 -0.062,-0.5973 -0.1855,-0.9475 -0.5973,-1.0299 -0.1854,-0.041 -0.4326,-0.082 -0.7417,-0.082 -0.2471,0 -0.3296,-0.062 -0.3296,-0.1648 0,-0.1442 0.1443,-0.2061 0.4121,-0.2061 0.824,0 2.1217,0.062 2.5955,0.062 0.5561,0 1.854,-0.062 3.2133,-0.062 0.2268,0 0.3916,0.062 0.3916,0.2061 0,0.103 -0.103,0.1648 -0.3296,0.1648 -0.309,0 -0.7622,0.041 -1.0506,0.082 -0.6181,0.082 -0.7622,0.4531 -0.824,1.0094 -0.082,0.8857 -0.082,2.513 -0.082,4.5112 v 3.6255 c 0,3.1311 0,3.7079 0.041,4.3671 0.041,0.7209 0.2059,1.0711 0.7621,1.1742 0.2472,0.041 0.4119,0.062 0.618,0.062 0.2061,0 0.3296,0.041 0.3296,0.206 0,0.1236 -0.1648,0.1648 -0.4326,0.1648 -0.7827,0 -1.9982,-0.062 -2.5132,-0.062 -0.5973,0 -1.895,0.062 -2.6779,0.062 -0.3296,0 -0.4943,-0.041 -0.4943,-0.1648 0,-0.1648 0.1236,-0.206 0.3295,-0.206 0.2472,0 0.5151,-0.021 0.7416,-0.082 0.4531,-0.103 0.6592,-0.4532 0.7005,-1.1535 0.041,-0.6592 0.041,-1.236 0.041,-4.3671 v -3.6255 z" />
      <path
         inkscape:connector-curvature="0"
         id="path3520"
         style="fill:#1c58aa;fill-opacity:1;fill-rule:evenodd;stroke:none"
         d="m 1865.2729,2047.5534 c 0,-2.9869 0.7828,-4.5112 1.8334,-5.4588 1.5038,-1.3595 3.4813,-1.4214 4.5731,-1.4214 1.3389,0 2.822,0.2267 4.2847,1.4831 1.7303,1.4832 1.9569,3.914 1.9569,6.2006 v 2.2041 c 0,3.1311 0,3.7077 0.041,4.3669 0.041,0.721 0.2061,1.0713 0.7622,1.1743 0.2472,0.041 0.3709,0.062 0.5974,0.062 0.2472,0 0.3708,0.041 0.3708,0.1853 0,0.1443 -0.1442,0.1853 -0.4325,0.1853 -0.8035,0 -2.1012,-0.062 -2.3484,-0.062 -0.021,0 -1.3184,0.062 -2.3689,0.062 -0.2885,0 -0.4326,-0.041 -0.4326,-0.1853 0,-0.1443 0.1236,-0.1853 0.3502,-0.1853 0.2265,0 0.5768,-0.021 0.7416,-0.062 0.6798,-0.1442 0.8446,-0.4738 0.8857,-1.1743 0.041,-0.6592 0.041,-1.2358 0.041,-4.3669 v -2.575 c 0,-2.1218 -0.062,-3.9757 -1.1949,-5.1086 -0.8239,-0.824 -1.9362,-1.1124 -2.8426,-1.1124 -0.7005,0 -1.648,0.082 -2.575,0.8446 -1.0094,0.8239 -1.6068,2.0805 -1.6068,5.0674 v 2.884 c 0,3.1311 0,3.7077 0.041,4.3669 0.041,0.721 0.2059,1.0713 0.7622,1.1743 0.2472,0.041 0.3707,0.062 0.5973,0.062 0.206,0 0.3296,0.041 0.3296,0.1853 0,0.1443 -0.1442,0.1853 -0.4532,0.1853 -0.7415,0 -2.0393,-0.062 -2.5337,-0.062 -0.618,0 -1.9157,0.062 -3.0075,0.062 -0.309,0 -0.4531,-0.041 -0.4531,-0.1853 0,-0.1443 0.1235,-0.1853 0.3501,-0.1853 0.2884,0 0.6386,-0.021 0.8034,-0.062 0.6797,-0.1442 0.8445,-0.4738 0.8858,-1.1743 0.041,-0.6592 0.041,-1.2358 0.041,-4.3669 v -3.0076 z" />
      <path
         inkscape:connector-curvature="0"
         id="path3522"
         style="fill:#1c58aa;fill-opacity:1;fill-rule:evenodd;stroke:none"
         d="m 1886.8032,2052.4147 h 0.062 c 0.3709,-0.3913 2.6574,-2.9663 4.9028,-5.1909 2.1423,-2.1217 4.779,-4.8203 6.0767,-6.0562 0.2266,-0.2266 0.4739,-0.4532 0.7005,-0.4532 0.1853,0 0.2678,0.1855 0.2678,0.6386 l 0.2266,12.9983 c 0.021,1.1535 0.1853,1.5862 0.7622,1.7509 0.247,0.062 0.4118,0.062 0.6179,0.062 0.2472,0 0.3708,0.062 0.3708,0.1853 0,0.1648 -0.206,0.1853 -0.4738,0.1853 -1.0093,0 -1.7922,-0.062 -2.0187,-0.062 -0.4326,0 -1.4214,0.062 -2.4926,0.062 -0.3089,0 -0.5356,-0.021 -0.5356,-0.1853 0,-0.1235 0.082,-0.1853 0.3296,-0.1853 0.2884,0 0.7828,0 1.0918,-0.1238 0.4944,-0.2058 0.6798,-0.5971 0.7004,-1.8537 l 0.2059,-9.2492 h -0.1029 c -0.3502,0.3296 -3.1311,3.2958 -4.5319,4.6967 -3.0075,2.9868 -6.1386,6.3445 -6.3858,6.6123 -0.3502,0.3708 -0.5356,0.6387 -0.7622,0.6387 -0.2059,0 -0.2678,-0.2884 -0.2678,-0.7005 l -0.1853,-12.1948 c -0.021,-1.7921 -0.103,-2.3895 -0.6387,-2.5543 -0.2883,-0.082 -0.6592,-0.1031 -0.9269,-0.1031 -0.206,0 -0.3296,-0.041 -0.3296,-0.1647 0,-0.1854 0.1855,-0.206 0.4532,-0.206 1.0711,0 2.0394,0.062 2.2247,0.062 0.3914,0 1.2153,-0.062 2.5543,-0.062 0.2885,0 0.4738,0.041 0.4738,0.206 0,0.1236 -0.1236,0.1647 -0.3501,0.1647 -0.3296,0 -0.721,0.021 -1.0712,0.1443 -0.412,0.1442 -0.6798,0.6797 -0.7211,2.2865 l -0.2265,8.6516 z" />
      <path
         inkscape:connector-curvature="0"
         id="path3524"
         style="fill:#1c58aa;fill-opacity:1;fill-rule:evenodd;stroke:none"
         d="m 1907.5528,2046.9354 c 0,-1.9981 0,-3.6255 -0.1029,-4.4906 -0.062,-0.5974 -0.1854,-0.9477 -0.5974,-1.0301 -0.1854,-0.041 -0.4326,-0.082 -0.7416,-0.082 -0.2472,0 -0.3296,-0.062 -0.3296,-0.1647 0,-0.1442 0.1442,-0.206 0.412,-0.206 0.824,0 2.1217,0.062 2.5955,0.062 0.5561,0 1.854,-0.062 3.2135,-0.062 0.2267,0 0.3914,0.062 0.3914,0.206 0,0.103 -0.103,0.1647 -0.3295,0.1647 -0.3091,0 -0.7622,0.041 -1.0507,0.082 -0.6179,0.082 -0.7621,0.4533 -0.824,1.0094 -0.082,0.8858 -0.082,2.5132 -0.082,4.5113 v 3.6256 c 0,3.1311 0,3.7077 0.041,4.3669 0.041,0.721 0.2059,1.0713 0.7622,1.1743 0.2471,0.041 0.4119,0.062 0.6179,0.062 0.2061,0 0.3296,0.041 0.3296,0.2058 0,0.1238 -0.1648,0.1648 -0.4326,0.1648 -0.7827,0 -1.9981,-0.062 -2.5131,-0.062 -0.5974,0 -1.8951,0.062 -2.678,0.062 -0.3295,0 -0.4943,-0.041 -0.4943,-0.1648 0,-0.1648 0.1236,-0.2058 0.3296,-0.2058 0.2471,0 0.515,-0.021 0.7415,-0.083 0.4533,-0.103 0.6592,-0.4531 0.7005,-1.1536 0.041,-0.6592 0.041,-1.2358 0.041,-4.3669 v -3.6256 z" />
      <path
         inkscape:connector-curvature="0"
         id="path3526"
         style="fill:#1c58aa;fill-opacity:1;fill-rule:evenodd;stroke:none"
         d="m 1921.5617,2041.4354 c 0.1648,-0.5355 0.2678,-0.7622 0.4738,-0.7622 0.2472,0 0.3502,0.2472 0.7415,1.0918 0.8859,1.8951 3.6255,9.1873 4.017,10.2379 h 0.041 l 4.2846,-10.3203 c 0.309,-0.7622 0.4326,-1.0094 0.6386,-1.0094 0.2678,0 0.3708,0.2472 0.5974,0.9682 1.0094,3.0899 3.1723,9.6405 4.1199,12.236 0.4326,1.1741 0.6591,1.998 1.1535,2.1836 0.2266,0.082 0.515,0.103 0.721,0.103 0.1854,0 0.2884,0.062 0.2884,0.2058 0,0.1238 -0.1441,0.1648 -0.3708,0.1648 -0.6797,0 -1.5656,-0.062 -1.7097,-0.062 -0.1855,0 -1.0506,0.062 -2.1424,0.062 -0.3089,0 -0.4737,-0.041 -0.4737,-0.1853 0,-0.1235 0.1441,-0.1853 0.3502,-0.1853 0.8033,0 0.9888,-0.2886 0.9888,-0.6182 0,-0.2883 -0.062,-0.7209 -0.2061,-1.1945 -0.7209,-2.4102 -2.3689,-7.8484 -2.7397,-9.2287 h -0.062 l -4.2847,10.3615 c -0.2678,0.6592 -0.3707,0.9682 -0.5974,0.9682 -0.1648,0 -0.2883,-0.1648 -0.5149,-0.7417 l -3.9963,-10.7321 h -0.062 c -0.3708,1.1535 -2.2865,7.3952 -2.6367,8.7546 -0.2472,0.927 -0.4533,1.6274 -0.4533,1.8953 0,0.2265 0.041,0.3708 0.2267,0.4531 0.1442,0.083 0.3501,0.083 0.5149,0.083 0.2061,0 0.3709,0.02 0.3709,0.1853 0,0.1236 -0.1442,0.1853 -0.4326,0.1853 -1.1947,0 -2.1011,-0.062 -2.2865,-0.062 -0.1855,0 -1.3184,0.062 -2.3896,0.062 -0.2884,0 -0.4532,-0.041 -0.4532,-0.1853 0,-0.1648 0.1236,-0.1853 0.3296,-0.1853 0.1854,0 0.5974,-0.041 0.8239,-0.1855 0.2885,-0.2058 0.5151,-0.7002 0.7623,-1.4624 l 4.367,-13.0807 z" />
      <path
         inkscape:connector-curvature="0"
         id="path3528"
         style="fill:#1c58aa;fill-opacity:1;fill-rule:evenodd;stroke:none"
         d="m 1943.5527,2046.9354 c 0,-1.8952 0,-3.5225 -0.103,-4.3876 -0.082,-0.5974 -0.1853,-1.0507 -0.5973,-1.1331 -0.1855,-0.041 -0.4327,-0.082 -0.7416,-0.082 -0.2472,0 -0.3296,-0.062 -0.3296,-0.1647 0,-0.1442 0.1442,-0.206 0.412,-0.206 0.824,0 2.1217,0.062 2.5954,0.062 1.2154,0 2.5956,-0.1235 5.7061,-0.1235 0.7827,0 0.9681,0 1.1123,0.5355 0.103,0.412 0.2678,1.8127 0.2678,2.2865 0,0.206 0,0.3708 -0.1648,0.3708 -0.1441,0 -0.1854,-0.082 -0.2265,-0.3089 -0.1442,-0.8446 -0.3914,-1.2773 -0.927,-1.5245 -0.5356,-0.2471 -1.4008,-0.2471 -1.9363,-0.2471 -2.1012,0 -2.4308,0.3089 -2.4719,1.7303 -0.021,0.5974 0,2.4926 0,3.1929 v 1.6273 c 0,0.1238 0.02,0.206 0.1235,0.206 0.4944,0 2.5337,-0.021 2.9252,-0.062 0.7621,-0.082 1.0505,-0.3914 1.1535,-0.8034 0.062,-0.2678 0.062,-0.5356 0.082,-0.7415 0,-0.1031 0.041,-0.1855 0.1853,-0.1855 0.1855,0 0.1855,0.2266 0.1855,0.3914 0,0.1442 0.041,0.9681 0.082,1.3802 0.062,1.0506 0.1648,1.3802 0.1648,1.5037 0,0.1235 -0.062,0.1648 -0.1442,0.1648 -0.103,0 -0.1854,-0.103 -0.3296,-0.2678 -0.1854,-0.2061 -0.4944,-0.2678 -0.9888,-0.3089 -0.4737,-0.041 -2.8427,-0.041 -3.2959,-0.041 -0.1236,0 -0.1441,0.082 -0.1441,0.2265 v 5.2117 c 0,0.1441 0.041,0.2061 0.1441,0.2061 0.412,0 2.575,-0.041 2.9251,-0.083 1.03,-0.1235 1.2359,-0.3708 1.3802,-0.7414 0.1029,-0.2473 0.1236,-0.5974 0.1236,-0.7417 0,-0.1853 0.041,-0.2883 0.1854,-0.2883 0.1442,0 0.1854,0.1235 0.2059,0.2265 0.041,0.2471 0.082,1.1536 0.103,1.3596 0.062,0.9476 0.1648,1.1946 0.1648,1.3389 0,0.103 -0.021,0.1853 -0.1235,0.1853 -0.103,0 -0.2267,-0.062 -0.3296,-0.082 -0.1648,-0.041 -0.4944,-0.082 -0.8858,-0.1235 -0.3914,-0.021 -4.4906,-0.021 -5.1498,-0.021 -0.5768,0 -1.8745,0.062 -2.9663,0.062 -0.309,0 -0.4533,-0.041 -0.4533,-0.1853 0,-0.1443 0.1237,-0.1853 0.3502,-0.1853 0.2885,0 0.6386,-0.021 0.8034,-0.062 0.6798,-0.1442 0.8446,-0.4738 0.8858,-1.1743 0.041,-0.6592 0.041,-1.2358 0.041,-4.3669 v -3.6256 z" />
      <path
         inkscape:connector-curvature="0"
         id="path3530"
         style="fill:#1c58aa;fill-opacity:1;fill-rule:evenodd;stroke:none"
         d="m 1958.7382,2046.9354 c 0,-1.8952 0,-3.5225 -0.103,-4.3876 -0.082,-0.5974 -0.1854,-1.0507 -0.5974,-1.1331 -0.1853,-0.041 -0.4326,-0.082 -0.7416,-0.082 -0.2472,0 -0.3296,-0.062 -0.3296,-0.1647 0,-0.1442 0.1442,-0.206 0.412,-0.206 0.824,0 2.1218,0.062 2.5132,0.062 0.309,0 1.8332,-0.062 3.0281,-0.062 0.2678,0 0.412,0.062 0.412,0.206 0,0.103 -0.082,0.1647 -0.2472,0.1647 -0.2472,0 -0.7005,0.041 -1.0094,0.082 -0.618,0.082 -0.7416,0.5357 -0.8034,1.1331 -0.103,0.8651 -0.103,2.4924 -0.103,4.4082 v 0.2885 c 0,0.1235 0.062,0.1648 0.1648,0.1648 l 1.7922,-0.041 c 0.1442,0 0.2677,-0.021 0.3708,-0.1442 0.2678,-0.3089 1.2153,-1.7097 2.0393,-2.8427 1.1535,-1.5861 1.9364,-2.5544 2.8221,-3.0281 0.5356,-0.2884 1.0505,-0.3914 2.2041,-0.3914 h 1.957 c 0.2471,0 0.3914,0.041 0.3914,0.206 0,0.103 -0.082,0.1647 -0.2472,0.1647 -0.1648,0 -0.3502,0.021 -0.5768,0.062 -0.3091,0.062 -1.1535,0.206 -2.3071,1.4008 -1.2153,1.2771 -2.6367,3.1105 -4.4701,5.4176 2.0806,1.6892 2.7191,3.0898 2.7191,4.6143 0,1.3801 -0.824,2.4306 -1.4007,2.822 -1.1125,0.7622 -2.4926,0.8857 -3.7903,0.8857 -0.6386,0 -2.2041,-0.062 -2.9046,-0.062 -0.4325,0 -1.7303,0.062 -2.8221,0.062 -0.309,0 -0.4531,-0.041 -0.4531,-0.1853 0,-0.1443 0.1235,-0.1853 0.3502,-0.1853 0.2883,0 0.6385,-0.021 0.8033,-0.062 0.6798,-0.1442 0.8446,-0.4738 0.8858,-1.1743 0.041,-0.6592 0.041,-1.2358 0.041,-4.3669 v -3.6256 z m 2.4307,8.2604 c 0,0.1647 0.041,0.2473 0.1854,0.2883 0.206,0.062 0.5768,0.082 1.0918,0.082 1.2153,0 3.1518,-0.8447 3.1518,-3.7698 0,-1.6892 -0.5975,-2.6367 -1.2155,-3.0898 -0.3707,-0.2678 -0.6386,-0.3501 -1.4625,-0.3501 -0.515,0 -1.133,0.062 -1.5656,0.2058 -0.1441,0.062 -0.1854,0.1443 -0.1854,0.3708 v 6.2623 z" />
      <path
         inkscape:connector-curvature="0"
         id="path3532"
         style="fill:#1c58aa;fill-opacity:1;fill-rule:evenodd;stroke:none"
         d="m 1978.3344,2040.6732 c 1.0917,0 2.2453,0.1854 3.2753,0.8446 1.4831,0.9681 1.9363,2.3895 1.9363,3.5843 0,1.9569 -0.9064,3.3371 -3.3783,5.2528 l -0.5768,0.4326 c -1.7097,1.2977 -2.1835,2.0188 -2.1835,2.9664 0,1.2358 0.927,2.1215 2.4513,2.1215 1.339,0 1.9364,-0.6179 2.2454,-1.0092 0.4326,-0.5357 0.5355,-1.1741 0.5355,-1.3597 0,-0.247 0.062,-0.3706 0.2061,-0.3706 0.1647,0 0.2265,0.1648 0.2265,0.618 0,1.6066 0.082,2.2041 0.082,2.4719 0,0.144 -0.103,0.206 -0.2883,0.2471 -0.5357,0.1442 -1.4008,0.3503 -2.7398,0.3503 -2.8632,0 -4.7584,-1.6274 -4.7584,-3.8933 0,-1.6687 0.7827,-3.1106 3.0487,-4.8821 l 0.9475,-0.7416 c 1.7097,-1.3183 2.0188,-2.2865 2.0188,-3.2959 0,-1.0918 -0.9063,-2.3484 -2.7603,-2.3484 -1.2771,0 -2.4926,0.5563 -2.9457,2.0806 -0.1031,0.3502 -0.1855,0.7828 -0.1855,1.0505 0,0.1648 -0.021,0.3503 -0.2059,0.3503 -0.1648,0 -0.2267,-0.2266 -0.2472,-0.5356 -0.021,-0.3296 -0.103,-1.5655 -0.103,-2.6986 0,-0.4531 0.062,-0.5561 0.3914,-0.7003 0.8857,-0.3913 1.8127,-0.5356 3.0075,-0.5356 z" />
      <path
         inkscape:connector-curvature="0"
         id="path3534"
         style="fill:#1c58aa;fill-opacity:1;fill-rule:evenodd;stroke:none"
         d="m 1992.9191,2044.6077 c 0,-0.3296 0,-1.1948 -0.062,-2.0599 -0.041,-0.5974 -0.2266,-1.0507 -0.6386,-1.1331 -0.1854,-0.041 -0.4326,-0.082 -0.721,-0.082 -0.2266,0 -0.3296,-0.062 -0.3296,-0.1647 0,-0.1648 0.1648,-0.206 0.4532,-0.206 0.7622,0 2.0599,0.062 2.575,0.062 0.5561,0 1.8538,-0.062 3.1516,-0.062 0.2678,0 0.4326,0.062 0.4326,0.206 0,0.103 -0.103,0.1647 -0.3296,0.1647 -0.2883,0 -0.7416,0.041 -1.0299,0.082 -0.618,0.082 -0.8035,0.5357 -0.8446,1.1331 -0.062,0.8651 -0.062,1.7303 -0.062,2.0599 v 1.6891 c 0,0.6798 0,1.3184 0.309,2.0601 0.3707,0.8857 3.2546,5.7265 3.9344,6.5505 0.4533,0.5562 0.6798,0.8032 1.1125,1.0093 0.3089,0.1648 0.7003,0.2473 0.9063,0.2473 0.2266,0 0.3914,0.062 0.3914,0.2058 0,0.1238 -0.1442,0.1648 -0.3709,0.1648 -0.3913,0 -1.7508,-0.062 -2.2041,-0.062 -0.5974,0 -1.2566,0.062 -1.9362,0.062 -0.2472,0 -0.3503,-0.041 -0.3503,-0.1853 0,-0.1235 0.1855,-0.1648 0.3708,-0.206 0.3502,-0.082 0.4326,-0.3089 0.4326,-0.5149 0,-0.2679 -0.082,-0.618 -0.2884,-1.0713 -0.2884,-0.6384 -2.8839,-5.1704 -3.0899,-5.6648 -0.3296,0.5769 -3.2135,5.5412 -3.5018,6.1592 -0.1443,0.2885 -0.2472,0.5356 -0.2472,0.7004 0,0.1648 0.1029,0.3296 0.2883,0.3709 0.309,0.082 0.4532,0.103 0.4532,0.2265 0,0.1236 -0.103,0.1853 -0.309,0.1853 -0.9269,0 -1.7715,-0.062 -2.2041,-0.062 -0.6799,0 -2.2248,0.062 -2.5955,0.062 -0.2472,0 -0.3915,-0.062 -0.3915,-0.1853 0,-0.1443 0.1443,-0.1853 0.3091,-0.1853 0.2472,0 0.5973,-0.1238 0.8651,-0.2678 0.3914,-0.2266 0.9064,-0.7417 1.4214,-1.5039 0.7209,-1.0711 3.4813,-5.603 3.6255,-5.9326 0.2678,-0.5973 0.4737,-1.0504 0.4737,-2.1629 v -1.6891 z" />
      <path
         inkscape:connector-curvature="0"
         id="path3536"
         style="fill:#1c58aa;fill-opacity:1;fill-rule:evenodd;stroke:none"
         d="m 2009.3221,2046.9354 c 0,-1.8952 0,-3.5225 -0.1029,-4.3876 -0.062,-0.5974 -0.1854,-1.0507 -0.5974,-1.1331 -0.1854,-0.041 -0.4326,-0.082 -0.7416,-0.082 -0.2472,0 -0.3296,-0.062 -0.3296,-0.1647 0,-0.1442 0.1442,-0.206 0.412,-0.206 0.824,0 2.1217,0.062 2.5955,0.062 0.5767,0 1.8746,-0.062 3.2341,-0.062 0.2265,0 0.3913,0.062 0.3913,0.206 0,0.103 -0.1029,0.1647 -0.3295,0.1647 -0.309,0 -0.7621,0.041 -1.0506,0.082 -0.6179,0.082 -0.7416,0.5357 -0.8033,1.1125 -0.1031,0.8857 -0.1031,2.513 -0.1031,4.4082 v 8.4457 l 2.5956,-0.062 c 1.8333,-0.041 2.3896,-0.6179 2.4307,-1.1536 l 0.021,-0.2265 c 0.021,-0.3089 0.062,-0.4119 0.2266,-0.4119 0.1236,0 0.1648,0.1235 0.1854,0.3296 0,0.5354 0.062,1.9568 0.062,2.3894 0,0.3091 -0.021,0.4326 -0.1648,0.4326 -0.1648,0 -0.6592,-0.206 -1.9776,-0.206 h -8.1573 c -0.6798,0 -1.4625,0.041 -2.0599,0.103 -0.5151,0.041 -0.721,0.2473 -0.8858,0.2473 -0.1236,0 -0.1854,-0.1238 -0.2472,-0.3914 -0.041,-0.1648 -0.4326,-2.0395 -0.4326,-2.3691 0,-0.2266 0.041,-0.3296 0.1854,-0.3296 0.1236,0 0.1855,0.082 0.2266,0.2473 0.041,0.1648 0.1442,0.4119 0.3502,0.721 0.309,0.4531 0.8034,0.5561 1.9982,0.5974 l 3.0692,0.082 v -8.4457 z" />
      <path
         inkscape:connector-curvature="0"
         id="path3538"
         style="fill:#1c58aa;fill-opacity:1;fill-rule:evenodd;stroke:none"
         d="m 2023.378,2046.9354 c 0,-1.8952 0,-3.5225 -0.103,-4.3876 -0.082,-0.5974 -0.1855,-1.0507 -0.5974,-1.1331 -0.1855,-0.041 -0.4325,-0.082 -0.7416,-0.082 -0.2472,0 -0.3296,-0.062 -0.3296,-0.1647 0,-0.1442 0.1443,-0.206 0.412,-0.206 0.824,0 2.1217,0.062 2.5956,0.062 1.2153,0 2.5954,-0.1235 5.706,-0.1235 0.7827,0 0.9682,0 1.1123,0.5355 0.1031,0.412 0.2678,1.8127 0.2678,2.2865 0,0.206 0,0.3708 -0.1647,0.3708 -0.1443,0 -0.1855,-0.082 -0.2266,-0.3089 -0.1443,-0.8446 -0.3915,-1.2773 -0.927,-1.5245 -0.5357,-0.2471 -1.4008,-0.2471 -1.9364,-0.2471 -2.1011,0 -2.4307,0.3089 -2.4719,1.7303 -0.021,0.5974 0,2.4926 0,3.1929 v 1.6273 c 0,0.1238 0.021,0.206 0.1236,0.206 0.4944,0 2.5337,-0.021 2.9251,-0.062 0.7622,-0.082 1.0505,-0.3914 1.1535,-0.8034 0.062,-0.2678 0.062,-0.5356 0.082,-0.7415 0,-0.1031 0.041,-0.1855 0.1855,-0.1855 0.1854,0 0.1854,0.2266 0.1854,0.3914 0,0.1442 0.041,0.9681 0.082,1.3802 0.062,1.0506 0.1648,1.3802 0.1648,1.5037 0,0.1235 -0.062,0.1648 -0.1443,0.1648 -0.1029,0 -0.1853,-0.103 -0.3296,-0.2678 -0.1853,-0.2061 -0.4944,-0.2678 -0.9888,-0.3089 -0.4737,-0.041 -2.8426,-0.041 -3.2959,-0.041 -0.1235,0 -0.1441,0.082 -0.1441,0.2265 v 5.2117 c 0,0.1441 0.041,0.2061 0.1441,0.2061 0.4121,0 2.575,-0.041 2.9252,-0.083 1.0299,-0.1235 1.236,-0.3708 1.3801,-0.7414 0.1031,-0.2473 0.1237,-0.5974 0.1237,-0.7417 0,-0.1853 0.041,-0.2883 0.1853,-0.2883 0.1443,0 0.1854,0.1235 0.206,0.2265 0.041,0.2471 0.082,1.1536 0.1031,1.3596 0.062,0.9476 0.1648,1.1946 0.1648,1.3389 0,0.103 -0.021,0.1853 -0.1237,0.1853 -0.1029,0 -0.2266,-0.062 -0.3296,-0.082 -0.1648,-0.041 -0.4944,-0.082 -0.8857,-0.1235 -0.3914,-0.021 -4.4906,-0.021 -5.1498,-0.021 -0.5769,0 -1.8746,0.062 -2.9663,0.062 -0.3091,0 -0.4533,-0.041 -0.4533,-0.1853 0,-0.1443 0.1237,-0.1853 0.3503,-0.1853 0.2883,0 0.6385,-0.021 0.8033,-0.062 0.6798,-0.1442 0.8446,-0.4738 0.8857,-1.1743 0.041,-0.6592 0.041,-1.2358 0.041,-4.3669 v -3.6256 z" />
      <path
         inkscape:connector-curvature="0"
         id="path3540"
         style="fill:#1c58aa;fill-opacity:1;fill-rule:evenodd;stroke:none"
         d="m 2041.3032,2046.9354 c 0,-1.8952 0,-3.5225 -0.1031,-4.3876 -0.062,-0.5974 -0.1853,-1.0507 -0.5972,-1.1331 -0.1855,-0.041 -0.4327,-0.082 -0.7416,-0.082 -0.2472,0 -0.3296,-0.062 -0.3296,-0.1647 0,-0.1442 0.1442,-0.206 0.412,-0.206 0.824,0 2.1217,0.062 2.5954,0.062 0.5768,0 1.8745,-0.062 3.2342,-0.062 0.2265,0 0.3913,0.062 0.3913,0.206 0,0.103 -0.103,0.1647 -0.3296,0.1647 -0.3089,0 -0.7622,0.041 -1.0505,0.082 -0.618,0.082 -0.7416,0.5357 -0.8033,1.1125 -0.1031,0.8857 -0.1031,2.513 -0.1031,4.4082 v 8.4457 l 2.5955,-0.062 c 1.8335,-0.041 2.3896,-0.6179 2.4306,-1.1536 l 0.021,-0.2265 c 0.02,-0.3089 0.062,-0.4119 0.2266,-0.4119 0.1235,0 0.1648,0.1235 0.1853,0.3296 0,0.5354 0.062,1.9568 0.062,2.3894 0,0.3091 -0.021,0.4326 -0.1648,0.4326 -0.1648,0 -0.6591,-0.206 -1.9774,-0.206 h -8.1573 c -0.6798,0 -1.4626,0.041 -2.06,0.103 -0.515,0.041 -0.7209,0.2473 -0.8857,0.2473 -0.1237,0 -0.1854,-0.1238 -0.2472,-0.3914 -0.041,-0.1648 -0.4326,-2.0395 -0.4326,-2.3691 0,-0.2266 0.041,-0.3296 0.1854,-0.3296 0.1235,0 0.1853,0.082 0.2266,0.2473 0.041,0.1648 0.1441,0.4119 0.3502,0.721 0.3089,0.4531 0.8033,0.5561 1.998,0.5974 l 3.0694,0.082 v -8.4457 z" />
    </g>
  </g>
</svg>
