<?xml version="1.0" standalone="no"?>
<svg version="1.0" width="100%" height="100%" id="utilitarian-real_outcome-2020--warsaw-district-map-svg" viewBox="0 0 990 1050" xmlns="http://www.w3.org/2000/svg">
  <g transform="translate(-52.37206,-18.03387)" style="display:inline" id="utilitarian-real_outcome-2020--district-shapes-layer">
    <path d="M 598.67564,258.46687 L 557.55112,258.81829 L 550.208,260.35362 C 549.15454,254.69317 546.37804,257.18643 546.73714,261.26362 C 538.92823,264.50527 530.02248,269.15611 525.56537,270.09085 C 521.09644,271.02806 482.50956,286.77456 482.50956,286.77456 C 479.54328,283.40218 476.73101,285.88654 476.47784,289.22107 C 472.51339,291.39151 468.78454,293.03188 465.42921,293.83181 C 460.19695,294.59501 457.16686,293.25443 458.42913,298.15668 C 455.18709,300.72164 451.38303,302.38738 447.38288,303.73937 C 445.70545,301.88234 443.79917,300.19935 441.97292,300.72351 C 440.10358,295.82877 435.25319,293.86588 435.71131,302.60068 C 435.30776,305.16273 433.87196,307.72478 435.71131,310.28683 C 433.03031,311.1205 432.1066,313.74027 427.73523,314.92652 C 424.68012,315.75559 422.8086,318.46163 419.75106,319.52296 C 417.71573,319.33979 414.81929,319.43737 413.50946,320.37181 C 412.2646,321.25991 410.98707,321.14276 410.48386,320.07527 C 404.28768,306.9309 401.56927,318.2719 401.55062,321.10438 C 401.63009,323.90188 402.47591,326.55032 398.70628,328.90369 C 396.51121,330.84136 399.16424,331.03246 399.1577,332.49247 C 397.81058,333.5703 396.58319,334.48823 395.19064,335.305 C 382.87551,321.0091 367.65664,312.26945 355.50404,309.64413 C 334.05068,304.99613 320.76107,298.39847 305.91789,283.90766 C 298.11552,275.22581 296.87555,266.01021 292.299,259.35357 C 282.80961,245.55115 274.1266,239.36961 269.43937,237.35329 C 244.15901,226.4487 230.62502,202.60108 230.62502,177.23826 L 232.09276,139.57024 C 231.19832,128.56963 226.70127,121.47964 222.35087,114.53603 C 214.57595,105.72401 208.35374,96.523821 201.72865,87.424341 L 225.94977,71.853801 L 228.59865,62.447811 L 235.06259,62.211581 L 240.55247,64.847141 L 244.40541,68.281191 L 251.15704,61.807771 L 260.75728,67.604641 C 262.5099,67.882861 263.64344,67.614831 262.79788,65.600541 L 254.34666,48.251921 L 264.31419,53.933421 L 273.68368,35.692831 L 276.67394,37.885681 L 276.97296,35.692831 L 294.6155,35.792501 L 297.10738,30.609381 L 326.51161,29.712311 L 337.8746,63.502251 L 356.21487,63.701601 C 358.86464,61.644131 362.21277,59.586651 369.87589,57.529181 C 375.15646,55.820671 381.94452,52.454001 384.05302,51.214871 C 385.10754,50.595151 386.96109,50.189061 387.83239,50.491871 C 390.37583,51.823861 388.02791,53.464951 396.88242,53.534721 C 398.80205,51.473701 400.94614,49.889761 403.88049,47.973701 C 408.95518,47.668691 413.3953,46.787331 418.41229,45.660361 C 421.46216,52.336821 424.66584,59.059711 423.34348,66.791541 L 425.88794,72.871731 L 444.72659,74.466541 L 452.99964,71.974661 L 454.69412,73.469791 L 459.24268,70.221751 C 460.87489,65.659141 462.3423,55.604271 463.06685,47.753541 L 468.9477,42.371081 L 476.02465,53.734071 L 500.64446,50.544451 L 508.40646,45.332771 L 516.773,45.547291 L 518.70374,48.336141 L 518.91827,53.699311 L 529.85912,49.408771 L 546.80672,50.695931 L 547.02125,38.682441 L 555.60231,38.467921 L 576.41139,32.890231 C 577.23713,34.007421 583.43806,57.571221 584.34888,61.636791 L 582.36045,63.782051 L 587.99583,83.518501 L 595.58719,83.559971 L 604.59731,122.94993 L 592.92994,123.8495 C 594.98847,130.69383 596.13881,138.10577 596.9735,145.71499 L 603.72298,145.73121 L 604.00239,157.04343 L 607.19411,163.35896 C 609.61768,163.35501 608.53225,165.72562 608.65709,166.58896 L 605.37248,166.96935 L 613.30997,197.86118 L 585.79287,205.29569 C 591.39248,222.77143 595.21133,240.83862 598.67564,258.46687 z " style="fill: rgb(210, 231, 171); fill-opacity: 1; fill-rule: evenodd; stroke: none; stroke-width: 3; stroke-linecap: butt; stroke-linejoin: round; stroke-miterlimit: 4; stroke-opacity: 1; display: inline;" id="utilitarian-real_outcome-2020--bialoleka"></path>
    <path d="M 230.50096,176.42918 C 230.82997,204.57886 244.15901,226.4487 269.43937,237.35329 C 274.1266,239.36961 282.80961,245.55115 292.299,259.35357 C 296.87555,266.01021 298.11552,275.22581 305.91789,283.90766 C 320.76107,298.39847 334.05068,304.99613 355.50404,309.64413 C 367.97919,312.33913 382.51927,320.64428 395.15286,335.49206 C 391.74287,337.95285 388.74238,339.79293 384.53936,343.18854 C 379.35037,347.38071 376.94996,337.55317 372.44733,341.55078 C 370.85817,342.78227 370.45441,343.5609 371.6361,345.96602 C 372.15309,350.40514 370.11977,351.85612 368.11531,353.50344 L 329.01632,386.29437 C 322.06741,385.97217 320.70115,389.90157 320.07832,394.54987 C 317.30547,398.58928 314.82163,402.5874 311.04265,406.77054 C 307.95721,409.46601 305.61723,412.5221 304.65795,416.43251 C 302.71414,419.41242 300.46739,422.48192 298.19158,425.16058 C 296.55044,427.09222 294.22664,429.00354 293.41611,431.16982 L 272.12004,422.39027 L 265.84705,414.9971 L 214.99099,398.64251 L 200.20465,391.92144 L 163.23879,376.91107 L 157.18983,376.01492 L 146.8842,363.69297 L 138.81892,363.2449 L 137.25068,366.60543 L 128.60495,366.30961 C 123.75256,363.55967 119.66776,363.72263 115.74218,363.15768 L 117.9122,302.03535 L 115.98329,292.02914 C 115.98329,292.02914 125.44047,256.28776 125.86896,252.96871 C 126.34271,249.29898 118.89162,239.2343 114.97551,234.11655 C 114.50575,233.50265 115.8602,232.00583 117.30942,232.59461 C 125.83399,236.87892 137.49331,237.50079 147.68975,237.41688 C 149.72459,228.54596 149.51041,220.7707 161.98869,206.3709 C 171.00483,205.22556 179.75941,203.46993 187.85659,200.18036 L 188.99788,204.56684 L 193.14487,202.76523 L 196.68315,197.16644 L 203.15695,206.00473 L 223.54074,198.4991 L 224.62643,187.4721 L 230.50096,176.42918 z " style="fill: rgb(210, 231, 171); fill-opacity: 1; fill-rule: evenodd; stroke: none; stroke-width: 3; stroke-linecap: butt; stroke-linejoin: round; stroke-miterlimit: 4; stroke-opacity: 1; display: inline;" id="utilitarian-real_outcome-2020--bielany"></path>
    <path d="M 293.14283,431.16982 C 292.23833,436.47958 290.16172,441.34802 286.25828,445.50624 C 281.52675,450.54661 281.48827,453.75034 282.84222,456.89314 C 281.76612,460.68858 278.31532,464.89275 276.00889,468.3372 L 267.24121,476.42118 C 262.90827,475.72613 260.34122,480.3924 257.84702,481.88833 C 257.84702,481.88833 232.51535,502.05215 231.48207,507.0074 C 227.40473,526.56089 224.86497,537.18227 221.63764,552.82775 C 220.10783,560.21688 222.77633,566.7767 222.77633,566.7767 C 222.77633,566.7767 226.91689,576.12087 227.95761,582.20738 C 229.20974,589.53024 228.97629,591.88802 224.76665,596.03959 C 221.82489,598.94078 216.81395,602.08701 212.81198,601.81328 C 206.30348,601.36809 207.52819,604.97197 206.94738,607.27207 L 205.12426,614.60167 L 135.95124,628.55062 C 132.38468,629.8732 128.61577,630.11657 125.46838,633.67472 L 122.12259,633.67472 C 117.80245,629.72415 114.88265,632.06097 111.86843,633.61992 L 102.37669,633.68908 L 102.8426,632.00905 L 108.02654,604.63307 L 111.64325,604.39195 L 113.4516,574.25274 L 107.90598,571.72105 L 107.90598,558.09812 C 113.15818,556.72238 119.15853,552.95251 125.98951,546.52466 L 148.05142,546.28355 C 153.54956,526.11999 159.97922,505.50478 155.40539,490.22461 L 87.170206,477.56614 C 99.594369,459.29343 110.71623,440.69515 121.89058,422.10999 L 128.39669,366.26796 L 137.25068,366.60543 L 138.81892,363.2449 L 146.8842,363.69297 L 157.18983,376.01492 L 163.23879,376.91107 L 200.20465,391.92144 L 214.99099,398.64251 L 265.84705,414.9971 L 272.12004,422.39027 L 293.14283,431.16982 z " style="fill: rgb(172, 214, 143); fill-opacity: 1; fill-rule: evenodd; stroke: none; stroke-width: 3; stroke-linecap: butt; stroke-linejoin: round; stroke-miterlimit: 4; stroke-opacity: 1; display: inline;" id="utilitarian-real_outcome-2020--bemowo"></path>
    <path d="M 126.09471,633.55556 L 171.75065,663.05199 C 170.19644,671.74004 179.78209,675.97565 186.50488,677.23669 C 192.39448,680.62545 196.60308,684.42346 202.45174,692.23433 C 208.29091,699.28832 212.19197,694.19893 215.82349,692.66759 L 206.46883,721.0222 L 196.96499,723.13644 L 194.69729,721.28104 L 192.22343,723.34254 L 191.39881,727.46564 L 184.1834,728.29024 L 169.34028,728.90874 L 166.45411,734.47494 L 114.29701,734.68104 C 112.41514,736.16134 111.01629,735.70954 109.76161,734.68104 L 94.093863,735.09334 L 93.887709,704.17017 L 69.478027,714.80244 C 70.150707,714.66794 70.873026,699.66108 69.149162,698.81015 C 67.07621,699.49584 57.357471,666.96395 58.635279,665.20696 C 58.64527,653.69726 64.416328,644.63908 79.250735,639.43764 L 102.37669,634.02169 L 111.86843,633.61992 C 114.88265,632.06097 117.80245,629.72415 122.12259,633.67472 L 126.09471,633.55556 z " style="fill: rgb(180, 218, 149); fill-opacity: 1; fill-rule: evenodd; stroke: none; stroke-width: 3; stroke-linecap: butt; stroke-linejoin: round; stroke-miterlimit: 4; stroke-opacity: 1; display: inline;" id="utilitarian-real_outcome-2020--ursus"></path>
    <path d="M 205.12426,614.60167 L 135.95124,628.55062 C 132.38468,629.8732 128.79389,629.93845 125.9237,633.37744 L 171.75065,663.05199 C 170.19644,671.74004 179.78209,675.97565 186.50488,677.23669 C 192.39448,680.62545 196.60308,684.42346 202.45174,692.23433 C 208.29091,699.28832 212.19197,694.19893 215.82349,692.66759 L 206.31698,721.62603 L 197.58345,745.60724 L 210.15888,749.93644 L 210.57119,753.02884 L 214.28197,753.64724 L 215.93121,755.91494 L 216.13736,779.00424 L 221.08507,779.00424 L 230.15587,793.43514 L 227.47586,797.35204 L 241.90668,805.18594 L 241.28822,808.27824 C 248.81918,815.36184 259.43376,822.55414 272.26786,826.76434 C 276.22121,828.06124 279.79039,828.97534 283.73176,832.55214 L 297.07804,835.46464 L 297.31229,847.66224 C 311.83746,861.08244 324.87027,874.58084 347.72604,879.84124 C 355.55628,885.07228 357.71331,886.51124 366.34357,895.73947 L 368.61523,889.12004 C 368.78325,887.83634 372.38016,889.20884 380.32763,889.39124 L 376.01986,825.25154 C 376.58699,820.72304 374.21433,818.96734 374.8348,814.59724 C 374.87949,807.13574 374.19419,795.61584 374.3818,793.73114 C 375.03493,787.17024 375.47956,780.91854 374.44039,776.17434 L 373.83216,713.86044 C 373.26427,704.72075 369.37883,698.57976 363.07845,696.16164 C 338.06782,686.28293 313.05866,676.39546 287.84197,667.75312 C 283.60693,666.17797 279.33316,664.53555 276.66112,661.54847 C 273.98908,658.56139 271.08748,655.89869 267.381,649.13944 C 263.69268,642.41332 260.18243,637.41561 258.30906,634.99996 C 256.40556,632.54545 256.64463,625.88043 258.04542,621.89388 C 250.22957,623.06456 243.08521,626.48702 236.27436,630.74328 C 217.02982,629.54323 225.10549,622.03851 227.98505,615.7329 L 218.57556,615.7329 L 213.64678,612.37237 L 205.5815,612.37237 L 205.66944,612.4985 L 205.12426,614.60167 z " style="fill: rgb(167, 212, 140); fill-opacity: 1; fill-rule: evenodd; stroke: none; stroke-width: 3; stroke-linecap: butt; stroke-linejoin: round; stroke-miterlimit: 4; stroke-opacity: 1; display: inline;" id="utilitarian-real_outcome-2020--wlochy"></path>
    <path d="M 395.21868,335.43298 L 399.1577,332.49247 C 399.16424,331.03246 396.51121,330.84136 398.70628,328.90369 C 402.47591,326.55032 401.63009,323.90188 401.55062,321.10438 C 401.56927,318.2719 404.28768,306.9309 410.48386,320.07527 C 410.98707,321.14276 412.2646,321.25991 413.50946,320.37181 C 414.81929,319.43737 417.71573,319.33979 419.75106,319.52296 C 422.8086,318.46163 424.68012,315.75559 427.73523,314.92652 C 432.1066,313.74027 433.03031,311.1205 436.01842,310.4945 C 439.33377,317.30612 437.31778,320.84186 443.61195,327.22245 C 446.56626,330.22193 448.82219,334.87803 452.62955,340.52136 L 452.84408,362.40307 C 461.27694,374.9502 459.32767,399.50609 478.80179,398.44354 C 484.05428,403.67586 489.56793,408.75893 498.75277,411.74419 C 525.13954,424.63675 551.33865,433.73024 577.29636,444.59362 L 557.74758,449.28634 L 552.16989,455.72214 L 533.7206,467.09205 L 527.92838,469.45184 C 508.33131,481.1199 503.05697,483.10394 506.04667,504.84873 C 502.78324,511.69146 497.24454,516.87625 490.82771,521.68452 C 484.86795,513.17721 477.56475,505.7279 469.47047,498.51109 C 460.56471,491.58334 453.59967,483.7116 448.44554,474.18657 C 442.12901,462.20636 436.33843,452.47081 431.15299,443.74749 C 422.14021,428.58551 415.97455,408.54778 415.67709,391.05406 C 415.28896,368.19492 406.45946,349.03697 395.21868,335.43298 z " style="fill: rgb(177, 216, 147); fill-opacity: 1; fill-rule: evenodd; stroke: none; stroke-width: 3; stroke-linecap: butt; stroke-linejoin: round; stroke-miterlimit: 4; stroke-opacity: 1; display: inline;" id="utilitarian-real_outcome-2020--praga-polnoc"></path>
    <path d="M 360.69853,442.16527 L 373.19897,441.33408 L 373.85113,442.01737 L 398.50725,443.07483 C 399.69318,442.37138 401.14307,442.72379 402.51145,442.75016 L 404.7841,444.48171 L 411.60206,444.15704 C 414.04264,443.35968 416.09806,442.44678 417.87891,441.4515 C 418.44129,440.42663 419.6422,440.04029 421.12556,439.9364 L 427.35038,436.57736 C 428.66802,439.46588 429.53115,441.01911 431.15299,443.74749 C 436.33843,452.47081 442.12901,462.20636 448.44554,474.18657 C 453.59967,483.7116 460.56471,491.58334 469.47047,498.51109 C 477.56475,505.7279 484.55267,513.45088 490.93455,521.76376 C 495.65315,527.91009 504.67569,542.04448 511.94683,557.92587 C 514.96646,564.52125 525.02271,588.50646 553.48186,596.34064 L 547.33573,605.47697 L 530.94,609.45534 L 531.42222,611.98704 L 520.33099,615.12151 L 519.36654,612.58982 L 513.3387,613.91595 L 515.14705,622.35493 L 515.14705,625.4894 L 509.11921,631.51725 L 489.46844,631.87892 L 485.61062,642.12625 L 480.9089,641.76458 L 472.83159,642.12625 L 464.51317,632.4817 L 461.98147,624.64551 L 456.3153,618.49711 L 454.62751,619.09989 L 453.06027,617.65321 L 447.15298,619.22045 L 446.91187,620.54657 L 421.09497,627.80094 L 416.53154,603.4275 L 416.16987,580.76281 L 400.49748,542.06406 L 394.71075,518.43491 L 363.9527,460.59711 L 361.43011,450.70862 L 360.69853,442.16527 z " style="fill: rgb(182, 218, 150); fill-opacity: 1; fill-rule: evenodd; stroke: none; stroke-width: 3; stroke-linecap: butt; stroke-linejoin: round; stroke-miterlimit: 4; stroke-opacity: 1; display: inline;" id="utilitarian-real_outcome-2020--srodmiescie"></path>
    <path d="M 656.10727,386.36367 L 650.30049,386.64458 L 636.28774,340.30683 L 627.68325,340.30683 C 626.94807,337.37497 626.28796,334.4431 626.61062,331.51124 C 619.23872,322.57018 614.07694,313.09711 609.25832,305.08448 C 606.43701,300.39308 605.50634,294.9195 603.68184,289.81461 C 602.23428,285.76438 600.42635,282.21093 599.15121,278.30865 L 604.08532,276.59244 L 598.87947,258.62993 L 557.55112,258.81829 L 550.208,260.35362 C 549.15454,254.69317 546.37804,257.18643 546.73714,261.26362 C 538.92823,264.50527 530.02248,269.15611 525.56537,270.09085 C 521.09644,271.02806 482.50956,286.77456 482.50956,286.77456 C 479.54328,283.40218 476.73101,285.88654 476.47784,289.22107 C 472.51339,291.39151 468.78454,293.03188 465.42921,293.83181 C 460.19695,294.59501 457.16686,293.25443 458.42913,298.15668 C 455.18709,300.72164 451.38303,302.38738 447.38288,303.73937 C 445.70545,301.88234 443.79917,300.19935 441.97292,300.72351 C 440.10358,295.82877 435.25319,293.86588 435.71131,302.60068 C 435.30776,305.16273 433.68635,308.23522 436.11123,310.40169 C 439.42658,317.21331 437.31778,320.84186 443.61195,327.22245 C 446.56626,330.22193 448.82219,334.87803 452.62955,340.52136 L 452.84408,362.40307 C 461.27694,374.9502 459.32767,399.50609 478.80179,398.44354 C 484.05428,403.67586 489.56793,408.75893 498.75277,411.74419 C 525.13954,424.63675 551.59314,433.75082 577.55086,444.6142 L 590.35562,440.91981 L 594.00257,441.13433 L 605.80154,438.77454 L 662.89458,441.13166 L 656.85887,408.74082 L 659.00413,408.74082 L 659.00413,400.80333 L 660.93487,399.30165 L 656.85887,387.28816" style="fill: rgb(185, 220, 153); fill-opacity: 1; fill-rule: evenodd; stroke: none; stroke-width: 3; stroke-linecap: butt; stroke-linejoin: round; stroke-miterlimit: 4; stroke-opacity: 1; display: inline;" id="utilitarian-real_outcome-2020--targowek"></path>
    <path d="M 427.18597,436.68976 L 421.12556,439.9364 C 419.6422,440.04029 418.44129,440.42663 417.87891,441.4515 C 416.09806,442.44678 414.04264,443.35968 411.60206,444.15704 L 404.7841,444.48171 L 402.51145,442.75016 C 401.14307,442.72379 399.69318,442.37138 398.50725,443.07483 L 373.85113,442.01737 L 373.19897,441.33408 L 360.30504,442.20905 L 343.51231,451.35838 L 343.09782,452.36632 L 336.82097,455.73675 C 336.04298,457.41784 334.95524,457.24039 333.89898,457.25185 C 330.09962,458.3302 328.24967,460.05835 326.10704,461.68893 C 323.63426,462.38014 322.89533,461.77095 321.45351,461.68894 C 320.74081,460.63401 319.61282,459.99438 318.63974,459.19984 C 316.0785,459.48414 313.51725,457.28862 310.95601,456.27786 C 307.66971,456.2382 305.008,456.82315 303.16406,458.22585 C 300.56674,459.92181 299.5035,457.91603 297.42832,457.90118 C 292.65483,457.86515 289.57725,457.37237 286.49794,455.08742 C 284.59964,453.45229 283.67119,454.40345 282.64691,455.10919 C 282.08971,452.69781 281.52675,450.54661 286.25828,445.50624 C 290.16172,441.34802 292.30027,436.29771 293.20477,430.98794 C 294.22664,429.00354 296.55044,427.09222 298.19158,425.16058 C 300.46739,422.48192 302.71414,419.41242 304.65795,416.43251 C 305.61723,412.5221 307.95721,409.46601 311.04265,406.77054 C 314.82163,402.5874 317.30547,398.58928 320.07832,394.54987 C 320.70115,389.90157 322.06741,385.97217 329.01632,386.29437 L 368.11531,353.50344 C 370.11977,351.85612 372.15309,350.40514 371.6361,345.96602 C 370.45441,343.5609 370.85817,342.78227 372.44733,341.55078 C 376.94996,337.55317 379.35037,347.38071 384.53936,343.18854 C 388.80131,339.74531 391.82678,337.60083 395.49465,335.63453 C 406.8876,349.88975 415.29544,368.57693 415.67709,391.05406 C 415.97455,408.54778 422.14021,428.58551 431.15299,443.74749" style="fill: rgb(170, 213, 142); fill-opacity: 1; fill-rule: evenodd; stroke: none; stroke-width: 3; stroke-linecap: butt; stroke-linejoin: round; stroke-miterlimit: 4; stroke-opacity: 1; display: inline;" id="utilitarian-real_outcome-2020--zoliborz"></path>
    <path d="M 408.74772,562.70922 L 400.49748,542.06406 L 394.71075,518.43491 L 363.9527,460.59711 L 361.43011,450.70862 L 360.7415,441.96841 L 343.51231,451.35838 L 343.09782,452.36632 L 336.82097,455.73675 C 336.04298,457.41784 334.95524,457.24039 333.89898,457.25185 C 330.09962,458.3302 328.24967,460.05835 326.10704,461.68893 C 323.63426,462.38014 322.89533,461.77095 321.45351,461.68894 C 320.74081,460.63401 319.61282,459.99438 318.63974,459.19984 C 316.0785,459.48414 313.51725,457.28862 310.95601,456.27786 C 307.66971,456.2382 305.008,456.82315 303.16406,458.22585 C 300.56674,459.92181 299.5035,457.91603 297.42832,457.90118 C 292.65483,457.86515 289.57725,457.37237 286.49794,455.08742 C 284.59964,453.45229 283.67119,454.40345 282.59884,454.9926 C 281.96347,455.22489 282.42915,455.93431 282.84222,456.89314 C 281.76612,460.68858 278.31532,464.89275 276.00889,468.3372 L 267.24121,476.42118 C 262.90827,475.72613 260.34122,480.3924 257.84702,481.88833 C 257.84702,481.88833 232.51535,502.05215 231.48207,507.0074 C 227.40473,526.56089 224.86497,537.18227 221.63764,552.82775 C 220.10783,560.21688 222.77633,566.7767 222.77633,566.7767 C 222.77633,566.7767 226.91689,576.12087 227.95761,582.20738 C 229.20974,589.53024 228.97629,591.88802 224.76665,596.03959 C 221.82489,598.94078 216.81395,602.08701 212.81198,601.81328 C 206.30348,601.36809 207.53382,604.9734 206.94738,607.27207 L 205.60906,612.39114 L 213.64678,612.37237 L 218.57556,615.7329 L 227.98505,615.7329 C 225.10549,622.03851 217.02982,629.54323 236.27436,630.74328 C 243.08521,626.48702 250.22957,623.06456 258.22984,621.78186 C 261.44102,620.71192 264.65219,619.74988 267.86337,617.52519 C 273.92622,612.19176 277.66101,611.87242 280.63339,613.71658 L 296.98798,613.71658 C 300.37795,611.96505 303.5657,610.06185 304.60519,606.54745 C 306.54595,604.75428 308.1121,602.58651 308.86186,599.60235 L 316.25504,598.03409 L 321.18382,596.01778 L 330.36927,592.43321 L 332.16156,594.2255 C 337.61309,590.87258 343.06462,586.86822 348.51615,584.59197 C 352.39943,583.41732 356.28271,581.385 360.16599,579.66319 L 376.96865,573.61423 C 379.05965,572.2031 381.15065,571.01656 383.24165,571.37387 L 408.74772,562.70922 z " style="fill: rgb(212, 231, 172); fill-opacity: 1; fill-rule: evenodd; stroke: none; stroke-width: 3; stroke-linecap: butt; stroke-linejoin: round; stroke-miterlimit: 4; stroke-opacity: 1; display: inline;" id="utilitarian-real_outcome-2020--wola"></path>
    <path d="M 363.2222,696.20589 L 376.74778,629.46778 L 400.01525,633.68727 L 421.15262,627.76039 L 416.53154,603.4275 L 416.16987,580.76281 L 408.91011,562.74665 L 383.24165,571.37387 C 381.15065,571.01656 379.05965,572.2031 376.96865,573.61423 L 360.16599,579.66319 C 356.28271,581.385 352.39943,583.41732 348.51615,584.59197 C 343.06462,586.86822 337.61309,590.87258 332.16156,594.2255 L 330.36927,592.43321 L 321.18382,596.01778 L 316.25504,598.03409 L 308.86186,599.60235 C 308.1121,602.58651 306.54595,604.75428 304.60519,606.54745 C 303.5657,610.06185 300.37795,611.96505 296.98798,613.71658 L 280.63339,613.71658 C 277.66101,611.87242 273.92622,612.19176 267.86337,617.52519 C 264.65219,619.74988 261.35826,620.71192 257.96265,621.89388 C 256.56187,626.27233 256.40556,632.54545 258.30906,634.99996 C 260.18243,637.41561 263.69268,642.41332 267.381,649.13944 C 271.08748,655.89869 273.98908,658.56139 276.66112,661.54847 C 279.33316,664.53555 283.60693,666.17797 287.84197,667.75312 C 313.05866,676.39546 338.21157,686.32718 363.2222,696.20589 z " style="fill: rgb(197, 225, 161); fill-opacity: 1; fill-rule: evenodd; stroke: none; stroke-width: 3; stroke-linecap: butt; stroke-linejoin: round; stroke-miterlimit: 4; stroke-opacity: 1; display: inline;" id="utilitarian-real_outcome-2020--ochota"></path>
    <path d="M 714.81135,519.90041 L 710.39561,516.89518 C 709.30482,515.00285 709.79225,513.92002 710.507,512.57169 L 712.74716,509.24241 L 712.85031,502.05989 L 672.73383,452.9333 L 672.96343,441.55984 L 662.86561,441.13433 L 656.85887,408.74082 L 659.00413,408.74082 L 659.00413,400.80333 L 660.93487,399.30165 L 656.5386,386.27058 L 752.3232,367.4778 C 756.58244,366.64177 756.74965,357.28362 762.44359,355.79282 C 765.62816,354.94077 766.43789,352.22279 767.55459,349.746 L 780.59924,344.45675 L 789.23079,325.67756 L 799.30452,321.42849 L 806.59843,329.79503 L 804.87071,370.02463 L 803.166,376.77635 C 811.18869,385.99086 824.27807,404.74709 827.23935,404.40669 C 830.4644,404.03598 833.13378,409.65121 835.96333,413.88946 L 835.31975,441.13433 C 832.98822,445.31405 831.84892,450.40579 824.46182,451.69662 L 849.62626,455.18186 L 850.94196,477.33472 C 850.1314,480.25032 849.03555,478.88651 847.93459,477.4461 C 847.23311,474.9097 847.61346,473.23877 845.59551,469.64919 C 843.94832,468.88603 842.61116,470.29302 841.25152,471.54272 L 840.58322,477.22333 L 831.67247,480.11932 C 833.49063,484.20341 835.3341,488.28751 835.12538,492.3716 L 817.41527,496.60421 C 813.32282,499.37339 811.8789,501.14937 810.0639,503.0645 L 789.56918,509.30203 L 786.67318,509.74756 C 784.90854,508.39834 782.95547,507.28466 782.32919,504.5125 C 767.9224,509.48686 752.33282,513.57412 739.11206,519.438 L 735.88191,519.54939 L 730.53546,504.73527 C 729.09486,502.54439 728.02154,504.02636 726.85978,504.62388 C 722.50873,509.85849 718.96297,514.26694 714.81135,519.90041 z " style="fill: rgb(172, 214, 143); fill-opacity: 1; fill-rule: evenodd; stroke: none; stroke-width: 3; stroke-linecap: butt; stroke-linejoin: round; stroke-miterlimit: 4; stroke-opacity: 1; display: inline;" id="utilitarian-real_outcome-2020--rembertow"></path>
    <path d="M 966.29825,682.92387 L 963.43898,682.05724 L 962.90344,678.84398 L 910.688,678.30845 C 909.63895,669.31588 909.0744,660.96512 910.15246,651.26352 L 915.24012,647.78249 C 912.16781,642.96739 908.57523,634.51044 906.13589,634.12615 C 907.22092,630.02032 907.81462,625.91449 907.47475,621.80866 L 903.1904,613.50775 L 899.70937,613.23998 L 886.85634,589.94386 L 888.99852,589.14054 C 887.91534,581.75034 888.77293,571.44899 888.99852,562.09563 C 893.40411,560.25322 896.72227,557.32338 899.70937,554.06248 L 890.33737,542.54831 C 880.75063,536.80674 872.26475,536.01902 864.09577,536.65734 C 856.16948,531.19506 848.57462,525.40134 839.99633,520.59105 C 835.71199,519.03122 831.42765,512.9005 827.1433,508.8091 L 817.1906,496.6818 L 835.12538,492.3716 C 835.3341,488.28751 833.49063,484.20341 831.67247,480.11932 L 840.58322,477.22333 L 841.25152,471.54272 C 842.61116,470.29302 843.94832,468.88603 845.59551,469.64919 C 847.61346,473.23877 847.23311,474.9097 847.93459,477.4461 C 849.03555,478.88651 850.1314,480.25032 850.94196,477.33472 L 849.61904,455.23561 L 989.34984,429.5499 L 994.73825,464.94678 L 999.02878,464.73226 L 997.09804,493.69335 L 960.41399,496.05314 L 963.41737,529.30476 C 970.97911,531.18183 978.95537,530.57178 987.13066,528.76753 L 994.09467,521.15275 L 999.24331,521.15275 L 998.81426,531.45003 C 997.09483,536.5744 993.36989,541.43137 989.37509,546.25236 L 987.01529,581.64925 L 989.27593,581.6817 C 996.81791,597.35843 1003.3872,607.06053 1016.4054,629.48868 C 1012.2441,630.85279 1006.824,630.53844 1001.8176,630.77584 C 994.15879,634.2455 989.29901,638.59907 984.49866,642.97141 L 984.87003,651.58492 C 988.77646,654.33667 990.29255,656.45938 991.30582,658.44977 L 980.36497,663.59841 C 977.76582,666.74034 974.9011,668.6872 971.99843,670.46326 L 971.70097,675.69483 L 966.29825,682.92387 z " style="fill: rgb(165, 211, 139); fill-opacity: 1; fill-rule: evenodd; stroke: none; stroke-width: 3; stroke-linecap: butt; stroke-linejoin: round; stroke-miterlimit: 4; stroke-opacity: 1; display: inline;" id="utilitarian-real_outcome-2020--wesola"></path>
    <path d="M 620.75984,610.3735 L 629.50985,601.52828 C 629.75473,599.42366 630.90019,598.39973 632.62861,598.07536 L 683.53126,544.83364 L 695.78354,544.72225 C 701.60615,544.2102 703.19425,540.21092 704.02598,535.58874 C 707.38929,530.19765 711.03448,525.02622 714.62268,519.91505 L 710.39561,516.89518 C 709.30482,515.00285 709.79225,513.92002 710.507,512.57169 L 712.74716,509.24241 L 712.85031,502.05989 L 672.73383,452.9333 L 672.94836,441.56339 L 605.80154,438.77454 L 594.00257,441.13433 L 590.35562,440.91981 L 577.05497,444.78128 L 557.74758,449.28634 L 552.16989,455.72214 L 533.7206,467.09205 L 527.92838,469.45184 C 508.33131,481.1199 503.05697,483.10394 506.04667,504.84873 C 502.78324,511.69146 497.18937,516.79773 490.92957,521.63217 C 495.91326,527.71494 504.67569,542.31109 511.94683,557.92587 C 515.0089,564.50165 525.42262,588.63976 552.77483,596.15101 C 564.36141,599.33283 568.25998,598.28772 575.87915,597.5409 C 578.41479,597.29236 582.81996,597.18802 586.40817,597.59319 C 598.03364,598.90591 609.55671,602.44396 620.75984,610.3735 z " style="fill: rgb(207, 229, 169); fill-opacity: 1; fill-rule: evenodd; stroke: none; stroke-width: 3; stroke-linecap: butt; stroke-linejoin: round; stroke-miterlimit: 4; stroke-opacity: 1; display: inline;" id="utilitarian-real_outcome-2020--praga-poludnie"></path>
    <path d="M 817.21604,496.76391 C 813.12359,499.53309 811.8789,501.14937 810.0639,503.0645 L 789.56918,509.30203 L 786.67318,509.74756 C 784.90854,508.39834 782.95547,507.28466 782.32919,504.5125 C 767.9224,509.48686 752.33282,513.57412 739.11206,519.438 L 735.88191,519.54939 L 730.53546,504.73527 C 729.09486,502.54439 728.02154,504.02636 726.85978,504.62388 C 718.88488,514.21823 711.11585,524.22432 704.02598,535.58874 C 703.19425,540.21092 701.60615,544.2102 695.78354,544.72225 L 683.53126,544.83364 L 632.62861,598.07536 C 630.90019,598.39973 629.75473,599.42366 629.50985,601.52828 L 620.90945,610.38568 C 637.47707,623.84273 648.99731,643.54355 648.18851,667.46792 C 647.64936,682.22798 649.75206,691.02023 654.63467,704.00954 C 662.04416,723.72114 674.57393,739.09684 690.02912,750.65124 C 705.22731,759.79754 734.29511,772.31284 738.937,815.42514 C 740.45306,831.95794 752.39714,846.58224 763.66684,851.18874 C 775.09058,855.85834 785.96008,864.33904 788.49022,878.82214 C 798.01261,879.66704 807.0747,876.34794 815.82307,871.68924 L 816.68118,864.39534 L 844.99869,856.24334 L 846.50037,859.89024 L 908.92761,850.88014 C 923.87296,839.06414 938.81832,831.80214 953.76367,824.27884 L 986.37171,846.37504 L 984.01192,851.73824 L 1003.1048,868.04224 L 1019.4088,846.16054 L 999.88689,829.85654 L 1005.6791,817.62854 L 1012.544,815.48324 L 1015.7619,802.82614 C 1016.9763,798.55154 1015.2074,793.32764 1022.6267,791.02724 L 1030.1351,790.38364 L 1030.9932,788.02384 L 1037.7752,787.45414 C 1038.5984,783.22304 1035.0975,781.79664 1030.2667,781.23284 L 1029.533,768.91484 L 1035.7543,769.34384 L 1036.0842,773.99664 L 1038.0726,773.86504 L 1038.2871,765.49854 L 1034.6402,765.28404 L 1012.0825,734.35074 C 1018.0523,731.25384 1022.5697,726.37114 1025.1596,720.66244 L 966.08364,683.2429 L 966.92001,683.12833 L 963.43898,682.05724 L 962.90344,678.84398 L 910.688,678.30845 C 909.63895,669.31588 909.0744,660.96512 910.15246,651.26352 L 915.24012,647.78249 C 912.16781,642.96739 908.57523,634.51044 906.13589,634.12615 C 907.22092,630.02032 907.81462,625.91449 907.47475,621.80866 L 903.1904,613.50775 L 899.70937,613.23998 L 886.85634,589.94386 L 888.99852,589.14054 C 887.91534,581.75034 888.77293,571.44899 888.99852,562.09563 C 893.40411,560.25322 896.72227,557.32338 899.70937,554.06248 L 890.33737,542.54831 C 880.75063,536.80674 872.26475,536.01902 864.09577,536.65734 C 856.16948,531.19506 848.57462,525.40134 839.99633,520.59105 C 835.71199,519.03122 831.42765,512.9005 827.1433,508.8091 L 817.21604,496.76391 z " style="fill: rgb(212, 231, 172); fill-opacity: 1; fill-rule: evenodd; stroke: none; stroke-width: 3; stroke-linecap: butt; stroke-linejoin: round; stroke-miterlimit: 4; stroke-opacity: 1; display: inline;" id="utilitarian-real_outcome-2020--wawer"></path>
    <path d="M 363.36596,695.53294 L 376.74778,629.46778 L 400.01525,633.68727 L 446.91187,620.54657 L 447.15298,619.22045 L 453.06027,617.65321 L 454.62751,619.09989 L 456.3153,618.49711 L 461.98147,624.64551 L 464.51317,632.4817 L 472.83159,642.12625 L 480.9089,641.76458 L 485.61062,642.12625 L 489.46844,631.87892 L 509.11921,631.51725 L 515.14705,625.4894 L 515.14705,622.35493 L 513.3387,613.91595 L 519.36654,612.58982 L 520.33099,615.12151 L 531.42222,611.98704 L 530.94,609.45534 L 547.33573,605.47697 L 553.4241,596.36588 C 564.83687,599.22477 568.25998,598.28772 575.87915,597.5409 C 578.41479,597.29236 582.81996,597.18802 586.40817,597.59319 C 598.42604,598.95022 610.27739,602.68852 621.83993,611.1945 C 637.47707,624.26899 648.99731,643.54355 648.18851,667.46792 C 647.86429,676.34382 648.49542,683.60185 650.24655,690.22951 C 647.74672,690.61369 646.08656,692.90902 645.30123,696.41379 C 640.76404,697.50992 637.31384,699.69303 636.78119,704.79369 C 636.19218,710.16284 639.17624,715.19325 633.56168,720.5894 L 630.44279,720.99184 C 624.86561,722.50985 625.62446,734.99115 625.00987,740.61071 L 614.54647,742.01925 C 613.16881,738.49706 602.09017,732.42995 595.33003,726.62598 L 578.22609,743.62871 C 572.9547,749.66458 567.88241,755.93938 561.32398,760.43081 C 556.89307,759.94838 554.75572,761.07143 552.97338,762.443 L 564.94592,781.65944 C 565.19148,782.67094 564.79937,783.3636 563.43678,783.57102 C 556.5036,782.53704 548.94971,781.10807 544.824,781.86066 C 540.43071,783.94954 536.12296,784.0317 531.73561,784.56827 L 516.97726,770.39058 C 514.65158,769.32778 513.39949,767.36549 512.24013,765.46961 C 510.39357,764.72966 508.55997,763.94435 506.54811,763.78296 C 506.82498,769.74433 503.88474,774.73745 499.6253,779.71145 L 494.24749,785.91268 C 488.83182,789.3985 482.57272,792.51519 475.98319,794.73109 C 474.56064,794.59793 470.94677,791.53256 469.55116,791.32941 C 469.12394,791.26722 465.66197,791.22148 465.66197,791.22148 L 465.62996,792.953 L 463.41092,792.90449 C 462.09284,793.6879 462.33403,794.86114 462.31971,795.97049 C 459.87325,795.50135 457.42679,795.38965 454.98033,795.43083 C 453.88002,795.01056 453.08887,794.74487 451.19543,793.92803 C 451.20712,794.75585 451.81044,795.39668 451.88232,796.6501 C 450.50699,799.51698 449.05439,802.03024 448.60409,804.42946 L 444.7149,802.15101 L 442.34039,802.14639 L 442.35227,799.27612 L 433.96195,799.69233 C 433.02804,798.21238 433.28045,796.13928 432.96218,794.35151 C 430.65145,793.63521 428.21109,792.4004 425.73073,791.00561 L 424.88377,792.81571 C 424.46155,793.43644 423.86464,793.81002 422.23068,793.0012 C 420.91717,792.76593 408.56519,787.72582 399.45108,784.63398 L 397.76806,785.41691 C 391.33606,781.78138 385.02736,779.99519 378.67233,777.5141 C 377.83634,778.27169 377.62233,779.75492 377.26921,781.07586 C 376.39895,780.37128 375.48963,779.52519 374.93035,779.50903 L 374.45008,776.16447 L 373.83216,713.86044 C 373.26427,704.72075 369.37883,698.57976 363.07845,696.16164" style="fill: rgb(216, 233, 175); fill-opacity: 1; fill-rule: evenodd; stroke: none; stroke-width: 3; stroke-linecap: butt; stroke-linejoin: round; stroke-miterlimit: 4; stroke-opacity: 1; display: inline;" id="utilitarian-real_outcome-2020--mokotow"></path>
    <path d="M 639.34078,1016.607 C 638.62989,1016.9056 638.1834,1017.1189 636.8818,1015.8786 C 634.9947,1013.8383 633.83057,1011.075 632.52014,1008.458 C 630.56732,1007.6309 632.78643,1006.2917 631.04833,1005.3678 C 629.31023,1004.444 630.4019,1003.4702 630.26868,1002.4976 C 629.70023,999.94592 628.70257,997.70086 627.4245,995.6561 L 607.6044,992.83903 C 608.53856,991.218 616.25187,992.10231 621.38792,992.03415 C 622.80564,992.88535 624.19617,993.3015 625.51292,992.5372 C 624.77555,988.62037 620.79713,985.20819 619.27512,981.36954 C 617.85559,981.73837 616.24439,982.04315 614.31241,981.36954 C 612.38042,980.69593 610.8121,981.25677 609.06194,981.36954 C 610.13248,980.56418 611.19455,979.75728 611.17474,978.75368 C 610.76629,976.91356 608.78226,975.26543 607.50379,973.52198 L 614.44847,979.29739 C 616.32651,978.56641 617.90012,978.39295 619.77817,978.55247 C 620.08804,978.67642 618.09272,972.57458 617.26293,972.71711 C 615.21932,973.06813 612.05059,971.05331 612.73549,970.37598 C 614.15687,970.47517 615.76251,971.13315 616.73798,970.37859 C 615.9864,967.11819 612.93524,963.65446 611.93062,960.34212 C 610.73934,960.45695 608.99052,961.82625 608.91233,959.43664 C 609.6987,958.79196 610.18205,958.09678 609.75787,957.25034 C 608.52861,956.74751 608.0109,955.53314 607.24263,954.56933 C 605.2882,955.81234 603.62154,953.49398 599.93357,952.95957 C 601.81366,952.73737 603.3727,952.12799 604.45267,951.6162 C 603.55951,951.10616 602.32056,950.8476 602.47331,949.5769 C 603.08454,948.41047 603.68467,947.57261 605.08916,946.65922 C 602.66305,943.74084 601.00415,942.23048 599.45502,939.61654 C 598.5472,940.331 597.64724,941.12405 596.83917,942.83605 L 595.59381,939.96998 C 596.33576,939.78539 597.19098,939.74938 597.74466,938.81167 C 598.14929,936.36459 597.71632,935.50862 596.63399,935.22935 C 594.85345,934.76992 594.65248,931.81465 596.62701,930.37662 C 595.65865,929.19679 595.65593,927.59835 595.65647,926.41852 C 594.85244,925.66303 594.64672,924.66821 594.32393,923.72022 C 592.84059,923.43358 591.89792,923.82276 591.63197,925.05786 C 589.21734,922.85925 586.84077,924.17869 584.38808,925.05786 C 585.31932,923.90062 586.27557,922.82257 592.31435,922.16729 C 593.0396,921.88245 592.20986,918.60728 590.60138,914.16231 C 589.09126,913.51481 588.52537,915.96979 587.67015,917.47409 C 588.0983,916.21521 588.73045,914.42793 587.58309,913.75987 C 586.59455,914.13535 585.25731,914.96484 584.4789,913.95357 C 583.68197,912.91823 582.7523,913.47755 581.85095,913.68897 C 580.95239,911.15135 579.17005,908.76102 577.72335,906.31476 C 576.90382,907.16925 575.31561,906.87072 573.92729,906.87202 L 573.70991,899.43786 C 570.33988,892.91242 567.17732,886.53059 563.62445,880.22976 L 568.78525,877.14058 L 563.73861,869.0892 L 562.6809,869.89408 C 562.11256,868.06406 561.43855,867.50202 560.77193,866.85129 L 561.56586,866.03546 C 560.6249,865.46821 559.76821,863.88773 559.21982,862.63348 C 558.52688,861.03073 557.33467,860.9672 556.90414,859.70092 C 555.98683,857.64916 555.39777,857.05769 553.97948,855.5069 L 552.57094,856.41239 C 552.85483,854.88351 552.89968,853.29488 552.37493,851.56384 C 551.12295,850.64076 550.26897,851.71086 549.78671,851.27035 C 548.31024,850.35871 548.62987,849.6815 548.09772,848.581 L 547.64107,843.53436 C 546.35764,839.437 545.07514,838.49723 544.16873,834.5556 C 542.85187,830.97262 542.08118,829.9656 540.97896,827.5496 C 538.74622,822.65555 536.78278,818.55847 535.63881,819.60543 C 535.45936,816.52416 534.09219,815.19424 532.85146,813.49013 C 530.62562,810.08565 529.08123,808.55514 527.21709,806.14533 L 521.58318,798.80112 C 520.79512,798.8681 520.60222,798.78776 520.65319,801.56372 C 519.93711,801.63576 519.33341,800.35311 518.59173,798.90981 C 518.73609,797.91655 519.48237,797.44667 520.37586,797.05271 C 517.86312,794.67162 516.99956,792.29052 515.74782,789.90943 C 516.31853,788.35714 526.07627,786.36737 531.64414,784.57712 C 536.03743,783.98894 540.43071,783.94954 544.824,781.86066 C 548.94971,781.10807 556.5036,782.53704 563.43678,783.57102 C 564.79937,783.3636 565.19148,782.67094 564.94592,781.65944 L 552.97338,762.443 C 554.75572,761.07143 556.89307,759.94838 561.32398,760.43081 C 567.88241,755.93938 572.9547,749.66458 578.22609,743.62871 L 595.33003,726.62598 C 602.09017,732.42995 613.16881,738.49706 614.54647,742.01925 L 625.00987,740.61071 C 625.62446,734.99115 624.86561,722.50985 630.44279,720.99184 L 633.56168,720.5894 C 639.17624,715.19325 636.19218,710.16284 636.78119,704.79369 C 637.31384,699.69303 640.76404,697.50992 645.30123,696.41379 C 646.08656,692.90902 647.56665,690.79376 650.06123,690.27254 C 651.22969,694.45832 652.71799,698.91055 654.63467,704.00954 C 662.04416,723.72114 674.57393,739.09684 690.02912,750.65124 C 705.22731,759.79754 734.29511,772.31284 738.937,815.42514 C 740.45306,831.95794 752.39714,846.58224 763.66684,851.18874 C 775.09058,855.85834 785.92551,864.2441 788.45565,878.7272 C 781.22086,880.715 774.59901,882.52374 766.92696,882.77664 C 765.99048,885.56644 764.7704,886.08734 763.65799,887.46964 C 765.13268,892.71544 764.78027,894.30694 764.55122,896.14524 C 761.46544,897.39364 759.77405,896.73044 757.05873,896.86744 L 749.54821,904.66034 L 744.03941,915.41774 C 741.09779,919.13704 736.76714,921.41134 732.85861,923.39014 L 733.23033,927.89514 C 725.69623,934.62964 720.65701,943.99754 720.14421,958.14344 C 719.74998,960.19784 716.38245,962.29164 714.13747,958.35794 C 714.13747,958.35794 714.27501,955.76394 711.98156,952.63904 C 709.88965,949.78864 708.11477,945.12524 708.11477,945.12524 L 701.7506,950.28594 C 697.49591,967.45014 690.71539,979.40804 676.93512,976.93784 L 659.78363,992.81814 L 662.37391,998.03474 L 639.34078,1016.607 z " style="fill: rgb(147, 203, 126); fill-opacity: 1; fill-rule: evenodd; stroke: none; stroke-width: 3; stroke-linecap: butt; stroke-linejoin: round; stroke-miterlimit: 4; stroke-opacity: 1; display: inline;" id="utilitarian-real_outcome-2020--wilanow"></path>
    <path d="M 639.60473,1016.9906 L 641.98675,1017.5264 L 647.28909,1026.3628 L 642.78284,1026.828 C 639.0201,1028.927 632.3373,1031.3252 625.71366,1030.8785 C 616.51907,1030.2584 609.59069,1035.9719 608.31853,1037.0944 C 605.73432,1039.3747 605.06843,1043.412 601.75031,1048.7566 C 599.94711,1051.6611 596.43926,1054.8344 594.13597,1055.531 C 589.61112,1056.8993 586.08933,1053.1615 586.08933,1053.1615 L 537.32501,1018.7652 L 527.43136,1016.1123 L 518.87214,1009.8976 L 518.27144,1007.9751 L 507.81489,999.36864 L 503.53245,1002.551 L 502.8716,1005.8109 L 487.51715,1022.4441 L 488.75393,1024.6466 L 448.99855,1025.4941 L 448.64312,1034.2958 L 391.69336,1035.1691 C 385.42579,1036.626 380.23172,1035.3671 374.4395,1033.881 L 375.34265,1029.1517 C 375.34265,1029.1517 368.25263,1027.6398 368.74965,1026.5311 C 369.39323,1023.9568 373.87515,1008.708 373.87515,1008.708 L 368.5525,1006.5181 C 367.23695,1005.5826 367.22458,1003.4228 368.60325,1000.9866 C 370.96988,996.73364 372.89747,993.39784 375.39997,988.17714 L 370.29763,972.32534 C 370.72486,969.28374 372.21838,967.94224 374.04448,965.74504 C 376.02487,963.81074 377.42144,961.88674 379.03629,958.99624 L 365.00032,958.12024 C 365.46356,956.86544 359.72139,944.25374 357.44771,942.79084 C 358.09129,940.00204 358.02332,924.89184 358.02332,924.89184 L 370.25134,900.86484 C 368.87776,898.90959 367.553,897.17879 366.3157,895.54349 L 368.61523,889.12004 C 368.78325,887.83634 372.38016,889.20884 380.32763,889.39124 L 376.01986,825.25154 C 376.58699,820.72304 374.21433,818.96734 374.8348,814.59724 C 374.87949,807.13574 374.19419,795.61584 374.3818,793.73114 C 374.90311,788.4944 375.29159,783.45465 374.91455,779.36512 C 375.48963,779.52519 376.39895,780.37128 377.26921,781.07586 C 377.62233,779.75492 377.83634,778.27169 378.67233,777.5141 C 385.02736,779.99519 391.33606,781.78138 397.76806,785.41691 L 399.45108,784.63398 C 408.56519,787.72582 420.91717,792.76593 422.23068,793.0012 C 423.86464,793.81002 424.46155,793.43644 424.88377,792.81571 L 425.73073,791.00561 C 428.21109,792.4004 430.65145,793.63521 432.96218,794.35151 C 433.28045,796.13928 433.02804,798.21238 433.96195,799.69233 L 442.35227,799.27612 L 442.34039,802.14639 L 444.7149,802.15101 L 448.60409,804.42946 C 449.05439,802.03024 450.50699,799.51698 451.88232,796.6501 C 451.81044,795.39668 451.20712,794.75585 451.19543,793.92803 C 453.08887,794.74487 453.88002,795.01056 454.98033,795.43083 C 457.42679,795.38965 459.87325,795.50135 462.31971,795.97049 C 462.33403,794.86114 462.09284,793.6879 463.41092,792.90449 L 465.62996,792.953 L 465.66197,791.22148 C 465.66197,791.22148 469.12394,791.26722 469.55116,791.32941 C 470.94677,791.53256 474.56064,794.59793 475.98319,794.73109 C 482.57272,792.51519 488.83182,789.3985 494.24749,785.91268 L 499.6253,779.71145 C 503.88474,774.73745 506.82498,769.74433 506.54811,763.78296 C 508.55997,763.94435 510.39357,764.72966 512.24013,765.46961 C 513.39949,767.36549 514.65158,769.32778 516.97726,770.39058 L 531.65009,784.52551 C 526.07627,786.36737 516.31853,788.35714 515.74782,789.90943 C 516.99956,792.29052 517.86312,794.67162 520.37586,797.05271 C 519.48237,797.44667 518.73609,797.91655 518.59173,798.90981 C 519.33341,800.35311 519.93711,801.63576 520.65319,801.56372 C 520.60222,798.78776 520.79512,798.8681 521.58318,798.80112 L 527.21709,806.14533 C 529.08123,808.55514 530.62562,810.08565 532.85146,813.49013 C 534.09219,815.19424 535.45936,816.52416 535.63881,819.60543 C 536.78278,818.55847 538.74622,822.65555 540.97896,827.5496 C 542.08118,829.9656 542.85187,830.97262 544.16873,834.5556 C 545.07514,838.49723 546.35764,839.437 547.64107,843.53436 L 548.09772,848.581 C 548.62987,849.6815 548.31024,850.35871 549.78671,851.27035 C 550.26897,851.71086 551.12295,850.64076 552.37493,851.56384 C 552.89968,853.29488 552.85483,854.88351 552.57094,856.41239 L 553.97948,855.5069 C 555.39777,857.05769 555.98683,857.64916 556.90414,859.70092 C 557.33467,860.9672 558.52688,861.03073 559.21982,862.63348 C 559.76821,863.88773 560.6249,865.46821 561.56586,866.03546 L 560.77193,866.85129 C 561.43855,867.50202 562.11256,868.06406 562.6809,869.89408 L 563.73861,869.0892 L 568.78525,877.14058 L 563.62445,880.22976 C 567.17732,886.53059 570.33988,892.91242 573.70991,899.43786 L 573.92729,906.87202 C 575.31561,906.87072 576.90382,907.16925 577.72335,906.31476 C 579.17005,908.76102 580.95239,911.15135 581.85095,913.68897 C 582.7523,913.47755 583.68197,912.91823 584.4789,913.95357 C 585.25731,914.96484 586.59455,914.13535 587.58309,913.75987 C 588.73045,914.42793 588.0983,916.21521 587.67015,917.47409 C 588.52537,915.96979 589.09126,913.51481 590.60138,914.16231 C 592.20986,918.60728 593.0396,921.88245 592.31435,922.16729 C 586.27557,922.82257 585.31932,923.90062 584.38808,925.05786 C 586.84077,924.17869 589.21734,922.85925 591.63197,925.05786 C 591.89792,923.82276 592.84059,923.43358 594.32393,923.72022 C 594.64672,924.66821 594.85244,925.66303 595.65647,926.41852 C 595.65593,927.59835 595.65865,929.19679 596.62701,930.37662 C 594.65248,931.81465 594.85345,934.76992 596.63399,935.22935 C 597.71632,935.50862 598.14929,936.36459 597.74466,938.81167 C 597.19098,939.74938 596.33576,939.78539 595.59381,939.96998 L 596.83917,942.83605 C 597.64724,941.12405 598.5472,940.331 599.45502,939.61654 C 601.00415,942.23048 602.66305,943.74084 605.08916,946.65922 C 603.68467,947.57261 603.08454,948.41047 602.47331,949.5769 C 602.32056,950.8476 603.55951,951.10616 604.45267,951.6162 C 603.3727,952.12799 601.81366,952.73737 599.93357,952.95957 C 603.62154,953.49398 605.2882,955.81234 607.24263,954.56933 C 608.0109,955.53314 608.52861,956.74751 609.75787,957.25034 C 610.18205,958.09678 609.6987,958.79196 608.91233,959.43664 C 608.99052,961.82625 610.73934,960.45695 611.93062,960.34212 C 612.93524,963.65446 615.9864,967.11819 616.73798,970.37859 C 615.76251,971.13315 614.15687,970.47517 612.73549,970.37598 C 612.05059,971.05331 615.21932,973.06813 617.26293,972.71711 C 618.09272,972.57458 620.08804,978.67642 619.77817,978.55247 C 617.90012,978.39295 616.32651,978.56641 614.44847,979.29739 L 607.50379,973.52198 C 608.78226,975.26543 610.76629,976.91356 611.17474,978.75368 C 611.19455,979.75728 610.13248,980.56418 609.06194,981.36954 C 610.8121,981.25677 612.38042,980.69593 614.31241,981.36954 C 616.24439,982.04315 617.85559,981.73837 619.27512,981.36954 C 620.79713,985.20819 624.77555,988.62037 625.51292,992.5372 C 624.19617,993.3015 622.80564,992.88535 621.38792,992.03415 C 616.25187,992.10231 608.53856,991.218 607.6044,992.83903 L 627.4245,995.6561 C 628.70257,997.70086 629.70023,999.94592 630.26868,1002.4976 C 630.4019,1003.4702 629.31023,1004.444 631.04833,1005.3678 C 632.78643,1006.2917 630.56732,1007.6309 632.52014,1008.458 C 633.83057,1011.075 634.9947,1013.8383 636.8818,1015.8786 C 638.1834,1017.1189 638.76087,1016.7573 639.60473,1016.9906 z " style="fill: rgb(200, 227, 164); fill-opacity: 1; fill-rule: evenodd; stroke: none; stroke-width: 3; stroke-linecap: butt; stroke-linejoin: round; stroke-miterlimit: 4; stroke-opacity: 1; display: inline;" id="utilitarian-real_outcome-2020--ursynow"></path>
  </g>
  <g transform="translate(30.7708,-317.1503)" style="display:inline;opacity:1" id="utilitarian-real_outcome-2020--outlinelayer">
    <path d="m 140.39788,497.6155 -20.38379,7.50563 -6.4738,-8.83829 -3.53828,5.59879 -4.14699,1.80161 -1.14129,-4.38648 c -8.097176,3.28957 -16.851759,5.0452 -25.867897,6.19054 -12.478283,14.3998 -12.264098,22.17506 -14.298944,31.04598 -10.196435,0.0839 -21.855758,-0.53796 -30.380329,-4.82227 -1.449213,-0.58878 -2.803669,0.90804 -2.33391,1.52194 3.916112,5.11775 11.367201,15.18243 10.893448,18.85216 -0.428481,3.31905 -9.885663,39.06043 -9.885663,39.06043 l 1.92891,10.00621 -2.170024,61.12233 c 3.925581,0.56495 8.010377,0.40199 12.537914,2.77281 l -6.389514,56.1795 C 27.573368,739.81155 16.451509,758.40983 4.0273463,776.68254 l 68.2351817,12.65847 c 4.57384,15.28017 -1.855825,35.89538 -7.353969,56.05894 l -22.061905,0.24111 c -6.830977,6.42785 -12.831334,10.19772 -18.083528,11.57346 v 13.62293 l 5.545615,2.53169 -1.808353,30.13921 -3.616705,0.24112 -5.183945,27.37598 -0.789771,2.41797 -22.8020917,5.01062 c -14.8344073,5.20144 -20.6054653,14.25962 -20.6154563,25.76932 -1.277808,1.75699 8.440931,34.28888 10.513883,33.60319 1.723864,0.85093 1.001545,15.85775 0.328865,15.99225 l 24.409682,-10.6322 0.206155,30.9231 15.667746,-0.4123 c 1.254685,1.0285 2.653535,1.4803 4.5354,0 l 52.157104,-0.2061 2.886164,-5.5662 14.843132,-0.6185 7.2154,-0.8246 0.82462,-4.1231 2.47386,-2.0615 2.2677,1.8554 9.27695,-2.0616 -8.65849,24.5324 12.57543,4.3292 0.41231,3.0924 3.71078,0.6184 1.64924,2.2677 0.20615,23.0893 h 4.94771 l 9.0708,14.4309 -2.68001,3.9169 14.43082,7.8339 -0.61846,3.0923 c 7.53096,7.0836 18.14554,14.2759 30.97964,18.4861 3.95335,1.2969 7.52253,2.211 11.4639,5.7878 l 13.34628,2.9125 0.23425,12.1976 c 14.52517,13.4202 27.55798,26.9186 50.41375,32.179 8.08851,5.1019 15.79836,11.448 22.5253,21.0236 l -12.22802,24.027 c 0,0 0.068,15.1102 -0.57561,17.899 2.27368,1.4629 8.01585,14.0746 7.55261,15.3294 l 14.03597,0.876 c -1.61485,2.8905 -3.01142,4.8145 -4.99181,6.7488 -1.8261,2.1972 -3.31962,3.5387 -3.74685,6.5803 l 5.10234,15.8518 c -2.5025,5.2207 -4.43009,8.5565 -6.79672,12.8095 -1.37867,2.4362 -1.3663,4.596 -0.0507,5.5315 l 5.32265,2.1899 c 0,0 -4.48192,15.2488 -5.1255,17.8231 -0.49702,1.1087 6.593,2.6206 6.593,2.6206 l -0.90315,4.7293 c 5.79222,1.4861 10.98629,2.745 17.25386,1.2881 l 56.94976,-0.8733 0.35543,-8.8017 39.75538,-0.8475 -1.23678,-2.2025 15.35445,-16.6332 0.66085,-3.2599 4.28244,-3.1824 10.45655,8.6065 0.6007,1.9225 8.55922,6.2147 9.89365,2.6529 48.76432,34.3963 c 0,0 3.52179,3.7378 8.04664,2.3695 2.30329,-0.6966 5.81114,-3.8699 7.61434,-6.7744 3.31812,-5.3446 3.98401,-9.3819 6.56822,-11.6622 1.27216,-1.1225 8.20054,-6.836 17.39513,-6.2159 6.62364,0.4467 13.30644,-1.9515 17.06918,-4.0505 l 4.50625,-0.4652 -5.30234,-8.8364 -2.53113,-1.0318 22.91829,-18.4599 -2.59028,-5.2166 17.15149,-15.8803 c 13.78027,2.4702 20.56079,-9.4877 24.81548,-26.6519 l 6.36417,-5.1607 c 0,0 1.77488,4.6634 3.86679,7.5138 2.29345,3.1249 2.15591,5.7189 2.15591,5.7189 2.24498,3.9337 5.61251,1.8399 6.00674,-0.2145 0.5128,-14.1459 5.55202,-23.5138 13.08612,-30.2483 l -0.37172,-4.505 c 3.90853,-1.9788 8.23918,-4.2531 11.1808,-7.9724 l 5.5088,-10.7574 7.51052,-7.7929 c 2.71532,-0.137 4.40671,0.5262 7.49249,-0.7222 0.22905,-1.8383 0.58146,-3.4298 -0.89323,-8.6756 1.11241,-1.3823 2.33249,-1.9032 3.26897,-4.693 7.67205,-0.2529 14.24643,-1.9667 21.33575,-3.9678 9.66786,0.8582 18.81199,-2.4609 27.56036,-7.1196 l 0.85811,-7.2939 28.31751,-8.152 1.50168,3.6469 62.42724,-9.0101 c 14.94535,-11.816 29.89071,-19.078 44.83606,-26.6013 l 32.60804,22.0962 -2.35979,5.3632 19.09287,16.304 16.30402,-21.8817 -19.52192,-16.304 5.79222,-12.228 6.86485,-2.1453 3.2179,-12.6571 c 1.21448,-4.2746 -0.55448,-9.4985 6.86485,-11.7989 l 7.50843,-0.6436 0.8581,-2.3598 6.78192,-0.5697 c 0.82321,-4.2311 -2.67767,-5.6575 -7.50843,-6.2213 l -0.73371,-12.318 6.22128,0.429 0.32989,4.6528 1.98843,-0.1316 0.21453,-8.3665 -3.64695,-0.2145 -22.55774,-30.9333 c 5.96987,-3.0969 10.4872,-7.9796 13.0771,-13.6883 l -59.07592,-37.4195 5.61733,-7.54807 0.29746,-5.23157 c 2.90267,-1.77606 5.76739,-3.72292 8.36654,-6.86485 l 10.94085,-5.14864 c -1.01327,-1.99039 -2.52936,-4.1131 -6.43579,-6.86485 l -0.37137,-8.61351 c 4.80035,-4.37234 9.66013,-8.72591 17.31897,-12.19557 5.00635,-0.2374 10.4265,0.077 14.58781,-1.28716 -13.01822,-22.42815 -19.58753,-32.13025 -27.12951,-47.80698 l -2.26064,-0.0324 2.3598,-35.39689 c 3.9948,-4.82099 7.71974,-9.67796 9.43917,-14.80233 l 0.42905,-10.29728 h -5.14864 l -6.96401,7.61478 c -8.17529,1.80425 -16.15155,2.4143 -23.71329,0.53723 l -3.00338,-33.25162 36.68405,-2.35979 1.93074,-28.96109 -4.29053,0.21452 -5.38841,-35.39688 -139.59912,25.66025 -25.2889,-3.51353 c 7.3871,-1.29083 8.5264,-6.38257 10.85793,-10.56229 l 0.64358,-27.24487 c -2.82955,-4.23825 -5.49893,-9.85348 -8.72398,-9.48277 -2.96128,0.3404 -16.05066,-18.41583 -24.07335,-27.63034 l 1.70471,-6.75172 1.72772,-40.2296 -7.29391,-8.36654 -10.07373,4.24907 -8.63155,18.77919 -13.04465,5.28925 c -1.1167,2.47679 -1.92643,5.19477 -5.111,6.04682 -5.69394,1.4908 -5.86115,10.84895 -10.12039,11.68498 l -96.21593,18.88587 -5.80678,0.28091 -14.01275,-46.33775 h -8.60449 c -0.73518,-2.93186 -1.39529,-5.86373 -1.07263,-8.79559 -7.3719,-8.94106 -12.53368,-18.41413 -17.3523,-26.42676 -2.82131,-4.6914 -3.75198,-10.16498 -5.57648,-15.26987 -1.44756,-4.05023 -3.25549,-7.60368 -4.53063,-11.50596 l 4.93411,-1.71621 -5.27798,-18.30667 c -3.46431,-17.62825 -7.41486,-35.51434 -13.01447,-52.99008 l 27.5171,-7.43451 -7.93749,-30.89183 3.28461,-0.38039 c -0.12484,-0.86334 0.96059,-3.23395 -1.46298,-3.23 l -3.19172,-6.31553 -0.27941,-11.31222 -6.74948,-0.0162 c -0.83469,-7.60922 -1.98503,-15.02116 -4.04356,-21.86549 l 11.66737,-0.89957 -9.01012,-39.38996 -7.59136,-0.0415 -5.63538,-19.73645 1.98843,-2.14526 c -0.91082,-4.06557 -7.11175,-27.62937 -7.93749,-28.74656 l -20.80908,5.57769 -8.58106,0.21452 -0.21453,12.01349 -16.9476,-1.28716 -10.94085,4.29054 -0.21453,-5.36317 -1.93074,-2.78885 -8.36654,-0.21452 -7.762,5.21168 -24.61981,3.18962 -7.07695,-11.36299 -5.88085,5.38246 c -0.72455,7.85073 -2.19196,17.9056 -3.82417,22.46821 l -4.54856,3.24804 -1.69448,-1.49513 -8.27305,2.49188 -18.83865,-1.59481 -2.54446,-6.08019 c 1.32236,-7.73183 -1.88132,-14.45472 -4.93119,-21.13118 -5.01699,1.12697 -9.45711,2.00833 -14.5318,2.31334 -2.93435,1.91606 -5.07844,3.5 -6.99807,5.56102 -8.85451,-0.0698 -6.50659,-1.71086 -9.05003,-3.04285 -0.8713,-0.30281 -2.72485,0.10328 -3.77937,0.723 -2.1085,1.23913 -8.89656,4.6058 -14.17713,6.31431 -7.66312,2.05747 -11.01125,4.11495 -13.66102,6.17242 l -18.34027,-0.19935 -11.36299,-33.78994 -29.40423,0.89707 -2.49188,5.18312 -17.64254,-0.0997 -0.29902,2.19285 -2.99026,-2.19285 -9.36949,18.24059 -9.96753,-5.6815 8.45122,17.34862 c 0.84556,2.01429 -0.28798,2.28232 -2.0406,2.0041 l -9.60024,-5.79687 -6.75163,6.47342 -3.85294,-3.43405 -5.48988,-2.63556 -6.46394,0.23623 -2.64888,9.40599 -24.22112,15.57054 c 6.62509,9.09948 12.8473,18.29967 20.62222,27.11169 4.3504,6.94361 8.84745,14.0336 9.74189,25.03421 l -1.83193,37.07923 -5.6344,10.82263 z" style="opacity:1;fill:none;fill-rule:evenodd;stroke:#000000;stroke-width:4;stroke-linecap:butt;stroke-linejoin:round;stroke-miterlimit:4;stroke-dasharray:none;stroke-opacity:1" id="utilitarian-real_outcome-2020--outlinepath"></path>
  </g>
  <g transform="translate(30.7708,-317.1503)" style="display:inline;opacity:1" id="utilitarian-real_outcome-2020--borders">
    <path d="m 147.59823,475.32528 c -0.24576,28.14968 13.41792,50.23982 38.69828,61.14441 4.68723,2.01632 13.37024,8.19786 22.85963,22.00028 4.57655,6.65664 5.81652,15.87224 13.61889,24.55409 14.84318,14.49081 28.13279,21.08847 49.58615,25.73647 23.80104,5.14172 59.36359,33.73666 60.17305,81.40993 0.29746,17.49372 6.46312,37.53145 15.4759,52.69343 5.18544,8.72332 10.97602,18.45887 17.29255,30.43908 5.15413,9.52503 12.11917,17.39677 21.02493,24.32452 8.09428,7.21681 15.50218,14.74464 21.46408,23.38597 5.13858,5.81788 13.74114,20.41403 21.01228,36.02881 3.06207,6.57578 13.47579,30.71389 40.828,38.22514 11.58658,3.18182 15.48515,2.13671 23.10432,1.38989 2.53564,-0.24854 6.94081,-0.35288 10.52902,0.0523 12.01787,1.35703 23.86922,5.09533 35.43176,13.60131 15.63714,13.07449 27.15738,32.34905 26.34858,56.27342 -0.53915,14.76006 1.56355,23.55231 6.44616,36.54157 7.40949,19.7116 19.93926,35.0873 35.39445,46.6417 15.19819,9.1463 44.26599,21.6616 48.90788,64.7739 1.51606,16.5328 13.46014,31.1571 24.72984,35.7636 11.42374,4.6696 22.2112,13.1503 24.88682,27.6467" style="display:inline;opacity:1;fill:none;fill-rule:evenodd;stroke:#ffffff;stroke-width:3;stroke-linecap:butt;stroke-linejoin:round;stroke-miterlimit:4;stroke-dasharray:none;stroke-opacity:1" id="utilitarian-real_outcome-2020--path2061"></path>
    <path d="m 337.96984,926.89638 -4.58116,-24.35248 -0.36167,-22.66469 -15.67239,-38.69875 -5.78673,-23.62915 -30.75805,-57.8378 -2.52259,-9.88849 -0.68305,-8.24217" style="display:inline;opacity:1;fill:none;fill-rule:evenodd;stroke:#ffffff;stroke-width:3;stroke-linecap:butt;stroke-linejoin:round;stroke-miterlimit:4;stroke-dasharray:none;stroke-opacity:1" id="utilitarian-real_outcome-2020--path2063"></path>
    <path d="m 280.2231,994.64934 13.38182,-66.06516 23.26747,4.21949 46.89662,-13.1407 0.24111,-1.32612 5.90729,-1.56724 1.56724,1.44668 1.68779,-0.60278 5.66617,6.1484 2.5317,7.83619 8.31842,9.64455 8.07731,-0.36167 4.70172,0.36167 3.85782,-10.24733 19.65077,-0.36167 6.02784,-6.02785 v -3.13447 l -1.80835,-8.43898 6.02784,-1.32613 0.96445,2.53169 11.09123,-3.13447 -0.48222,-2.5317 16.39573,-3.97837 5.78673,-8.6801" style="display:inline;opacity:1;fill:none;fill-rule:evenodd;stroke:#ffffff;stroke-width:3;stroke-linecap:butt;stroke-linejoin:round;stroke-miterlimit:4;stroke-dasharray:none;stroke-opacity:1" id="utilitarian-real_outcome-2020--path2065"></path>
    <path d="m 573.71601,686.40456 4.076,12.01349 -1.93074,1.50168 v 7.93749 h -2.14526 l 6.00674,32.39351" style="display:inline;opacity:1;fill:none;fill-rule:evenodd;stroke:#ffffff;stroke-width:3;stroke-linecap:butt;stroke-linejoin:round;stroke-miterlimit:4;stroke-dasharray:none;stroke-opacity:1" id="utilitarian-real_outcome-2020--path2069"></path>
    <path d="m 631.32051,818.88709 -4.06776,-2.87551 c -1.09079,-1.89233 -0.60336,-2.97516 0.11139,-4.32349 l 2.24016,-3.32928 0.10315,-7.18252 -40.11648,-49.12659 0.21453,-11.36991 -67.14682,-2.78885 -11.79897,2.35979 -3.64695,-0.21452 -13.30065,3.86147 -19.30739,4.50506 -5.57769,6.4358 -18.44929,11.36991 -5.79222,2.35979 c -19.59707,11.66806 -24.87141,13.6521 -21.88171,35.39689 -3.26343,6.84273 -8.69743,11.949 -14.80233,16.51855" style="display:inline;opacity:1;fill:none;fill-rule:evenodd;stroke:#ffffff;stroke-width:3;stroke-linecap:butt;stroke-linejoin:round;stroke-miterlimit:4;stroke-dasharray:none;stroke-opacity:1" id="utilitarian-real_outcome-2020--path2071"></path>
    <path d="m 494.77022,743.89768 c -26.38677,-10.86338 -52.77354,-20.14453 -79.16031,-33.03709 -9.18484,-2.98526 -14.69849,-8.06833 -19.95098,-13.30065 -19.47412,1.06255 -17.52485,-23.49334 -25.95771,-36.04047 l -0.21453,-21.88171 c -3.80736,-5.64333 -6.06329,-10.29943 -9.0176,-13.29891 -6.29417,-6.38059 -4.27818,-9.91633 -7.28642,-16.52029" style="display:inline;opacity:1;fill:none;fill-rule:evenodd;stroke:#ffffff;stroke-width:3;stroke-linecap:butt;stroke-linejoin:round;stroke-miterlimit:4;stroke-dasharray:none;stroke-opacity:1" id="utilitarian-real_outcome-2020--path2073"></path>
    <path d="m 45.370434,665.72183 h 8.737384 l 1.568249,-3.36053 8.065278,0.44807 10.305632,12.32195 6.048959,0.89615 36.965854,15.01037 14.78634,6.72107 50.85606,16.35459 6.27299,7.39317 21.50741,8.96142" style="fill:none;fill-rule:evenodd;stroke:#ffffff;stroke-width:3;stroke-linecap:butt;stroke-linejoin:round;stroke-miterlimit:4;stroke-dasharray:none;stroke-opacity:1" id="utilitarian-real_outcome-2020--path1899"></path>
    <path d="m 325.4148,861.97693 -25.31601,8.51334 c -2.091,-0.35731 -4.182,0.82923 -6.273,2.24036 l -16.80266,6.04896 c -3.88328,1.72181 -7.76656,3.75413 -11.64984,4.92878 -5.45153,2.27625 -10.90306,6.28061 -16.35459,9.63353 l -1.79229,-1.79229 -9.18545,3.58457 -4.92878,2.01631 -7.39318,1.56826 c -0.74976,2.98416 -2.31591,5.15193 -4.25667,6.9451 -1.03949,3.5144 -4.22724,5.4176 -7.61721,7.16913 h -16.35459 c -2.97238,-1.84416 -6.70717,-1.52482 -12.77002,3.80861 -3.21118,2.22469 -6.42235,3.18673 -9.63353,4.25667 -8.00027,1.2827 -15.14463,4.70516 -21.95548,8.96142 -19.24454,-1.20005 -11.16887,-8.70477 -8.28931,-15.01038 h -9.40949 l -4.92878,-3.36053 h -8.06528" style="fill:none;fill-rule:evenodd;stroke:#ffffff;stroke-width:3;stroke-linecap:butt;stroke-linejoin:round;stroke-miterlimit:4;stroke-dasharray:none;stroke-opacity:1" id="utilitarian-real_outcome-2020--path1901"></path>
    <path d="m 174.71813,921.1223 c -1.21636,4.26643 -1.45543,10.53955 0.44807,12.99406 1.87337,2.41565 5.38362,7.41336 9.07194,14.13948 3.70648,6.75925 6.60808,9.42195 9.28012,12.40903 2.67204,2.98708 6.94581,4.6295 11.18085,6.20465 25.21669,8.64234 50.22585,18.52981 75.23648,28.40852 6.30038,2.41812 10.18582,8.55916 10.75371,17.69876 l 0.60823,62.3139 c 1.03917,4.7442 0.59454,10.9959 -0.0586,17.5568 -0.18761,1.8847 0.49769,13.4046 0.453,20.8661 -0.62047,4.3701 1.75219,6.1258 1.18506,10.6543 l 4.30777,64.1397 c -7.94747,-0.1824 -11.54438,-1.5549 -11.7124,-0.2712 l -2.17624,6.4012" style="fill:none;fill-rule:evenodd;stroke:#ffffff;stroke-width:3;stroke-linecap:butt;stroke-linejoin:round;stroke-miterlimit:4;stroke-dasharray:none;stroke-opacity:1" id="utilitarian-real_outcome-2020--path1903"></path>
    <path d="m 537.90177,909.33266 8.46522,-8.68798 c 0.24488,-2.10462 1.39034,-3.12855 3.11876,-3.45292 l 50.90265,-53.24172 12.25228,-0.11139 c 5.82261,-0.51205 7.41071,-4.51133 8.24244,-9.13351 7.08987,-11.36442 14.8589,-21.37051 22.8338,-30.96486 1.16176,-0.59752 2.23508,-2.07949 3.67568,0.11139 l 5.34645,14.81412 3.23015,-0.11139 c 13.22076,-5.86388 28.81034,-9.95114 43.21713,-14.9255 0.62628,2.77216 2.57935,3.88584 4.34399,5.23506 l 2.896,-0.44553 20.49472,-6.23753 c 1.815,-1.91513 3.25892,-3.69111 7.35137,-6.46029 l 17.71011,-4.23261 c 0.20872,-4.08409 -1.63475,-8.16819 -3.45291,-12.25228 l 8.91075,-2.89599 0.6683,-5.68061 c 1.35964,-1.2497 2.6968,-2.65669 4.34399,-1.89353 2.01795,3.58958 1.6376,5.26051 2.33908,7.79691 1.10096,1.44041 2.19681,2.80422 3.00737,-0.11138 l -1.33661,-22.38826" style="fill:none;fill-rule:evenodd;stroke:#ffffff;stroke-width:3;stroke-linecap:butt;stroke-linejoin:round;stroke-miterlimit:4;stroke-dasharray:none;stroke-opacity:1" id="utilitarian-real_outcome-2020--path1905"></path>
    <path d="m 883.77715,982.24473 -3.48103,-1.07109 -0.53554,-3.21326 -52.21544,-0.53553 c -1.04905,-8.99257 -1.6136,-17.34333 -0.53554,-27.04493 l 5.08766,-3.48103 c -3.07231,-4.8151 -6.66489,-13.27205 -9.10423,-13.65634 1.08503,-4.10583 1.67873,-8.21166 1.33886,-12.31749 l -4.28435,-8.30091 -3.48103,-0.26777 -12.85303,-23.29612 2.14218,-0.80332 c -1.08318,-7.3902 -0.22559,-17.69155 0,-27.04491 4.40559,-1.84241 7.72375,-4.77225 10.71085,-8.03315 l -9.372,-11.51417 c -9.58674,-5.74157 -18.07262,-6.52929 -26.2416,-5.89097 -7.92629,-5.46228 -15.52115,-11.256 -24.09944,-16.06629 -4.28434,-1.55983 -8.56868,-7.69055 -12.85303,-11.78195 l -9.90754,-12.04971" style="fill:none;fill-rule:evenodd;stroke:#ffffff;stroke-width:3;stroke-linecap:butt;stroke-linejoin:round;stroke-miterlimit:4;stroke-dasharray:none;stroke-opacity:1" id="utilitarian-real_outcome-2020--path1907"></path>
    <path d="m 344.04311,735.80616 -6.06041,3.24664 c -1.48336,0.10389 -2.68427,0.49023 -3.24665,1.5151 -1.78085,0.99528 -3.83627,1.90818 -6.27685,2.70554 l -6.81796,0.32467 -2.27265,-1.73155 c -1.36838,-0.0264 -2.81827,-0.37878 -4.0042,0.32467 l -24.65612,-1.05746 -0.65216,-0.68329 -12.89393,0.87497 -16.79273,9.14933 -0.41449,1.00794 -6.27685,3.37043 c -0.77799,1.68109 -1.86573,1.50364 -2.92199,1.5151 -3.79936,1.07835 -5.64931,2.8065 -7.79194,4.43708 -2.47278,0.69121 -3.21171,0.082 -4.65353,10e-6 -0.7127,-1.05493 -1.84069,-1.69456 -2.81377,-2.4891 -2.56124,0.2843 -5.12249,-1.91122 -7.68373,-2.92198 -3.2863,-0.0397 -5.94801,0.54529 -7.79195,1.94799 -2.59732,1.69596 -3.66056,-0.30982 -5.73574,-0.32467 -4.77349,-0.036 -7.85107,-0.52881 -10.93038,-2.81376 -1.8983,-1.63513 -2.82675,-0.68397 -3.89597,-0.10822" style="fill:none;fill-rule:evenodd;stroke:#ffffff;stroke-width:3;stroke-linecap:butt;stroke-linejoin:round;stroke-miterlimit:4;stroke-dasharray:none;stroke-opacity:1" id="utilitarian-real_outcome-2020--path4713"></path>
    <path d="m 556.4554,1316.1017 c -0.84386,-0.2333 -1.41486,0.1336 -2.71646,-1.1067 -1.8871,-2.0403 -3.05123,-4.8036 -4.36166,-7.4206 -1.95282,-0.8271 0.26629,-2.1663 -1.47181,-3.0902 -1.7381,-0.9238 -0.64643,-1.8976 -0.77965,-2.8702 -0.56845,-2.5517 -1.56611,-4.7967 -2.84418,-6.8415 l -19.8201,-2.8171 c 0.93416,-1.621 8.64747,-0.7367 13.78352,-0.8048 1.41772,0.8512 2.80825,1.2673 4.125,0.503 -0.73737,-3.9168 -4.71579,-7.329 -6.2378,-11.1677 -1.41953,0.3689 -3.03073,0.6737 -4.96271,0 -1.93199,-0.6736 -3.50031,-0.1127 -5.25047,0 1.07054,-0.8053 2.13261,-1.6122 2.1128,-2.6158 -0.40845,-1.8401 -2.39248,-3.4883 -3.67095,-5.2317 l 6.94468,5.7754 c 1.87804,-0.731 3.45165,-0.9044 5.3297,-0.7449 0.30987,0.1239 -1.68545,-5.9779 -2.51524,-5.8354 -2.04361,0.351 -5.21234,-1.6638 -4.52744,-2.3411 1.42138,0.099 3.02702,0.7572 4.00249,0 -0.75158,-3.2604 -3.80274,-6.7241 -4.80736,-10.0365 -1.19128,0.1149 -2.9401,1.4842 -3.01829,-0.9055 0.78637,-0.6446 1.26972,-1.3398 0.84554,-2.1863 -1.22926,-0.5028 -1.74697,-1.7172 -2.51524,-2.681 -1.95443,1.243 -3.62109,-1.0753 -7.30906,-1.6097 1.88009,-0.2222 3.43913,-0.8316 4.5191,-1.3434 -0.89316,-0.51 -2.13211,-0.7686 -1.97936,-2.0393 0.61123,-1.1664 1.21136,-2.0043 2.61585,-2.9177 -2.42611,-2.9184 -4.08501,-4.4287 -5.63414,-7.0427 -0.90782,0.7145 -1.80778,1.5076 -2.61585,3.2196 l -1.24536,-2.8661 c 0.74195,-0.1846 1.59717,-0.2206 2.15085,-1.1583 0.40463,-2.4471 -0.0283,-3.3031 -1.11067,-3.5823 -1.78054,-0.4595 -1.98151,-3.4147 -0.007,-4.8528 -0.96836,-1.1798 -0.97108,-2.7782 -0.97054,-3.9581 -0.80403,-0.7555 -1.00975,-1.7503 -1.33254,-2.6983 -1.48334,-0.2866 -2.42601,0.1026 -2.69196,1.3377 -2.41463,-2.1986 -4.7912,-0.8792 -7.24389,0 0.93124,-1.1573 1.88749,-2.2353 7.92627,-2.8906 0.72525,-0.2848 -0.10449,-3.56 -1.71297,-8.005 -1.51012,-0.6475 -2.07601,1.8075 -2.93123,3.3118 0.42815,-1.2589 1.0603,-3.0462 -0.0871,-3.7142 -0.98854,0.3755 -2.32578,1.2049 -3.10419,0.1937 -0.79693,-1.0354 -1.7266,-0.476 -2.62795,-0.2646 -0.89856,-2.5376 -2.6809,-4.928 -4.1276,-7.3742 -0.81953,0.8545 -2.40774,0.5559 -3.79606,0.5572 l -0.21738,-7.4341 c -3.37003,-6.5255 -6.53259,-12.9073 -10.08546,-19.2081 l 5.1608,-3.0892 -5.04664,-8.0514 -1.05771,0.8049 c -0.56834,-1.83 -1.24235,-2.3921 -1.90897,-3.0428 l 0.79393,-0.8158 c -0.94096,-0.5673 -1.79765,-2.1478 -2.34604,-3.402 -0.69294,-1.6028 -1.88515,-1.6663 -2.31568,-2.9326 -0.91731,-2.0517 -1.50637,-2.6432 -2.92466,-4.194 l -1.40854,0.9055 c 0.28389,-1.5289 0.32874,-3.1175 -0.19601,-4.8486 -1.25198,-0.923 -2.10596,0.1471 -2.58822,-0.2934 -1.47647,-0.9117 -1.15684,-1.5889 -1.68899,-2.6894 l -0.45665,-5.0466 c -1.28343,-4.0974 -2.56593,-5.0372 -3.47234,-8.9788 -1.31686,-3.583 -2.08755,-4.59 -3.18977,-7.006 -2.23274,-4.894 -4.19618,-8.9911 -5.34015,-7.9442 -0.17945,-3.0812 -1.54662,-4.4112 -2.78735,-6.1153 -2.22584,-3.4044 -3.77023,-4.935 -5.63437,-7.3448 l -5.63391,-7.3442 c -0.78806,0.067 -0.98096,-0.013 -0.92999,2.7626 -0.71608,0.072 -1.31978,-1.2106 -2.06146,-2.6539 0.14436,-0.9932 0.89064,-1.4631 1.78413,-1.8571 -2.51274,-2.3811 -3.3763,-4.7622 -4.62804,-7.1433 0.57071,-1.5523 10.32845,-3.542 15.89632,-5.3323 4.39329,-0.5882 8.78657,-0.6276 13.17986,-2.7164 4.12571,-0.7526 11.6796,0.6763 18.61278,1.7103 1.36259,-0.2074 1.7547,-0.9001 1.50914,-1.9116 l -11.97254,-19.2164 c 1.78234,-1.3716 3.91969,-2.4946 8.3506,-2.0122 6.55843,-4.4914 11.63072,-10.7662 16.90211,-16.8021 l 17.10394,-17.0027 c 6.76014,5.804 17.83878,11.8711 19.21644,15.3933 l 10.4634,-1.4086 c 0.61459,-5.6195 -0.14426,-18.1008 5.43292,-19.6189 l 3.11889,-0.4024 c 5.61456,-5.3961 2.6305,-10.4266 3.21951,-15.7957 0.53265,-5.10067 3.98285,-7.28378 8.52004,-8.37991 0.78533,-3.50477 2.26542,-5.62003 4.65982,-5.90667" style="fill:none;fill-rule:evenodd;stroke:#ffffff;stroke-width:3;stroke-linecap:butt;stroke-linejoin:round;stroke-miterlimit:4;stroke-dasharray:none;stroke-opacity:1" id="utilitarian-real_outcome-2020--path4780"></path>
    <path d="M 448.51317,1083.5903 433.8344,1069.507 c -2.32568,-1.0628 -3.57777,-3.0251 -4.73713,-4.921 -1.84656,-0.7399 -3.68016,-1.5252 -5.69202,-1.6866 0.27687,5.9613 -2.66337,10.9545 -6.92281,15.9285 l -5.37781,6.2012 c -5.41567,3.4858 -11.67477,6.6025 -18.2643,8.8184 -1.42255,-0.1332 -5.03642,-3.1985 -6.43203,-3.4017 -0.42722,-0.062 -3.88919,-0.1079 -3.88919,-0.1079 l -0.032,1.7315 -2.21904,-0.049 c -1.31808,0.7834 -1.07689,1.9566 -1.09121,3.066 -2.44646,-0.4691 -4.89292,-0.5808 -7.33938,-0.5397 -1.10031,-0.4202 -1.89146,-0.6859 -3.7849,-1.5028 0.0117,0.8279 0.61501,1.4687 0.68689,2.7221 -1.37533,2.8669 -2.82793,5.3801 -3.27823,7.7794 l -3.88919,-2.2785 h -2.37451 l 0.0119,-2.8703 -8.39032,0.4162 c -0.93391,-1.4799 -0.6815,-3.553 -0.99977,-5.3408 -2.31073,-0.7163 -4.75109,-1.9511 -7.23145,-3.3459 l -0.84696,1.8101 c -0.42222,0.6207 -1.01913,0.9943 -2.65309,0.1855 -1.31351,-0.2353 -13.66549,-5.2754 -22.7796,-8.3672 l -1.68302,0.7829 c -6.432,-3.6355 -12.7407,-5.4217 -19.09573,-7.9028 -0.83599,0.7576 -1.05,2.2408 -1.40312,3.5618 -0.87026,-0.7046 -1.77958,-1.5507 -2.33886,-1.5669" style="fill:none;fill-rule:evenodd;stroke:#ffffff;stroke-width:3;stroke-linecap:butt;stroke-linejoin:round;stroke-miterlimit:4;stroke-dasharray:none;stroke-opacity:1" id="utilitarian-real_outcome-2020--path5667"></path>
    <path d="m 515.40109,557.76437 -40.99283,0.17032 -7.34312,1.53533 c -1.05346,-5.66045 -3.82996,-3.16719 -3.47086,0.91 -7.80891,3.24165 -16.71466,7.89249 -21.17177,8.82723 -4.46893,0.93721 -43.05581,16.68371 -43.05581,16.68371 -2.96628,-3.37238 -5.77855,-0.88802 -6.03172,2.44651 -3.96445,2.17044 -7.6933,3.81081 -11.04863,4.61074 -5.23226,0.7632 -8.26235,-0.57738 -7.00008,4.32487 -3.24204,2.56496 -7.0461,4.2307 -11.04625,5.58269 -1.67743,-1.85703 -3.58371,-3.54002 -5.40996,-3.01586 -1.86934,-4.89474 -6.71973,-6.85763 -6.26161,1.87717 -0.40355,2.56205 -1.83935,5.1241 0,7.68615 -2.681,0.83367 -3.60471,3.45344 -7.97608,4.63969 -3.05511,0.82907 -4.92663,3.53511 -7.98417,4.59644 -2.03533,-0.18317 -4.93177,-0.0856 -6.2416,0.84885 -1.24486,0.8881 -2.52239,0.77095 -3.0256,-0.29654 -6.19618,-13.14437 -8.91459,-1.80337 -8.93324,1.02911 0.0795,2.7975 0.92529,5.44594 -2.84434,7.79931 -2.19507,1.93767 0.45796,2.12877 0.45142,3.58878 -5.43809,4.35099 -8.92494,6.09638 -14.61834,10.69607 -5.18899,4.19217 -7.5894,-5.63537 -12.09203,-1.63776 -1.58916,1.23149 -1.99292,2.01012 -0.81123,4.41524 0.51699,4.43912 -1.51633,5.8901 -3.52079,7.53742 l -39.09899,32.79093 c -6.94891,-0.3222 -8.31517,3.6072 -8.938,8.2555 -2.77285,4.03941 -5.25669,8.03753 -9.03567,12.22067 -3.08544,2.69547 -5.42542,5.75156 -6.3847,9.66197 -1.94381,2.97991 -4.19056,6.04941 -6.46637,8.72807 -1.64114,1.93164 -3.96494,3.84296 -4.98681,5.82736 -0.9045,5.30977 -3.04305,10.36008 -6.94649,14.5183 -4.73153,5.04037 -4.77001,8.2441 -3.41606,11.3869 -1.0761,3.79544 -4.5269,7.99961 -6.83333,11.44406 l -8.76768,8.08398 c -4.33294,-0.69505 -6.89999,3.97122 -9.39419,5.46715 0,0 -25.33167,20.16382 -26.36495,25.11907 -4.07734,19.55349 -6.6171,30.17487 -9.84443,45.82035 -1.52981,7.38913 1.13869,13.94895 1.13869,13.94895 0,0 4.14056,9.34417 5.18128,15.43068 1.25213,7.32286 1.01868,9.68064 -3.19096,13.83221 -2.94176,2.90119 -7.9527,6.04742 -11.95467,5.77369 -6.5085,-0.44519 -5.28379,3.15869 -5.8646,5.45879 l -1.82312,7.3296 -69.173017,13.94895 c -3.56656,1.32258 -7.33547,1.56595 -10.48286,5.1241 h -3.34579 c -4.32014,-3.95057 -7.23994,-1.61375 -10.25416,-0.0548 l -9.167885,-0.004" style="fill:none;fill-rule:evenodd;stroke:#ffffff;stroke-width:3;stroke-linecap:butt;stroke-linejoin:round;stroke-miterlimit:4;stroke-dasharray:none;stroke-opacity:1" id="utilitarian-real_outcome-2020--path7439"></path>
    <path d="m 42.879933,932.5528 45.72786,29.61559 c -1.55421,8.68805 8.03144,12.92366 14.754227,14.1847 5.8896,3.38876 10.0982,7.18677 15.94686,14.99764 5.83917,7.05399 9.74023,1.9646 13.37175,0.43326 l -9.30233,28.47651" style="fill:none;fill-rule:evenodd;stroke:#ffffff;stroke-width:3;stroke-linecap:butt;stroke-linejoin:round;stroke-miterlimit:4;stroke-dasharray:none;stroke-opacity:1" id="utilitarian-real_outcome-2020--path9211"></path>
  </g>
  <g id="utilitarian-real_outcome-2020--river">
    <path d="M 147.59823,475.32528 C 147.35247,503.47496 161.01615,525.5651 186.29651,536.46969 C 190.98374,538.48601 199.66675,544.66755 209.15614,558.46997 C 213.73269,565.12661 214.97266,574.34221 222.77503,583.02406 C 237.61821,597.51487 250.90782,604.11253 272.36118,608.76053 C 296.16222,613.90225 331.72477,642.49719 332.53423,690.17046 C 332.83169,707.66418 338.99735,727.70191 348.01013,742.86389 C 353.19557,751.58721 358.98615,761.32276 365.30268,773.30297 C 370.45681,782.828 377.42185,790.69974 386.32761,797.62749 C 394.42189,804.8443 401.82979,812.37213 407.79169,821.01346 C 412.93027,826.83134 421.53283,841.42749 428.80397,857.04227 C 431.86604,863.61805 442.27976,887.75616 469.63197,895.26741 C 481.21855,898.44923 485.11712,897.40412 492.73629,896.6573 C 495.27193,896.40876 499.6771,896.30442 503.26531,896.70959 C 515.28318,898.06662 527.13453,901.80492 538.69707,910.3109 C 554.33421,923.38539 565.85445,942.65995 565.04565,966.58432 C 564.5065,981.34438 566.6092,990.13663 571.49181,1003.1259 C 578.9013,1022.8375 591.43107,1038.2132 606.88626,1049.7676 C 622.08445,1058.9139 651.15225,1071.4292 655.79414,1114.5415 C 657.3102,1131.0743 669.25428,1145.6986 680.52398,1150.3051 C 691.94772,1154.9747 702.73518,1163.4554 705.4108,1177.9518" style="opacity:1;display:inline;fill:none;fill-rule:evenodd;stroke:#38afcd;stroke-width:10;stroke-linecap:round;stroke-linejoin:round;stroke-miterlimit:4;stroke-dasharray:none;stroke-opacity:1" id="utilitarian-real_outcome-2020--river-path" transform="translate(30.7708,-317.1503)"></path>
  </g>
  <g transform="translate(-52.37206,-18.03387)" id="utilitarian-real_outcome-2020--textlayer">
    <text x="407.05054" y="188.5731" style="font: 40px / 100% Roboto, system-ui; text-align: center; writing-mode: lr-tb; text-anchor: middle; fill: black; fill-opacity: 1; stroke: none; stroke-width: 1px; stroke-linecap: butt; stroke-linejoin: miter; stroke-opacity: 1;" id="utilitarian-real_outcome-2020--text-bialoleka">17%</text>
    <text x="223.91914" y="320.92502" style="font: 40px / 100% Roboto, system-ui; text-align: center; writing-mode: lr-tb; text-anchor: middle; fill: black; fill-opacity: 1; stroke: none; stroke-width: 1px; stroke-linecap: butt; stroke-linejoin: miter; stroke-opacity: 1;" id="utilitarian-real_outcome-2020--text-bielany">17%</text>
    <text x="189.71121" y="465.43716" style="font: 40px / 100% Roboto, system-ui; text-align: center; writing-mode: lr-tb; text-anchor: middle; fill: black; fill-opacity: 1; stroke: none; stroke-width: 1px; stroke-linecap: butt; stroke-linejoin: miter; stroke-opacity: 1;" id="utilitarian-real_outcome-2020--text-bemowo">32%</text>
    <text x="123.50076" y="692.00769" style="font: 40px / 100% Roboto, system-ui; text-align: center; writing-mode: lr-tb; text-anchor: middle; fill: black; fill-opacity: 1; stroke: none; stroke-width: 1px; stroke-linecap: butt; stroke-linejoin: miter; stroke-opacity: 1;" id="utilitarian-real_outcome-2020--text-ursus">29%</text>
    <text x="284.99829" y="760.12042" style="font: 40px / 100% Roboto, system-ui; text-align: center; writing-mode: lr-tb; text-anchor: middle; fill: black; fill-opacity: 1; stroke: none; stroke-width: 1px; stroke-linecap: butt; stroke-linejoin: miter; stroke-opacity: 1;" id="utilitarian-real_outcome-2020--text-wlochy">34%</text>
    <text x="474.71588" y="916.01855" style="font: 40px / 100% Roboto, system-ui; text-align: center; writing-mode: lr-tb; text-anchor: middle; fill: black; fill-opacity: 1; stroke: none; stroke-width: 1px; stroke-linecap: butt; stroke-linejoin: miter; stroke-opacity: 1;" id="utilitarian-real_outcome-2020--text-ursynow">21%</text>
    <text x="505.81287" y="708.99341" style="font: 40px / 100% Roboto, system-ui; text-align: center; writing-mode: lr-tb; text-anchor: middle; fill: black; fill-opacity: 1; stroke: none; stroke-width: 1px; stroke-linecap: butt; stroke-linejoin: miter; stroke-opacity: 1;" id="utilitarian-real_outcome-2020--text-mokotow">15%</text>
    <text x="337.23441" y="642.06616" style="font: 40px / 100% Roboto, system-ui; text-align: center; writing-mode: lr-tb; text-anchor: middle; fill: black; fill-opacity: 1; stroke: none; stroke-width: 1px; stroke-linecap: butt; stroke-linejoin: miter; stroke-opacity: 1;" id="utilitarian-real_outcome-2020--text-ochota">22%</text>
    <text x="307.54752" y="544.80511" style="font: 40px / 100% Roboto, system-ui; text-align: center; writing-mode: lr-tb; text-anchor: middle; fill: black; fill-opacity: 1; stroke: none; stroke-width: 1px; stroke-linecap: butt; stroke-linejoin: miter; stroke-opacity: 1;" id="utilitarian-real_outcome-2020--text-wola">16%</text>
    <text x="365.85422" y="420.46362" style="font: 40px / 100% Roboto, system-ui; text-align: center; writing-mode: lr-tb; text-anchor: middle; fill: black; fill-opacity: 1; stroke: none; stroke-width: 1px; stroke-linecap: butt; stroke-linejoin: miter; stroke-opacity: 1;" id="utilitarian-real_outcome-2020--text-zoliborz">33%</text>
    <text x="446.80307" y="543.05688" style="font: 40px / 100% Roboto, system-ui; text-align: center; writing-mode: lr-tb; text-anchor: middle; fill: black; fill-opacity: 1; stroke: none; stroke-width: 1px; stroke-linecap: butt; stroke-linejoin: miter; stroke-opacity: 1;" id="utilitarian-real_outcome-2020--text-srodmiescie">28%</text>
    <text x="475.45255" y="445.67783" style="font: 40px / 100% Roboto, system-ui; text-align: center; writing-mode: lr-tb; text-anchor: middle; fill: black; fill-opacity: 1; stroke: none; stroke-width: 1px; stroke-linecap: butt; stroke-linejoin: miter; stroke-opacity: 1;" id="utilitarian-real_outcome-2020--text-praga-polnoc">30%</text>
    <text x="550.03656" y="365.04279" style="font: 40px / 100% Roboto, system-ui; text-align: center; writing-mode: lr-tb; text-anchor: middle; fill: black; fill-opacity: 1; stroke: none; stroke-width: 1px; stroke-linecap: butt; stroke-linejoin: miter; stroke-opacity: 1;" id="utilitarian-real_outcome-2020--text-targowek">27%</text>
    <text x="602.35425" y="530.58246" style="font: 40px / 100% Roboto, system-ui; text-align: center; writing-mode: lr-tb; text-anchor: middle; fill: black; fill-opacity: 1; stroke: none; stroke-width: 1px; stroke-linecap: butt; stroke-linejoin: miter; stroke-opacity: 1;" id="utilitarian-real_outcome-2020--text-praga-poludnie">18%</text>
    <text x="752.86139" y="440.26016" style="font: 40px / 100% Roboto, system-ui; text-align: center; writing-mode: lr-tb; text-anchor: middle; fill: black; fill-opacity: 1; stroke: none; stroke-width: 1px; stroke-linecap: butt; stroke-linejoin: miter; stroke-opacity: 1;" id="utilitarian-real_outcome-2020--text-rembertow">32%</text>
    <text x="811.9848" y="696.30811" style="font: 40px / 100% Roboto, system-ui; text-align: center; writing-mode: lr-tb; text-anchor: middle; fill: black; fill-opacity: 1; stroke: none; stroke-width: 1px; stroke-linecap: butt; stroke-linejoin: miter; stroke-opacity: 1;" id="utilitarian-real_outcome-2020--text-wawer">16%</text>
    <text x="910" y="510" style="font: 40px / 100% Roboto, system-ui; text-align: center; writing-mode: lr-tb; text-anchor: middle; fill: black; fill-opacity: 1; stroke: none; stroke-width: 1px; stroke-linecap: butt; stroke-linejoin: miter; stroke-opacity: 1;" id="utilitarian-real_outcome-2020--text-wesola">35%</text>
    <text x="652.06073" y="862.15051" style="font: 40px / 100% Roboto, system-ui; text-align: center; writing-mode: lr-tb; text-anchor: middle; fill: black; fill-opacity: 1; stroke: none; stroke-width: 1px; stroke-linecap: butt; stroke-linejoin: miter; stroke-opacity: 1;" id="utilitarian-real_outcome-2020--text-wilanow">42%</text>
  </g>
</svg>